<?xml version="1.0" encoding="UTF-8"?>
<svg width="77.327mm" height="11.758mm" version="1.1" viewBox="0 0 77.327 11.758" xml:space="preserve" xmlns="http://www.w3.org/2000/svg" xmlns:xlink="http://www.w3.org/1999/xlink"><g transform="matrix(.26458 0 0 .26458 134.58 -118.01)" stroke-width="1.2344"><path class="wordmark-text-0" d="m-480.14 446.45h5.4316v42.959h-5.4316l-23.084-33.145v33.145h-5.4316v-42.959h5.4316l23.084 33.145zm37.218 43.699c-5.1847 0-9.2089-1.6583-12.073-4.9748-2.8557-3.3083-4.2835-7.8223-4.2835-13.542v-25.183h5.4316v24.998c0 4.1971 0.93406 7.5177 2.8022 9.9619 1.8764 2.4525 4.5839 3.6787 8.1226 3.6787 3.5387 0 6.2422-1.2262 8.1103-3.6787 1.8764-2.4442 2.8145-5.7648 2.8145-9.9619v-24.998h5.4316v25.183c0 5.7196-1.432 10.234-4.2959 13.542-2.8557 3.3165-6.8758 4.9748-12.061 4.9748z" fill="#163172" data-fill-palette-color="primary"/><path class="wordmark-text-0" d="m-386.45 446.77h5.4439l-15.739 42.959h-6.7894l-15.739-42.959h5.7402l13.579 36.972zm31.355 43.699c-4.156 0-7.7029-0.9258-10.641-2.7775-2.9462-1.8517-5.1888-4.444-6.7277-7.777-1.5472-3.333-2.3208-7.2215-2.3208-11.666s0.77358-8.3325 2.3208-11.666c1.5389-3.333 3.7815-5.9253 6.7277-7.777 2.938-1.8517 6.4849-2.7775 10.641-2.7775s7.707 0.9258 10.653 2.7775c2.938 1.8517 5.1806 4.444 6.7277 7.777 1.5389 3.333 2.3084 7.2215 2.3084 11.666s-0.76947 8.3325-2.3084 11.666c-1.5472 3.333-3.7897 5.9253-6.7277 7.777-2.9462 1.8517-6.4973 2.7775-10.653 2.7775zm0-4.9378c4.6086 0 8.065-1.5554 10.369-4.6662 2.3043-3.1025 3.4564-7.3079 3.4564-12.616s-1.1522-9.5175-3.4564-12.628c-2.3043-3.1026-5.7607-4.6539-10.369-4.6539s-8.065 1.5513-10.369 4.6539c-2.3043 3.1108-3.4564 7.3202-3.4564 12.628s1.1521 9.5135 3.4564 12.616c2.3043 3.1108 5.7607 4.6662 10.369 4.6662zm63.389 4.1971h-6.4808l-12.098-17.652-11.912 17.652h-6.1722l14.998-22.158-14.258-20.8h6.4808l11.357 16.542 11.172-16.542h6.1722l-14.258 21.047zm36.601-37.774h-20.183v13.579h18.825v4.9378h-18.825v14.073h20.183v5.1846h-25.615v-42.959h25.615zm13.887 37.774v-42.959h5.4316v37.774h19.381v5.1846z" fill="#3a81c3" data-fill-palette-color="primary"/></g></svg>
