<?xml version="1.0" encoding="UTF-8"?>
<svg width="25.764mm" height="14.1mm" version="1.1" viewBox="0 0 25.764 14.1" xml:space="preserve" xmlns="http://www.w3.org/2000/svg" xmlns:xlink="http://www.w3.org/1999/xlink"><defs><clipPath id="b"><path transform="translate(-207.05 -115.07)" d="m0 148.66h368v-148.66h-368z"/></clipPath><clipPath id="a"><path transform="translate(-241.69 -110.82)" d="m0 148.66h368v-148.66h-368z"/></clipPath></defs><g transform="matrix(.26458 0 0 .26458 135.17 -46.151)"><g transform="matrix(.56426 0 0 .56426 -205.32 -97.542)"><path transform="matrix(1.3333 0 0 -1.3333 -424.47 501.91)" d="m0 0c-1.759 2.892-3.5 4.493-3.951 4.889-6.27 6.202-14.925 10.048-24.444 10.046-5.945 1e-3 -11.568-1.5-16.467-4.142-3.893-2.098-7.325-4.92-10.146-8.275-2.72 1.078-5.684 1.69-8.787 1.689-6.607 1e-3 -12.626-2.689-16.952-7.021-4.332-4.326-7.023-10.344-7.02-16.951-3e-3 -6.607 2.688-12.625 7.02-16.95 4.235-4.242 10.096-6.905 16.54-7.011l-0.914-6.869 11.682 8.926-8.943 11.667-0.782-5.881c-0.207 0.033-0.415 0.063-0.631 0.063-4.446 3e-3 -8.434 1.791-11.352 4.703-2.913 2.917-4.701 6.906-4.703 11.352 2e-3 4.446 1.79 8.434 4.703 11.352 2.918 2.912 6.906 4.7 11.352 4.702 2.917-1e-3 5.624-0.784 7.996-2.15l3.171-1.828 2.07 3.019c2.422 3.528 5.668 6.455 9.452 8.493 3.785 2.038 8.099 3.193 12.711 3.194 7.43-2e-3 14.121-3 18.994-7.868l0.122-0.121 0.103-0.087 6e-3 -6e-3c0.117-0.101 1.42-1.302 2.645-3.455 1.228-2.163 2.398-5.231 2.402-9.33-1e-3 -1.824-0.235-3.865-0.83-6.145-0.17-0.526-1.203-3.324-3.248-5.804-1.074-1.313-2.401-2.532-3.989-3.407-1.597-0.873-3.448-1.446-5.847-1.452-0.936 0-1.958 0.091-3.081 0.304-2.148 0.406-4.219-1.006-4.626-3.154-0.406-2.148 1.006-4.219 3.153-4.626 1.579-0.299 3.1-0.442 4.554-0.442 3.915-7e-3 7.329 1.061 10.057 2.657 2.051 1.193 3.729 2.66 5.089 4.16 2.042 2.254 3.387 4.58 4.254 6.369 0.866 1.792 1.248 3.054 1.296 3.209l0.018 0.062 0.016 0.063c0.772 2.933 1.102 5.681 1.102 8.206 4e-3 6.025-1.887 10.721-3.795 13.85" clip-path="url(#b)" fill="#3a81c3"/><path transform="matrix(1.3333 0 0 -1.3333 -378.28 507.58)" d="m0 0c-4.077 4.082-9.656 6.705-15.815 6.993l0.837 6.295-11.681-8.927 8.942-11.666 0.852 6.405c4.411-0.026 8.367-1.806 11.266-4.698 2.911-2.919 4.7-6.907 4.702-11.353-2e-3 -4.445-1.791-8.434-4.702-11.352-2.919-2.911-6.907-4.7-11.353-4.702-2.916 1e-3 -5.623 0.785-7.996 2.151l-3.172 1.827-2.069-3.018c-2.421-3.529-5.667-6.455-9.451-8.493-3.785-2.039-8.098-3.193-12.713-3.195-7.428 2e-3 -14.12 3.001-18.992 7.868l-0.121 0.12-0.109 0.092-2e-3 2e-3c-0.116 0.101-1.42 1.302-2.645 3.455-1.228 2.164-2.398 5.232-2.402 9.331 1e-3 1.824 0.236 3.864 0.83 6.143 0.169 0.525 1.203 3.325 3.249 5.806 1.073 1.312 2.4 2.531 3.988 3.406 1.598 0.874 3.448 1.447 5.848 1.453 0.936 0 1.957-0.091 3.079-0.303 2.148-0.408 4.219 1.004 4.626 3.152 0.407 2.147-1.003 4.219-3.151 4.625-1.58 0.301-3.101 0.444-4.554 0.444-3.916 8e-3 -7.329-1.061-10.057-2.657-2.052-1.193-3.73-2.661-5.09-4.161-2.042-2.253-3.387-4.58-4.254-6.37-0.866-1.791-1.248-3.053-1.296-3.208l-0.018-0.063-0.016-0.062c-0.771-2.932-1.101-5.68-1.101-8.205-5e-3 -6.025 1.887-10.721 3.794-13.851 1.751-2.88 3.486-4.481 3.948-4.885 6.269-6.205 14.928-10.051 24.446-10.049 5.946-1e-3 11.569 1.5 16.468 4.142 3.893 2.097 7.325 4.92 10.146 8.275 2.719-1.079 5.685-1.69 8.787-1.689 6.607-2e-3 12.625 2.689 16.952 7.021 4.332 4.325 7.022 10.343 7.021 16.95 1e-3 6.608-2.689 12.626-7.021 16.951" clip-path="url(#a)" fill="#a0ce67"/></g></g></svg>
