<svg xmlns="http://www.w3.org/2000/svg" viewBox="0 0 50 50">
  <path fill="#092F57" d="M18.677 21.31l.023-.022v-.111c-.111.033-.31 0-.255.178a.56.56 0 0 0 .232-.045m.73-4.958v-.034c-.1.023-.221 0-.287.034l.022.044-.033.01zm-.055.778c.044-.01.01-.111.033-.133-.111.033-.188 0-.287.033l-.023.122c.09.01.188-.022.277-.033m-.376 1.445l.321-.033v-.156l-.299.045c-.044.033.022.11-.022.133m-.177 2.068h.111c.077 0 0-.11.044-.144h-.1c-.088.055-.254.033-.254.166.077 0 .144 0 .199-.022m.44-1.6c-.109 0-.22.033-.308.022l-.022.145.31-.022zm-.098.701c-.111.033-.266.022-.365.077v.09l-.022-.001v.067l.354-.078zm-.078-1.913l.288-.033.01-.045c.034-.133-.242-.055-.32-.033 0 .022-.011.1.022.111m.332-1.834l-.276.044v.067l.276-.033zm-.619 5.192l-.033.144c.077 0 .188-.033.276-.01.044-.034.155-.09.122-.167-.111.01-.266 0-.365.033m.553-1.468c-.078.023-.01.111-.044.145.066-.045.199-.034.143-.156h-.1m-.22.756c.043.034-.035.11-.024.145.078-.056.244 0 .211-.156h-.177m.287-1.3l.144-.023-.01-.067c-.067-.066-.155-.022-.133.089m.431-2.19l-.265.033c0 .023 0 .045-.022.056l-.01.078.287-.056zm-.077.79c.01-.055-.033-.09-.077-.1-.056.023-.188.023-.155.123zm-.111.667c0-.088-.1-.033-.143-.044v.11c.044-.032.132 0 .154-.054m-1.26 4.946c-1.437.167-4.566.334-6.014.223-.034.01.033.19.033.21 1.437 0 4.555-.077 5.981-.333zm-8.436-3.891c.044.078.575.155.575.155l.2.012s.22.044.298.022c-.022-.022-.022-.111-.022-.134l-.752-.089s-.221-.055-.299 0c0 0 .022.023 0 .045m1.847 3.002l-.034-.145c-.1-.133-.995-.11-1.216-.11 0 0 .056.177.045.188.243.001 1.072.001 1.205.068m-.586-2.135c-.034-.044-.034-.111-.056-.167-.11-.033-1.061-.077-1.061-.077l.044.177s.95.078 1.073.067m-.177 1.368h.154c.11 0 .221.044.33.011v-.111h-.065l-.465-.056a3.517 3.517 0 0 0-.598-.033l.023.1c.221 0 .398.111.608.089m25.384 19.345s-1.05.2-2.023.034a5.655 5.655 0 0 0-1.382.01c0 .045.044.08.044.112.078.033.144.022.22.022-.087.122-.054.2-.186.31-.2.18-.553.08-.664.068-.22-.044-.365-.29-.365-.333.144-.045.277-.1.443-.112v-.089c-.188-.022-.42-.022-.61-.066v-.045c.145-.022.665-.222.632-.267a6.606 6.606 0 0 0-.995.023c-.034.033 0 .078.01.111a.505.505 0 0 0 .222.022c-.056.045-.022.156-.1.178-.088.011-.221-.056-.309-.022l-.818-.11c-.144 0-.288.01-.42-.024v-.133c.221-.2.53-.2.818-.234.486-.065-.454-.176-.597-.365l-.012-.078c.465-.423 1.394-.1 1.957-.278.045-.067.277-.067.255-.1-.51-.078-1.338-.1-1.858-.145-.044-.055-.143-.044-.154-.133.552-.155 1.094-.122 1.658-.222.022-.044 1.227-.033 1.216-.111-.033-.066-1.161-.066-1.216-.11-.332 0-1.548.1-1.692-.379.376-.156.74-.067 1.128-.056.265 0 .72-.11.94-.055 0-.067.984.022.973-.034-.299-.066-1.659-.155-1.968-.19-.465-.032-.885-.265-1.338-.288-.043-.022-.054-.066-.065-.111-.01-.055.077-.055.077-.11.64-.08 1.625.444 2.233.032.022-.033 1.106-.066 1.084-.09-.08 0-1.538-.154-1.693-.154-.298 0-.564-.067-.851-.089a13.301 13.301 0 0 1-1.15-.234.35.35 0 0 1-.1-.111c-.01-.033.001-.089.045-.067.995-.11.973.1 1.736.089.254 0 .608-.144.674-.133.365-.011.663-.022.785-.044-.619-.145-3.427-.223-3.273-.58.266-.088.586-.021.874-.043l.033-.033c.32.111.708.222 1.072.089.045-.078.21-.078.244-.156h.884c0-.056-.707-.11-.752-.145a1.352 1.352 0 0 0-.376-.044l-.022-.022c-.619-.056-1.326-.012-1.9-.267.176-.412 1.524-.067 1.867-.156.111-.055.166-.222.94-.133-1.437-.412-2.123-.19-2.443-.334.188-.222.508-.078.74-.133.144-.067.321-.034.465-.056.177-.011.22-.222 1.238-.178a.164.164 0 0 1-.066-.066s-1.338-.156-1.692-.178c.122-.423 1.791-.434 1.88-.434.01-.056-.023 0-.023-.067-.088-.022-1.304-.1-1.304-.1.088-.467 1.636-.556 1.835-.578-.774-.222-1.36.167-1.437-.167-.022-.066 0-.155.066-.178.807-.378 2.797-.133 3.085-.033.177.067.22.222.376.31l-1.802.09c-.022.034.917.078.962.089.31.045.641.011.961.067.222.033.465.334.664.456h-1.99c-.022.156 1.172.2 1.348.222.222 0 .432.156.631.156-.033.089-.045.21-.056.31l-1.547.057c-.266.167.807.078.818.133.154.089.354.167.53.223-.066.044-.11.19-.143.266-.177.034-.354 0-.53.034a.098.098 0 0 0 0 .111c.154.089.286.19.452.222.019.133.027.266.022.4l-.906-.022c-1.062.034-.818.112-.83.112.509.111.708.077 1.062.088.354.023.43.067.63.201 0 .122.022.144-.133.3-.331-.367-.552-.39-.663-.39-.022.112.243.3.166.434l-.85.078c.021.078.607.089.662.167l.343.078c.066.066.077.11.11.178.01.055.022.111-.022.166.044.045.155.034.155.145h-.52c-.021 0-.408 0-.386.011.034.011.398.078.409.11.1.035.188.057.288.068.19.033.266.19.432.222l.1.234-.752.11c-.022.068.43.045.442.1.254.08.464.168.619.39-.132.178-.376.089-.575.134-.74.077.022.077.044.11.2.034.487.067.664.156.022.078.155.067.077.267-.066.19-.74.134-.74.134.1.177.696.255.884.278.044.166.133.333.177.5-.144-.111-.962.044-1.15 0-.011.089.708.089.752.144.155.023.298.023.43.067zm-.774.578s-1.326.478-2.1.034c-.111-.056.022-.223.033-.334 0 0 1.327-.1 1.647-.1.332 0 1.062.067 1.062.067 0 .244-.653.333-.63.333m-4.312-.066c-.244-.023-.564.078-.774-.089l-.133-.134v-.089c.09-.044.31-.133.597-.122l.597.022c-.088.178-.11.267-.276.412m-4.268-1.524c0-.033.044-.055.033-.1.166-.133 1.161-.077 1.216-.278 0-.077-.022-.144-.11-.144-.398 0-.785-.033-1.183-.033 0-.656-.188-1.146-.398-1.779-.221-.667-.221-1.268-.111-1.935.288-.244.995-.2 1.35-.256.508-.077.994-.29 1.514-.29v.024c-.332-.034-.155 1.745-.033 1.967.243.757.884 1.424.774 2.28-.553.033-1.084.033-1.615.033a.197.197 0 0 0-.132.11c.154 0 .254.112.409.112.409-.022.807.078 1.216.089.11.312-2.51.2-2.93.2m-.254.545v-.022c.586 0 1.161-.144 1.77-.078.286-.022.596-.022.883 0-.707.59-1.879.067-2.653.1m1.216.723c-.51 0-1.017-.056-1.526-.11.476-.112 1.46-.357 1.924-.112.199-.034.398 0 .586 0-.332.077-.63.222-.984.222m-3.13-.467c.333.1.731.056 1.074.167-.166.044-.288.144-.443.244-.696.178-1.48.134-1.514-.31.11 0 .41-.179.486-.157v-.033l-1.183-.067c.01.045-.066.045-.088.056-.01.067.33.167.387.19 0 .132-.133.355-.222.455-.453-.078-.74.044-1.105-.3 0-.078 0-.09.11-.112h-.01c-.012-.144.619-.133.696-.144.033-.045 0-.111.033-.145-.254 0-.52-.033-.774-.011 0-.155.199-.055.299-.11-.045-.068 0-.134.01-.223l-.398-.023c-.033.045.033.089-.022.112-.023.055-.09.055-.09.111l.09.044c0 .145-1.029.011-1.427.034.122-.245.288-.4.72-.523.44-.111 1.923 0 1.923 0 .155 0 .928.134.984-.078 0 0-2.974-.033-3.03-.089-.1-.066-.31.089-.353-.089l-.045-.055c.045-.022.045-.078.045-.123.088-.11.409-.333.552-.3h.376c.09 0 .2.067.299.067.177 0 .376-.078.553-.089.464-.011.884-.033.862-.067l-.663-.044c-.222-.022-.443-.122-.664-.145-.143 0-.33.078-.442.067l-.663-.044v-.3c.11-.045.265-.134.41-.167.927.055.662-.123.84-.112.441.023 3.294.067 3.294.067.254.1.619.111.884.167.055.122.078.278.089.411l-.807.067c-.023.044.718.267.762.3.089.022.01.412.01.456-.154.011-.818.011-.95.067 0 .066.774.155.862.178l-.077.178-.266.3c-.33.022-1.315 0-1.47 0 0 .022-.033.033-.022.078l.088.044m-3.648.367c-.078-.09-.221-.111-.31-.156-.033-.033-.033-.078-.033-.11.298-.201.696-.112 1.05-.112.022.01.056 0 .1.044-.044.034-.111.467-.818.334m-.387-4.97c0-.067-.1-.044-.1-.11.078 0 .11-.034.188-.046.022.023.111.034.1.078.033 0 .066.034.11.067zm-.144-1.423a.515.515 0 0 1-.188-.133s.166-.112.553-.178c.729-.112 1.492-.2 2.266-.156.078-.11-1.028-.156-1.105-.156-.221 0-1.758.067-1.902-.11-.022-.056.077-.09.111-.112.066 0 .685-.056.707-.089 0 0 .962-.19 1.437-.156.553.39 1.14.957 1.747 1.246-.077.089-1.216-.067-1.393-.078l-.641-.034c-.243-.022-.51.034-.763.012-.276-.023-.52-.112-.83-.056m-.386-1.356c.53-.19.929-.312 1.48-.334.09.078.212.122.267.222.077.034.144.112.21.145-.564 0-1.172-.022-1.725.056-.033-.112-.177 0-.232-.089m.85-3.202c.045.077.19.1.19.222.11-.022.209.033.31-.033l-.233-.267c.276-.29 1.282-.167 1.658-.178h.851c.067.044.177 0 .22.078-.032.022.012.222.012.278l.056.001c-.664.133-1.35.111-2.012.155-.188 0-.376.022-.564.045-.3.055-1.161.31-1.404.111.12-.111.75-.5.917-.411m-1.106-.212c.022-.022 0-.044 0-.066.1-.078.2-.178.298-.245.111.044.221.122.332.2-.188.09-.442.022-.62.111m-.243-3.524a5.14 5.14 0 0 1 2.886-.867l.01-.045c.554 0 1.107-.067 1.66-.111 0 .056.055.033.066.078.066.111.044.222.055.344-.01.045-.033.078-.077.078l-1.69.145-.067-.045c-1.482-.111-2.643.512-2.842.423m-.187-.712c.088-.278 1.614-.633 1.614-.633 1.061-.245 2.1-.29 3.184-.378.155.044.077.233.1.366-.222.256-1.25.123-1.526.123-.376 0-.807-.056-1.15.111-.708.322-2.1.467-2.134.467 0-.045-.066-.033-.088-.056m-1.25-1.478v-.112l.74-.7-.021-.078c-.42.367-.807.756-1.183 1.168 0-.334.597-.8.83-.99.33-.389.773-.745 1.105-1.145.055.022.906-1.068 1.006-1.201.221-.278.442-.556.619-.856.11-.178.243-.51.442-.612 0 .045 0 .134-.055.134v-.011c-.21.556-.641 1.112-1.017 1.556.033 0-.022.056.033.056.022 0 .044-.022.077-.01.266-.29.553-.624.774-.946h.022c.111.278-.33.4-.354.6-.221.356-.541.701-.818 1.001-.685.778-1.437 1.467-2.211 2.146m-.332.622c-.043 0-.043-.033-.065-.067a.376.376 0 0 0 .177-.133c.022-.056 0-.111-.044-.156.01-.022.044-.055.066-.022-.022.056 0 .089.022.145 0 .022-.01.055.022.078-.01.077-.1.122-.177.155m-.696-.7c.155 0 .332-.023.475-.045-.066.123-.11.267-.166.389-2.045.445-4.146.323-6.191.145-.221-.1-.332-.289-.442-.467l1.492.156 2.676-.034c.697 0 1.393-.1 2.09-.144l.044-.111c-.022 0-.055 0-.067-.034-3.87.312-6.08.056-6.324.034-1.028-1.802-1.27-4.08-1.603-6.093l.111-.022v-.112h-.133l-.055-.556c.044-.022.11.045.11-.033v-.078h-.11c0-.166-.022-.41-.044-.567.044 0 .11.034.166.011 0 0-.222-.344-.255-.366-.022-.034.033-.256.033-.267.807.066 1.615.144 2.433.178.033.111.011.255.011.378-.133.089-.332.066-.51.077-.043.023-.02.089-.032.123.2.043.398.032.608.043.044.111.022.356.022.467l-.52.033-.033.123.553.078c-.022.077.1.355.111.467h-.597c0 .044-.033.077-.01.111.198.078.474.033.65.167.023.166.067.333.056.5-.2.033-.398 0-.608 0-.022.055.022.089.033.133l.597.067v.022l.011.022c0 .167.056.3.056.467-.166.045-.387-.033-.553.034-.022 0-.011.111 0 .133h.586c.022.156.022.378.099.534-.188.022-.375-.022-.552 0-.045.055.033.067.022.111.177.056.398.033.575.089-.011.09.055.334.088.445l-.033.022c-.166-.022-.343.033-.51 0 0 .044-.021.089 0 .144l.598.045c.022.033 0 .078.034.1.375 0 .773-.067 1.149-.022a26.63 26.63 0 0 0 2.886-.223s1.415-.222 1.548-.19c-.022-.054.044-.065.033-.11 0-.033-.044-.078-.088-.066-.111.022-.642.222-.73.166 0 0-.774.09-.874.056-.11-.156-.83-.022-.995-.01-.475 0-.961 0-1.448-.023l-1.327-.034-.033-.222c.564 0 1.128-.034 1.692-.056.597-.022 1.326 0 1.9-.144 0-.001 1.074-.146 1.129-.113.287-.055.574-.066.861-.122l.012-.144c-.023-.034-.056-.045-.111-.045l-.774.178s-.962.19-1.106.111c-1.172-.19-2.465-.055-3.648-.111v-.222c.641 0 1.293-.01 1.935-.067.529-.033 1.17-.222 1.69-.19l1.216-.11c.266 0 .553-.067.819-.111.01-.023.033-.078.022-.112 0-.055-.067-.088-.11-.077l-.73.19c0-.001-1.15.143-1.217.11-.077-.034-.199 0-.298-.045-.254-.111-.774 0-1.051 0-.707-.011-1.647.134-2.32-.111v-.133c1.115-.045 2.221-.089 3.327-.21 0-.001 1.404-.279 1.558-.224.089-.033.896-.09.885-.111v-.122c-.01-.034-.044-.056-.088-.056-.255.067-.51.122-.774.167 0 0-1.526.19-1.548.144-.011-.044-.056-.111-.111-.1-.332-.044-3.317.178-3.317-.033v-.122c1.128-.134 2.289-.056 3.417-.267 0 0 1.238-.278 1.592-.178.265-.056.608-.01.84-.167v-.11a.116.116 0 0 0-.111-.08c-.243.08-.497.135-.74.224 0 0-1.482.166-1.57.133l-.077-.067-3.35-.078v-.177c.332-.101.807-.023 1.16-.034.642-.033 1.306-.067 1.947-.133l.265-.045s1.493-.2 1.626-.167h.044c.022 0 0 .034.01.045.266.033.554-.011.786-.111-.01-.067.011-.111.022-.167l-.022-.044c-.276.022-.53.111-.807.133 0 0-1.305.222-1.67.2-.022 0-.298-.078-.31-.1l-.994.033c-.686 0-1.36-.044-2.035-.055-.022-.056.034-.134-.033-.167.686 0 1.382-.044 2.068-.056 0 0 1.25-.044 1.315-.244 1.051-.11 1.648-.1 1.648-.1.132.022.917.066.85-.223-.02 0-.043-.022-.032-.055-.144-.111-.686.1-.85.11 0 0-1.35.19-1.66.134-.065.034-.397-.055-.529-.066l-1.018-.034-1.824-.066v-.145c2.643-.033 5.274-.167 7.85-.856v.221c-.111.056-.719.167-.663.312.044.044.088 0 .143 0-.033.077-.01.155 0 .222-.033.033-.088 0-.077.056.022.077.254.133.298.19.155 0 .266-.068.409-.068v.267h-.033a18.057 18.057 0 0 1-.486 4.225 10.476 10.476 0 0 1-.73 2.034c-.243.478-.553.767-.962 1.1-.21 0-.42.056-.619.056 0 .055-.022.1-.033.144m.2.756l-.001.022c-1.05.579-2.698.445-3.859.367-.11 0-1.835-.066-1.802-.333.11-.034 3.36.333 5.727-.156-.055.033.022.11-.066.11m-3.029.946c-.52-.01-1.15.023-1.637-.155.022-.023 0-.056 0-.067 1.106.033 2.366.167 3.439-.056l.022-.022c-.022.045.022.033.033.067a4.628 4.628 0 0 1-1.857.232m1.105.69c-.553.077-1.072.077-1.614.089v-.145c.564.078 1.106-.067 1.67-.089.022.056-.012.111-.056.145m-.597 1.267l.011.01.553-.01c-.365.256-1.15.234-1.559.111.11-.044.774-.033.763-.178l-.365-.022c-.21-.022-.442 0-.63-.055l-.066-.078c.001 0-.02-.145.023-.2.022-.034.055-.045.1-.056l-.067-.043c.553-.034 1.083-.034 1.636-.078l.111.133c.033.045.022.111 0 .156.033.01.044 0 .055.022 0 .089-.497.145-.553.145-.011.055.022.1 0 .144m-.917.667c.497 0 .928-.067 1.415-.155v.066c-.387.245-.93.223-1.404.2zm-.288.056v-.067c.055.022.166-.022.122.078zm2.51-.056c.11.078.287.067.376.19.044.021.11.066.132.11-.221.156-.497.223-.74.323a.105.105 0 0 0 0 .078c.31-.067.652-.1.928-.234.045 0 .078.022.056.067-.74.467-1.626.611-2.5.634-.817.022-2.066 0-2.763-.523-.022-.044 0-.09.033-.111.243.067.487.178.74.244l.056-.144c-.177-.067-.376-.122-.553-.211.111-.568 1.371-.124 1.66-.1.883.11 1.757-.024 2.575-.335m-.365 1.301l-.022-.167c.088 0 .144-.067.232-.055v.255c.077.034.077-.055.144-.044v-.256c.077 0 .144-.067.232-.044v.222c.022-.045.088 0 .111-.033.066-.112-.078-.312.11-.334h.078v.634l-.155.01v-.155c-.045-.022-.09.01-.122.022l-.01.201c-.078.022-.123.066-.222.044l-.01-.144-.133.01-.01.223c-.078 0-.145.044-.233.033l.01-.2-.132.022c-.022.056 0 .145 0 .223a.318.318 0 0 1-.177.033c.034-.2-.044-.378 0-.578a.218.218 0 0 1 .155-.033l.022.233c.056-.01.177-.01.133-.111m-1.039.056l.11-.023-.022.478-.077.012zm-.343.022h.077v.445h-.077zm-2.023-.256l.12.033.012.523-.11-.022zm-.42-.133c.088-.01.154.01.22.033l.023.623c-.089.011-.133-.034-.21-.034zm-.221.444l-.09-.022v-.578c.188.122.066.4.09.6m5.781-.055c-.111.233-.553.4-.774.49.022.02.022.066.033.1.31-.09.674-.312.907-.512.055 0 .11.044.12.077-.64.668-1.768.88-2.652.979-1.039.133-2.112.111-3.118-.19a3.68 3.68 0 0 1-1.271-.744c0-.045.044-.056.077-.089.066-.01.43.367.51.411.275.156.573.245.872.334.044 0 .044-.056.077-.078l-.01-.133c-.41-.212-.94-.3-1.184-.667.01-.078.11 0 .133-.045.044.033.011.134.111.111.906.656 2.189.745 3.272.667a8.858 8.858 0 0 0 1.526-.222c.31-.089 1.061-.611 1.371-.49m.443.279v.022c.055-.067.221-.067.265.044v.1l-.221.256c-.365.178-.685.456-1.05.578 0 .034-.077.023-.033.078.298-.066.586-.2.85-.356.178-.088.443-.333.631-.378.022.245-.221.356-.376.467-1.713.9-3.582.912-5.461.779a3.72 3.72 0 0 1-2.024-.834l-.044-.19c.111-.044.619.39.74.446.41.19.819.333 1.26.422a7.592 7.592 0 0 0 2.655.044c.044-.022.088-.033.066-.077-.906.033-1.78-.078-2.686-.078v-.09l.221.012.033-.11c-.365-.046-.697-.157-1.05-.268 0-.022.01-.044.033-.056.42.045.83.212 1.26.256.648.055 1.3.039 1.946-.044 1.017-.112 2.167-.301 2.952-1.034zm.177 1.968a14.57 14.57 0 0 1-.044-.979l.077-.055.011 1zm-1.15.556l-.022-.19c-.155-.022-.022.145-.077.223-.233.056-.443.144-.708.167a.38.38 0 0 1-.01-.19c-.112 0-.034.145-.067.223-.2.045-.376.045-.586.089l-.01-.21c-.057-.023-.112.021-.167.021l-.01.222c-.19 0-.4.034-.576.078a17.934 17.934 0 0 1-.033-1.078c.188-.034.387-.045.586-.056a.255.255 0 0 0 0 .078c.022-.067.154-.045.188-.022v-.078c.188-.033.387-.078.574-.078v.045c.222-.09.51-.178.774-.223v.034c.21-.034.476-.278.72-.245.021.31.021.645.021.978-.133.134-.442.223-.597.223m-2.499.411c-.164.045-.33.045-.507.022l-.022-1.01c.166.021.365 0 .52 0 .033.31 0 .666.01 1m-.807.01c-.11-.022-.364-.01-.486-.022 0-.222-.022-.445.044-.6-.022-.023-.044 0-.044-.023 0-.088-.011-.31.044-.39l.42.024c.044.333.033.667.022 1.01m-.895-.555l.1.023-.012.189-.11-.01zm.1-.233l-.012.11-.11-.01v-.11zm-.11-.31h.087v.177c-.132.033-.077-.112-.088-.178m.1 1.045h-.111v-.19h.11zm-1.57-.412c-.244-.022-.1-.333-.144-.5 0 0-.1-.667.044-.556.155-.011.01.19.11.234h-.033l.01.822m-.33-.178c-.144-.066-.31-.244-.454-.277l-.044-1.001.11.055.343.223.045.61zm-.863-8.905a.066.066 0 0 1-.077-.045c0-.022.022-.055.044-.055.033-.01.088 0 .1.044-.012.034-.045.067-.078.056m-.221 1.045c0-.045.077-.022.1-.045.044-.076.132-.043.165.035-.077 0-.188-.067-.254 0m.044.19a.124.124 0 0 1-.077-.09l.022-.067c-.01.045.044.067.066.078zm-.132-1.869c0-.022.011-.056.033-.056.055 0 .12-.01.144.034.01.066-.056.066-.078.078a.077.077 0 0 1-.088-.056m-2.71-3.613c-.651-1.48-1.436-3.303-1.436-4.948.033-.044.099-.078.11-.133.376.01.774-.067 1.14.022.087.267.154.422.187.711.022.289.077.579.243.812.166.278.376.634.72.745.176 1.345.297 2.702.684 4.014.089.911.597 1.867.95 2.701-.972-1.267-1.956-2.446-2.608-3.936m-1.824-4.48c.044 0 .066-.056.11-.056l.1.512c-.166.166.342 1.556.409 1.779.221.678.464 1.367.774 2.012a20.24 20.24 0 0 0 2.366 3.78c-1.913-2.268-3.317-5.047-3.76-8.027m-.088-.667c.056-.034.056-.111.133-.078l.11.111c-.044 0-.033.1-.088.134l-.033.022c.022-.022.022-.045.011-.056-.055-.044-.166-.044-.133-.133m1.78-.412c-.033.034 0 .078-.022.112 0 .2-.884.122-1.017.111v-.156c-.232 0-.464.022-.685.056.055-.19 1.58-.2 1.724-.123m.243.09c.023-.012.045-.034.078-.012.044.034.055.09.088.111 0 .056-.033.1-.077.123-.055 0-.111-.034-.155-.078-.044-.067.055-.09.066-.145m.465.89c.099-.034.2-.078.298-.045 0 .334-.11.667 0 .99h-.033c-.11-.3-.287-.6-.265-.945m6.158-1.51c.243-.024.52.01.752-.046l.044.034 2.278.077c-.133.167-.774.156-.984.167-.487.045-.984.022-1.471.078.01-.067-.055-.09-.1-.111-.176-.022-.32.022-.475.022-.033.033-.033.078-.044.111-.862.01-1.747.023-2.598-.022l-.001-.022-.985-.067c.221-.044.486-.19.72-.233.021-.034 0-.067 0-.112-.665.034-1.273.19-1.947.178v-.011c-.11-.022-.244 0-.32-.11l.01-.012-.011-.022c.752-.345 1.692-.401 2.51-.445l.011-.011c.85-.089 1.702-.045 2.543-.089.033.067.044.156.132.178h.51c.032-.034.054-.067.043-.111 1.039-.045 2.156.011 3.173.266l-.022.045c-.995.055-2.012 0-3.007.044l-.01-.133c-.244 0-.454-.045-.698-.033a.13.13 0 0 0-.077.111c.033.09-.1.2.022.278m-5.75-.278c1.173-.712 2.898-.645 4.213-.667 1.66-.034 3.361-.056 4.998.19.265.065.53.065.774.143a28.948 28.948 0 0 0-4.567-.255c-1.625 0-3.582-.078-5.108.578a.38.38 0 0 0-.187.244c0 .067 0 .11.055.156 1.85.41 3.748.551 5.638.422 1.77-.033 3.804-.033 5.473-.644.055-.045.055-.112.033-.178-.023-.067-.09-.078-.133-.123l-.321-.077c.299-.023.597.044.85.177.034.056.112.067.112.145.033.078.044.21 0 .278-.464.367-1.305.4-1.869.478-.663.1-1.337.178-2.012.222-.619.045-1.249.123-1.868.123h-2.09c-.553 0-1.105-.056-1.658-.112a15.482 15.482 0 0 1-1.227-.122c-.299-.033-.973 0-1.195-.222-.044-.223-.154-.623.078-.756m12.018 1.356c.276.034.508-.111.663-.333.033-.034.044-.1.055-.167l2.167-.056.034.056c.165.5.033 1.201.022 1.723l-.045.045c.001.4-.054.8-.076 1.2-.01.023-.055 0-.077 0l.01-1.134h-.01c-.188.178-.133.89-.166 1.146a.153.153 0 0 1-.078.022c0-.323.034-.645.056-.968l.044-.055a7.458 7.458 0 0 0-.044-1.646c-.111-.222-1.194-.044-1.393-.044-.045.111-.376.567-.376.567 0 .211.044.422 0 .634-.033.033-.166-.123-.166-.145-.077.078-.055.334-.199.334-.2-.111.133-.745.055-.812-.177 0-.265.11-.486.056-.022-.023-.022-.067-.022-.09.309-.066.663-.088.829-.366-.044 0-.055.044-.11.022v-.044c-.222.144-.443.244-.73.2 0-.045-.056-.178.033-.145m.044 2c.298-.143.652-.354.774-.688.144-.201.177-.446.177-.68-.022-.288.155-.31.265-.566.387-.022.796-.1 1.183-.033-.022.533.022 1.056-.033 1.589-.951.857-1.57.556-2.377.89.01-.145.066-.378.01-.512m-.043-1.289l.31-.056c0 .245-.045.512-.299.623zm.044.7l.033.045c-.11.089-.243.144-.387.2v.133c.177-.01.332-.111.52-.155-.255.111-.465.266-.74.322-.056-.11-.089-.245-.023-.334.01-.022.033-.033.033-.055.111-.089.42-.089.564-.156m-7.983-.667c.74 0 2.543-.09 2.543-.09 0 .001.487-.01.72-.066 0-.022 0-.055-.034-.077a67.128 67.128 0 0 1-3.206-.112c0-.066-.023-.155.022-.211 1.293-.033 2.609-.078 3.902-.155.664-.078 1.305-.178 1.957-.278.553-.112 1.294-.112 1.803-.39.033.29.01.601.022.9-1.073.512-2.543.5-3.704.624-1.338.133-2.709.133-4.058.133.056-.078.022-.19.033-.278m1.703.445c1.99-.034 4.08-.167 6.015-.667.01.111.022.244.01.367-.353.155-.773.178-1.138.266l-.044-.011c-1.603.312-3.24.367-4.865.412-.84.022-1.692 0-2.543-.034-.74-.044-1.658.034-2.377-.2-.044-.111-.01-.244-.044-.367 1.658.223 3.317.267 4.975.223m-4.975-1.301c.774.111 1.492.19 2.322.222v.512c-.222-.023-.42 0-.631-.023l.023.112c.132.022.497-.023.608.044v.222a31.932 31.932 0 0 1-2.322-.211v-.167l.309.012.011-.19-.32-.055c0-.11-.033-.245.033-.334l-.033-.155m0 3.88v.167l-.254-.034-.023-.155zm-.387-.612c.055-.044.177-.022.254-.033l.044.134c-.066.055-.199.033-.276.022-.022-.032-.031-.074-.022-.111m-.033-.734c.066.022.166-.022.177.067.01.033-.011.066-.034.066-.077-.022-.176.034-.199-.066 0-.023.011-.067.045-.067m-.144-2.124v-.178l.177.01v.19zm.287.856v.19l-.287-.045v-.156zm.133 3.425l-.022-.134h.298l.034.156c-.1 0-.222.01-.31-.022m.111.734c-.01-.044 0-.11-.023-.144l.376.01c0 .068.011.112.034.168-.111.022-.255-.033-.376-.033m.109.644l-.022-.155.387.044.022.145zm.155.712l-.033-.156c.133-.022.254.034.387.034v.166c-.111.012-.232-.033-.354-.044m.73 1.334l.044.078c-.122-.033-.254-.033-.376-.067v-.055zm-.597-.622l-.033-.156c.11.01.243.01.353.044.033 0 .022-.055.078-.033.01.044.044.111.033.167-.144-.034-.288 0-.442-.022m14.848-4.225c.022.044-.022.2.044.355.055.112.177.256.243.412.067.144.034.244.067.322.022.078.077.09.088.178.022.156-.033.245-.033.367 0 .133.133.334.133.434 0 .278-.166.222-.133.389.088.022.111.022.221-.023-.033-.044.055-.211.055-.29.255-.032 3.317-.254 3.384-.377-2.764.256-3.174.1-3.35.112v-.223c2.719-.178 4.544-.778 6.854-.856 2.565-.09 2.94.345 3.02.367 0 .067-.09.167-.112.178-.332-.1-.973-.146-1.249-.135-.476 0-2.488.112-2.5.156l2.312.001c.11-.133 1.216.21 1.382.278-.022.067-.067.111-.067.178-.176 0-.453.044-.807.022-.243-.022-.519-.111-.829-.111-.641 0-1.393.056-2.19.278-.021.01 2.102-.2 2.898.01.199.09.497.001.663.157.022 0-.044 0-.022.033l.077.022-.143.29c-1.272-.001-2.444-.267-3.715-.001l-.033.045c-1.427.222-2.82.378-4.257.478v.01c-.685.057-1.426.034-2.056.046-1.183.022-1.858.4-1.935 0 .11-.045.63-.356 1.492-.456.299-.045 1.327.111 1.637.066 1.37-.155 2.244-.3 2.41-.355-.022-.034-5.174.355-5.451.344-.055-.078-.188-.066-.166-.2.111-.144 2.145-.4 2.145-.4-.453-.078-1.603.067-1.747-.122-.044-.023-.176-.145-.033-.267.156-.078.3-.134.477-.178.177-.045 1.36-.078 1.326-.111-.11-.078-1.88.022-2.023.055-.044-.09-.232.01-.188-.155.262-.18.56-.303.874-.356.01-.01 1.183-.045 1.028-.078l-.995-.022s-.774.067-.818.044c-.033-.022-.01-.122.09-.233.508-.256 1.403-.2 1.37-.29-.442-.11-.973-.088-1.437-.144l.01-.111s.53-.156 1.129-.178c0-.055-.553 0-.553-.067-.221-.066-.465-.044-.708-.044-.022-.011-.1-.067.133-.2.553-.367 1.614-.245 1.99.378m-.299-1.045c.144-.01.266-.11.42-.122.155-.01.83.178 2.72.112 2.587-.067 3.008-.78 4.434-.478-.222.222-.443.422-.61.455-.773.156-1.824.334-3.604.412v-.056h-.1c-.11.412-.33 1.001-.165 1.434-.387.067-.774.034-1.183.023-.298 0-.807.089-1.04-.167-.088-.033-.165-.11-.165-.21.553-.113 1.161-.068 1.714-.124l.365-.023v-.111c-.266.033-2.013.089-2.156-.178-.078-.089-.155-.245-.255-.322l.022-.045c.62.111 1.46.09 2.08-.022.01-.045.408-.045.375-.078-.177.033-.708-.067-.885-.089l-.022-.033a10.101 10.101 0 0 1-2.067-.2zm.299-.677c.354.044.652.066 1.028.077.155 0 1.824.156 3.151-.19.011-.11-1.736.157-2.94-.065-.333-.067-.697-.067-1.051-.112.586-.222 1.194-.4 1.791-.133.221.1 1.194-.067 1.305-.11.088-.08.221-.046.276-.157-.022-.033-1.769.111-2.255-.09a.767.767 0 0 1 .077-.21c.221-.19.398-.033.453-.033.608.011.929.011 1.515-.301.022-.022-.122-.033-.144-.033v-.011c-.221-.056-.553.09-.663-.21a.323.323 0 0 0-.033-.257l.287-.022c.476-.056.476.033.62.044.133.01.52-.044.697-.09.188-.032.409-.032.298-.165-.11-.134-.442-.034-.995-.067-.52-.022-.132.144-.619.133-.475-.011-.685-.333-.785-.444-.11-.112.077-.056.199-.045.111.022 1.017.078 1.017.078.354 0 .763-.222 1.128-.289-.022-.067-.133 0-.155-.078a7.86 7.86 0 0 0-.718-.044c.022 0-.111-.067-.211-.078 0-.09-.11-.078-.11-.167.088-.067.177-.078.298-.1.144.055.255-.111.387-.134.3-.044.597-.044.907-.077.641-.078 1.128-.39 1.802-.267l.31.155.066.224c-.332-.022-.752.09-1.095.111-.154 0-.31.111-.464.111-.287.022-.553.056-.796.2.044.023.033.111.09.111.286-.022.551-.166.806-.222.088.067.486-.055.586-.067.33 0 .707-.033 1.006.067.265.09.33.278.42.29-.19.055-1.063.121-1.25.177 1.182.045 1.293 0 1.503.345.177.267-1.271.333-1.382.344.022.067.641.112 1.05.112.42-.012.53.111.642.222l.044.133c-2.355.145-3.803.545-3.881.534-.01.033 1.99-.334 3.24-.31.31-.001.928-.001 1.061.355-.276 0-.553.111-.84.133v.01c-.199-.021-.42.034-.63.046a5.51 5.51 0 0 0-2.366.39s1.415-.213 2.377-.29c1.592-.123 2.266.278 2.73.389h-.552c-.011.033 0 .078.033.09.209-.08.618.143.839.165 0 .145.21.334.31.423h-.83c-.023.044.53.078.597.122.143.134.398.267.42.378a.343.343 0 0 1 .055.223c-.155 0-.973 0-1.128-.034-.022.111.476.045 1.172.312.01.111 0 .266.044.355-.586-.111-3.471-.111-3.471-.111a9.815 9.815 0 0 0-1.57.156l.442-.445c.464-.111 1.736-.222 2.178-.322 0-.056-1.548-.034-1.88 0 .564-.656.487-.301 2.168-.623-.5-.084-1.01-.1-1.515-.044.221-.434 1.725-.556 1.703-.59 0 0-.61.023-1.88.023-1.26 0-3.074 1.034-7.098.222-.077 0 .111-.145.166-.222m1.48-2.958s.908.09 1.229.19c.11.044-.111.221-.564.177-.465-.044-.63-.233-.664-.367m-.243-.3l-.044-.067s.31-.055.431-.033c.166-.022.288.078.398.144 0 .022 0 .055.022.055l-.807-.111m.188 1.812c.089-.144.288-.111.42-.222.078.078.442.367.465.422-.144 0-.664.056-.907-.1a.243.243 0 0 0 .022-.1m1.725-2.224c.43-.19.818-.111 1.26-.155.542-.134 1.67-.578 2.211-.178-.575.044-1.105.233-1.658.278-.276.01-.51.122-.774.155-.332.034-.696 0-1.05 0-.022-.033.044-.077.011-.111m-2.521-.556c.72-.09 1.548-.19 2.267-.19l.044.035h.32l-.01.01v.012c1.227-.033 2.354-.5 3.593-.434.044.045.11.045.154.067.022.111-.11.111-.132.2-.608.045-1.217.1-1.814.2-.641.112-1.17.289-1.813.19-.442-.056-.807-.067-1.249.01-.31.034-.608.034-.907.034-.177.055-.33-.122-.442-.122m-.365-.49c.442.112 1.637-.033 2.21-.222-.11-.033-1.68.1-2.2.011l.022-.167c.885-.155 1.791-.111 2.665-.222.95-.111 1.835-.39 2.764-.634.077.034.022-.066.066-.1.2-.31.973-.222 1.272-.2l.497.056c.044.178-.11.266-.11.41a7.74 7.74 0 0 0-1.88.112c-.221.056-.608.111-.597.156.575 0 1.824-.178 2.41-.056l-.254.4c-1.979.134-3.538.523-3.538.523-.553.089-2.985.467-3.317-.067m-.055-.722c.022-.112.022-.245.111-.323.287-.09.586-.078.884-.144 0 0 .73-.1.73-.134-.409 0-1.128.067-1.548.034 0-.1.221-.345.254-.478.266-.19.63-.167.95-.223.034-.044-.032-.055-.032-.09h-.85c0-.077.22-.199.22-.355l1.326-.333-.033-.033s-.774.044-.995.077c-.1-.111.044-.222.055-.333-.066-.034-.11-.078-.176-.078-.2.11-.332.367-.487.523-.199-.045-.431-.023-.619-.012.144-.111.254-.389.464-.41.31-.223.498-.08 1.183-.168.455-.03.902-.133 1.327-.3-.19 0-1.084.067-1.283.111 0-.022-.012-.066-.045-.078-.154 0-.298.034-.442.056a.184.184 0 0 0-.066.089l-.255-.011c.188-.134.387-.334.609-.456v-.033c.497-.2 1.171-.145 1.625-.445-.365-.033-.708.022-1.062.067l.422-.156.033-.033c.552-.123 1.105-.167 1.68-.067l.044.033.42.056v.011a7.95 7.95 0 0 0-1.04.056v.022c.719.055 1.482.033 1.99.61l-1.326.09c.442.156 1.47-.144 1.912.545-.022-.044-.199.09-1.769.056-.066-.189-.143-.156-.188-.067-.044.09-.066.133-.221.133-.132 0-.154-.111-.166-.155-.011-.045.078-.178.233-.19.154 0 .11.09.154.09.056 0 .067-.124-.055-.157-.133-.022-.685-.11-.807.278-.044.144-.022.256-.022.256-.243.033-.42.078-.42.078s.077.066.409 0c.1.31.188.344.586.277.31-.044.298-.033.486-.333 0 0 .553-.122 1.692-.134.309 0 .663-.033.884.223l.199.211s-.729.134-.718.167c0 0 .973 0 1.061.1v.389c-1.327.222-2.145.033-2.874.19-.321.077-1.327.155-2.234.299 1.404-.044 1.99-.178 2.466-.066-.067.29-1.659.5-2.189.555-.796.078-1.604.167-2.4.156zm-.144-1.312v.033l-.188.022c.022-.11 0-.144.01-.267.079-.044.333-.233.399-.222-.033.033-.11.078-.11.156-.111.066-.111.178-.111.278m-.11 2.646c-.111-.011-.244 0-.332-.056h.044c-.01-.066-.11-.033-.11-.11a.115.115 0 0 0-.01-.09c.109-.033.242 0 .352-.055.045 0 .1.055.1.11-.033.1.033.112-.033.201m-.608-.734c.1-.022.221-.111.32-.156-.022.045.01.112-.044.134v.044c.055 0 .055.089.089.11h-.365c-.045-.032 0-.065 0-.132m.1-.49c0-.033-.023-.066 0-.11.143-.023.253-.156.42-.134l-.133.29c-.11.023-.221.023-.343.023 0-.034.022-.078.055-.078m8.182 1.879l.154.078h-.465c.11 0 .188-.134.32-.078m.498.422c.133.089.288.19.376.3-.11 0-.862 0-.884-.11-.045-.056-.089-.112-.067-.168.166-.044.376 0 .575-.022m.642.556l.1.01.375.39a4.762 4.762 0 0 0-1.04-.155c-.021 0-.021-.034-.044-.034.011 0 .034 0 .023-.022-.034-.044-.11-.111-.133-.178.221-.044.475-.01.72-.022m-.974 4.448c1.879-.078 2.863.3 2.874.367.022.278-.774.156-.884.156 0 0-1.272-.111-3.063-.022-1.792.1-2.212.589-6.115.567v-.123c.453.045 1.006-.122 1.471-.178 2.432-.233 4.29-.722 5.716-.778m-2.29-.222c-.242.278-.718.4-1.06.467-.21.033-1.36.367-1.416-.167.222-.067.454-.089.697-.111l.033-.034zm-2.498-.045c.033-.033.022-.255.045-.333.33-.078 1.315-.178 1.426-.2.564-.112 1.835-.223 1.835-.223l-.542.49c-.729.2-2.686.478-2.764.266m5.307 14.254l.31-.111c.232-.012.442-.067.696-.045.277.067.586.222.586.245.056 0 .078.033.1.077-.586.101-1.194-.044-1.769-.044-.011-.078.088-.044.077-.122m1.227-.567c-.287-.045-.508-.023-.773-.034-.045 0-.067-.044-.078-.1.033-.133.177-.155.299-.19.199.046.376.112.552.224-.033.022 0 .077 0 .1m-9.287-7.083c0 .078.034.39-.055.423l-.287.022-.111-.078c-.321 0-.641 0-.962.023-.398.022-.663.177-1.04.266-.242.067-2.343.445-2.41.312-.11-.423 3.273-.968 4.865-.968m-2.609-.422c.907-.111 1.106-.4 2.631-.19.155.034.11.38.11.38-.574.032-1.27-.157-1.834.066-.553.21-1.77.244-1.78.244-.111 0-1.493.367-1.316.167.553-.256.873-.478 2.189-.667m.354-.734c.805-.12 1.62-.143 2.432-.067v.245l-1.658.111-2.952.4.01-.033c.333-.211 1.184-.51 2.168-.667m.995-1.1c-.044.022-.1.033-.122.1v.011c-.121.066-.62.044-.62.044-.364 0-.695.056-1.038.133l-.022-.022c.397-.3.972-.31 1.458-.3l.332.033m10.636-1.2c-1.703.055-1.747-.345-2.786-.123-1.04.223-2.82.634-5.34.634-.874 0-1.869-.01-2.731-.089.83-.333 1.935-.222 2.83-.31 1.592-.135 3.217-.224 4.787-.513.951-.178 2.72 0 3.395.134zm.155.889v.022l.53.034c.011.089-.011.144-.033.2-.398-.067-.807-.056-1.216-.056a.855.855 0 0 1 .72-.19m-2.334-.377c-.542.09-1.106.022-1.637.111-.696.111-1.404.212-2.1.278-.697.067-1.404.11-2.1.145-.652.033-1.227-.156-1.857-.19 1.614-.188 3.26-.166 4.887-.366a40.52 40.52 0 0 1 4.698-.3l.089.022-.243.3c-.586.1-1.16 0-1.736 0m0 .656l-1.703.11c.133-.065.31-.065.453-.121 0-.044.056-.11.111-.11.884-.224 1.681-.257 2.598-.257-.42.356-.95.334-1.459.378m-1.482 1.023c-.243.089-.497-.045-.74.044-.056-.011-3.041.2-3.704.245.553-.245 1.028-.334 1.614-.378.276-.022 1.736-.156 1.946.033.1-.033.663.023.884.056m-1.028-.389c.93-.19 1.88-.378 2.84-.334.024.023 0 .078-.032.111l-.11.101c-.365.088-2.499.51-2.698.122m5.23-2.024l.342.023v.133h-.387c0-.067.022-.111.045-.156m.287.634l-.01.145c-.233-.023-.488-.023-.71-.067-.021-.078.035-.111.057-.178.22.033.442.09.663.1M20.9 22.845a8.166 8.166 0 0 1 3.858-.523c0 .034-.022.078 0 .1l-.022.045-.685.09s-2.477.165-3.173.332c0 0 .055-.033.022-.044m3.305 4.036s-.188-.056-.53-.056c-.72.01-2.024.111-2.808.256.11-.022.077-.278.221-.289.154-.19 1.337-.423 1.337-.423.476-.101.995-.101 1.504-.112.132-.033.33.122.486.056 0 .044.022.111-.012.133-.022.022-.2.322-.2.445m-.098.822c0 .19-.066.634-.066.634-.078 0-.177-.022-.233.022v.012c.111-.023.177.066.244.11 0 .09.1.634-.166.6-.022.09.077.101.144.09 0 0 .1.423.077.512-.3.044-1.106.144-1.14.122-.22.022-2.044.19-2.133-.289.321-.1.664-.145.995-.234.023-.044.984-.111.973-.144-.221-.19-1.923.066-2.189.111-.066-.045-.155-.09-.177-.178a3.15 3.15 0 0 1 .951-.422l1.404-.223s-1.548.034-1.724.056l-.774.111c-.144.033-.122-.111-.122-.111.42-.478 2.62-.756 2.753-.745.033-.056.044-.034.033-.067-.066-.033-2.3.222-2.476.167.055-.056.066-.145.11-.2.221-.145.542-.223.763-.378.486-.167 1.006-.178 1.537-.289.354-.044.94-.033.94-.033.464 0 .364.156.386.178 0 .045-.044.078-.033.134 0 0-.044.233-.044.355l-.42.034c0 .044.332.033.387.078m-2.742 5.092c-.155.044-.321.044-.497.044l-.023-.033c-.132.011-.254 0-.376-.011 0-.223.564-.178.664-.19zm4.765 1.99c0-.011.033-.011.022-.034-.11.023-.154-.111-.221-.166-.01-.034-.044-.067-.01-.089.01-.045-.056 0-.045-.045.243-.044.497-.066.74-.022.963-.01 1.88.133 2.831.222.022.023.022.056.01.089-1.093.145-2.232.223-3.316.034m-4.975 3.291l.542-.156c.221-.19 4.135-.056 4.688.033.022.167.11.312.154.49-.11.022-.486.066-2.012.044-1.548-.022-2.366-.122-2.598-.122-.221 0-.752-.034-.807-.145-.011-.033-.044-.122.033-.144m4.279-3.703c-.022.145.155.145.177.267v.056a5.19 5.19 0 0 1-.752-.134c-.033-.022-.078-.044-.089-.089h-.011c.187-.11.442-.033.674-.11m-.608-.223v.01a7.604 7.604 0 0 1-1.327-.188c-.022-.033-.01-.078 0-.11l.1-.08 1.59-.088.145.4a2.41 2.41 0 0 1-.508.056m-2.798 2.068c-.298.022-.541-.234-.773-.4.221-.178.807.044 1.05-.078.01-.056-.066-.089-.1-.11-.33-.1-.685-.135-1.028-.09a.902.902 0 0 1-.442-.334c.354 0 1.537-.156 1.703-.178l.552.022c.476 0 .929-.022 1.37 0 0-.022.609.378.996.445-.475.056-1.835.156-2.653.045.044.166 2.675.255 3.25.378.034.044.067.089.067.133-.2.111-.774.222-.774.222-.2.067-.442.034-.664.056l-.895-.043.033.055.929.089c.387.045 1.05-.11 1.371.167a.54.54 0 0 1-.188.244l.033.012c-.089.111-.265.077-.365.133 0 0-.575.089-.575.122 0 .034.708.045.708.045s.63.022.553.222l-.034.211c-.597.456-2.377.023-4.245.089-.166-.066-.332-.122-.42-.333.143.022.453-.111.608-.145l.033-.044.708-.022s.818.033.895-.045a6.985 6.985 0 0 0-1.028-.133c-.343-.056-.708 0-1.05 0l.01-.034c-.176-.044-.397.056-.54-.066-.09-.023-.112-.134-.178-.178.133-.256 1.77-.356 1.77-.356zm-.94 1.467c-.01.034-.077.023-.11.034-.022-.022-.066-.11-.044-.145.055-.044.133 0 .177.023 0 .032-.033.043-.022.076m8.27-4.692c.619.012 1.216.056 1.824.223.022.067-.044.11-.111.155-.33 0-1.326.089-1.67.078-.021.067.023.011.023.078.144-.022.918.11 1.14.2-.72.11-1.14.078-1.118.145l1.16.11c-.33.58-1.834.368-2.343.335-.862-.056-1.703-.19-2.543-.267l-.132-.267c.31-.089.63 0 .94-.011 1.812-.034 2.62.155 2.597.022-.11-.022-3.117-.423-3.692-.389l-.111-.245c.232-.055 1.028-.155 2.333-.111.033-.033-2.355-.167-2.488-.167 0-.133-.265-.333-.11-.389.73-.222 1.35-.089 1.514-.19-.33-.077-1.58-.02-1.713-.02-.055 0 .044.466.077.533l-.376.055c-.033.045.343.045.398.045 0 0 .111.422.177.578-.11.044-2.322.067-2.62-.334-.01-.043.022-.065.022-.088.365-.066 1.802-.1 1.736-.19-.891-.07-1.777-.19-2.654-.354a.112.112 0 0 1-.044-.145c.243-.2 2.322-.234 2.267-.3-1.99-.034-2.455-.156-2.709-.256-.044-.022-.066-.078-.122-.122.299-.111 2.654-.334 2.764-.334-.31-.244-2.907.111-3.272-.167.42-.51 1.459-.333 2-.444.62-.111 1.25 0 1.858.055.022.023.177.412.232.501l-.176.01c0 .034.055.067.088.09.033-.045.111-.023.166-.023 0 .112.11.256.11.256.056.045.067.145.067.145l1.194-.045c.707.1 1.304.389 2.034.412.697.022 1.393.055 2.09.11.2.023 1.426.08 1.525.312.012.089-.065.156-.131.19-.553.021-1.106 0-1.659-.023-.132 0-1.194-.167-1.238-.067 0 .134.597.3.708.31m2.52-1.388l.255.09c-.111.1-.177.41-.177.41-.221.033-.697.056-.697.056-.829-.022-1.713-.222-2.543-.31-.563-.045-1.194.155-1.735-.056-.31-.134-.52-.267-.52-.267.42-.01.83-.067 1.249-.078.177 0 2.245-.056 2.366 0 0-.056-3.847-.333-5.008-.222-.044-.089-.077-.167-.133-.223.951-.19 2.886-.267 3.87-.322.044-.045-2.267-.19-4.113-.045l-.066-.233c.729-.167 2.686-.334 3.427-.41 0-.001-2.344-.168-3.516.043l-.044-.222c.796-.19 2.565-.389 2.653-.378a10.276 10.276 0 0 0-2.697-.023l-.033-.233c.431-.19 2.1-.445 2.1-.445-1.194-.19-2.089.134-2.134.045.023-.045-.022-.111-.022-.156.067-.245 1.106-.434 1.802-.6-.077-.09-1.481.01-1.691.077-.077.023-.122-.033-.155-.088-.055-.301 1.039-.467 1.216-.501 0-.055-.94-.055-1.172-.044-.022-.034-.055-.178-.022-.223.133-.266.343-.3.63-.333.288-.022.41.133.553.222.155.111.619.356.818.3-.11-.077-.077-.166-.077-.222.453-.033.896-.078 1.327-.144l.045-.056c.376-.022 3.36-.145 3.593-.134-.2-.088-1.526 0-2.709-.022-.807-.011-.818-.167-1.99-.111-.266.022-1.029.167-1.24-.044.3-.034.797-.334 4.435-.501l-2.411-.022-2.498.1-.022-.08c.96-.354 3.26-.543 4.19-.655a19.894 19.894 0 0 0-4.168.145c-.034 0-.056-.045-.056-.067.664-.356 3.649-.534 3.627-.69l-3.549.134v-.133c.46-.112.925-.209 1.393-.289.398-.078.873-.256 1.26-.278.022 0-1.78.055-2.587.111v-.022c2.167-.701 3.704-.245 6.468-1.212v-.011c-.133 0-.409 0-.774.033-.01.156-.243.2-.376.222a418.14 418.14 0 0 1-4.942.378 6.778 6.778 0 0 1 2.786-.533c2.388-.078 2.532-.156 2.82-.223.994-.266 1.404.023 1.813-.333 0-.022-.796.033-1.183.044l.022-.033c.287.067 1.05-.378 1.05-.378 1.216-.378 1.758-.167 1.758-.167 0 .145-.077.289-.11.445-.266.022-.587 0-.885.078-.033.01-.044.055-.033.078.155.144.652 0 .84.077l-.133.456-1.194.078c-.033.067.885 0 1.14.145l-.123.422c-.31-.022-1.647-.167-4.721.323 3.262-.356 4.38-.112 4.655-.112l-.088.323c-.52.111-.995.078-1.526.078-.885 0-2.676.266-3.56.31-.033.123 2.686.012 3.405-.077.453.145.995.056 1.46.167 0 .067 0 .167-.1.19-.166-.034-.553.077-.74.088l-2.577.122c-.641.056 1.526.111 1.526.111.088.045 1.249 0 1.658.178l-.044.111c-.31.045-.962.223-1.282.19.033.077.917.222 1.127.255.067.078.144.29.056.334-.266.19-.962.2-1.029.19l1.007.221c-.034.111-.067.31 0 .423-.11-.045-.31-.023-.432-.023 0 0-2.786-.044-2.852-.022-.264-.044-.53.022-.773-.078 0 0-1.791-.1-2.631.223-.034.066-.144 0-.144.077.11.201.365 0 .52.145.552.022 1.138.033 1.658-.078.276-.19 2.266-.2 2.266-.2.443-.011 2.046.122 2.046.122l.33.056c0 .166 0 .344-.032.51l-2.896-.2a9.067 9.067 0 0 0-2.245 0c-.287.034-.796.278-.796.278.774.389 1.592 0 2.41 0 .93 0 3.372.122 3.55.145-.012.155.088.3-.023.433-.774.023-1.559-.055-2.32-.133-.897-.09-1.704.044-2.578.11l-.077.112c.365.223.597.145 2.333.078.807-.022 1.879-.067 2.642.278v.234c-.22.112-.519-.033-.74-.066-.376-.045-.741-.034-1.106-.034-.586 0-1.15.045-1.758.178.11.167 1.338.145 1.338.145.718.022 1.437.078 2.156.21-.022.09.044.223-.056.279-.464.022-.972-.044-1.37.111l-.277.022c-.01.089.111.089.166.134.42.044.862.055 1.26.067l.033.033c-.055.056-.154.1-.21.156l-.552.044c-.034 0 .431.167.431.167-.033.022-.022.411-.078.522h-.928c0 .056.519.1.54.145m.278.845c.387-.222 1.205-.278 1.205-.278l.398-.01c.265.01.51.11.74.177l.133.267c-.83.01-1.658 0-2.476-.056.033-.033-.022-.067 0-.1m1.614-18.567c.63.344 1.57.91 1.902 1.578.088.334.31.656.442 1 .285 1.024.42 2.085.398 3.147a14.11 14.11 0 0 1-.85 4.07c-.333.878-1.03 3.057-.963 5.214.011.778.862 2.468 1.691 2.946 0 0 .177.112.22.223 0 0 .012.31.035.4-.409.167-.918.056-1.327-.033-.078-.056-.133-.145-.22-.223-.012-.055-.134-.166-.134-.244 0 0 1.371.033 1.327-.023a7.252 7.252 0 0 1-1.526-.289 1.93 1.93 0 0 0-.365-.51s1.073.022 1.051-.01c0-.001-1.195-.212-1.36-.446-.089-.122-.111-.267-.166-.41 0 0 1.017.021.973-.035-.177-.033-.94-.266-1.095-.31-.033-.112-.11-.38-.088-.446 0 0 .962.056.951.023-.155-.023-.863-.312-1.029-.334-.022-.19-.121-.31-.077-.51l.63.021c0-.045 0-.145-.066-.111-.022-.034-.664-.134-.608-.334l.022-.367s.862.056.93.078c-.3-.15-.612-.277-.93-.378-.078-.178 0-.3-.044-.445.11 0 .884.045.884 0 0 0-.752-.244-.884-.31 0-.001.011-.38.088-.423 0 0 1.084.133 1.061.044l-1.017-.356c0-.1.111-.42.111-.42l.995-.001c-.144-.045-.663-.256-.818-.29 0-.166-.022-.288.044-.455.188-.045 1.061.078 1.083.01-.176-.044-.807-.221-.972-.321.088-.056-.045-.112.022-.19l.199-.244c.177-.01.973.022.95-.045-.11-.044-.52-.166-.73-.255-.088-.167-.021-.345 0-.49.2-.034 1.051.01 1.03-.034a6.08 6.08 0 0 0-.83-.222c-.044-.022.033-.467.044-.6h1.15l-1.062-.279a.97.97 0 0 0 .089-.444l.962-.01a8.25 8.25 0 0 0-.907-.246c.089-.111.089-.411.111-.422.22 0 .995-.034.962-.067l-.907-.245.044-.42c.332-.012.686.032.995-.046.01-.111-.906-.267-.973-.278.021-.033-.023-.255.033-.4l.984-.089c-.034-.089-.808-.244-.94-.233.044-.112.033-.478.033-.478.11-.034 1.028-.045.995-.09l-.973-.31c-.033-.112-.011-.256-.011-.39 0 0 .83-.044.84-.078l-.906-.222a2.312 2.312 0 0 1-.067-.445l.32-.033c.067 0 .31-.045.388-.067-.166-.155-.597-.167-.763-.167a2.028 2.028 0 0 1-.133-.422c.177-.033.664-.045.83-.078-.023-.044-.752-.222-.973-.233-.034-.178-.31-.267-.332-.412v.01a12.24 12.24 0 0 1 1.14-.088 9.91 9.91 0 0 0-1.383-.166c-.078-.09-.111-.223-.21-.289v-.056l-.067-.01-.055-.08c.287-.055.807-.066 1.106-.077-.288-.155-1.139-.19-1.327-.2-.089-.122-.265-.233-.299-.367.144 0 .796.067.918-.067 0-.022.044-.022.022-.044-.387-.133-.807-.145-1.216-.19-.144-.132-.332-.244-.431-.41a2.6 2.6 0 0 1 1.017.022m2.819 3.035c-.023 0-.089.01-.1-.033.022 0 .033 0 .022-.022-.033-.045-.078-.089-.078-.156.078-.033.133.156.155.222m.176.334l.144.31-.243-.055-.056-.155a.35.35 0 0 1 .155-.089m.376.823l.155.144c.055.034.077.1.11.111-.221-.01-.442-.055-.663-.055.033-.089-.088-.234.055-.256.111-.033.277-.044.354.056m.476.756h.022l.099.3c-.332 0-.652 0-.917-.111v-.01h.022c.022-.068 0-.157.022-.213.143-.078.64-.09.752.034m.33 1.023s-.784.133-1.093-.112c.066.056-.033-.144.033-.222.298-.133.663 0 .973 0zm-.087.578l.132.033c-.265.078-.696.078-.972.033-.078-.055-.155-.11-.177-.222.11-.222 1.017-.111 1.216-.111.12.178-.177.133-.2.267m.952.556c.011.022.044.022.066.055-.022.089-.022.167.055.245-.055.022-.144 0-.166.055l.045.167.21.022c.022.112 0 .234 0 .356l.044.022v.112c-.1.066-.155 0-.243.09.01.043-.045.076 0 .11 0 .111.154.066.243.1-.011.1.01.278-.09.333-.021.045.035.023.035.045.055.178-.155.111-.266.133-.022.078-.01.156-.055.223h.276c-.033.166-.088.31-.088.49-.111.021-.63.077-.763.177-.044.033 0 .044 0 .077.243.045.487 0 .73.023l.011.378-.067.167-.663.066c-.033.045 0 .111.044.111.2.034.42.078.654.056-.056.111-.111.334-.089.345l-.022.144c-.144 0-.73.178-.873.2.022.078.85.078.85.078 0 .056-.065.31-.065.412-.332.177-1.084.244-1.084.244-.022.011-.044.033-.022.067-.055.044-.763 0-.763 0 .022-.089-.022-.11-.077-.134-.112 0-.267-.022-.377 0-.011.034-.055.034-.033.078a1.83 1.83 0 0 1-.841-.2c.045-.122.011-.289.023-.445 0 0 .95-.111.94-.155-.2-.089-.675-.156-.896-.212 0-.066.177-.355.243-.4v-.012c.31-.044.64-.022.951-.078a.138.138 0 0 0 .022-.144c-.11-.156-.663-.1-.83-.223.023 0 0-.055.045-.055-.055-.089.044-.156.022-.245h.697c.077-.022.077-.1.088-.167-.088-.19-.553-.155-.708-.222l.11-.289c.112 0 .355-.033.476.145.1.111.41.422.354.578l-.01.266h.054c.023.023 0 .056.012.078-.045.034-.111.034-.133.089 0 .067-.01.145-.055.2.276.112 1.083.078 1.15 0 0-.077-.034-.111-.089-.144-.21 0-.663-.2-.674-.2.055-.09 0-.3 0-.39l.773.012c.078-.034.089-.09.067-.156-.122-.19-.774-.19-.984-.222-.055-.088-.044-.21-.133-.288.442 0 .896-.145 1.327-.145-.033.033.276.045.287.033-.022 0-.166-.222-.221-.244-.652 0-1.349.022-1.979-.211 0-.089 0-.167.033-.245.432-.067.907-.11 1.327-.1.221 0 .498.067.72 0-.023-.033.032-.09 0-.133-.112-.112-.477-.056-.62-.078-.332-.046-.642-.224-.962-.268-.078-.045 0-.156-.1-.156.188-.044.442-.111.664-.067l.044-.033c.22-.033.475 0 .718 0v-.089a2.783 2.783 0 0 0-1.094-.29c-.01 0-.32-.021-.442-.088 0-.044-.01-.111.033-.155.497-.067 1.747-.345 2.123.111m-3.317 5.28l.055-.044c.918 0 1.846-.044 2.775 0 0 .1-.243.378-.243.378s-.42.112-.885.123c-.663 0-1.47-.078-1.813-.145-.133-.022.044-.21.111-.31m1.061.71c.464-.01.885.056.885.056.033.022.022.056 0 .1-.222.29-1.25.31-1.25.31-.088-.1-.21-.11-.265-.221-.122.01-.498.01-.51.222l-.176-.033c-.055-.1-.033-.221-.055-.31.066 0 .763-.09 1.371-.111m2.167.344c-.332.1-.719.056-1.017.223 0 .033 0 .077.044.1.277 0 .575 0 .863-.023-.023.112-.023.223-.067.312-.077.278-2.454.333-2.819.289-.033.022-.53-.056-.663-.078v-.089a8.234 8.234 0 0 0 1.481-.31c.42-.146 2.012-1.07 2.012-1.07.056.057.177.557.155.646m-.497 1.301c-.61.334-1.714.367-2.156.356-.277 0-.564-.056-.841-.1-.132-.045-.154-.178-.154-.3 1.083-.123 2.178-.156 3.272-.223.022.134-.11.156-.11.278m-.222.612c-.387.433-.807.444-1.824.444-.276-.01-.586.056-.807-.1-.077-.033-.2-.078-.232-.19l-.022-.098c.364-.111.806-.055 1.182-.078.575-.033 1.15-.077 1.725-.144zm-1.028.945c-.42.077-.884.033-1.315.033-.034-.056-.11-.044-.166-.067-.078-.055-.078-.166-.155-.2.619.089 2.277-.089 2.277-.089-.165.223-.398.3-.641.323m.078.578c-.045.044-.11.044-.155.078-.332 0-.63-.023-.951-.056.044-.044-.044-.022-.044-.078.276.034 1.216-.078 1.216-.078-.044.034-.155.056-.066.134m-.53 2.379c-.156.011-.344.078-.443-.056-.111-.2-.387-.2-.51-.355.333-.023.709 0 1.04-.034 0 .156-.055.301-.088.445m3.858 7.305c0-.056-.066-.11-.132-.11H38.28c-.608 0-.984 0-1.216-.035-.188-.022-.233-.067-.244-.09.1-.054.553-.132 2.355-.199h.166c.068-.011.112-.078.112-.133 0-.045-.033-.089-.11-.112a31.93 31.93 0 0 1-2.477-.144c.177-.022.398-.033.508-.122.409-.023.442-.067.442-.1a.078.078 0 0 0 0-.078v-.02h-.022c-.22-.102-.519-.113-.774-.113-.176-.033-.442-.044-.442-.1-.033-.11-.144-.333-.276-.61a4.937 4.937 0 0 1-.419-1.013c-.011-.067 0-.111.033-.19.033-.11.11-.299.132-.666.034-.39-.011-.556-.055-.667-.033-.089-.055-.145-.033-.245 0-.078.077-.178.166-.322.22-.323.553-.812.464-1.5.078-.09.31-.39.42-.902.1-.467.01-.756-.033-.934l-.033-.11c0-.08.22-.38.398-.646.265-.4.608-.911.719-1.223.22-.59.463-1.056.695-1.478.453-.834.774-1.446.31-2.28.143-.444.265-.81.132-1.556.023-.701.089-1.145.155-1.534.056-.4.111-.779.111-1.335.01-.867-.597-1.3-.863-1.478l-.11-.089c-.066-.09-.111-.267-.232-.69a11.455 11.455 0 0 0-.144-.49 4.73 4.73 0 0 0-.663-1.555c-.144-.223-.177-.345-.222-.49-.044-.144-.088-.3-.22-.544-.222-.4-.42-.578-.61-.756l-.176-.167c-.11-.111-.188-.267-.287-.423-.11-.2-.243-.422-.442-.622a4.412 4.412 0 0 0-.874-.634c-.188-.122-.387-.245-.608-.434a3.177 3.177 0 0 1-.464-.478 2.153 2.153 0 0 0-.321-.333c-.265-.2-.42-.289-.63-.423-.221-.144-.542-.333-1.14-.745.222-.278.996-1.412.864-2.368-.11-.822-.498-.99-1.029-1.201-.177-.077-.376-.155-.586-.277-.232-.134-.409-.301-.597-.49-.442-.433-.895-.878-2.156-.878h-.276c-1.548.09-2.145.69-2.4.945v.011a.878.878 0 0 1-.253.134c-.443.19-1.194.5-1.183 2.056-.111.156-.83 1.134-.553 1.946.155.478.475.667.774.856.365.211.74.445.94 1.145.165.601-.277 1.18-1.46 1.913.066-1.279-.022-1.568-.122-1.668a.215.215 0 0 0-.154-.078h-.045c-.02 0-2.188.022-2.298.09-.044.021-.055.077-.067.144-.044.144-.1.333-.442.333a1.38 1.38 0 0 0-.055-.478c.11-.133.155-.367.11-.556-.022-.19-.132-.311-.265-.356a26.638 26.638 0 0 0-6.512-.71 19.787 19.787 0 0 0-5.074.52l-.033.013c-.508.155-.685.2-.663.867.022.5.055.556.188.61h.033v.157l-.177-.022c-.033-.045-.022-.078-.022-.134 0-.044 0-.1-.022-.167-.055-.277-.686-.333-1.205-.333-.52 0-1.205.078-1.415.2-.144.078-.177.712.077 1.912l.033.123c.155.745.398 1.856.93 2.968 1.768 3.736 3.227 5.103 3.78 5.526h.011c-.198.044-.331.222-.32.467 0 .2.11.41.354.445l.133.01c.31.001.42-.199.453-.4a4.642 4.642 0 0 0 2.145 1.668c.044.111.133.356.177.434.044.067.144.078.232.111l.11.01c.012.057-.043.146-.1.223-.076.112-.165.256-.165.412a.558.558 0 0 0 .265.456c.033.022.044.044.044.066 0 .023-.033.045-.11.067l-.4.078c-.43.078-.84.144-1.27.711-.21.112-.21.445-.199.579-.487.155-.553.233-.619.355l-.044.056a.675.675 0 0 1-.144.1c-.188.111-.442.256-.442.523l.066 1.556v.045c.287.422 1.725 1.245 3.737 1.245h.088c1.946-.022 4.29-.556 4.666-1.301h.01l.001-.033.022-1.323c.001-.19-.032-.812-.552-.912-.1-.11-.2-.145-.365-.189l-.386-.111-.045-.445v-.01c-.221-.49-.752-.813-1.581-.957h-.066l-.11-.01-.1-.024.033-.022a.416.416 0 0 0 .243-.222c.09-.223.11-.501-.055-.667-.144-.111-.155-.2-.177-.267.033-.033.144-.078.221-.11a.388.388 0 0 0 .155-.09c.01-.01.044-.056.088-.467a5.549 5.549 0 0 0 1.758-1.145c.1.033.188.055.266.055.155 0 .287-.067.354-.178.089-.148.1-.33.034-.49l.53-.51a.538.538 0 0 1 .166.333c.01.09 0 .145-.022.256-.033.233-.11.6.044 1.58.122.833.277 1.21.387 1.455.067.167.111.278.111.434 0 .2-.033.356-.078.533-.055.245-.132.523-.1 1 .067 1.135.344 1.558.454 1.713l.022.034c0 .133-.033.255-.099.41-.111.312-.277.757-.221 1.769.044.867.199 1.412.365 2.034.11.412.254.89.364 1.524.067.344.166.656.266.911.1.256.177.489.2.69v.077c-.344.012-1.78.09-1.88.145l1.88.19v.077a8.26 8.26 0 0 1-2.345.222c-.796 0-1.548-.11-1.89-.133-.83-.044-3.87.112-4.014.134h-1.68s-.797 0-.83.067c3.483.078 6.004.39 6.579.3.298-.032.2-.032.265-.043 1.194-.112 2.211-.045 2.775-.023.11 0-.022.112.498.089-.266.11-1.183.178-1.979.234-1.515.11-2.013-.19-3.505-.111-.918.022-2.952.166-2.742.255.077.034.453.011 1.05.034.133 0 .354.055.52.066 1.216.034 2.697.045 2.819.023.21-.045 2.377-.01 2.543-.023.177.001 1.106-.054 1.128.124.022.19-1.902.39-2.134.367-.22.001-1.613.045-1.613.112 0 .055 1.614.033 1.614.033-.111.389 1.68-.022 2.388.389 0 0-.553-.044-.63.111-.74.045-1.25.023-1.25.067 0 .045.21.067.83.089l1.592.033c.41.078 1.77.19 2.422.19.84 0 1.681-.067 2.1-.112.4-.066 1.88-.089 3.096-.089 1.006 0 1.537.011 1.581.023.144.066.53.222.774.233l.188.011c.26.005.52-.018.775-.067h.111c-.21.067-.597.156-.796.156-1.017 0-1.062.056-1.073.078l-.022.022.01.045c.023.055.023.055.521.055.85 0 2.609-.033 2.764-.044.074 0 .148.012.221.033l.134.022c.143.023.376.045.718.045h.177c.53 0 .973-.089 1.349-.167.199-.033.387-.078.553-.089l.443-.044.973-.112c.099-.033.166-.044.166-.111 0-.033-.01-.078-.089-.089h-.11c-.74 0-.896-.089-.995-.144l-.033-.022c.265-.067 1.194-.156 1.835-.223 1.194-.1 1.238-.111 1.27-.167l.08-.111h-.156l-2.996-.11.01-.045c.145-.022.841-.077 3.14-.222l.233-.022c.11-.022.133-.089.133-.133M11.47 23.112c.143.044.375 0 .53.033v-.078l.022-.033c-.022 0-.078-.056-.1-.067l-.464-.033s-.697.044-.774-.023v.112c.199.111.774.089.774.089m7.142-1.19l-.033.156.332-.023c-.056 0 .022-.111 0-.133-.1-.022-.2 0-.299 0m-7.75 1.623c0 .022.022.045 0 .056.166.333.707.111 1.14.178h-.013a.742.742 0 0 1 .244-.023c-.022-.044 0-.066-.033-.111l.044-.01c-.476-.045-.918-.001-1.382-.09m7.628-1.467c0-.034-.022-.134 0-.145l-.265.01c-.022.035-.01.112-.022.157.077-.011.188 0 .276-.022m-6.633-.312c.221 0 .431.034.63.056l.022.01c1.294-.01 2.565-.11 3.859-.166l.718-.111c.277-.022.575-.089.84-.1.023 0 .023-.1.023-.11a.161.161 0 0 0-.1-.035l-.696.123c-.067.066-.785.089-.785.089-.498-.034-1.05 0-1.559 0l-1.272-.023c-.265 0-.85.112-1.105.023 0 .044.033.066 0 .09l-.608.01c-.023.078.066.078.044.144m6.843.88l-.718.088-.01.11.706-.11zm-.818-.58c-.022-.033-.044-.077-.088-.066-.254.055-.52.066-.774.144 0 0-.885.045-.951.034-1.139 0-2.344-.09-3.47 0a.11.11 0 0 0-.035.133H12c-.056 0 0 .1-.01.111.175-.033.385 0 .596 0v.022c.022 0 .055.012.055.034 1.16-.034 2.487.067 3.626-.178l.74-.078c.299 0 .52-.033.808-.078.055.011.044-.055.055-.078M9.69 17.33l.021.122c.066.067.94.067.94.067v-.1c-.111-.034-.84-.08-.84-.08zm1.05.734s-.554-.1-.686-.1h-.365l.01.144s.609.112.952.112c.11 0 .088-.156.088-.156m.078.9v-.077c0-.112-.166-.034-.244-.078 0 0-.685-.078-.774-.056-.055.156.177.156.177.156zm1.348 4.025c0 .034 0 .067.023.1.364.111.862.144 1.249.133l2.078-.145 2.212-.222v-.078c-1.416.156-4.146.334-5.562.211m-1.614-6.193l-.01-.01c0-.001.033-.056.022-.112l-.718-.033-.21.044c-.011.078.044.078.11.078zm.797 4.236l-.033-.077c-.01-.056-.144-.067-.144-.067h-.221l-.177-.011-.541-.056.044.168.553.033c.21.056.52.01.52.01m26.268 3.76c-.077-.022-.729-.1-.796 0 0 0 0 .112-.055.134.11.033.663.055.774.1.022-.078.033-.156.077-.234M29.38 8.925c.353-.022.387.078 1.216-.067-.31.045-.277-.156-1.46-.1-.508.033-1.039.156-1.437.245-.332.066-.575.1-.575.122.111.033 1.902-.19 2.256-.2M8.35 13.75c.443.09.875.178 1.328.2v-.11c-.431-.1-.93-.123-1.338-.257v.167m28.359 11.396l-.133.223s.442.033.51-.012c.065-.044.485 0 .485 0s.177.067.022-.089c-.143-.144-.884-.133-.884-.133m-23.826-11.92h.442l-.022-.088c-.155-.022-.276.034-.42.089m1.006-.1h-.221v.09h.221l-.022-.023c.011-.022.033-.044.022-.067m-3.825.812v-.033h.01v-.078l-.276-.034.01.112.256.033m19.348.356c-.022.11.166.167.398.11.232-.066.33 0 .508-.255-.497-.178-.906.145-.906.145m.685-.845c-.409-.067-1.05.2-1.05.2v.133s.265 0 .619-.09c.376-.088.442-.232.442-.232m-.984.934c-.33-.078-1.183.11-1.183.11.056.08.631.08.818.034.198-.033.397-.033.364-.144m7.883 11.14c-.121-.022-.376.034-.486.045-.111.032-.09.165-.177.221l.719.033c-.078-.044-.122-.19-.067-.3M9.678 14.984l.177.01c.044-.154-.111-.1-.188-.143a.499.499 0 0 1 .033.134zm9.928-.49c-.1.023-.553.045-.486.201.077-.022.552-.067.486-.2m-9.674.422c.022.034.033.067.022.078l.332.034c0-.034 0-.056-.022-.078-.11-.034-.232 0-.332-.056-.044-.01-.022.022-.022.034zm7.231-.088c.33 0 .696-.034 1.04-.112l-.012-.144c.022-.111-.1-.078-.144-.1-.265.122-.575.144-.85.222.01.045-.034.11-.034.134m-6.966-.9h-.033c.144.02.42.02.553.01-.166-.044-.354-.055-.553-.1 0 .045-.033.078.022.09m4.102.166l-.011-.111h-.265c-.033.022.022.077-.022.122zm-.442.022l.01-.145h-.364l-.884-.01c-.155 0-.619-.09-.763 0v.144c.652.055 1.36 0 2 .011m8.846-.111v-.034c-.387.023-.807-.033-1.128.045.376.033.752.011 1.117-.022m-12.35 1.034l.199.022v-.1c-.077-.034-.155 0-.221 0-.01.022.022.055 0 .078m4.92-1.034h-.221c-.199-.023-.442 0-.652-.023v.112c.309-.023.597-.023.884-.09m.896 25.25c0 .011 1.061-.267 1.437-.245.387.023.718-.077.718-.077s-2.111-.156-4.544-.078c0 0-2.056.066-2.045.144.033.078 2.278-.022 2.676.256.254.056 1.437 0 1.77.011m.131-7.06l.022.445h.067l-.033-.445zm-2.786-2.802c-.033-.033-.077-.055-.1-.111.056 0 .144.022.19 0-.012-.044-.001-.111.043-.144-.111 0-.221-.034-.343-.045-.044-.033-.144-.033-.21-.022l-.144.4c.664.334 2.068.122 2.742-.022 0-.033-.022-.067-.332-.033a5.527 5.527 0 0 1-1.846-.023m10.15 11.118c.01 0 .022 0 .033.023.132.022.33.044.464-.01l-.1-.09c-.132 0-.287-.01-.397.066m-8.082-7.738c.022-.022.077 0 .11-.022l.01-.445-.142.022zm1.47-18.034l-.51.067.001.067h.487zm.044 17.723l.067-.011.011-.512-.078.045zm3.804 9.673c1.172-.045 2.343.222 3.538.155.497-.033.995-.022 1.514-.044.155 0 1.051-.034 1.128-.19-.553-.066-6.19-.144-6.19.08m13-1.702c-.331.022-.807.033-.85.01l.043.067s1.338.1 1.537.056c0 0-.398-.156-.73-.133m-1.934-.089c-.045.033-.321.089-.321.089v.077c.088.067.84-.066.84-.066l.078-.1s-.553-.034-.597 0"/>
</svg>
