<svg xmlns="http://www.w3.org/2000/svg" viewBox="0 0 50 50">
  <defs>
    <linearGradient id="a" x1="28" x2="12" y1="36" y2="66" gradientUnits="userSpaceOnUse">
      <stop stop-color="#0052cc"/>
      <stop offset=".92" stop-color="#2684ff"/>
    </linearGradient>
  </defs>
  <g transform="translate(7 3) scale(0.54)">
    <path fill="url(#a)" d="M19.64 30.52a1.88 1.88 0 0 0-3.2.35L.2 63.33a1.94 1.94 0 0 0 1.73 2.8h22.6a1.87 1.87 0 0 0 1.74-1.1c4.87-10 1.92-25.36-6.64-34.51z"/>
    <path fill="#2684ff" d="M31.55 1.04a42.81 42.81 0 0 0-2.5 42.27L40 65.04a1.94 1.94 0 0 0 1.73 1.08h22.6a2 2 0 0 0 1.67-2.8L34.85 1.05a1.83 1.83 0 0 0-3.3 0z"/>
  </g>
</svg>
