<svg xmlns="http://www.w3.org/2000/svg" viewBox="0 0 50 50">
  <defs>
    <linearGradient id="a" x1="9" x2="9" y1="17.9" y2=".1" gradientUnits="userSpaceOnUse">
      <stop offset="0" stop-color="#0078d4"/>
      <stop offset=".1" stop-color="#0a7cd7"/>
      <stop offset=".3" stop-color="#2e8ce1"/>
      <stop offset=".6" stop-color="#4897e9"/>
      <stop offset=".8" stop-color="#589eed"/>
      <stop offset="1" stop-color="#5ea0ef"/>
    </linearGradient>
    <linearGradient id="b" x1="9" x2="9" y1="16" y2="2" gradientUnits="userSpaceOnUse">
      <stop offset="0" stop-color="#fea11b"/>
      <stop offset=".3" stop-color="#fea51a"/>
      <stop offset=".5" stop-color="#feb018"/>
      <stop offset=".8" stop-color="#ffc314"/>
      <stop offset="1" stop-color="#ffd70f"/>
    </linearGradient>
  </defs>
   <circle cx="25" cy="25" r="25" fill="#fff" class="icon-circle"/>
  <g transform="translate(7 7) scale(2)">
  <path fill="url(#a)" d="M17.9 10V8l-.3-.2-2.2-.7-.5-1.4 1-2.3L14.6 2l-.2.1-2 1-1.5-.5L10 0H8l-.2.3-.7 2.2-1.4.5-2.3-1L2 3.4l.1.2 1 2-.5 1.5L.1 8v2l.3.2 2.2.7.5 1.4-1 2.3L3.4 16l.2-.1 2-1 1.5.5L8 18h2l.2-.3.7-2.2 1.4-.5 2.3 1 1.4-1.4v-.2l-1.1-2 .5-1.5zM9 12.9A3.9 3.9 0 1 1 12.9 9 3.9 3.9 0 0 1 9 12.9z"/>
  <path fill="url(#b)" d="M8.5 10.5H4.9a.2.2 0 0 1-.2-.2L9 1.7a.2.2 0 0 1 .2 0h4.2a.2.2 0 0 1 .2.1.2.2 0 0 1 0 .1l-5 6.7h4.9a.2.2 0 0 1 .2.2l-8.3 8.6s-.6.5-.3-.2z"/>
</g>
</svg>
