<svg xmlns="http://www.w3.org/2000/svg" viewBox="0 0 200 200">
  <defs>
    <linearGradient id="a" x1="46" y1="105" x2="152" y2="134" gradientUnits="userSpaceOnUse">
      <stop offset=".2" stop-color="#ff5800"/>
      <stop offset=".42" stop-color="gold"/>
      <stop offset=".7" stop-color="gold"/>
      <stop offset=".9" stop-color="#ff5800"/>
    </linearGradient>
    <linearGradient id="b" x1="50" y1="95" x2="161" y2="95" gradientUnits="userSpaceOnUse">
      <stop offset=".09" stop-color="#ff5800"/>
      <stop offset=".35" stop-color="#ffb414"/>
      <stop offset=".58" stop-color="#ffb414"/>
      <stop offset=".82" stop-color="#ff5800"/>
    </linearGradient>
    <linearGradient id="c" x1="50" y1="112" x2="164" y2="88" gradientUnits="userSpaceOnUse">
      <stop offset=".5" stop-color="#ff5800"/>
      <stop offset=".64" stop-color="#ce056a"/>
      <stop offset=".87" stop-color="#ce056a"/>
      <stop offset=".95" stop-color="#ff5800"/>
    </linearGradient>
    <linearGradient id="d" x1="55" y1="69" x2="167" y2="84" gradientUnits="userSpaceOnUse">
      <stop offset=".15" stop-color="#ff5800"/>
      <stop offset=".3" stop-color="#c80000"/>
      <stop offset=".48" stop-color="#c80000"/>
      <stop offset=".91" stop-color="#ff5800"/>
    </linearGradient>
  </defs>
  <path fill="url(#a)" d="M93.8 163c-2-.8-4-2.2-6.2-4.1a44.8 44.8 0 0 1-6.6-8c-2.3-3.5-4.8-7.8-7.3-13.1a349.2 349.2 0 0 0-9-17.6c-2.5-4.3-4.6-7.7-6.5-10.3a38.2 38.2 0 0 0-5.2-6 70.5 70.5 0 0 0-5.4-4.5l1.8-2.7a85.3 85.3 0 0 1 7.9 5.4 31 31 0 0 1 5.9 6.4 94.5 94.5 0 0 1 6 10c2.3 4.2 5.2 9.7 8.7 16.6a141 141 0 0 0 6.5 11.6A52.7 52.7 0 0 0 90 154a16.3 16.3 0 0 0 5 4 9.8 9.8 0 0 0 9.4-.5c1.5-.9 3.2-2.6 5.2-5a85.5 85.5 0 0 0 6.6-10.6 484 484 0 0 0 9.1-17.6c3-5.9 5.7-10.8 8.4-14.8a49.4 49.4 0 0 1 8.5-9.6 30.1 30.1 0 0 1 9.4-5.6 50.3 50.3 0 0 1 11.6-2.5l-2.2 3.9a56 56 0 0 0-9.5 3.6 31.8 31.8 0 0 0-7.7 5.5 47 47 0 0 0-6.8 8.6 127.7 127.7 0 0 0-7.1 13 312.6 312.6 0 0 1-10 19.4c-2.9 5-5.5 8.7-7.8 11.3a20.8 20.8 0 0 1-6.3 5.3c-2 1-3.9 1.4-5.9 1.5a15.5 15.5 0 0 1-6-1" transform="matrix(1.20186 0 0 -1.20186 -28.2 226.4)"/>
  <path fill="url(#b)" d="M64 105c-4-1-7.7-2.4-10.9-4.2l-3.3-1.6 1.8-2.1a67.6 67.6 0 0 0 12.2 3.4 57.8 57.8 0 0 0 12.2.9c2.7-.1 5.2-.5 7.7-1.2a57.6 57.6 0 0 0 7-2.6 91.6 91.6 0 0 0 6.8-3.4 112.1 112.1 0 0 1 7-3.5c3.3-1.6 7-3 11.3-4a67.2 67.2 0 0 1 15-2 52 52 0 0 1 30 6l-.6 2.9c-4-1.4-8.6-2.5-13.7-3.2a90.4 90.4 0 0 0-15.5-.8c-5.6.2-10.3.9-14 2a78.5 78.5 0 0 0-10.4 3.7 97 97 0 0 0-7.3 3.6 111.3 111.3 0 0 1-7 3.6 49.3 49.3 0 0 1-7.5 2.6 37.6 37.6 0 0 1-10 1.3c-3.5 0-7-.5-10.7-1.3" transform="matrix(1.20186 0 0 -1.20186 -28.2 226.4)"/>
  <path fill="url(#c)" d="M131.8 131.5c-2.1-1-4.4-2.7-6.9-5.4a97.4 97.4 0 0 1-8.6-11.2A608.4 608.4 0 0 1 104 96a82 82 0 0 0-14.7-18.6 19.3 19.3 0 0 0-13.2-5.5c-4.6.2-9 2.6-13.3 7.4a56.2 56.2 0 0 0-10.3 19.2l-5 .9c2.7-10 6.6-18 11.8-23.6C64.6 70 70 67 76 66.9c5.6-.2 11 1.9 16 6a88 88 0 0 1 16.5 20.8 698.4 698.4 0 0 0 11 17.1c3 4.5 5.6 8 7.8 10.5s4.2 4.2 5.9 5.1c1.7 1 3.4 1.4 5.3 1.3 4-.1 7.6-2.8 11-8a100 100 0 0 0 10.3-24.5L165 93a99 99 0 0 1-11.5 29.7c-4.4 6.5-9.3 9.8-15 10a17.2 17.2 0 0 1-.6 0c-2.2 0-4.3-.4-6.2-1.2" transform="matrix(1.20186 0 0 -1.20186 -28.2 226.4)"/>
  <path fill="url(#d)" d="M51.2 95.2a60 60 0 0 0 10.8-2 40.4 40.4 0 0 0 8.8-4c2.8-1.6 5.6-3.8 8.4-6.5 2.8-2.7 6-6 9.5-10A763.3 763.3 0 0 1 100 60c3-3.3 5.6-5.8 7.8-7.6a22 22 0 0 1 5.8-3.6c1.7-.6 3.6-1 5.7-1 3.8-.2 7.3.9 10.6 3.2 3.2 2.4 7 6.3 11 11.9a3160.8 3160.8 0 0 0 7.6 10l5.3 7a195.6 195.6 0 0 0 5 6A597.8 597.8 0 0 0 165 93l-3 1.6a779 779 0 0 1-6.8-6.6 110 110 0 0 1-5.3-5.7 122.1 122.1 0 0 1-5.6-6.8 1687.2 1687.2 0 0 0-7.5-9.8 52.2 52.2 0 0 0-9.7-10.5 12.4 12.4 0 0 0-7.7-2.6 12.7 12.7 0 0 0-4.1.9c-1.4.5-3 1.6-4.9 3.3a106 106 0 0 0-7.2 7.1 553.2 553.2 0 0 0-11.2 12.6c-3.7 4.3-7 7.8-10 10.6a49.3 49.3 0 0 1-9 6.6 34.3 34.3 0 0 1-9.4 3.6c-3.3.7-7 1.3-11.3 1.6z" transform="matrix(1.20186 0 0 -1.20186 -28.2 226.4)"/>
</svg>
