<svg xmlns="http://www.w3.org/2000/svg" viewBox="0 0 50 50">
  <path fill="#FF7800" d="M40.6 30.5c-1.1-1-2-1.2-2.8-1.8a6.6 6.6 0 0 1-1.3-9.2c.6-.8 1.4-1.4 2.2-2 1-.5 1.7-1.4 2.2-2.3a5.6 5.6 0 0 0-6-7.8c-1 .2-2 .6-2.8 1.4-1 .8-1.1 1.6-2.1 2.6a7.2 7.2 0 0 1-5.8 2 7 7 0 0 1-3.2-1c-1.1-.4-1.6-1.2-2.6-1.4-1-.2-2 0-2.6.8-1 1-.8 1.9-.4 3A10.9 10.9 0 0 1 12 27c-1.1 1-2 1.2-2.8 2A4 4 0 0 0 8 31.9a4 4 0 0 0 3.2 3.9c1.5.2 2.8-.4 3.2-.6 3-1 6.7-.8 9.4 0a17 17 0 0 1 6 3.3c.8.7 1.5 1.6 2.4 2.3 2.3 1.6 6.4 2 9-1.4 2-2.7 1.7-6.5-.7-8.8"/>
  <path fill="#FFF" d="M29.5 18.4c-1 0-1.2.7-1.2 1.2v.9A4.5 4.5 0 0 0 21 20c-1 1-1.5 2.5-1.4 4a6 6 0 0 0 1.4 4c2 2.2 5.5 2 7.2-.4v1c0 .4.4 1 1.2 1 .8 0 1.2-.7 1.2-1.1v-9c0-.8-.7-1.2-1.2-1.2m-4.3 9c-1.8 0-3.1-1.6-3.1-3.4 0-2 1.3-3.4 3-3.4 2 0 3.2 1.7 3.2 3.4 0 1.8-1.3 3.5-3.1 3.5"/>
</svg>
