<svg xmlns="http://www.w3.org/2000/svg" viewBox="0 0 50 50">
  <circle cx="25" cy="25" r="25" fill="#fff" class="icon-circle"/>
  <path fill="#252f3e" d="M16.49 24.5c0 .49.05.89.15 1.18.1.3.23.61.42.96.07.1.1.21.1.3 0 .14-.09.27-.26.4l-.84.56a.64.64 0 0 1-.34.12c-.14 0-.27-.06-.4-.18a4.1 4.1 0 0 1-.48-.63c-.14-.23-.27-.48-.41-.78a4.92 4.92 0 0 1-3.92 1.83 3.65 3.65 0 0 1-2.66-.96 3.42 3.42 0 0 1-.99-2.55c0-1.13.4-2.05 1.21-2.75.82-.69 1.9-1.03 3.27-1.03.45 0 .91.04 1.4.1.5.07 1 .18 1.54.3v-.98c0-1-.21-1.71-.63-2.13-.42-.4-1.14-.6-2.17-.6-.46 0-.94.04-1.44.16a10.45 10.45 0 0 0-1.9.63.83.83 0 0 1-.21.04c-.19 0-.28-.13-.28-.41v-.65c0-.22.02-.38.1-.47a1 1 0 0 1 .36-.28 7.69 7.69 0 0 1 1.68-.6 8.08 8.08 0 0 1 2.08-.25c1.58 0 2.74.36 3.49 1.08.73.71 1.1 1.8 1.1 3.27v4.32zm-5.4 2.02c.43 0 .88-.08 1.36-.24.48-.16.9-.45 1.27-.85.21-.26.37-.54.45-.86.08-.32.13-.7.13-1.15v-.56a11.1 11.1 0 0 0-2.47-.3c-.9 0-1.55.16-1.98.52-.45.36-.66.87-.66 1.54 0 .62.16 1.09.5 1.4.32.34.78.5 1.4.5zm10.68 1.44c-.24 0-.4-.04-.5-.14-.1-.08-.2-.26-.28-.52l-3.13-10.29a2.33 2.33 0 0 1-.12-.53c0-.21.1-.33.32-.33h1.3c.26 0 .43.04.52.13.1.08.2.27.27.52l2.24 8.81 2.07-8.8c.07-.28.15-.45.26-.53.1-.08.29-.13.53-.13h1.06c.26 0 .43.04.54.13.1.08.2.27.25.52l2.1 8.92 2.3-8.92c.09-.27.18-.44.27-.52.1-.08.28-.13.52-.13h1.24c.21 0 .33.1.33.33 0 .07 0 .13-.02.21-.02.08-.04.19-.1.34l-3.2 10.29c-.09.26-.18.44-.29.52a.85.85 0 0 1-.5.13H28.6c-.25 0-.42-.04-.53-.13-.1-.1-.2-.27-.25-.54l-2.07-8.58-2.05 8.57c-.06.27-.14.44-.25.53-.1.1-.3.14-.53.14h-1.15zm17.11.36a8.85 8.85 0 0 1-3.58-.78c-.21-.12-.36-.25-.41-.37a.95.95 0 0 1-.08-.37v-.68c0-.28.1-.41.3-.41.08 0 .16 0 .24.04l.34.13a7.26 7.26 0 0 0 3.04.63c.83 0 1.49-.14 1.94-.43.45-.3.7-.72.7-1.27 0-.37-.13-.68-.37-.93s-.69-.48-1.34-.7l-1.93-.6c-.98-.3-1.7-.75-2.13-1.35a3.17 3.17 0 0 1 .65-4.5c.4-.3.85-.53 1.38-.7a6.68 6.68 0 0 1 3.44-.03c.27.08.52.14.76.22.24.08.42.16.56.24.18.1.32.22.4.34.08.1.12.25.12.44v.62c0 .28-.1.43-.31.43-.1 0-.28-.06-.5-.16a6.08 6.08 0 0 0-2.56-.52c-.76 0-1.36.12-1.77.37-.41.25-.63.64-.63 1.19 0 .37.13.69.4.94s.76.5 1.47.73l1.89.6c.96.3 1.65.73 2.06 1.28.41.55.61 1.17.61 1.86 0 .58-.12 1.1-.34 1.55-.24.45-.56.85-.98 1.17-.4.33-.9.57-1.47.75-.6.18-1.23.28-1.9.28z"/>
  <path fill="#f90" d="M41.4 34.79c-4.38 3.23-10.74 4.95-16.22 4.95a29.34 29.34 0 0 1-19.8-7.55c-.4-.38-.04-.89.46-.6a39.93 39.93 0 0 0 19.8 5.26c4.87 0 10.2-1 15.12-3.09.73-.33 1.36.48.64 1.02zM43.22 32.7c-.56-.7-3.7-.34-5.12-.16-.43.05-.5-.32-.1-.6 2.5-1.76 6.6-1.25 7.09-.67.48.6-.14 4.71-2.48 6.68-.36.31-.7.15-.55-.25.54-1.32 1.72-4.28 1.16-5z"/>
</svg>
