<svg xmlns="http://www.w3.org/2000/svg" viewBox="0 0 50 50">
  <g transform="translate(7 7) scale(2)">
    <defs>
      <linearGradient id="topright" x1="13.25" x2="8.62" y1="13.02" y2="4.25" gradientUnits="userSpaceOnUse">
        <stop offset="0" stop-color="#1988d9"/>
        <stop offset=".9" stop-color="#54aef0"/>
      </linearGradient>
      <linearGradient id="botright" x1="11.26" x2="14.46" y1="10.47" y2="15.99" gradientUnits="userSpaceOnUse">
        <stop offset=".29" stop-color="#4fabee"/>
        <stop offset=".74" stop-color="#2a93e0"/>
      </linearGradient>
    </defs>
    <path fill="#50e6ff" d="M1 10.19l7.93 5.14L17 10.17l1 1.18-9.07 5.84L0 11.35l1-1.16z"/>
    <path fill="#fff" d="M1.61 9.53L8.93.8l7.47 8.74-7.47 4.72L1.6 9.53z"/>
    <path fill="#50e6ff" d="M8.93.81v13.45L1.6 9.53 8.94.8z"/>
    <path fill="url(#topright)" d="M8.93.81v13.45l7.47-4.72L8.93.8z"/>
    <path fill="#53b1e0" d="M8.93 7.76l7.47 1.78-7.47 4.72v-6.5z"/>
    <path fill="#9cebff" d="M8.93 14.26L1.6 9.53l7.33-1.77v6.5z"/>
    <path fill="url(#botright)" d="M8.93 17.2L18 11.34l-1.01-1.18-8.06 5.16v1.86z"/>
  </g>
</svg>
