<svg xmlns="http://www.w3.org/2000/svg" viewBox="0 0 50 50">
  <defs>
    <linearGradient id="a" x1="23.1" x2="12.3" y1="9.1" y2="41" gradientUnits="userSpaceOnUse">
      <stop offset="0" stop-color="#114a8b"/>
      <stop offset="1" stop-color="#0669bc"/>
    </linearGradient>
    <linearGradient id="b" x1="26.5" x2="24" y1="24" y2="24.8" gradientUnits="userSpaceOnUse">
      <stop offset="0" stop-opacity=".3"/>
      <stop offset=".1" stop-opacity=".2"/>
      <stop offset=".3" stop-opacity=".1"/>
      <stop offset=".6" stop-opacity=".1"/>
      <stop offset="1" stop-opacity="0"/>
    </linearGradient>
    <linearGradient id="c" x1="25.1" x2="37" y1="8.1" y2="39.8" gradientUnits="userSpaceOnUse">
      <stop offset="0" stop-color="#3ccbf4"/>
      <stop offset="1" stop-color="#2892df"/>
    </linearGradient>
  </defs>
  <path fill="url(#a)" d="M19.34 6.62h10.41l-10.8 32.04a1.66 1.66 0 0 1-1.59 1.12h-8.1a1.66 1.66 0 0 1-1.57-2.2L17.76 7.76a1.66 1.66 0 0 1 1.58-1.13z"/>
  <path fill="#0078d4" d="M34.47 28.1H17.95a.76.76 0 0 0-.52 1.33l10.61 9.9a1.67 1.67 0 0 0 1.14.45h9.36z"/>
  <path fill="url(#b)" d="M19.34 6.62a1.65 1.65 0 0 0-1.58 1.15L7.7 37.57a1.66 1.66 0 0 0 1.56 2.21h8.32a1.78 1.78 0 0 0 1.36-1.16l2-5.9 7.17 6.67a1.7 1.7 0 0 0 1.07.4h9.32L34.4 28.1H22.5l7.29-21.48z"/>
  <path fill="url(#c)" d="M32.64 7.74a1.66 1.66 0 0 0-1.57-1.12h-11.6a1.66 1.66 0 0 1 1.56 1.12L31.1 37.6a1.66 1.66 0 0 1-1.57 2.2l11.61-.02a1.66 1.66 0 0 0 1.57-2.19z"/>
</svg>
