<svg xmlns="http://www.w3.org/2000/svg" viewBox="0 0 50 50">
  <g transform="translate(7 7) scale(2)">
    <defs>
      <linearGradient id="gear" x1="9" x2="9" y1="17.89" y2=".11" gradientUnits="userSpaceOnUse">
        <stop offset="0" stop-color="#0078d4"/>
        <stop offset=".06" stop-color="#0a7cd7"/>
        <stop offset=".34" stop-color="#2e8ce1"/>
        <stop offset=".59" stop-color="#4897e9"/>
        <stop offset=".82" stop-color="#589eed"/>
        <stop offset="1" stop-color="#5ea0ef"/>
      </linearGradient>
      <linearGradient id="bolt" x1="11.61" x2="11.61" y1="-451.09" y2="-466.6" gradientTransform="matrix(1.156 0 0 1.029 -4.25 481.61)" gradientUnits="userSpaceOnUse">
        <stop offset="0" stop-color="#fea11b"/>
        <stop offset=".28" stop-color="#fea51a"/>
        <stop offset=".55" stop-color="#feb018"/>
        <stop offset=".8" stop-color="#ffc314"/>
        <stop offset="1" stop-color="#ffd70f"/>
      </linearGradient>
    </defs>
    <path fill="url(#gear)" d="M17.9 9.96V7.93l-.3-.1-2.16-.72-.57-1.38 1.1-2.35-1.42-1.42-.29.14-2.02 1.03-1.4-.57L9.97.11H7.93l-.1.3-.72 2.16-1.38.57-2.31-1.1-1.43 1.42.14.29 1.04 2.02-.57 1.4-2.49.88v2.03l.3.1 2.16.71.57 1.4-1.1 2.34 1.43 1.42.28-.14 2.03-1.03 1.38.57.9 2.45h2.02l.1-.28.72-2.17 1.39-.57 2.34 1.1 1.43-1.42-.15-.29-1.03-2.02.57-1.4zM9 12.9A3.9 3.9 0 1 1 12.9 9 3.9 3.9 0 0 1 9 12.9z"/>
    <path fill="url(#bolt)" d="M8.46 10.51h-3.6a.2.2 0 0 1-.2-.18.16.16 0 0 1 .03-.07l4.3-8.51a.2.2 0 0 1 .19-.1h4.24a.2.2 0 0 1 .2.17.17.17 0 0 1-.03.1L8.53 8.58h4.93a.2.2 0 0 1 .2.18.17.17 0 0 1-.05.13l-8.2 8.52c-.07.04-.62.5-.35-.2z"/>
  </g>
</svg>
