<svg xmlns="http://www.w3.org/2000/svg" viewBox="0 0 1000 1000">
  <circle cx="500" cy="500" r="500" fill="#12273f"/>
  <path fill="#fff" d="M378 307.6c0-.3-.3-.4-.5-.1-5.2 7.3-20.6 13.8-25 29.1a2 2 0 0 1-2.5 1.4c-4.2-1.1-11-1.6-16.7 1.8a1.6 1.6 0 0 1-1 .3c-9.6-.8-26.5 1.5-36 12.9a.7.7 0 0 0 .9 1c25.4-12 42.6-1 47.4 2.7 24.3 18 52.3 65.2 91.9 76.1a1.4 1.4 0 0 1 .6.4 1.7 1.7 0 0 1 .3.8c1.2 6.8 6.7 11.6 12.3 10.6 4.8-.8 8-5.6 8.2-11.3a.6.6 0 0 1 .4-.6c.2 0 .3 0 .5-.2 23.7-7.7 36.7-58 55.8-63.8a.9.9 0 0 0 .6-1.1c-2-5.9-10-12-20.3-12.3a1.6 1.6 0 0 1-1-.5c-4.3-4.2-17.1-8.6-22.3-6.3a.5.5 0 0 0-.3.7c12.2 28 3.8 58-15.8 69.6a.7.7 0 0 1-.8 0 .9.9 0 0 1 0-1c15.4-18.6 15.2-51.3 7.6-67.4-.1-.2-.2-.2-.3-.1l-.2.2c-.1 6-5 12-8.2 18.5a1.3 1.3 0 0 1-2.4-.2c-2.2-7.7.6-13.1 1.5-20.7a194.6 194.6 0 0 0 2-25.4c5.6-.6 8.7-1.9 11-7.7 1.8-4.5 4.8-10 8-18a68.5 68.5 0 0 0 4.8-18c.6-5 0-8.3-.3-13-.3-5 1.7-8.1 1.4-13.2a.8.8 0 0 0-.3-.6 7.5 7.5 0 0 0-3.7-1.5c-2.8-.3-4.9 3.2-2.3 4.6 3.5 1.9 3.2 5.8 2.9 7.4a.7.7 0 0 1-.8.5c-1.4 0-1.5-.8-2.7-1.1a12.2 12.2 0 0 0-4.4-.5c-.4 0-.5.1-.6.6 0 1.5.8 5.5-2.6 7.5a.6.6 0 0 1-.9-.2c-1.4-2.8-2.7-8.4-3.6-11.6-1.8-6 2-9.9 3.8-10.7 3-1.4 8.1-1.6 11.2-1.2a4.7 4.7 0 0 1 2.8 1.3c.1.2.3 0 .2-.2-2.2-11-1.2-19.7-7-25.7-3.4-3.6-17.2-8.8-34.7-7-11 1.2-16.7 5.8-29 3.4a.7.7 0 0 1 0-1.5c18.6-4.7 22.7-19.3 51.7-17.2 11.4.9 11.4 8.8 11.2 11.9a1 1 0 0 0 .6 1 25.1 25.1 0 0 1 11 16.6.7.7 0 0 0 1.4.1c1.5-3.5 2.4-7.7 1-12-1.3-4-5.2-4.6-6.6-9.2-5.5-23.8-41.1-13.7-55.5-19-7.7-2.8-27.7.4-48.6 16.9-9.2 7.2-14.9 20.5-14 41.1-.1 6-2.3 25.2 8.3 42.3 3 4.8 7.3 8.2 12.2 13.4a.2.2 0 0 0 .4-.2c-1.8-12.1-13.7-24-13.1-44.9 1.1-10.8 6.8-20.7 12.4-23a.7.7 0 0 1 .8 1 30.3 30.3 0 0 0-1 15.5.7.7 0 0 0 1 .4c5-3.3 6.2-12.8 13.4-20 4.9-5 14.5-3.9 26.4-8.5a.8.8 0 0 1 1 .8c-2.3 12.8-14.7 16.6-18.5 35-2.4 12.4-18.8 16.6-19.7 20.3a.6.6 0 0 0 .1.6c5.6 7.6 14 5 15.2 7.5-2.4 2-6.5 1.7-6.1 5.2 4.3 22 1.6 35.3-2.7 43.4-3.1 6.1-12.8 8.4-21.6 9.3a1.3 1.3 0 0 1-1.5-1.6 43 43 0 0 1 7.5-13.7c1.7-2.2-1.5-1.8-5-1.3a1.1 1.1 0 0 1-1-1.8c3.6-4 9.2-10.2 9.4-18.6zm88.6-11.3c.8.5 1.1 1 .5 1.6-.2.2-1.6.6-1.8.8-2.2 2.5-5 3.8-9.8 3-6.2-1.2-9.7-5.4-16-5-.8 0-.4-2.4 2.2-2.4 3 0 5.6-2.9 12-3.3 2.3-.2 3.3 1.8 6 .8s5 3.4 6.9 4.5zm-6.3-20.8a5.5 5.5 0 0 1 4.3 3.8c.6 1.7-3.5 5.3-5.8 5.1s-5.1-2.2-8.4-2.6c-1.5-.1-1.2-1.8.2-3.1a8 8 0 0 1 3.3-1.8c2.7-.7 3.4-1.8 6.4-1.4zM425 256.7c2.2-1.8 3.2-3 6.4-4.4 2.8-1.3 2.4-4.4-4.9-3.4-2 .3-1.7-1 1.4-3.1 5.3-3.5 6-3.8 16.6-1.8a40.5 40.5 0 0 1 8.2 2.3c.7.2 1.7 2.7.6 5-2.6 5.3-3.7 9.2-8.2 8.1-5-1.2-7.6.8-13.2-1-3.4-1-4.4.3-5.6.7-2.7.7-3.4-.8-1.4-2.4zm-10.2 52c8.5 5.7 21 13 36.1 14 2.1.3-3.2 10.1-10.5 11.2-12 1.7-23.7-15-27-24.1a1 1 0 0 1 1.3-1.2zm-38.3 42.2c39.1 14.4 45.8 49.7 60.1 66.5a1 1 0 0 1 0 1.3 1 1 0 0 1-1.1.1c-25-10.5-32.6-43.3-59.8-66.5a.8.8 0 0 1 .8-1.4zm407 411.4a1.7 1.7 0 0 0 3-1.6c-70-150.7-202.5-142.2-266-254.6-.6-1.1-2.5-.1-2 1.1 55.7 139.7 190.3 137.2 265 255.1zM145.9 610.1a.7.7 0 0 0 1.4.2c13.5-55.8 47.7-75 77.5-136.3 18.2-37.4 20.5-67.7 49-101.2a.7.7 0 0 0-1-1.1c-38 24.7-44.4 66.3-62.8 97.5-26.5 44.6-67 51.6-64.1 141zM391 648.5c14.8-9.9 36.2-17 56.9-16.7 38.3.7 58.3-8.4 69.9-8.4a46 46 0 0 1 24.8 6.8c1.4 1 3 0 2.6-2.1a26.5 26.5 0 0 0-9-16c-6.8-5.1-25.7-12.1-39.4-22.3-14.6-10.8-33.5-4.3-56.6-3.5-24.4.9-29.5-2-42.5-1.5-16.9.6-26.2 2.8-31.7 8-7 6.5-4 14.7-2 18.2a2 2 0 0 0 3 .7c6-4.1 26.3-13.7 61.6-4.8a1.4 1.4 0 0 1-.2 2.7c-34.5 1.8-47.1 8.5-53.5 16a2.2 2.2 0 0 0-.2 2.6c3.7 5.7 6 13.8 9.8 19.1a4.8 4.8 0 0 0 6.6 1.2zm146.8 8.1a59.8 59.8 0 0 0-15 7.7 1.5 1.5 0 0 0 0 2.3c13.6 10.7 37.7 27.5 44.6 43.7A621.9 621.9 0 0 0 652 848a1.8 1.8 0 0 0 3.2-1.5c-10-47.4-13-113.2-25.7-138.6-7.3-14.6-44.3-44.5-72.8-61.3-26.5-12.4-52.7-2.8-72.8-.2a1.2 1.2 0 0 0-.2 2.4c20 6.6 39.5 1.8 54 4.9a1.5 1.5 0 0 1 .2 2.9M380 523.7c7.8 22.3 15.6 32.6 28 43.4s55.2 7.8 61.7 4.2c4.4-2.5 5.7-8.1 6.6-11.3 3.4-12.2 5.6-44 9-49 10.9-15.7 16.7-28.2 17.1-42.1.4-11.8-4.5-23.3-8.4-48.1a1.4 1.4 0 0 0-2.6-.6c-5 7.8-14 18.5-27 23.7a1.3 1.3 0 0 0-.4.3c-8.5 8.7-11.2 25.5-14.8 34.2a2.5 2.5 0 0 1-4.7-.4 94.6 94.6 0 0 0-14.8-32.9 1.4 1.4 0 0 0-.8-.5c-30.6-7-47.8-26.5-62.3-45a2 2 0 0 0-3.5 1.2c-1.4 33.5-6.5 60.6-17.3 77.3a5.7 5.7 0 0 0-1 3.1c.3 14.5 3.4 41.3 10.4 57.5 7.3 16.5 16.5 26.1 21.3 26.9 9.4 2.6-1-19.8-1.4-41a2.5 2.5 0 0 1 4.9-1zm462.4-203.2a.7.7 0 0 1-.5.5 194.7 194.7 0 0 0-29.8 8.6.7.7 0 0 1-.9-1.1c10-11.9 5.4-26.3 11.4-34.4a.8.8 0 0 0-.8-1.1c-29.4 9.6-29.3 32.1-25.5 42.8a.7.7 0 0 1-.4.9 191.2 191.2 0 0 0-21 12 .7.7 0 0 1-1.2-.9c6.1-14-2.1-26.5 1.5-35.8a.8.8 0 0 0-1.1-.9c-24.8 16.7-19.9 37.5-13.7 47.2a.7.7 0 0 1-.1 1 208.7 208.7 0 0 0-19.7 18l-2.2-1a29.5 29.5 0 0 0-9.3-2.4c-5.1 0-9 .2-16.7.4-3.6-1-5-2.2-9.2-.6-7 2.6-9.9 3.4-12 5.1a71 71 0 0 0-13.2 12.5c-3.2 4.5-5 9.1-6.6 12.9-4 5.7-13 17-29 29.7-4.3 3.4-21 14.5-31.4 22.5-8.2-2.6-18.5-11.4-27.4-18.3s-15.4-13.3-21.3-21.7c-6.6-9.6-9-15.6-19.6-27.1a70 70 0 0 0-19.5-13.6 1.6 1.6 0 0 0-.7-.2c-4.4-.2-14.9 6.3-17.8 14.6-2.8 8.2-4.9 35.5 2.9 50.3a2.8 2.8 0 0 0 3.4 1.2c2.8-1 5.7-1.2 7.7.3 7.2 5.4 9.4 8 23.2 22.6a123 123 0 0 0 51.6 33.6c4.4 1.7 17.8 7.6 22.2 7.3s12.1-5.7 26.5-18c14.9-12.8 22.2-24 28.6-33.7a447 447 0 0 1 24.6-31.4 34 34 0 0 1 10-1.3 1.2 1.2 0 0 1 1 1.8 195 195 0 0 0-17.4 38.9c-2.8 9.3 7 6.6 8.4 1.3 3-11.5 8.8-26 17.7-41.4a2.5 2.5 0 0 1 2-1.3c6.4-.4 8.7-1 10-1.3a6.4 6.4 0 0 0 4.4-5.6c0-1.2.5-1.5 3.1-2.5 1.6-.6 3.4-3.3 3.5-5.3a2.5 2.5 0 0 0-.9-2.1 1 1 0 0 1 .1-1.5c1.1-.8 3-1.3 4-2.6a13 13 0 0 0 2-4.9.8.8 0 0 1 .8-.6c2.6-.4 5.4 0 7.1-1.2 3.2-2.1 3-2.3 3.3-6.5.1-1.8-1.6-3-2.5-3.6l-1.8-1a.6.6 0 0 0-.8.2l-.5.7a3 3 0 0 1-2 1.2h-2.6a.7.7 0 0 1-.6-1.2 206.6 206.6 0 0 1 32.3-28.4.8.8 0 0 1 1.2.3c12 27.9 44.9 18.1 57 13a.7.7 0 0 0-.4-1.4c-20.3 1.9-27.5-16.6-49.5-15.8a.8.8 0 0 1-.5-1.4 197 197 0 0 1 25.2-13.6.8.8 0 0 1 1 .4c13.5 28.4 46.5 16.1 58.3 10a.7.7 0 0 0-.4-1.3c-19 3-27.5-12.6-46.7-12.6a.7.7 0 0 1-.3-1.4 204.6 204.6 0 0 1 21.7-6.7 1.9 1.9 0 0 1 1.2 0c21.9 9.4 37.2-6.6 59.8-6.5a.7.7 0 0 0 .5-1.3c-17.5-13.2-53.1-17.8-61.7 4.7zm-117.7 72c-2.5-.2-9.7-1.8-14-2a5 5 0 0 0 1 6.2.6.6 0 0 1-.6 1c-4.5-1.3-6.8-1.7-8.6-.1a3.4 3.4 0 0 0-.5 3.7 1.3 1.3 0 0 1-.7 1.7 4.2 4.2 0 0 0-1.1.6 2.7 2.7 0 0 0-.7 3.2 17.7 17.7 0 0 0 2.6 4.2 11.8 11.8 0 0 0 2.3 1.9.8.8 0 0 1-.4 1.4c-7 .2-14-3.3-16-10.5a1.4 1.4 0 0 1 .6-1.6c8.6-4.8 13.5-13.6 15.8-15.5s8.1-.5 12.3.4c3.9.8 11.1 3 17.2-1.5a.6.6 0 0 1 1 .4c.5 5-6.5 6.6-10.2 6.4zm-359.5 284a1.4 1.4 0 0 1 2.8 0c1.3 5.6 2.8 13.5 3.7 15.5a5.6 5.6 0 0 0 4.2 3.1 2 2 0 0 0 2.2-2.3c-.3-3.8-1.1-10.8-1-15.3a150 150 0 0 0-1.6-22c-3-11.5-5.3-21.8-12.1-30.9-2.7-3.5-44-48.3-48.3-53s-18.5-23.8-28.7-37.6a1 1 0 0 1-.3-.5 2.4 2.4 0 0 1 0-.6c1.1-7.3 8.5-21.5 16.2-38a1.8 1.8 0 0 0 .1-1.2l-20.2-87.5a.7.7 0 0 0-1.3 0c-4.3 15-9 35.3-11.1 42.3-3.7 11.3-19.7 48-23.6 65a123 123 0 0 0-2.8 18.8c-.5 6.5-3.4 16.4.9 22l4.3 5.7a223.7 223.7 0 0 0 21.8 24.2c16.9 16.2 45.7 35.5 49.8 39.6 7 6.9 7.3 7.4 8.6 20 .6 5.1.6 26.3 1.4 28.3 1.4 3.2 3.6 4 7.9 9a2.2 2.2 0 0 1 .4.6c3 8.2 3.8 10.6 4.8 14.7.8 3 2.3 4.2 4.4 4.2a1.8 1.8 0 0 1 1.8 1.6c.1 1.9.4 3 .7 5 1.1 8.6 2.9 17.7 2.9 18.9 0 1.5 6 4 7.5-6.3 1-8.1.3-13.6.4-19.6a112 112 0 0 1 4.2-23.7zM287 319.2l5.8 1.2a1.5 1.5 0 0 0 1.8-1.7c-2-10-11.5-51.4-39.4-89.5a1.1 1.1 0 0 0-2 .5 246.4 246.4 0 0 0 5 97.7 1.5 1.5 0 0 0 2.4.8l5-4a3.5 3.5 0 0 1 5.7 2L329.6 571c3 12.4 7.4 18 14.6 21a1.6 1.6 0 0 0 2.1-1.7l-30.1-126.5a1.7 1.7 0 0 1 0-1c6.2-15.5 11.6-31 14.6-44a1 1 0 0 1 2 0c1.3 5 2.5 15.2-1.7 30-2.2 7.7 0 12.7 2 16.5a1 1 0 0 0 1.6.1 109.9 109.9 0 0 0 12-88.1c-4-13-28.4-29.2-43-17a35.3 35.3 0 0 0-7.7 10 1.2 1.2 0 0 1-2.2-.2c-5-21.2-9-37.3-11.1-46.6a3.6 3.6 0 0 1 4.2-4.3zM907.9 363.2s-1-3.1-3.9-2c-2.7 1-1.7 3.9-1.7 3.9a416.9 416.9 0 0 1 21.3 139.5 417.6 417.6 0 0 1-275.7 385.3 6.2 6.2 0 0 1-7-2c-48.6-62.6-67.9-127.7-92-170.7-12.3-21.7-49-39-79.6-65.3-1.6-1.4-3.6-2.3-8-2.5-12.2-.5-48.5-6.9-73.3 34-6.4 10.5 19.2 49.4 29.9 55 22.6 12 55.2-8.2 72.6-20.5a3 3 0 0 1 4.2 3.9c-11.5 19.2-58.4 97.3-82.1 69.9a1.6 1.6 0 0 0-2.8 1.2c3.5 25.6 20.2 56.1 41.7 45 25.6-13.2 35-37 51.3-79.4a2.5 2.5 0 0 1 4.8 1.1c-5.4 52.6-21.3 117-59 148.5a7 7 0 0 1-5.5 1.6q-10.4-1.6-20.6-3.6a1.4 1.4 0 0 1-1-1.1l-48.8-204.1a1.3 1.3 0 0 0-2.4-.4c-2 3.9-4.2 11.1-5 19.7v.5l43 180a1.5 1.5 0 0 1-1.9 1.8 412 412 0 0 1-40.6-12.2 1.5 1.5 0 0 1-.9-1.8 358.8 358.8 0 0 0 12.4-73.3v-.4l-15.5-66.4c-.4-1.7-1.4-3-2.7-2.7s-2.1 1.4-2 3.5l.6 16.8a1.2 1.2 0 0 1-1.3 1.2 1076 1076 0 0 1-71.6-9.6 1.3 1.3 0 0 1-.8-2c15.5-20.7 31.3-41.2 47-61.1a1.2 1.2 0 0 0 .2-1 25.2 25.2 0 0 0-3-8.3l-.3-.3c-4.5-3.1-8.4-5-10.4-7.6a1.2 1.2 0 0 0-2 0 5658.3 5658.3 0 0 0-42 53.6 1.2 1.2 0 0 1-2.2-.8l2-20.5a1.2 1.2 0 0 1 .3-.6c14-18.2 28-36 41.6-53a1.3 1.3 0 0 0 .3-1l-.6-10.5a1.2 1.2 0 0 0-2.1-.6l-35 44.5a1.3 1.3 0 0 1-2.2-.9c2.1-19.5 4.5-39 7-57.6a1.2 1.2 0 0 1 1.4-1l25.5 2.3a1 1 0 0 0 .7-1.9l-3.1-2.2a700 700 0 0 1-27.9-21.4 1.5 1.5 0 0 0-.8-.3 4461 4461 0 0 1-97.7-8.8c-6.9-.7-13.3.9-16.6 9.7a438 438 0 0 0-22.4 88.7 1.5 1.5 0 0 1-2.8.5 415.5 415.5 0 0 1-50.1-206A418.3 418.3 0 0 1 517 79.8a417 417 0 0 1 337.9 187.7s2 2.9 4.5 1.3.4-4.5.4-4.5a429.6 429.6 0 0 0-348-194.2A429.2 429.2 0 0 0 70 492a430 430 0 0 0 428.6 438.2c232.7.8 428.5-192.1 431.5-424.7a429.6 429.6 0 0 0-22.3-142.3zM263.1 835.8l1-15a1.3 1.3 0 0 1 1.6-1.2l1.5.3a1.3 1.3 0 0 1 .8.7c4.2 8.3 8.5 16.8 13.3 25.8a1.1 1.1 0 0 1-1.6 1.5q-8.1-5.3-16-10.9a1.5 1.5 0 0 1-.6-1.3zM297 858c-5.7-9.9-11.8-21-18.2-33.3a1.3 1.3 0 0 1 1.3-1.8 653 653 0 0 0 72.4 11.8 1.3 1.3 0 0 1 1.2 1.4 345.8 345.8 0 0 1-9.2 44.2 1.5 1.5 0 0 1-2 1 414.8 414.8 0 0 1-44.2-22 4.6 4.6 0 0 1-.8-.6 3.2 3.2 0 0 1-.5-.7zm-64-234.4l37 4a1.2 1.2 0 0 1 1.2 1.4c-6 40.4-10.9 87-14.7 135a1.3 1.3 0 0 0 1 1.3c30 6.1 63.8 11.7 99.2 15.3a1.3 1.3 0 0 1 1.1 1.3c-.2 14.4-1 28-2.4 40.7a1.2 1.2 0 0 1-1.3 1 771.3 771.3 0 0 1-99.2-17.2 1.2 1.2 0 0 0-1.4 1.1l-1.2 18a1.5 1.5 0 0 1-2.4 1.2 419.9 419.9 0 0 1-78.2-79.8 1.5 1.5 0 0 1 1.6-2.3c11.3 3.4 25.8 7.3 42.5 11.4a1.3 1.3 0 0 0 1.6-1.1c3.8-46.5 8.5-89.8 14.2-130.3a1.2 1.2 0 0 1 1.4-1zm-40.6-5l27.3 3.4a1.3 1.3 0 0 1 1.1 1.4c-2.5 18-4.8 36.2-6.9 54a1.2 1.2 0 0 1-2.4.4 871 871 0 0 1-20.4-57.6 1.2 1.2 0 0 1 1.3-1.6zm-26.8 19.1l2-6.3a42.4 42.4 0 0 1 2.7-6.6 1 1 0 0 1 1.9.2 1892 1892 0 0 0 36.7 98 3.7 3.7 0 0 1 .2.9 4.8 4.8 0 0 1 0 1l-1.4 16.3a1.1 1.1 0 0 1-1.3 1l-1-.3a1.2 1.2 0 0 1-.7-.6 1550.3 1550.3 0 0 1-39-102.8 1.2 1.2 0 0 1-.2-.7zm-3.7 13a1 1 0 0 1 2.1-.1c7.6 23.4 19 54.4 31.8 86.8a1.3 1.3 0 0 1-1.5 1.7 307 307 0 0 1-35-10.6 2.6 2.6 0 0 1-1.2-1q-3.7-5.5-7.2-11.1a3 3 0 0 1-.5-2 479.3 479.3 0 0 1 11.5-63.6z"/>
</svg>
