<svg xmlns="http://www.w3.org/2000/svg" viewBox="0 0 50 50">
  <path fill="#f50" d="M 29.701 25.135 L 29.701 31.988 C 29.701 32.246 29.488 32.459 29.23 32.459 L 21.559 32.459 C 21.46 32.459 21.379 32.378 21.379 32.28 L 21.379 25.135 C 21.379 24.877 21.581 24.664 21.828 24.664 L 29.23 24.664 C 29.499 24.664 29.701 24.877 29.701 25.135 M 21.525 14.839 C 21.416 14.841 21.332 14.745 21.346 14.638 L 21.346 4.835 C 21.346 4.803 21.329 4.772 21.301 4.757 C 21.265 4.733 21.219 4.739 21.189 4.768 L 17.891 8.099 C 17.779 8.211 17.667 8.48 17.667 8.66 L 17.667 18.462 C 17.667 18.507 17.701 18.552 17.757 18.552 L 29.533 18.552 C 29.645 18.552 29.724 18.63 29.724 18.731 L 29.724 20.492 C 29.724 20.75 29.511 20.941 29.253 20.941 L 17.734 20.941 C 17.706 20.944 17.682 20.961 17.667 20.986 C 17.649 20.999 17.637 21.019 17.633 21.042 L 17.633 33.581 C 17.64 35.02 18.808 36.183 20.247 36.183 L 29.23 36.183 C 29.488 36.183 29.701 36.407 29.701 36.654 L 29.701 38.415 C 29.701 38.527 29.612 38.594 29.522 38.594 L 20.247 38.594 C 17.476 38.594 15.233 36.351 15.233 33.581 L 15.233 10.959 C 15.237 10.92 15.213 10.884 15.177 10.869 C 15.142 10.855 15.102 10.863 15.076 10.892 L 11.756 14.223 C 11.644 14.335 11.532 14.604 11.532 14.772 L 11.532 34.646 C 11.532 38.867 14.949 42.289 19.17 42.295 L 33.335 42.295 C 33.391 42.295 33.447 42.25 33.447 42.206 L 33.447 14.94 C 33.447 14.884 33.391 14.828 33.346 14.828 L 21.525 14.828 Z M 39.324 20.122 L 35.993 16.791 C 35.96 16.769 35.926 16.757 35.892 16.791 C 35.859 16.791 35.836 16.825 35.836 16.858 L 35.836 40.232 C 35.836 40.276 35.87 40.31 35.892 40.321 L 35.926 40.321 C 35.948 40.321 35.971 40.321 35.993 40.299 L 39.358 36.968 C 39.459 36.844 39.571 36.586 39.571 36.407 L 39.571 20.705 C 39.571 20.526 39.459 20.257 39.347 20.144"/>
</svg>