<svg xmlns="http://www.w3.org/2000/svg" viewBox="0 0 50 50">
  <path fill="#8B8C8E" d="M16.57 19.02c-.9.11-1.2.84-1.53 1.63l-.83 2-2.38 5.67c-1.64-.05-4.13.1-5-.22a1.98 1.98 0 0 1-1.1-.74c-.6-.9-.58-2-.56-3.3.07-1.28.14-2 .99-2.75.33-.19.62-.34 1.04-.4.29-.15 3.59-.1 4.75-.12l.01-.04a21.68 21.68 0 0 0 0-1.62h-5.1c-1.49.16-2.67.77-3.34 2.2-.1.22-.24.55-.28.8 0 .06-.03.05-.03.16-.02.14-.05.13-.07.27-.15.65-.13 2.38-.1 3.07.06.66.16 1.4.4 1.97a3.64 3.64 0 0 0 2.63 2.22c1.1.31 5.33.11 7.27.17l2.28-5.75.84-2.14c.06-.1.12-.3.16-.4.07-.11.05-.17.1-.25.06-.12 0-.04.15-.33.06-.12.11-.17.17-.17.15 0 .18.2.3.44l.27.7a234.82 234.82 0 0 0 .8 2.07l1.43 3.52.64 1.65c.06.11.1.29.2.47.03.08.02.11.08.18.32 0 2.3.02 2.15-.03.01-.05 0-.08-.04-.18l-.11-.28-1.13-2.66-1.32-3.1-1.2-2.9c-.58-1.4-.88-1.95-2.53-1.82zm10.5 0c-1.38.11-2.79.44-3.54 1.66-.93 1.48-.88 3.79-.72 5.48.13.94.35 1.76.9 2.45a3.46 3.46 0 0 0 2.1 1.18c.33.07.5.08.78.11.64.09.7.07 5.95.08 4.95-.01 4.91.04 5.06-.06l.03-4.7h5.53c.01.78 0 4.96.03 4.74.03.02.12.02 1.04.02s1 0 1.02-.02c.03.44.02-10.77.01-10.84a26.4 26.4 0 0 0-2.07 0c-.02 0-.02.3-.03 2.21v2.2l-5.55.01c0-.77 0-4.3-.03-4.42 0-.02-.14-.02-1.03-.02H35.5c-.03-.14 0 9.93-.05 9.14 0 .02-.28.03-1.13.03-2.31-.05-1.62.37-.91-.92a7.48 7.48 0 0 0 .22-.56l.1-.45c.13-.77.14-.67.14-1.85 0-.99 0-1.03-.1-1.7a6 6 0 0 0-.32-1.35c-.9-2.72-4.06-2.45-6.38-2.42zm2.15 1.67c1.57.16 2.26.88 2.45 2.49.1 1.3.24 3.52-.7 4.43-.51.5-1.15.58-1.86.66-.74.05-2.56.05-3.15-.4a2.2 2.2 0 0 1-.85-1.2c-.33-1.31-.39-3.75.26-4.9.77-1.29 2.48-1.12 3.85-1.08z"/>
  <path fill="#1167B2" d="M17.55 26.46c-.1-.29-.22-.6-.35-.88l-.06-.2c-.03-.07-.08-.29-.17-.11l-1.68 4.29c-.07.18-.17.32-.11.4.04.03 3.68.03 3.7 0"/>
</svg>
