<svg xmlns="http://www.w3.org/2000/svg" viewBox="0 0 50 50">
  <path fill="#666" d="M4 24.65c0-3.173 2.124-5.363 5.145-5.363 2.04 0 3.701 1.02 4.352 2.606.072.14.108.295.104.453 0 .358-.283.604-.642.604-.283 0-.519-.16-.642-.482a3.267 3.267 0 0 0-3.172-2.03c-2.266 0-3.842 1.719-3.842 4.202 0 2.454 1.558 4.182 3.842 4.182 1.473 0 2.596-.727 3.2-2.219.114-.302.312-.481.614-.481.36 0 .642.283.642.633 0 .141-.019.245-.075.424-.642 1.719-2.285 2.823-4.38 2.823-3.05.01-5.146-2.2-5.146-5.353m17.154 4.475c0 .444-.236.727-.66.727-.416 0-.633-.283-.633-.717V16.719c0-.453.236-.717.66-.717.416 0 .633.264.633.717v2.832H23.4c.396 0 .632.217.632.576s-.236.585-.632.585h-2.247v8.412M31.18 20.25c0 .359-.264.613-.642.613-.142 0-.283-.037-.481-.132a2.352 2.352 0 0 0-1.039-.226c-1.378 0-2.285 1.199-2.285 2.728v5.891c0 .453-.217.718-.642.718-.415 0-.66-.265-.66-.718v-8.969c0-.453.245-.717.66-.717.425 0 .642.264.642.717v.284c.567-.746 1.445-1.133 2.427-1.133.755 0 1.293.15 1.68.387.217.141.34.32.34.566m1.312-.094c0-.453.246-.718.661-.718.425 0 .642.265.642.718v8.969c0 .434-.236.717-.66.717-.416 0-.643-.283-.643-.717v-8.979m-16.606.01c0-.453.236-.718.66-.718.416 0 .643.265.643.718v8.969c0 .434-.246.717-.661.717-.425 0-.642-.283-.642-.717v-8.979m1.671-3.134a1.02 1.02 0 1 1-2.04 0 1.02 1.02 0 0 1 2.04 0m22.998 8.421l-3.54 4.154a.632.632 0 0 1-.52.255.613.613 0 0 1-.623-.604.65.65 0 0 1 .189-.453l3.691-4.182-3.559-4.088c-.142-.16-.217-.293-.217-.472 0-.321.255-.605.642-.605.189 0 .34.085.5.265l3.437 4.031L44 19.703c.16-.19.292-.265.5-.265a.61.61 0 0 1 .633.604c0 .18-.076.312-.218.472l-3.559 4.088 3.701 4.182c.142.151.18.312.18.454 0 .32-.265.604-.624.604a.657.657 0 0 1-.519-.265l-3.54-4.135m1.02-8.42a1.02 1.02 0 1 1-2.04 0 1.02 1.02 0 0 1 2.04 0"/>
</svg>
