<svg xmlns="http://www.w3.org/2000/svg" viewBox="0 0 50 50">
  <radialGradient id="a" cx="96" cy="86" r="73" gradientTransform="translate(-19.48 -10.463)" gradientUnits="userSpaceOnUse">
    <stop offset=".2" stop-color="#e03c3b"/>
    <stop offset=".65" stop-color="#e03c3b"/>
    <stop offset=".72" stop-color="#dd3c3b"/>
    <stop offset=".78" stop-color="#d33b3a"/>
    <stop offset=".82" stop-color="#c33938"/>
    <stop offset=".86" stop-color="#ac3736"/>
    <stop offset=".91" stop-color="#8e3434"/>
    <stop offset=".95" stop-color="#6a3030"/>
    <stop offset=".99" stop-color="#3f2c2c"/>
    <stop offset="1" stop-color="#2f2a2b"/>
  </radialGradient>
  <g transform="translate(6 9) scale(.25)">
    <path fill="url(#a)" d="M4.759 79.543c0-39.674 32.164-71.836 71.836-71.836 39.673 0 71.836 32.162 71.836 71.836.001 39.674-32.161 71.836-71.835 71.836-39.67-.001-71.836-32.161-71.836-71.837z"/>
    <path fill="#232323" d="M24.407 98.269c-1.2-7.593 1.846-12.896 4.862-15.854 1.37-1.342 2.987-2.572 4.442-2.52 2.148-.167 13.354 8 28.322 17.122 7.79 5.631 11.433 6.314 11.411 8.805v-.393c-.981 6.258-6.126 13.838-13.265 15.605-17.181 5.192-32.204-5.567-35.772-22.765z"/>
    <path fill="#232323" d="M76.594 152.039c-19.365 0-37.57-7.54-51.265-21.234C11.635 117.112 4.093 98.906 4.093 79.54c0-19.364 7.541-37.57 21.235-51.265C39.021 14.582 57.227 7.04 76.593 7.04s37.57 7.54 51.265 21.235c13.693 13.692 21.235 31.898 21.235 51.265s-7.542 37.573-21.235 51.265c-13.693 13.693-31.9 21.234-51.264 21.234v-.001zm0-143.672C37.348 8.367 5.42 40.295 5.42 79.54c.001 39.246 31.928 71.173 71.174 71.173 19.011 0 36.883-7.402 50.325-20.846 13.442-13.444 20.847-31.316 20.847-50.326 0-39.246-31.929-71.173-71.173-71.173z"/>
    <path fill="#232323" d="M128.784 98.269c1.2-7.593-1.846-12.896-4.862-15.854-1.369-1.342-2.987-2.572-4.442-2.52-2.148-.167-13.354 8-28.322 17.122-7.79 5.631-11.432 6.314-11.411 8.805v-.393c.98 6.258 6.127 13.838 13.265 15.605 17.18 5.192 32.203-5.567 35.772-22.765z"/>
    <path fill="#FFF" d="M81.924 103.704c-1.256.675-1.501 1.278-1.105 2.626 1.04 3.563 2.581 6.37 4.555 8.527 4.78 5.222 12.098 6.623 21.05 5.637 7.628-1.236 11.337-3.568 17.029-10.646 2.503-4.976 5.804-12.081 2.054-20.343-1.043-2.3-2.671-4.186-4.578-5.834-.707-.608-1.273-.638-2.089-.186-3.485 1.946-30.073 16.544-36.913 20.22h-.003z"/>
    <path fill="#DADADA" d="M106.928 112.83c-12.236 3.58-23.719-.9-23.719-.9s5.373 9.535 18.559 9.472c15.168-1.169 21.056-9.581 23.668-15.07 2.609-5.488 1.905-10.552 1.484-12.48-.421-1.934-2.023 13.827-19.992 18.978z"/>
    <path fill="#FFF" d="M71.425 103.704c1.256.675 1.501 1.278 1.107 2.626-1.042 3.563-2.582 6.37-4.555 8.527-4.78 5.222-12.098 6.623-21.048 5.637-7.63-1.236-11.338-3.568-17.031-10.646-2.504-4.976-5.804-12.081-2.055-20.343 1.045-2.3 2.67-4.186 4.579-5.834.707-.608 1.273-.638 2.088-.186 3.487 1.946 30.074 16.544 36.914 20.22z"/>
    <path fill="#DADADA" d="M46.425 112.83c12.236 3.58 23.718-.9 23.718-.9s-5.372 9.535-18.558 9.472c-15.167-1.169-21.056-9.581-23.667-15.07-2.61-5.488-1.907-10.552-1.484-12.48.42-1.934 2.023 13.827 19.99 18.978z"/>
    <path fill="#020202" d="M105.584 103.978c1.535 7.05 1.31 15.64 1.31 15.64.01.438.01.438.312 1.421 2.238-4.229 3.486-8.68 3.957-13.35.607-6.022-.279-10.993-3.117-18.296-1.89-3.441-3.78-6.852-6.441-9.813-4.033-4.488-5.771-3.136-10.41-.57-.449.34-1.364 1.24-1.364 1.24 5.067 3.236 12.198 8.422 15.754 23.728z"/>
    <path fill="#E03A36" d="M33.138 53.899c2.181-1.38 4.53-3.885 5.903-8.007 2.082-6.64.361-9.791.361-9.791s-1.853 1.447-6.625.054c-4.97-1.452-7.208-1.7-16.037-10.321C6.432 15.338 1.524 3.846 1.524 3.846s0 2.992.402 5.986c0 0 2.167 13.15 11.485 25.115 6.06 7.78 12.333 12.736 15.143 14.478 3.371 2.088 4.584 2.571 4.584 4.474"/>
    <path fill="#232323" d="M1.928 9.833a99.784 99.784 0 0 1-.402-5.986c5.908 12.803 15.89 24.14 24.266 29.614 2.17 1.418 4.833 2.152 6.987 2.695 4.75 1.197 6.59.21 7.018-.492.39-.64.308-1.508-.246-2.58-.71-1.374-2.018-2.041-3.999-2.041-1.577 0-3.386.436-4.986.806-3.39.784-3.814.37-3.814.37-7.356-4.8-17.64-14.058-24.912-30.93C1.38.227 1.241-.092.68.022.12.135.142.697.142.697c-.78 8.043 1.383 30.677 13.496 48.037.81 1.161 1.48 2.07 1.777 2.905 1.033 2.887-.724 5.975-.724 5.975-2.14 4.293-.539 14.038 3.616 14.366 2.41.19 3.892-3.653 5.032-5.43 1.139-1.775 5.151-6.375 7.618-9.047 2.466-2.672 3.146-4.496.52-6.331a23.828 23.828 0 0 0-2.92-1.746s-7.644-4.638-15.4-14.797C4.096 22.757 1.93 9.831 1.93 9.832z"/>
    <path fill="#E03A36" d="M119.734 53.899c-2.18-1.38-4.528-3.885-5.903-8.007-2.081-6.64-.36-9.791-.36-9.791s1.854 1.447 6.625.054c4.969-1.452 7.21-1.7 16.037-10.321C146.441 15.338 151.35 3.847 151.35 3.847c-.001 0-.001 2.992-.403 5.986 0 0-2.167 13.15-11.485 25.115-6.06 7.78-12.333 12.736-15.144 14.478-3.37 2.087-4.584 2.57-4.584 4.473"/>
    <path fill="#232323" d="M150.945 9.833c.193-1.991.327-3.987.401-5.986-5.908 12.803-15.89 24.14-24.267 29.614-2.172 1.418-4.834 2.152-6.986 2.695-4.75 1.197-6.592.21-7.019-.492-.39-.64-.308-1.508.245-2.58.711-1.374 2.02-2.041 4-2.041 1.578 0 3.387.436 4.987.806 3.39.784 3.814.37 3.814.37 7.356-4.8 17.641-14.058 24.912-30.928.46-1.063.597-1.382 1.158-1.269.562.113.54.676.54.676.777 8.043-1.385 30.677-13.497 48.037-.811 1.161-1.48 2.07-1.777 2.905-1.033 2.887.725 5.975.725 5.975 2.142 4.293.54 14.038-3.614 14.366-2.41.19-3.893-3.652-5.031-5.429-1.14-1.776-5.15-6.376-7.619-9.048-2.467-2.672-3.146-4.496-.518-6.332 1.55-1.083 2.917-1.746 2.917-1.746s7.646-4.638 15.401-14.797c9.062-11.872 11.229-24.798 11.229-24.797z"/>
    <path fill="#020202" d="M47.603 103.978c-1.534 7.05-1.311 15.64-1.311 15.64-.007.438-.007.438-.31 1.421-2.237-4.229-3.486-8.68-3.956-13.35-.606-6.022.28-10.993 3.118-18.296 1.888-3.441 3.778-6.852 6.441-9.813 4.034-4.488 5.771-3.136 10.412-.57.449.34 1.364 1.24 1.364 1.24-5.07 3.236-12.202 8.422-15.758 23.728z"/>
  </g>
</svg>
