<svg xmlns="http://www.w3.org/2000/svg" viewBox="0 0 50 50">
  <path fill="#fff" d="M 44.762 18.404 L 38.926 15.058 L 37.92 14.622 L 14.051 14.785 L 14.051 26.904 L 44.762 26.904 Z"/>
  <path fill="#f38020" d="M 34.139 25.789 C 34.425 24.809 34.316 23.912 33.841 23.245 C 33.349 22.609 32.591 22.237 31.786 22.239 L 15.044 22.022 C 14.935 22.022 14.84 21.967 14.785 21.885 C 14.731 21.803 14.718 21.695 14.744 21.586 C 14.807 21.418 14.961 21.302 15.139 21.286 L 32.031 21.069 C 34.229 20.83 36.122 19.412 36.968 17.37 L 37.934 14.854 C 37.976 14.75 37.986 14.637 37.961 14.527 C 36.138 6.267 26.056 3.077 19.813 8.787 C 18.438 10.045 17.405 11.632 16.812 13.399 C 13.762 11.114 9.383 12.988 8.928 16.772 C 8.856 17.377 8.896 17.989 9.046 18.58 C 4.836 18.699 1.674 22.465 2.287 26.632 C 2.312 26.793 2.45 26.913 2.613 26.918 L 33.513 26.918 C 33.697 26.918 33.86 26.795 33.908 26.618 L 34.139 25.789 Z"/>
  <path fill="#faae40" d="M 39.471 15.03 L 39.009 15.044 C 38.9 15.044 38.804 15.126 38.763 15.234 L 38.111 17.506 C 37.825 18.485 37.934 19.383 38.41 20.05 C 38.901 20.686 39.66 21.058 40.464 21.056 L 44.028 21.273 C 44.136 21.273 44.231 21.327 44.286 21.41 C 44.34 21.491 44.354 21.614 44.326 21.709 C 44.264 21.876 44.11 21.993 43.932 22.007 L 40.219 22.225 C 38.019 22.459 36.124 23.879 35.281 25.925 L 35.01 26.618 C 34.955 26.755 35.051 26.89 35.2 26.89 L 47.958 26.89 C 48.107 26.89 48.244 26.795 48.284 26.645 C 49.9 20.814 45.522 15.044 39.471 15.03"/>
</svg>