<svg xmlns="http://www.w3.org/2000/svg" viewBox="0 0 60 60">
  <circle cx="30" cy="30" r="30" fill="#fff"/>
  <path fill="#0051a5" d="M24.82 40.01l6.5 3.2v.74l-4.7-2.2.1 1.88-1.43.87 5.93 3-.05.73-4.32-2.1.05 2.65a.25.25 0 0 1-.1.23l-1.83 1.43a.22.22 0 0 1-.37-.14L19.77 8.74a.27.27 0 0 1 .14-.23l4.64-2.47a.24.24 0 0 1 .33.07.29.29 0 0 1 0 .16l.4 8.12-2.7 1.24 9.6 3.94-.1 1.29-6.61-2.57.1 3.43-2.3 1.3 8.64 3.54v1.05l-6.12-2.34.14 3-2.16 1.15 7.86 3.44v1l-5.6-2.25.1 2.39-1.76 1.02 7.12 3.16v.92l-5.14-2.24.1 2.2zM39 11.1l-4.84 41.1v.14l-2.39 2a.14.14 0 0 1-.2 0 .11.11 0 0 1 0-.08l2-40.03c0-.09.1-.14.13-.23l5-3.06a.19.19 0 0 1 .27 0 .21.21 0 0 1 .03.18zm-.78 38.17a1.11 1.11 0 1 1-1.1-1.1 1.06 1.06 0 0 1 1.1 1zm-.14 0a1 1 0 1 0-1 1 .94.94 0 0 0 1-.92zm-.73.14l.23.46h-.23l-.18-.46h-.28v.46h-.18v-1.19h.47c.33 0 .41.18.41.37a.41.41 0 0 1-.23.36zm0-.37c0-.09 0-.18-.23-.18h-.28v.37h.28c.2 0 .23-.1.23-.2z"/>
</svg>
