<svg xmlns="http://www.w3.org/2000/svg" viewBox="0 0 50 50">
  <circle cx="25" cy="25" r="23.88" fill="#fff" stroke="#173361" stroke-width="2.24"/>
  <path fill="#173361" d="M35.73 26.43c1.28-.07 2.56-.1 3.84-.2v-1c-1.28-.08-2.56-.12-3.84-.2l-3.85-.12c-2.26-.06-4.51-.08-6.77-.1 0-2.26-.02-4.51-.08-6.78l-.1-3.84c-.07-1.3-.1-2.58-.2-3.86h-1.08c-.1 1.28-.13 2.56-.2 3.85l-.1 3.84a176.6 176.6 0 0 0-.06 3.19c-.43-.98-.84-1.96-1.28-2.92l-1.57-3.52c-.55-1.15-1.08-2.33-1.65-3.48l-1 .42c.4 1.22.86 2.42 1.29 3.63l1.37 3.6a192.35 192.35 0 0 0 1.17 2.95 180.54 180.54 0 0 0-2.28-2.2l-2.8-2.65c-.96-.86-1.89-1.75-2.86-2.59l-.78.77c.84.97 1.73 1.9 2.58 2.86l2.65 2.8a198.9 198.9 0 0 0 2.21 2.28A180.11 180.11 0 0 0 17.4 22l-3.6-1.37c-1.2-.43-2.4-.89-3.62-1.3l-.42 1.02c1.15.57 2.32 1.1 3.48 1.65l3.51 1.57a189.04 189.04 0 0 0 2.92 1.26 207.72 207.72 0 0 0-3.18.06l-3.86.1c-1.28.06-2.56.1-3.85.2v1.08c1.28.09 2.56.12 3.84.2l3.85.1c2.25.06 4.5.07 6.77.07.01 2.26.03 4.52.1 6.78l.12 3.85c.06 1.28.1 2.56.2 3.84h.98c.1-1.28.13-2.56.2-3.84l.12-3.85c.04-1.09.05-2.17.07-3.26a177.95 177.95 0 0 0 1.3 2.98l1.59 3.51c.55 1.16 1.08 2.33 1.66 3.48l.9-.38c-.4-1.22-.85-2.42-1.28-3.63l-1.36-3.6a190.78 190.78 0 0 0-1.18-3.03 181.4 181.4 0 0 0 2.35 2.25l2.8 2.64c.96.85 1.9 1.74 2.87 2.57l.7-.7c-.84-.97-1.72-1.9-2.58-2.86l-2.64-2.8a192.18 192.18 0 0 0-2.25-2.35 190.6 190.6 0 0 0 3.03 1.18l3.6 1.36c1.21.43 2.41.88 3.64 1.29l.38-.91c-1.15-.58-2.32-1.1-3.48-1.67l-3.51-1.58c-.99-.44-1.99-.88-2.98-1.3 1.08-.02 2.17-.03 3.26-.07z"/>
</svg>