<svg xmlns="http://www.w3.org/2000/svg" viewBox="0 0 32 32">
  <circle cx="17" cy="16" r="14.2" fill="#fff"/>
  <path fill="#007DB8" d="M 16.952 0.3 C 4.905 -0.664 -3.668 11.776 1.521 22.691 C 4.318 28.574 10.458 32.12 16.952 31.6 C 28.999 30.636 35.486 16.992 28.627 7.041 C 25.947 3.152 21.66 0.677 16.952 0.3 Z M 16.952 30.1 C 6.098 30.1 -0.686 18.35 4.741 8.95 C 7.26 4.587 11.915 1.9 16.952 1.9 C 27.806 1.9 34.59 13.65 29.163 23.05 C 26.644 27.413 21.989 30.1 16.952 30.1 Z M 29.152 18.1 L 29.152 19.5 L 24.752 19.5 L 24.752 12.6 L 26.352 12.6 L 26.352 18.1 L 29.152 18.1 Z M 8.652 19.4 C 10.252 19.4 11.652 18.3 11.952 16.8 L 15.852 19.8 L 19.752 16.8 L 19.752 19.4 L 24.152 19.4 L 24.152 18 L 21.252 18 L 21.252 12.5 L 19.652 12.5 L 19.652 15.1 L 15.952 18.1 L 15.152 17.4 L 16.952 16 L 18.852 14.5 L 17.752 13.6 L 14.052 16.5 L 13.252 15.8 L 16.952 13 L 15.852 12.1 L 11.952 15.1 C 11.583 13.576 10.22 12.502 8.652 12.5 L 5.852 12.5 L 5.852 19.4 L 8.652 19.4 Z M 7.352 18.1 L 7.352 13.9 L 8.552 13.9 C 9.552 13.9 10.452 14.8 10.452 16 C 10.452 17.1 9.652 18.1 8.552 18.1 L 7.352 18.1 Z"/>
</svg>