<svg xmlns="http://www.w3.org/2000/svg" viewBox="0 0 50 50">
  <g transform="translate(1,1) scale(0.075)">
    <path fill="#626a75" d="M275.7 312.7l-71.5-46.8H74.5L26 234.1h202.1l87.6 57.7-79.9 52.6h-41.2L86 273.4h115.6l48.5 31.7h-99l11.5 7.6zM64.8 394.8c0 3.8-.6 7.2-1.8 10-1.2 2.8-2.9 5.2-5.1 7.1-2.2 1.9-4.9 3.3-8 4.2-3.1.9-6.7 1.4-10.6 1.4-1.8 0-3.9-.1-6.3-.2s-4.7-.5-7-.9v-43c2.3-.4 4.7-.7 7.2-.9 2.5-.1 4.6-.2 6.4-.2 3.8 0 7.2.4 10.3 1.3 3.1.8 5.7 2.2 8 4 2.2 1.8 3.9 4.2 5.1 7 1.2 2.8 1.8 6.2 1.8 10.2M36 408.9c.5 0 1 .1 1.6.1h2.2c5 0 8.7-1.2 11.1-3.8 2.4-2.5 3.6-6 3.6-10.4 0-4.6-1.2-8.1-3.5-10.5-2.3-2.4-5.9-3.6-10.9-3.6H38c-.7 0-1.4.1-2 .2v28zm36.8-36.1h10V417h-10zm41.6 7.6c-4.6 0-8 1.3-10.1 3.9-2.1 2.6-3.1 6.1-3.1 10.5 0 2.2.3 4.1.8 5.9.5 1.8 1.3 3.3 2.3 4.6 1 1.3 2.3 2.3 3.8 3 1.5.7 3.3 1.1 5.4 1.1 1.1 0 2.1 0 2.8-.1.8 0 1.5-.1 2.1-.3v-15.4h10v21.9c-1.2.5-3.1 1-5.7 1.5s-5.9.8-9.8.8c-3.3 0-6.3-.5-9-1.5s-5-2.5-6.9-4.5c-1.9-1.9-3.4-4.4-4.4-7.2-1-2.8-1.6-6.1-1.6-9.7 0-3.7.6-7 1.7-9.8 1.2-2.8 2.7-5.3 4.7-7.2 2-2 4.4-3.5 7.1-4.5 2.7-1 5.6-1.5 8.7-1.5 2.1 0 4 .1 5.6.4 1.7.3 3.1.6 4.3 1 1.2.4 2.2.7 3 1.1.8.4 1.3.7 1.7.9l-2.9 8c-1.4-.7-2.9-1.3-4.7-1.9-1.8-.7-3.7-1-5.8-1m23.3-7.6h10V417h-10zm52.5 0v8.5h-13.3V417h-10v-35.7h-13.3v-8.5zm31.3 44.2c-.5-1.5-1-3.1-1.6-4.7-.6-1.6-1.1-3.2-1.7-4.8H201c-.6 1.6-1.1 3.2-1.7 4.8-.6 1.6-1.1 3.2-1.6 4.7h-10.3c1.7-4.8 3.2-9.2 4.7-13.2s3-7.8 4.4-11.4c1.4-3.6 2.8-7 4.2-10.2 1.4-3.2 2.8-6.3 4.3-9.4h9.4c1.5 3.1 2.9 6.2 4.3 9.4s2.8 6.6 4.3 10.2c1.4 3.6 2.9 7.4 4.4 11.4 1.5 4 3.1 8.4 4.7 13.2h-10.6zm-11.9-34.2c-.2.6-.5 1.5-1 2.6-.4 1.1-.9 2.4-1.5 3.8s-1.2 3-1.8 4.8c-.7 1.7-1.4 3.6-2.1 5.5h12.7c-.7-1.9-1.3-3.7-2-5.5-.6-1.7-1.2-3.3-1.8-4.8-.6-1.4-1.1-2.7-1.5-3.8-.4-1.1-.8-2-1-2.6m57.7 25.6v8.6h-29.5v-44.2h9.9v35.6z"/>
    <path fill="#e45da1" d="M315.7 291.8l-94.2 52.6H410z"/>
    <path fill="#e11f93" d="M355.8 312.7l71.5-46.8h129.6l48.6-31.8H403.4l-87.7 57.7 80 52.6h41.2l108.5-71H429.9l-48.5 31.7h99l-11.5 7.6zM299.9 380.4c-4.6 0-8 1.3-10.1 3.9-2.1 2.6-3.1 6.1-3.1 10.5 0 2.2.3 4.1.8 5.9.5 1.8 1.3 3.3 2.3 4.6 1 1.3 2.3 2.3 3.8 3 1.5.7 3.3 1.1 5.4 1.1 1.1 0 2.1 0 2.8-.1.8 0 1.5-.1 2.1-.3v-15.4h10v21.9c-1.2.5-3.1 1-5.7 1.5s-5.9.8-9.8.8c-3.3 0-6.3-.5-9-1.5s-5-2.5-6.9-4.5c-1.9-1.9-3.4-4.4-4.4-7.2-1-2.8-1.6-6.1-1.6-9.7 0-3.7.6-7 1.7-9.8 1.2-2.8 2.7-5.3 4.7-7.2 2-2 4.4-3.5 7.1-4.5 2.7-1 5.6-1.5 8.7-1.5 2.1 0 4 .1 5.6.4 1.7.3 3.1.6 4.3 1 1.2.4 2.2.7 3 1.1.8.4 1.3.7 1.7.9l-2.9 8c-1.4-.7-2.9-1.3-4.7-1.9-1.8-.7-3.7-1-5.8-1m40.4 37.4c-3.1 0-5.8-.4-8-1.3-2.3-.9-4.1-2.1-5.6-3.6-1.5-1.6-2.6-3.4-3.3-5.5-.7-2.1-1.1-4.5-1.1-7.1v-27.5h10v26.6c0 1.8.2 3.3.6 4.6.4 1.3 1 2.3 1.7 3.1.7.8 1.6 1.3 2.5 1.7 1 .3 2.1.5 3.3.5 2.4 0 4.4-.7 5.9-2.2 1.5-1.5 2.3-4 2.3-7.6v-26.6h10v27.5c0 2.6-.4 5-1.1 7.1-.7 2.2-1.8 4-3.3 5.6-1.5 1.6-3.4 2.7-5.7 3.6-2.3.7-5 1.1-8.2 1.1m55.7-.9c-.5-1.5-1-3.1-1.6-4.7s-1.1-3.2-1.7-4.8h-17.3c-.6 1.6-1.1 3.2-1.7 4.8-.6 1.6-1.1 3.2-1.6 4.7h-10.3c1.7-4.8 3.2-9.2 4.7-13.2s3-7.8 4.4-11.4c1.4-3.6 2.8-7 4.2-10.2 1.4-3.2 2.8-6.3 4.3-9.4h9.4c1.5 3.1 2.9 6.2 4.3 9.4s2.8 6.6 4.3 10.2c1.4 3.6 2.9 7.4 4.4 11.4 1.5 4 3.1 8.4 4.7 13.2H396zm-11.9-34.1c-.2.6-.5 1.5-1 2.6-.4 1.1-.9 2.4-1.5 3.8-.5 1.4-1.2 3-1.8 4.8-.7 1.7-1.4 3.6-2.1 5.5h12.7c-.7-1.9-1.3-3.7-2-5.5-.6-1.7-1.2-3.3-1.8-4.8-.6-1.4-1.1-2.7-1.5-3.8-.4-1.1-.8-2-1-2.6m41.1-10.5c6.6 0 11.7 1.2 15.3 3.5 3.5 2.4 5.3 6 5.3 11 0 3.1-.7 5.6-2.1 7.5-1.4 1.9-3.5 3.5-6.2 4.6.9 1.1 1.8 2.4 2.8 3.8 1 1.4 1.9 2.9 2.9 4.5s1.9 3.2 2.8 4.8c.9 1.7 1.7 3.3 2.5 4.9h-11.1c-.8-1.4-1.6-2.9-2.5-4.4-.8-1.5-1.7-2.9-2.6-4.3-.9-1.4-1.7-2.7-2.6-4-.9-1.2-1.7-2.4-2.6-3.4h-4.9v16.1h-10v-43.5c2.2-.4 4.4-.7 6.7-.9 2.4-.2 4.5-.2 6.3-.2m.6 8.4c-.7 0-1.4 0-1.9.1-.6 0-1.1.1-1.6.1v12h2.8c3.7 0 6.4-.5 8.1-1.4 1.6-.9 2.4-2.5 2.4-4.8 0-2.2-.8-3.7-2.5-4.6-1.7-.9-4.1-1.4-7.3-1.4m67.6 14.1c0 3.8-.6 7.2-1.8 10-1.2 2.8-2.9 5.2-5.1 7.1-2.2 1.9-4.9 3.3-8 4.2-3.1.9-6.7 1.4-10.6 1.4-1.8 0-3.9-.1-6.3-.2s-4.7-.5-7-.9v-43c2.3-.4 4.7-.7 7.2-.9 2.5-.1 4.6-.2 6.4-.2 3.8 0 7.2.4 10.3 1.3 3.1.8 5.7 2.2 8 4 2.2 1.8 3.9 4.2 5.1 7 1.2 2.8 1.8 6.2 1.8 10.2m-28.8 14c.5 0 1 .1 1.6.1h2.2c5 0 8.7-1.2 11.1-3.8 2.4-2.5 3.6-6 3.6-10.4 0-4.6-1.2-8.1-3.5-10.5-2.3-2.4-5.9-3.6-10.9-3.6h-2.1c-.7 0-1.4.1-2 .2v28zm36.8-36h10V417h-10zm49.7 44.1c-.5-1.5-1-3.1-1.6-4.7-.6-1.6-1.1-3.2-1.7-4.8h-17.3c-.6 1.6-1.1 3.2-1.7 4.8-.6 1.6-1.1 3.2-1.6 4.7H517c1.7-4.8 3.2-9.2 4.7-13.2s3-7.8 4.4-11.4c1.4-3.6 2.8-7 4.2-10.2 1.4-3.2 2.8-6.3 4.3-9.4h9.4c1.5 3.1 2.9 6.2 4.3 9.4s2.8 6.6 4.3 10.2c1.4 3.6 2.9 7.4 4.4 11.4 1.5 4 3.1 8.4 4.7 13.2h-10.6zm-11.9-34.1c-.2.6-.5 1.5-1 2.6-.4 1.1-.9 2.4-1.5 3.8-.5 1.4-1.2 3-1.8 4.8-.7 1.7-1.4 3.6-2.1 5.5h12.6c-.7-1.9-1.3-3.7-2-5.5-.6-1.7-1.2-3.3-1.8-4.8-.6-1.4-1.1-2.7-1.5-3.8-.3-1.1-.7-2-.9-2.6m57.9 34.1c-2.9-5.1-5.9-10-9.3-15-3.3-4.9-6.9-9.6-10.6-14v28.9h-9.8v-44.2h8.1c1.4 1.4 3 3.1 4.7 5.2 1.7 2 3.4 4.2 5.2 6.5 1.8 2.3 3.5 4.7 5.3 7.2 1.7 2.5 3.4 4.9 4.9 7.2v-26.1h9.9v44.2h-8.4zm28.9-38.1c0 1-.2 2-.5 2.8-.3.8-.8 1.5-1.4 2.1-.6.6-1.2 1-2 1.3-.7.3-1.5.4-2.4.4-.8 0-1.6-.1-2.4-.4-.8-.3-1.4-.7-2-1.3-.6-.6-1-1.3-1.4-2.1-.3-.8-.5-1.7-.5-2.8 0-1 .2-2 .5-2.8.3-.8.8-1.5 1.4-2.1.6-.6 1.2-1 2-1.3.7-.3 1.5-.4 2.4-.4.8 0 1.6.1 2.4.4.8.3 1.4.7 2 1.3.6.6 1 1.3 1.4 2.1.3.9.5 1.8.5 2.8m-1.3 0c0-.8-.1-1.5-.4-2.2-.2-.7-.6-1.2-1-1.7s-.9-.8-1.5-1.1c-.6-.3-1.3-.4-2-.4s-1.4.1-2 .4c-.6.3-1.1.6-1.5 1.1-.4.5-.8 1-1 1.7-.2.7-.4 1.4-.4 2.2 0 .8.1 1.5.4 2.2.2.7.6 1.2 1 1.7s.9.8 1.5 1.1c.6.3 1.3.4 2 .4s1.4-.1 2-.4c.6-.3 1.1-.6 1.5-1.1.4-.5.8-1 1-1.7.3-.6.4-1.4.4-2.2m-3.1 3.7c-.3-.5-.6-1.1-.9-1.6-.3-.5-.6-.9-.9-1.2h-1.2v2.7h-1.3v-7.1c.3-.1.7-.1 1-.2.4 0 .7-.1 1-.1 1 0 1.8.2 2.4.6.5.4.8 1 .8 1.8 0 .4-.1.8-.4 1.2-.2.3-.6.6-1 .8.1.1.3.3.4.5.2.2.3.5.5.7.2.3.3.5.5.8.2.3.3.6.5.9h-1.4zm-3.1-3.8h.7c.5 0 1-.1 1.4-.2.4-.2.5-.5.5-.9s-.2-.8-.5-.9c-.3-.2-.8-.3-1.2-.3h-.8v2.3z"/>
  </g>
</svg>
