<svg xmlns="http://www.w3.org/2000/svg" viewBox="0 0 50 50">
  <g fill="#0091E2">
    <path d="M45.84 20.8c-.12-.1-1.17-.9-3.42-.9-.59 0-1.19.06-1.77.16-.43-2.97-2.9-4.41-3-4.5l-.6-.34-.39.56a8.32 8.32 0 0 0-1.07 2.5 5.91 5.91 0 0 0 .7 4.66 8.2 8.2 0 0 1-3.06.72H5.63c-.72 0-1.3.58-1.3 1.3-.04 2.41.36 4.82 1.2 7.1a10.64 10.64 0 0 0 4.2 5.44c2.06 1.29 5.43 2 9.22 2 1.7 0 3.42-.15 5.11-.46a21.1 21.1 0 0 0 6.7-2.43 18.32 18.32 0 0 0 4.54-3.73 25.47 25.47 0 0 0 4.47-7.68h.4a6.42 6.42 0 0 0 4.66-1.75c.54-.53.97-1.17 1.24-1.85l.18-.5-.4-.3z"/>
    <path d="M8.2 22.86h3.69c.2 0 .33-.13.33-.33v-3.3a.33.33 0 0 0-.33-.33h-3.7c-.2 0-.34.13-.34.33v3.3c.02.2.16.33.33.33m5.1 0h3.7c.19 0 .32-.13.32-.33v-3.3a.33.33 0 0 0-.33-.33h-3.7c-.19 0-.32.13-.32.33v3.3c.02.2.15.33.33.33m5.18 0h3.7c.17 0 .33-.13.33-.33v-3.3a.33.33 0 0 0-.32-.33h-3.7a.33.33 0 0 0-.33.33v3.3c0 .2.14.33.33.33m5.12 0h3.69c.18 0 .32-.13.32-.33v-3.3a.33.33 0 0 0-.33-.33h-3.7c-.2 0-.34.13-.34.33v3.3c0 .2.16.33.34.33m-10.31-4.72h3.68c.2 0 .33-.16.33-.33v-3.3a.33.33 0 0 0-.33-.33h-3.7c-.19 0-.32.14-.32.33v3.3c.02.2.15.34.33.34m5.18 0h3.7c.17 0 .33-.16.33-.33v-3.3a.33.33 0 0 0-.32-.33h-3.7a.33.33 0 0 0-.33.33v3.3c0 .2.14.34.33.34m5.12 0h3.69c.18 0 .32-.16.32-.33v-3.3a.34.34 0 0 0-.33-.33h-3.7c-.2 0-.34.14-.34.33v3.3c0 .2.16.34.34.34m0-4.75h3.69c.18 0 .32-.13.32-.33v-3.3a.34.34 0 0 0-.33-.33h-3.7c-.2 0-.34.13-.34.33v3.3c0 .18.16.33.34.33m5.15 9.47h3.7c.17 0 .32-.13.32-.33v-3.3a.33.33 0 0 0-.33-.33h-3.7c-.19 0-.32.13-.32.33v3.3c.02.2.15.33.33.33"/>
  </g>
</svg>
