<svg xmlns="http://www.w3.org/2000/svg" viewBox="0 0 50 50">
  <circle cx="25" cy="25" r="25" fill="#fff"/>
  <path fill="#E95420" stroke="#E95420" stroke-width=".14" d="M22.823 34.23c-3.177 0-8.72.058-10.923.385-1.188.193-1.096.981-1.13 1.631h0c.034.65-.058 1.439 1.13 1.627 2.935.45 11.788.385 13.077.385 1.304 0 10.158.05 13.077-.385 1.192-.188 1.104-.977 1.154-1.627-.035-.654.061-1.45-1.154-1.642-2.93-.45-11.785-.385-13.077-.385l-2.154.012zm0-22.522c-3.177 0-8.72.061-10.923.384-1.188.216-1.096.985-1.13 1.643.034.65-.058 1.438 1.13 1.63 2.935.45 11.788.385 13.077.385 1.304 0 10.158.054 13.077-.385 1.192-.192 1.104-.98 1.154-1.63-.035-.65.061-1.45-1.154-1.639-2.93-.45-11.785-.384-13.077-.384l-2.154-.004zm0 15.011c-3.177 0-8.72.062-10.923.385-1.188.188-1.096.977-1.13 1.627h0c.034.65-.058 1.438 1.13 1.627 2.935.454 11.788.384 13.077.384 1.304 0 10.158.054 13.077-.384 1.192-.189 1.104-.977 1.154-1.627-.035-.65.061-1.45-1.154-1.639-2.93-.45-11.785-.384-13.077-.384l-2.154.011zm0-7.488c-3.177 0-8.72.057-10.923.384-1.188.189-1.096.977-1.13 1.627h0c.034.65-.058 1.439 1.13 1.627 2.935.45 11.788.385 13.077.385 1.304 0 10.158.05 13.077-.385 1.192-.188 1.104-.977 1.154-1.627-.035-.654.061-1.45-1.154-1.638-2.93-.454-11.785-.385-13.077-.385l-2.154.012z"/>
</svg>
