<svg xmlns="http://www.w3.org/2000/svg" viewBox="0 0 50 50">
  <linearGradient id="a" x1="19.2" x2="19.2" y1="322.3" y2="247.9" gradientTransform="matrix(0.46, 0, 0, -0.46, 11.93, 156.15)" gradientUnits="userSpaceOnUse">
    <stop offset="0" stop-opacity=".6"></stop>
    <stop offset="0.6" stop-opacity=".1"></stop>
  </linearGradient>
  <linearGradient id="b" x1="37.9" x2="37.9" y1="248.3" y2="322.6" gradientTransform="matrix(0.46, 0, 0, -0.46, 11.93, 156.15)" gradientUnits="userSpaceOnUse">
    <stop offset="0" stop-opacity=".6"></stop>
    <stop offset="0.6" stop-opacity=".1"></stop>
  </linearGradient>
  <linearGradient id="c" x1="9.7" x2="22.3" y1="278.1" y2="237.4" gradientTransform="matrix(0.46, 0, 0, -0.46, 11.93, 156.15)" gradientUnits="userSpaceOnUse">
    <stop offset="0" stop-opacity=".5"></stop>
    <stop offset="0.8" stop-opacity="0"></stop>
  </linearGradient>
  <linearGradient id="d" x1="2.1" x2="38.7" y1="294.5" y2="294.5" gradientTransform="matrix(0.46, 0, 0, -0.46, 11.93, 156.15)" gradientUnits="userSpaceOnUse">
    <stop offset="0" stop-opacity=".9"></stop>
    <stop offset="0.6" stop-opacity=".1"></stop>
  </linearGradient>
  <path fill="#369647" d="M 29.357 7.799 C 27.875 7.799 26.47 7.977 25.09 8.36 C 32.548 10.285 37.812 16.938 37.969 24.639 L 37.969 25.303 C 37.649 31.721 30.699 35.569 25.09 32.433 C 19.434 29.072 19.42 20.889 25.064 17.509 C 19.468 14.286 12.453 18.184 12.235 24.639 L 12.235 25.303 C 12.362 34.672 20.014 42.187 29.383 42.144 C 42.603 42.134 50.855 27.817 44.236 16.374 C 41.164 11.063 35.493 7.793 29.357 7.799 Z"/>
  <path fill="#AEEA00" d="M 37.919 24.639 C 37.792 15.271 30.14 7.755 20.771 7.799 C 7.553 7.639 -0.882 21.849 5.588 33.376 C 9.432 40.223 17.43 43.59 25.013 41.556 C 17.565 39.629 12.318 32.97 12.185 25.278 L 12.185 24.614 C 12.464 18.197 19.417 14.332 25.013 17.484 C 30.664 20.854 30.664 29.037 25.013 32.407 C 30.621 35.688 37.696 31.772 37.893 25.278 L 37.893 24.946 L 37.919 24.639 Z"/>
  <path fill="url(#a)" d="M 37.919 24.639 C 37.792 15.271 30.14 7.755 20.771 7.799 C 7.553 7.639 -0.882 21.849 5.588 33.376 C 9.432 40.223 17.43 43.59 25.013 41.556 C 17.565 39.629 12.318 32.97 12.185 25.278 L 12.185 24.614 C 12.464 18.197 19.417 14.332 25.013 17.484 C 30.664 20.854 30.664 29.037 25.013 32.407 C 30.621 35.688 37.696 31.772 37.893 25.278 L 37.893 24.946 L 37.919 24.639 Z" fill-opacity=".1"/>
  <path fill="url(#b)" d="M 29.357 7.799 C 27.875 7.799 26.47 7.977 25.09 8.36 C 32.548 10.285 37.812 16.938 37.969 24.639 L 37.969 25.303 C 37.649 31.721 30.699 35.569 25.09 32.433 C 19.434 29.072 19.42 20.889 25.064 17.509 C 19.468 14.286 12.453 18.184 12.235 24.639 L 12.235 25.303 C 12.362 34.672 20.014 42.187 29.383 42.144 C 42.603 42.134 50.855 27.817 44.236 16.374 C 41.164 11.063 35.493 7.793 29.357 7.799 Z" fill-opacity=".1"/>
  <path fill="url(#c)" d="M 25.038 41.582 C 17.591 39.654 12.344 32.995 12.21 25.303 L 12.21 25.252 L 12.21 25.38 C 12.178 31.49 14.387 37.4 18.419 41.991 C 19.212 42.093 19.978 42.17 20.771 42.17 C 22.228 42.119 23.71 41.94 25.038 41.582 Z" fill-opacity=".4"/>
  <path fill="url(#d)" d="M 12.287 24.69 C 13.667 20.057 18.625 17.502 23.199 19.068 C 23.758 18.482 24.394 17.975 25.09 17.56 C 19.499 14.291 12.451 18.216 12.287 24.69 L 12.261 24.971 C 12.212 24.881 12.223 24.77 12.287 24.69 Z" fill-opacity=".3"/>
</svg>