<svg xmlns="http://www.w3.org/2000/svg" viewBox="0 0 50 50">
  <circle cx="25" cy="25" r="25" fill="#fff" class="icon-circle"/>
  <path fill="#a0a1a2" d="M41.07 8.93H9.43c-1.07 0-1.93.93-1.93 2v22.14c0 1 .86 1.93 1.93 1.93h31.64c1.07 0 2.14-.93 2.14-2V10.93c0-1.07-1.07-2-2.14-2"/>
  <path fill="#b3b4b5" d="M41.07 8.93H9.43c-1.07 0-1.93.93-1.93 2v22.14c0 1 .86 1.93 1.93 1.93h.71L41.07 8.93z"/>
  <path fill="#b8d432" d="M25.71 10.36a.5.5 0 1 1-1 0 .5.5 0 0 1 1 0"/>
  <path fill="#595459" d="M40.42 11.64v20.64h-30.2V11.64z"/>
  <path fill="#f99" d="M25.71 21.36l-6.35-3.65a.21.21 0 0 1 0-.35l6.28-3.57a.21.21 0 0 1 .14 0l6.29 3.57a.21.21 0 0 1 .14.21.21.21 0 0 1-.14.14l-6.21 3.57a.21.21 0 0 1-.15 0"/>
  <path fill="#cdffaa" d="M24.86 30.14a.21.21 0 0 1-.15 0l-6.21-3.57a.21.21 0 0 1-.14-.21v-7.29l.14-.14a.21.21 0 0 1 .14 0l6.29 3.57a.21.21 0 0 1 .07.21V30a.21.21 0 0 1 0 .14.21.21 0 0 1-.14 0"/>
  <path fill="#9bc2ff" d="M26.64 30.14a.21.21 0 0 1-.14 0 .21.21 0 0 1-.07-.14v-7.22l.07-.21L32.78 19a.21.21 0 0 1 .22 0 .21.21 0 0 1 .07.14v7.21a.21.21 0 0 1-.07.15l-6.29 3.64a.14.14 0 0 1-.07 0"/>
  <path fill="#7a7a7a" d="M30.64 35h-9.71c1.21 4.14-.36 4.71-7.22 4.71v2.14H37v-2.14c-6.86 0-7.5-.57-6.36-4.71"/>
  <path fill="#a0a1a2" d="M13.71 39.71H37v2.14H13.7z"/>
</svg>
