<svg xmlns="http://www.w3.org/2000/svg" viewBox="0 0 50 50">
  <g>
    <path d="M25 0a24.86 24.86 0 0 0-7.88 48.5c1.24.18 1.7-.56 1.7-1.24v-4.64c-6.95 1.55-8.4-2.93-8.4-2.93-1.14-2.87-2.78-3.61-2.78-3.61-2.25-1.55.19-1.55.19-1.55 2.47.19 3.8 2.6 3.8 2.6 2.22 3.8 5.83 2.68 7.25 2.07a5.36 5.36 0 0 1 1.55-3.34c-5.5-.62-11.3-2.78-11.3-12.3 0-2.71.95-4.93 2.56-6.66a8.96 8.96 0 0 1 .24-6.58s2.06-.68 6.8 2.53a23.84 23.84 0 0 1 12.47 0c4.75-3.21 6.85-2.53 6.85-2.53a8.96 8.96 0 0 1 .25 6.58 9.57 9.57 0 0 1 2.53 6.67c0 9.57-5.8 11.64-11.33 12.26.9.77 1.67 2.28 1.67 4.63v6.8c0 .68.43 1.45 1.7 1.2A24.86 24.86 0 0 0 25 0"/>
    <path d="M9.56 35.74c-.06.12-.25.15-.44.06-.18-.06-.3-.25-.21-.37.04-.13.26-.16.41-.07.19.07.3.25.25.38m.99 1.1c-.13.13-.34.07-.5-.09-.18-.18-.21-.43-.1-.52.13-.12.38-.06.53.1.16.18.19.42.07.52m.98 1.45c-.15.1-.4 0-.55-.22-.16-.24-.16-.5 0-.62.15-.09.4 0 .55.22.16.25.16.5 0 .62m1.33 1.39c-.12.12-.4.1-.62-.13-.21-.18-.3-.46-.15-.61s.43-.13.62.09c.25.19.32.5.16.62m1.86.8c-.07.22-.31.3-.62.22-.31-.1-.47-.31-.4-.53.06-.18.34-.28.61-.18.32.09.48.3.42.5m2.03.14c0 .22-.21.38-.52.4-.31 0-.53-.18-.53-.36 0-.22.22-.37.53-.4.3 0 .52.18.52.36m1.92-.3c0 .18-.19.4-.46.46-.31.03-.56-.1-.62-.3 0-.2.18-.38.46-.44.3-.06.56.06.62.28"/>
  </g>
</svg>
