<svg xmlns="http://www.w3.org/2000/svg" viewBox="0 0 50 50">
  <path fill="#1BDBDB" d="M 38.502 11.197 C 34.502 8.797 29.202 9.397 24.502 12.197 C 19.902 9.397 14.702 8.797 10.702 11.197 C 4.502 15.197 3.702 25.197 9.002 33.797 C 13.002 40.097 19.102 43.797 24.602 43.697 C 30.102 43.697 36.202 40.097 40.102 33.697 C 45.502 25.397 44.702 15.297 38.502 11.297 Z M 11.802 31.997 C 10.761 30.255 9.986 28.367 9.502 26.397 C 9.009 24.676 8.806 22.885 8.902 21.097 C 9.202 17.897 10.502 15.397 12.502 14.097 C 14.502 12.797 17.402 12.797 20.302 13.897 L 21.702 14.497 C 20.046 15.958 18.599 17.64 17.402 19.497 C 14.372 24.13 13.294 29.773 14.402 35.197 C 13.468 34.213 12.63 33.142 11.902 31.997 Z M 39.602 26.397 C 39.086 28.373 38.277 30.26 37.202 31.997 C 36.505 33.137 35.702 34.209 34.802 35.197 C 35.802 30.997 35.102 25.997 32.602 21.197 C 32.446 20.78 31.907 20.672 31.602 20.997 L 24.002 25.797 C 23.585 25.953 23.477 26.492 23.802 26.797 L 24.802 28.497 C 24.958 28.914 25.498 29.022 25.802 28.697 L 30.802 25.697 L 31.202 27.097 C 31.696 28.818 31.898 30.609 31.802 32.397 C 31.502 35.397 30.202 37.997 28.202 39.397 C 27.115 40.05 25.871 40.396 24.602 40.397 L 24.502 40.397 C 23.234 40.396 21.99 40.05 20.902 39.397 C 18.902 37.997 17.602 35.397 17.302 32.397 C 17.206 30.609 17.409 28.818 17.902 27.097 C 18.958 23.073 21.186 19.453 24.302 16.697 C 25.637 15.521 27.158 14.575 28.802 13.897 C 31.802 12.697 34.502 12.897 36.602 14.097 C 38.702 15.397 40.002 17.897 40.202 21.097 C 40.32 22.846 40.151 24.602 39.702 26.297 Z"/>
</svg>