<svg xmlns="http://www.w3.org/2000/svg" viewBox="0 0 50 50">
  <path fill="#4285F4" d="M45.06 25.22c0-1.7-.15-2.94-.45-4.23h-19.4v7.67H36.6a10.1 10.1 0 0 1-4.23 6.72l-.03.25 6.13 4.75.42.05c3.92-3.61 6.17-8.92 6.17-15.2"/>
  <path fill="#34A853" d="M25.2 45.44c5.58 0 10.27-1.84 13.7-5l-6.53-5.08a12.09 12.09 0 0 1-7.16 2.08 12.45 12.45 0 0 1-11.76-8.59l-.24.02-6.38 4.94-.1.24a20.67 20.67 0 0 0 18.49 11.37"/>
  <path fill="#FBBC05" d="M13.44 28.85a12.74 12.74 0 0 1-.03-8.19v-.27l-6.47-5.02-.2.11a20.7 20.7 0 0 0 0 18.58l6.71-5.2"/>
  <path fill="#EB4335" d="M25.2 12.08c3.89 0 6.5 1.67 8 3.07l5.85-5.69a20 20 0 0 0-13.84-5.38c-8.09 0-15.07 4.64-18.46 11.4l6.65 5.18a12.51 12.51 0 0 1 11.79-8.58"/>
</svg>
