<svg xmlns="http://www.w3.org/2000/svg" viewBox="0 0 50 50">
  <path fill="#ea4335" d="M 30.772 16.101 L 32.078 16.123 L 35.624 12.576 L 35.797 11.073 C 32.884 8.472 29.114 7.037 25.209 7.04 C 17.86 7.04 11.657 12.041 9.821 18.814 C 10.208 18.544 11.036 18.747 11.036 18.747 L 18.124 17.582 C 18.124 17.582 18.488 16.978 18.673 17.008 C 20.349 15.167 22.724 14.118 25.213 14.119 C 27.315 14.123 29.251 14.866 30.772 16.094 L 30.772 16.101 L 30.772 16.101 Z"/>
  <path fill="#4285f4" d="M 40.606 18.821 C 39.783 15.784 38.086 13.102 35.795 11.067 L 30.772 16.089 C 32.785 17.714 34.075 20.198 34.075 22.981 L 34.075 23.867 C 36.519 23.867 38.504 25.856 38.504 28.295 C 38.504 30.739 36.514 32.724 34.075 32.724 L 25.218 32.724 L 24.331 33.616 L 24.331 38.931 L 25.218 39.813 L 34.075 39.813 C 40.433 39.804 45.583 34.653 45.593 28.296 C 45.589 24.376 43.618 20.908 40.606 18.823 L 40.606 18.822 Z"/>
  <path fill="#34a853" d="M 16.352 39.825 L 25.204 39.825 L 25.204 32.731 L 16.352 32.731 C 15.723 32.731 15.101 32.596 14.529 32.334 L 13.251 32.727 L 9.703 36.273 L 9.393 37.471 C 11.392 38.996 13.837 39.821 16.351 39.82 L 16.352 39.825 Z"/>
  <path fill="#fbbc05" d="M 16.352 16.784 C 9.995 16.799 4.843 21.95 4.834 28.307 C 4.834 32.048 6.625 35.373 9.398 37.48 L 14.533 32.344 C 12.945 31.628 11.925 30.049 11.923 28.307 C 11.923 25.863 13.913 23.879 16.352 23.879 C 18.148 23.879 19.691 24.961 20.389 26.49 L 25.524 21.354 C 23.418 18.581 20.092 16.79 16.352 16.79 L 16.352 16.784 Z"/>
</svg>