<svg xmlns="http://www.w3.org/2000/svg" viewBox="0 0 50 50">
  <defs>
    <linearGradient id="a" x1="50%" x2="50%" y1="122%" y2="31%">
      <stop offset="0" stop-color="#FFF100"/>
      <stop offset="1" stop-color="#F05A28"/>
    </linearGradient>
  </defs>
  <path fill="url(#a)" d="M42.55 21.62a14.1 14.1 0 0 0-1.44-5.06 15.33 15.33 0 0 0-2.97-4.1c.58-2.22-.67-4.17-.67-4.17a6.15 6.15 0 0 0-4.03 1.03l-.26-.11c-1.14-.47-2.34-.8-3.56-.98l-.21-.03c-.97-3.03-3.65-4.26-3.65-4.26a8.01 8.01 0 0 0-3.6 4.58l-.02.14a17.8 17.8 0 0 0-3.21 1.32l-1.26.8-.1-.06c-4.17-1.58-7.87.32-7.87.32-.27 2.75.46 5.5 2.07 7.74l-.29.82c-.35 1.17-.59 2.36-.72 3.57-3.9 1.9-5 5.8-5 5.8a10.99 10.99 0 0 0 6.96 3.92v-.01c.68 1.2 1.5 2.32 2.46 3.33-.7 2-.63 4.17.18 6.13 2.3.1 4.56-.58 6.42-1.95 1.42.48 2.91.75 4.42.8h1.42a7.2 7.2 0 0 0 4.65 2.75 7.4 7.4 0 0 0 2.22-4.9v-.19a13.53 13.53 0 0 0 3.45-3.57l.18-.27c2.37.14 4.07-1.47 4.07-1.47a6.21 6.21 0 0 0-2.12-3.93l-.03-.03-.02-.01-.05-.05.03-.43.02-.82v-.57L40 27.5c0-.07 0-.14-.03-.21v-.2l-.04-.22-.03-.2a10.13 10.13 0 0 0-10.18-8.74h-.5l-.19.01a7.86 7.86 0 0 0-7.15 7.3v1.15a5.94 5.94 0 0 0 5.86 5.4h.38l.16-.01h.1l.1-.05.2-.02c.06 0 .1-.03.16-.05l.35-.1c.22-.07.43-.14.63-.26.2-.1.38-.23.55-.33l.14-.12c.17-.14.2-.39.08-.57a.43.43 0 0 0-.52-.12l-.15.08c-.3.16-.64.27-.99.33l-.27.03-.15.01h-.49l-.08-.01-.15-.03a4.29 4.29 0 0 1-3.72-4.28v-.19c0 .02 0 0 0 0v-.1l.03-.09c0-.14.03-.27.06-.4a5.31 5.31 0 0 1 3.74-4.15c.29-.07.57-.1.86-.14l.45-.03h.3c.03 0 0 0 0 0h.17a6.62 6.62 0 0 1 5.4 3.6c.37.73.6 1.53.65 2.35v1a8.97 8.97 0 0 1-1.61 4.5 8.53 8.53 0 0 1-6.5 3.45h-.57a11.53 11.53 0 0 1-5-1.3 11.31 11.31 0 0 1-5.97-9.16v-1.12c.03-1.15.21-2.29.53-3.39.22-.73.48-1.45.8-2.13a12 12 0 0 1 3.16-4.17c1.08-.84 2.3-1.47 3.6-1.87l.23-.09.25-.07.5-.12.24-.05.26-.06.26-.04h.12l.14-.05.25-.03.28-.02.3-.05h.16l.13-.03h.12c.1-.03.19-.03.29-.03h.14s.06 0 0 0h.36a13.26 13.26 0 0 1 9.07 3.15l.14.14.15.14.28.24.3.26.25.3c.94.98 1.73 2.1 2.35 3.3l.07.12.06.13.13.26.11.26.12.25.36.95c.16.48.29.91.39 1.3.03.15.18.24.33.22a.3.3 0 0 0 .29-.3c0-.4 0-.87-.06-1.42z"/>
</svg>
