<svg xmlns="http://www.w3.org/2000/svg" viewBox="0 0 50 50">
  <defs>
    <linearGradient id="a" x1="7" x2="43" y1="43" y2="7" gradientUnits="userSpaceOnUse">
      <stop offset="0" stop-color="#0673BA"/>
      <stop offset="1" stop-color="#00A14F"/>
    </linearGradient>
    <linearGradient id="b" x1="7" x2="43" y1="43" y2="7" gradientUnits="userSpaceOnUse">
      <stop offset="0" stop-color="#1173ba"/>
      <stop offset=".7" stop-color="#fff"/>
    </linearGradient>
  </defs>
  <circle cx="25" cy="25.15" r="25" fill="url(#a)"/>
  <path fill="url(#b)" d="M8.95 12.62l-7.42 4.05C.93 18.37.5 20.12.26 21.91l9.05-5.35c.23 2.9.7 5.67 1.28 8.45L.6 30.58c.38 1.82 1 3.59 1.86 5.24l9.53-5.45a78.85 78.85 0 0 0 8.47 19.25c1.5.32 3.13.43 4.76.43.58 0 1.16 0 1.86-.1-4.4-7.4-8-14.77-10.34-22.36l10.45-6a78.32 78.32 0 0 0 12.08 24.2 20.8 20.8 0 0 0 4.4-3.86c-5.1-7.5-9.16-15.08-11.83-23.1l13.93-8.02c-1-1.38-2.13-2.67-3.37-3.85l-11.96 6.72a56.82 56.82 0 0 1-1.4-8.87l5.1-3A52.92 52.92 0 0 0 30.32.63l-1.51.75V.3c-1.19-.2-2.4-.3-3.6-.3h-.8v3.74L13.6 9.73c-.12-2.25 0-4.6.23-6.95a22 22 0 0 0-4.41 2.88 29.8 29.8 0 0 0-.46 6.96zM24.28 7.8c.23 3 .58 6 1.28 8.88l-10.59 6c-.7-2.78-1.16-5.6-1.4-8.46l10.7-6.42z"/>
</svg>
