<svg xmlns="http://www.w3.org/2000/svg" viewBox="0 0 50 50">
  <path fill="#0d4d84" d="M4.64 28.62c-.7 0-1.17-.12-1.42-.36s-.37-.7-.37-1.35v-1.5l1.7-.33v2.18h3.3v-5.88h1.7v5.53c0 .66-.13 1.1-.37 1.35-.25.24-.73.36-1.43.36h-3.1m6.67 0l4.09-7.24h1.62l4.15 7.24H19.3l-1.27-2.36-4.16.77-.23.41-.64 1.18h-1.67zm3.23-2.9h3.18l-1.56-2.94-1.61 2.95m8.95 2.89v-7.24h6.2c.58 0 1 .1 1.26.33.25.24.38.6.38 1.08v.88c.01.32-.1.62-.32.83-.26.23-.58.37-.93.4.37.02.71.18.97.44.23.26.36.6.34.95v.92c0 .47-.18.83-.53 1.06-.35.24-.89.35-1.61.35H23.5zm5.5-6.06h-3.83v1.72H29c.29 0 .49-.04.6-.12.11-.08.17-.2.17-.4v-.69c0-.18-.06-.32-.17-.4-.11-.08-.31-.12-.6-.12m0 2.91h-3.83v1.85H29c.32 0 .53-.05.65-.14.1-.1.17-.27.17-.51v-.55c0-.24-.06-.41-.17-.5-.12-.1-.33-.15-.65-.15m7.32 3.15h-1.69v-7.23h1.7v7.24zm3.7 0v-7.23h1.69v5.88h5.43v1.36h-7.13"/>
  <path fill="#00875d" d="M15.11 24.7l-1.48 2.74L24.2 24.7H15.1"/>
</svg>
