<svg xmlns="http://www.w3.org/2000/svg" viewBox="0 0 50 50">
  <path fill="#f89820" d="M26.43 23.3c1.78 2.05-.47 3.9-.47 3.9s4.53-2.34 2.45-5.26c-1.94-2.74-3.43-4.1 4.63-8.77 0 0-12.66 3.16-6.61 10.13M28.4 5.61s3.85 3.85-3.64 9.76c-6 4.74-1.37 7.45 0 10.54-3.5-3.15-6.08-5.93-4.35-8.52 2.53-3.8 9.55-5.65 8-11.76"/>
  <path fill="#5382a1" d="M19.85 34.22s-1.4.82 1 1.1c2.94.33 4.44.29 7.67-.32 0 0 .85.53 2.03.99-7.24 3.1-16.38-.18-10.7-1.77m-.88-4.05s-1.59 1.17.83 1.42c3.14.31 5.6.33 9.89-.49 0 0 .59.6 1.52.93-8.76 2.56-18.5.2-12.24-1.88M36 37.22s1.05.86-1.15 1.52c-4.18 1.27-17.4 1.65-21.06.05-1.34-.57 1.13-1.37 1.91-1.53.81-.18 1.27-.15 1.27-.15-1.47-1.03-9.5 2.03-4.08 2.91 14.77 2.4 26.92-1.08 23.1-2.8M20.52 25.97s-6.72 1.6-2.38 2.18c1.84.25 5.5.2 8.9-.1 2.78-.23 5.57-.73 5.57-.73s-.98.42-1.69.9c-6.83 1.8-20.02.97-16.22-.87 3.21-1.55 5.82-1.38 5.82-1.38m12.07 6.75c6.93-3.61 3.72-7.08 1.49-6.6-.55.1-.8.2-.8.2s.2-.32.57-.45c4.44-1.56 7.84 4.6-1.43 7.03 0 0 .11-.1.14-.18M21.22 42.49c6.66.42 16.89-.24 17.13-3.4 0 0-.47 1.2-5.5 2.15a54.77 54.77 0 0 1-16.86.26c-.02 0 .83.7 5.2.99"/>
</svg>
