<svg xmlns="http://www.w3.org/2000/svg" viewBox="0 0 50 50">
  <path fill="#41bf47" d="M14.62 25.69c-2.82.68-4.74 2.04-4.74 3.6 0 .96.74 1.84 1.96 2.53a3.45 3.45 0 0 1-.57-1.86c.02-1.6 1.27-3.1 3.36-4.28zm29.78 6.08c0-1.02-.63-1.96-1.7-2.73.1.32.17.63.17.95 0 2.91-4.08 5.42-9.87 6.46a18.8 18.8 0 0 0 2.03.1c5.17-.01 9.37-2.15 9.37-4.78zm-3.33-1.59c0-1.07-.92-2.06-2.49-2.87.37.44.56.92.56 1.41 0 2.6-5.5 4.7-12.31 4.7-6.8 0-12.32-2.1-12.32-4.7a1.85 1.85 0 0 1 .28-.95c-1.1.72-1.71 1.55-1.71 2.43 0 2.8 6.26 5.08 13.99 5.08s14-2.3 14-5.1zm-6.1-.14c-2.87 1.83-11.65 2.54-15.43.17-2.96-1.85-1.94-4.8-10.43-11.25-1.1-.85.22-1.74 1.05-1.17s.07.73 1.74 2.4c3.38 3.4 3.35.34 3.88 1.5 1.13 2.42 3.6 4.86 3.6 4.86 2.48 1.62 4.46 1.97 8.13-.52 2.34-1.57 1.39 2.5 7.09-.44 2.08-1.07 2-.35 4.1-3.3.88-1.22 2.56.94.65 1.24-.76.12-2.04.95-2.6 2.26-.79 1.96-.45 3.4-1.8 4.25zm-15.85-4.97c-.7-.32-1.44-1.52-1.73-2 .8-.77.48-2.06.02-2.77-.44-.7-1-.5-1.57-1.16-.6-.65.23-2.34.99-1.04 2.84 4.89 4.7 2.86 7.02 2.56 2.22-.28 4.2.93 4.8-2.5.1-.57.65-.7.7.22.06.94.4 3.2 1.63 3.48 1.21.3 2.2-.28 2.48-.6s.45-.28.57.53c.12.78.44 1.9 2.15.66 3.51-2.5 2.5-3.48 3.88-4.13.78-.37 2.01.83.23 1.73-2.54 1.29-2.8 2.87-4.4 3.88-2.7 1.7-1.88.07-6.22-.55-1.68-.23-2.2 1.63-3.51 1.1-2.98-1.25-5.08-1-7.04.57zm9.4-9.05c.1.74.23.72.5.77.26.07.6-.35.6-.74.02-.4-.18-.65-.57-.63-.4.01-.54.2-.53.6zm13.06 1.32c.32.3 1.16.1 1.36-.12.5-.57.53-.9.26-1.3-.26-.36-.8-.3-1.36.1s-.44 1.16-.26 1.32zm-.23 3.74c-.26.35-.28.62-.09.81.21.21.64.4.94.16.3-.25.3-.6.05-.9-.26-.32-.62-.32-.9-.07zm-26.78-4.41c.4.12.6.51.93.07.18-.21.2-.51-.03-.83-.14-.18-.82-.32-1.1-.04s-.02.74.2.81zm-8.28-.25c.73.46 1.2 1.14 1.77.53.2-.2.43-.58.02-1.32-.3-.55-1.27-.76-1.6-.55-.36.2-.79.99-.2 1.34zm6.82 3.51c.23.25.64.23.88.1.23-.15.2-.52-.03-.84-.15-.2-.57-.3-.85 0s-.16.57 0 .74z"/>
</svg>
