<svg xmlns="http://www.w3.org/2000/svg" viewBox="0 0 50 50">
  <circle fill="#e95420"  cx="25" cy="25" r="25" />
  <path fill="#fff" d="M 24.883 23.571 C 24.883 22.38 26.172 21.635 27.203 22.231 C 27.682 22.507 27.977 23.018 27.977 23.571 C 27.977 24.761 26.688 25.506 25.656 24.91 C 25.178 24.635 24.883 24.123 24.883 23.571 Z M 27.851 20.712 L 25.001 20.712 L 25.001 9.297 C 25.001 6.535 27.238 4.294 30.001 4.289 C 32.761 4.294 34.997 6.53 35.001 9.289 L 35.001 12.141 L 32.149 12.141 L 32.149 9.297 C 32.154 8.11 31.188 7.148 30.001 7.157 C 28.82 7.161 27.864 8.117 27.86 9.297 L 27.86 20.727 Z M 37.149 25.711 C 34.39 25.708 32.154 23.47 32.149 20.712 L 32.149 13.594 L 35.001 13.594 L 35.001 20.735 C 35.005 21.916 35.961 22.872 37.141 22.876 C 38.325 22.876 39.285 21.919 39.29 20.735 L 39.29 13.594 L 42.141 13.594 L 42.141 20.735 C 42.148 22.062 41.621 23.337 40.68 24.274 C 39.744 25.214 38.468 25.741 37.141 25.735 Z M 10.594 40.703 C 10.594 39.513 11.883 38.769 12.914 39.363 C 13.393 39.641 13.687 40.152 13.687 40.703 C 13.687 41.894 12.398 42.639 11.367 42.043 C 10.888 41.767 10.594 41.256 10.594 40.703 Z M 13.571 37.852 L 10.712 37.852 L 10.712 22.142 C 10.716 19.382 12.952 17.145 15.711 17.141 C 18.47 17.145 20.708 19.382 20.712 22.142 L 20.719 25.001 L 17.876 25.001 L 17.876 22.142 C 17.879 21.572 17.654 21.027 17.251 20.626 C 16.846 20.221 16.298 19.997 15.726 20.001 C 14.547 20.005 13.591 20.961 13.586 22.142 L 13.586 37.86 Z M 22.867 38.555 C 20.111 38.551 17.877 36.32 17.868 33.563 L 17.868 26.422 L 20.719 26.422 L 20.719 33.563 C 20.719 34.747 21.676 35.708 22.86 35.711 C 24.041 35.708 24.996 34.751 25.001 33.572 L 25.001 26.43 L 27.86 26.43 L 27.86 33.572 C 27.882 36.341 25.63 38.592 22.86 38.57 Z"/>
</svg>