<svg xmlns="http://www.w3.org/2000/svg" viewBox="0 0 67 67">
  <circle cx="33.5" cy="33.5" r="33.5" fill="#87C31B"/>
  <path fill="#FEFEFE" d="M29.24 38.38c0 .37-.3.68-.68.68h-5.7a.68.68 0 0 1-.68-.68v-5.61c0-.37.31-.67.68-.67h5.7c.37 0 .68.3.68.67v5.61zm1.47-9.91c.01.37-.29.67-.67.67h-5.7a.68.68 0 0 1-.67-.67v-5.61c0-.37.3-.68.68-.68h5.69c.38 0 .68.3.68.68v5.6zm-10.04 1.45c0 .37-.3.68-.68.68h-5.7a.68.68 0 0 1-.68-.68v-5.6c0-.38.3-.68.68-.68h5.7c.37 0 .68.3.68.67v5.61zm0 8.46c0 .37-.3.68-.68.68h-5.7a.68.68 0 0 1-.68-.68v-5.61c0-.37.3-.67.68-.67h5.7c.37 0 .68.3.68.67v5.61zm17.43-1.08l5.13-5a.18.18 0 0 0-.13-.32h-2.86a.2.2 0 0 0-.13.06l-4.28 4.32v-4.2c0-.1-.08-.18-.18-.18H33.5c-.1 0-.2.09-.2.19v11.09c0 .1.1.18.2.18h2.14c.1 0 .18-.08.18-.18v-4.9c1.09 1.2 4.4 4.98 4.44 5.02a.2.2 0 0 0 .14.06h3.03a.19.19 0 0 0 .13-.3L38.1 37.3m13.95 3.91h-4.4l2.7-2.54c1.13-1.05 1.87-2.05 1.87-3.5 0-2.37-2.05-3.45-3.96-3.45-2.12.01-3.77 1.41-4.01 3.38v.08c-.02.1.05.2.15.2l2 .3c.04.02.1 0 .13-.03a.18.18 0 0 0 .08-.12v-.08c.14-1 .76-1.64 1.62-1.64.9 0 1.5.57 1.5 1.42 0 .67-.3 1.24-1.05 1.95l-4.3 4.16a.18.18 0 0 0-.06.13v1.82c0 .1.09.18.2.18h7.53c.1 0 .2-.08.2-.18V41.4c0-.1-.1-.19-.2-.19M53.72 32c.58 0 1.04.45 1.04 1.01 0 .57-.46 1.01-1.04 1.01-.57 0-1.04-.44-1.04-1 0-.57.47-1.03 1.04-1.03zm0 1.87c.49 0 .88-.39.88-.86s-.4-.86-.88-.86a.87.87 0 0 0-.87.86c0 .47.4.86.87.86zm-.4-1.44h.4c.23 0 .44.1.44.34 0 .16-.1.27-.27.3l.32.51h-.26l-.27-.48h-.15v.48h-.21v-1.15zm.38.5c.11 0 .25-.03.25-.17 0-.12-.12-.15-.23-.15h-.2v.32h.18z"/>
</svg>
