<svg xmlns="http://www.w3.org/2000/svg"
  xmlns:xlink="http://www.w3.org/1999/xlink" viewBox="-67 -40 800 800">
  <defs>
    <linearGradient id="a">
      <stop offset="0" stop-color="#3f2600"/>
      <stop offset="1" stop-color="#3f2600" stop-opacity="0"/>
    </linearGradient>
    <linearGradient id="d">
      <stop offset="0" stop-color="#fff"/>
      <stop offset="1" stop-color="#fff" stop-opacity="0"/>
    </linearGradient>
    <linearGradient id="e">
      <stop offset="0" stop-color="#ffa63f"/>
      <stop offset="1" stop-color="#ff0"/>
    </linearGradient>
    <linearGradient id="b">
      <stop offset="0" stop-color="#ffeed7"/>
      <stop offset="1" stop-color="#bdbfc2"/>
    </linearGradient>
    <linearGradient id="c">
      <stop offset="0" stop-color="#fff"/>
      <stop offset="1" stop-color="#fff" stop-opacity="0"/>
    </linearGradient>
    <radialGradient id="f" cx="447" cy="1219" r="195" fx="447" fy="1219" gradientTransform="scale(1.04523 .95673)" gradientUnits="userSpaceOnUse" xlink:href="#a"/>
    <linearGradient id="g" x1="401" x2="401" y1="370" y2="304" gradientTransform="scale(.57526 1.73834)" gradientUnits="userSpaceOnUse" xlink:href="#b"/>
    <linearGradient id="h" x1="303" x2="297" y1="238" y2="330" gradientTransform="scale(1.11607 .896)" gradientUnits="userSpaceOnUse" xlink:href="#c"/>
    <linearGradient id="i" x1="379" x2="380" y1="279" y2="244" gradientTransform="scale(.8165 1.22474)" gradientUnits="userSpaceOnUse" xlink:href="#b"/>
    <linearGradient id="j" x1="381" x2="381" y1="277" y2="246" gradientTransform="scale(.8165 1.22474)" gradientUnits="userSpaceOnUse" xlink:href="#b"/>
    <linearGradient id="k" x1="379" x2="377" y1="241" y2="281" gradientTransform="scale(.8165 1.22474)" gradientUnits="userSpaceOnUse" xlink:href="#d"/>
    <linearGradient id="l" x1="390" x2="387" y1="242" y2="281" gradientTransform="scale(.8165 1.22474)" gradientUnits="userSpaceOnUse" xlink:href="#d"/>
    <linearGradient id="m" x1="438" x2="438" y1="529" y2="394" gradientTransform="scale(.81285 1.23023)" gradientUnits="userSpaceOnUse" spreadMethod="reflect" xlink:href="#b"/>
    <linearGradient id="n" x1="375" x2="377" y1="420" y2="324" gradientTransform="scale(.64978 1.53897)" gradientUnits="userSpaceOnUse" xlink:href="#b"/>
    <linearGradient id="o" x1="321" x2="321" y1="498" y2="615" gradientTransform="scale(1.0748 .9304)" gradientUnits="userSpaceOnUse" xlink:href="#c"/>
    <linearGradient id="p" x1="322" x2="323" y1="435" y2="488" gradientTransform="scale(1.077 .9285)" gradientUnits="userSpaceOnUse" xlink:href="#d"/>
    <linearGradient id="q" x1="411" x2="411" y1="243" y2="331" gradientTransform="scale(.5717 1.74915)" gradientUnits="userSpaceOnUse" xlink:href="#d"/>
    <linearGradient id="r" x1="867" x2="867" y1="235" y2="315" gradientTransform="scale(.57267 1.74621)" gradientUnits="userSpaceOnUse" xlink:href="#d"/>
    <linearGradient id="s" x1="236" x2="213" y1="657" y2="737" gradientTransform="scale(1.01151 .98862)" gradientUnits="userSpaceOnUse" xlink:href="#e"/>
    <linearGradient id="t" x1="382" x2="280" y1="656" y2="387" gradientTransform="scale(1.0655 .93853)" gradientUnits="userSpaceOnUse" xlink:href="#b"/>
    <linearGradient id="u" x1="218" x2="203" y1="630" y2="738" gradientTransform="scale(1.00985 .99025)" gradientUnits="userSpaceOnUse" xlink:href="#e"/>
    <linearGradient id="v" x1="118" x2="182" y1="587" y2="705" gradientTransform="scale(1.00772 .99233)" gradientUnits="userSpaceOnUse" xlink:href="#d"/>
    <linearGradient id="w" x1="223" x2="231" y1="570" y2="711" gradientTransform="scale(.9995 1.0005)" gradientUnits="userSpaceOnUse" xlink:href="#d"/>
    <linearGradient id="x" x1="317" x2="372" y1="474" y2="583" gradientTransform="scale(1.0655 .93853)" gradientUnits="userSpaceOnUse" xlink:href="#d"/>
    <linearGradient id="y" x1="285" x2="285" y1="410" y2="486" gradientTransform="scale(1.21868 .82056)" gradientUnits="userSpaceOnUse" xlink:href="#e"/>
    <linearGradient id="z" x1="289" x2="288" y1="399" y2="483" gradientTransform="scale(1.22194 .81837)" gradientUnits="userSpaceOnUse" xlink:href="#d"/>
  </defs>
  <path fill="url(#f)" d="M671 1167a204 187 0 1 1-408 0 204 187 0 1 1 408 0z" transform="matrix(1.4177 0 0 .41474 -330 138)"/>
  <path d="M174 539c-28-41-33-172 32-252 32-39 41-66 43-102 2-41-29-164 88-174 118-9 111 107 111 169-1 52 38 82 64 122 49 75 45 203-9 273-69 86-127 49-166 52-74 4-76 43-163-88z"/>
  <path fill="url(#g)" d="M247 471c-13 12-45 69 4 105 18 13-16 60-32 37-27-42-8-107 9-131 11-16 29-22 19-11z" transform="matrix(-1.67739 -.02245 -.02112 1.4709 883 -377)"/>
  <path stroke="#000" d="M257 460c-20 18-57 80-4 120 18 13-15 53-34 33-64-71 2-153 25-181 20-24 38 6 13 28z" transform="matrix(-1.67755 0 0 1.52374 884 -402)"/>
  <path fill="url(#h)" d="M400 258a58 47 0 1 1-117 0 58 47 0 1 1 117 0z" transform="matrix(1.26626 -.07137 -.04598 1.19574 -89 -210)"/>
  <path fill="url(#i)" d="M329 321a18 27 0 1 1-36 0 18 27 0 1 1 36 0z" transform="matrix(1.30445 -.07553 .07713 1.34257 -146 -262)"/>
  <path fill="url(#j)" d="M329 321a18 27 0 1 1-36 0 18 27 0 1 1 36 0z" transform="matrix(-1.81082 .04951 .03173 1.55333 917 -369)"/>
  <path d="M346 151a15 23 2 1 0 30 0 15 23 2 1 0-30 0zm-52 0a11 19-5 1 1-21 2 11 19-5 1 1 21-2z"/>
  <path fill="url(#k)" d="M329 321a18 27 0 1 1-36 0 18 27 0 1 1 36 0z" transform="matrix(-.48032 -.03645 -.0468 .4756 523 3)"/>
  <path fill="url(#l)" d="M329 321a18 27 0 1 1-36 0 18 27 0 1 1 36 0z" transform="matrix(.35691 -.04082 .04132 .39854 159 31)"/>
  <path fill="url(#m)" d="M259 495c13-29 40-80 40-119 0-32 95-39 102-8 8 32 27 79 39 101 12 23 48 95 10 158-34 55-138 99-193-8-19-37-15-83 2-124z" transform="matrix(1.25 0 0 1.25 -105 -252)"/>
  <path fill="url(#n)" d="M243 474c-11 19-36 69 12 102 51 35 47 97-16 62-56-32-22-138-4-162 12-18 30-38 8-2z" transform="matrix(1.38936 -.11107 .10221 1.30214 -182 -250)"/>
  <path stroke="#000" d="M215 310c-21 36-74 120-4 164 95 58 68 116-18 64-122-73-15-220 34-276 55-63 10 11-12 48z"/>
  <path fill="url(#o)" d="M421 505c0 32-29 74-79 74-52 0-74-42-74-74 0-33 34-59 77-59 42 0 76 26 76 59z" transform="matrix(1.30209 0 0 1.22525 -121 -238)"/>
  <path fill="url(#p)" d="M398 412c0 39-23 48-52 48-28 0-49-6-51-48 0-26 23-41 51-41 29 0 52 15 52 41z" transform="matrix(1.1868 0 0 1.06708 -80 -184)"/>
  <path fill="url(#q)" d="M234 456c18-27 55-68 7 6-39 61-14 101-1 111 36 33 34 55 6 38-62-37-49-99-12-155z" transform="matrix(1.25 0 0 1.25 -105 -252)"/>
  <path fill="url(#r)" d="M491 468c-16-32-64-112 2-19 60 84 18 143 10 149-7 6-33 17-25-3 7-21 45-59 13-127z" transform="matrix(1.25 0 0 1.25 -105 -252)"/>
  <path fill="url(#s)" stroke="#e68c3f" stroke-width="6" d="M221 717c-41-21-99 4-78-54 4-13-6-33 1-46 8-16 25-12 36-23 10-11 16-29 36-26 19 2 32 26 45 55 10 20 45 49 43 73-3 35-43 42-83 21z" transform="matrix(1.25 0 0 1.25 -105 -252)"/>
  <path fill="url(#t)" d="M415 496c-3 25-36 76-69 81-35 6-67-34-75-71-9-41 23-57 72-56 54 1 74 13 72 46z" transform="matrix(.5982 .26858 -.23962 .61721 410 56)"/>
  <path fill="url(#u)" stroke="#e68c3f" stroke-width="6" d="M220 718c-41-23-100 6-77-55 5-13-7-34 0-47 9-15 26-11 37-22 10-11 18-28 38-25 19 3 30 25 43 54 10 20 43 49 41 72-3 35-43 45-82 23z" transform="matrix(-1.1685 .42314 .47528 1.16478 438 -298)"/>
  <path fill="url(#v)" d="M216 676c-86-58-47-71-36-82 10-11 18-28 38-25 19 3 30 25 43 54 10 20 43 49 41 72-2 27-48 5-86-19z" transform="matrix(-.9451 .34375 .42408 .95606 424 -149)"/>
  <path fill="url(#w)" d="M217 677c-87-57-47-73-34-81 15-10 15-31 34-28s31 26 44 55c10 20 43 49 41 72-2 27-48 7-85-18z" transform="matrix(1.00431 -.05229 -.0174 1.04575 -47 -113)"/>
  <path d="M534 473c-7 12-34 30-53 25-18-4-27-31-23-51 3-22 23-24 49-12 27 12 35 22 27 38z"/>
  <path fill="url(#x)" d="M415 496c-3 25-36 76-69 81-35 6-67-34-75-71-9-41 23-57 72-56 54 1 74 13 72 46z" transform="matrix(.35123 .14946 -.12886 .34347 434 234)"/>
  <path fill="url(#y)" stroke="#e68c3f" stroke-width="4" d="M310 339c7-7 25-27 58-6 6 4 11 4 23 9 24 10 12 34-13 42-11 3-20 16-40 15-17-1-21-12-31-18-19-10-21-24-11-32l14-10z" transform="matrix(1.25 0 0 1.25 -105 -252)"/>
  <path fill="none" stroke="#e68c3f" stroke-width="4" d="M384 195c-13 1-39 28-68 28-28 0-45-26-49-26"/>
  <path fill="url(#z)" d="M310 339c7-7 30-26 60-7l22 14c19 12 10 29-13 39-11 5-28 15-41 14-14-1-24-11-34-18-17-12-16-22-8-30l14-12z" transform="matrix(.62789 0 0 .59567 102 -32)"/>
</svg>
