<svg xmlns="http://www.w3.org/2000/svg" viewBox="0 0 50 50">
  <path d="M5.56 25.7H6.9v7.13h2.65v1.1h-4V20.7zm6.09 2.35v5.88h-1.27v-5.88h1.27zm2.62 5.88l-1.95-5.72 1.27-.28c.41 1.35.83 2.72 1.23 4.36h.02c.43-1.64.87-3 1.3-4.36l1.1.25-2.1 5.75h-.87zm4.75-3.65c0-.8.3-1.5 1.04-1.5.63 0 .9.6.84 1.5h-1.88zm3.08.85c.1-1.75-.53-3.23-2.02-3.23-1.37 0-2.44 1.16-2.44 2.97 0 1.95 1.08 3.2 2.53 3.2.54 0 1.22-.18 1.87-.65l-.36-.83c-.32.25-.82.45-1.28.45-.8 0-1.43-.82-1.4-1.93h3.1zm2.9 2.8l-2.5-8.12 1.44-.24c.6 2.1 1.18 4.2 1.76 6.57h.02c.6-2.37 1.23-4.47 1.85-6.57l1.16.24-2.64 8.12H25zm6.55-3.4c.1 1.72-.56 2.5-1.07 2.5-.3 0-.57-.36-.57-.87 0-.68.3-1.12.93-1.36l.7-.28zm-.02 2.54c0 .32.03.66.13.86H33c-.15-.4-.2-.96-.2-1.43v-2.4c0-1.84-1.08-2.2-1.96-2.2-.66 0-1.24.2-1.83.8l.43.75c.33-.36.72-.6 1.26-.6.41 0 .8.34.87.88l-1.13.4c-1.1.41-1.76 1.04-1.76 2.16 0 1.08.62 1.79 1.36 1.79.44 0 .87-.37 1.23-.7l.28-.31zm5.6.13c-.45.56-.92.88-1.53.88-1.02 0-1.6-.76-1.6-2.24v-3.8h1.26v3.57c0 .83.3 1.37.9 1.37.44 0 .96-.46.96-1.53v-3.4h1.27v5.88h-1.27v-.73zm2.56.73l-.02-8.65h1.26v8.65h-1.27zm4.05-5.88H45v.8h-1.25v2.9c0 .96.24 1.37.66 1.37.28 0 .44-.1.6-.2l.23.78c-.37.25-.83.38-1.25.38-1.05 0-1.51-.7-1.51-1.89v-3.34h-.67l.01-.8h.68v-1.42l1.27-.35v1.77z"/>
  <path fill="#5f76b7" d="M12.5 25H9.47v-3h3v3zM30.32 14c.77 1.38.36 3.28-.47 4.5-3 4.17-7.56 5.98-12 7.37-1.95.4-3.94.9-6.1.6l-.27-.13c5.46-1.03 10.57-2.91 14.82-6.86 1.31-1.43 2.74-3.2 2.14-5.23-1.04-1.5-2.95-1.02-4.56-.93-3.5.7-6.7 2.12-9.79 3.82 3.98-2.85 8.32-5 13.55-4.62 1 .2 2.04.53 2.68 1.47z"/>
</svg>
