<svg xmlns="http://www.w3.org/2000/svg" viewBox="0 0 64 64">
  <path fill="#4275fa" d="M64 52.8C64 59 59 64 52.8 64H11.2C5 64 0 59 0 52.8V11.2C0 5 5 0 11.2 0h41.6C59 0 64 5 64 11.2z"/>
  <path fill="#fff" d="M42.94 46.19l4.23-14.72c.04-.2.13-.2.2 0l3.12 11a.5.5 0 0 0 .46.35h4.8a.35.35 0 0 0 .36-.35l-.73-2.9a.35.35 0 0 0-.35-.36h-1.35c-.2 0-.4-.15-.47-.35l-4.14-14.54a.5.5 0 0 0-.46-.35l-2.77.37c-.2 0-.4.16-.47.36l-4.09 14.36c-.04.2-.13.2-.18 0L35.72 17.5a.47.47 0 0 0-.44-.35l-2.8.37c-.2 0-.4.16-.44.36l-5.3 20.96c-.05.2-.36.35-.56.35h-1.13a.35.35 0 0 0-.35.35l-.73 2.9a.35.35 0 0 0 .35.35h4.78c.2 0 .4-.15.45-.35l4.2-16.78c.05-.2.14-.2.18 0l5.3 20.83a.47.47 0 0 0 .44.35l2.77-.33c.22.02.44-.13.49-.33M11.36 18.05l-3.1.35c-.22 0-.38.15-.38.35v22.65c0 .8.64 1.44 1.44 1.44h11.4a.35.35 0 0 0 .36-.36v-2.8a.35.35 0 0 0-.36-.36h-8.28a.74.74 0 0 1-.73-.73V18.4a.35.35 0 0 0-.34-.35"/>
</svg>
