<svg xmlns="http://www.w3.org/2000/svg" viewBox="0 0 50 50">
  <path d="M14.78 27.03h.75v1.23H13.2v-3.19c0-.98-.33-1.36-.96-1.36-.77 0-1.08.55-1.08 1.35v1.98h.75v1.23H9.56v-3.2c0-.98-.32-1.36-.95-1.36-.77 0-1.08.55-1.08 1.35v1.98H8.6v1.23H5.2v-1.23h.74v-3.22H5.2V22.6h2.34v.86c.34-.6.92-.98 1.7-.98.8 0 1.55.4 1.82 1.23.31-.76.95-1.23 1.83-1.23 1 0 1.92.62 1.92 1.97v2.59h-.03zm4.4.1c-.87 0-1.31-.75-1.31-1.73 0-1.07.5-1.69 1.32-1.69.76.01 1.37.53 1.37 1.67 0 1.1-.55 1.77-1.38 1.77zm.04-4.66c-2 0-3 1.38-3 3.04 0 1.83 1.19 2.9 2.91 2.9 1.79 0 3.08-1.15 3.08-2.96 0-1.6-.98-2.97-3-2.97zm8 3.69l1.26.12-.35 2h-4.87l-.16-.86 3.07-3.6h-1.74l-.25.89-1.16-.13.2-2h4.9l.12.87-3.1 3.59h1.81l.26-.88zm2.44 2.11h1.67v-2.04h-1.67v2.04zm0-3.64h1.67V22.6h-1.67v2.04zm6.69-5.03l-2.42 8.66h-1.57l2.42-8.66h1.57zm3.25 0l-2.42 8.66H35.6l2.41-8.66h1.58zm2.14 7.63c-.48 0-.66-.3-.66-.66 0-.62.5-.78 1.07-.78.26 0 .55.04.8.08-.03.94-.64 1.36-1.2 1.36zm3.42.04a.83.83 0 0 1-.23.03c-.26 0-.39-.11-.39-.44V24.4c0-1.3-1.01-1.93-2.22-1.93a5.3 5.3 0 0 0-2.39.52l-.2 1.31 1.28.14.19-.64c.26-.14.52-.17.85-.17.9 0 .92.7.92 1.28v.19a7.2 7.2 0 0 0-.92-.05c-1.28 0-2.6.32-2.6 1.72 0 1.19.92 1.63 1.72 1.63.9 0 1.48-.55 1.8-1.13.07.69.48 1.13 1.23 1.13.34 0 .7-.1 1-.26l-.04-.87z"/>
</svg>
