<svg xmlns="http://www.w3.org/2000/svg" viewBox="0 0 50 50">
  <defs>
    <linearGradient id="a" x1="2.59" x2="15.41" y1="10.16" y2="10.16" gradientUnits="userSpaceOnUse">
      <stop offset="0" stop-color="#005ba1"/>
      <stop offset=".07" stop-color="#0060a9"/>
      <stop offset=".36" stop-color="#0071c8"/>
      <stop offset=".52" stop-color="#0078d4"/>
      <stop offset=".64" stop-color="#0074cd"/>
      <stop offset=".82" stop-color="#006abb"/>
      <stop offset="1" stop-color="#005ba1"/>
    </linearGradient>
    <radialGradient id="b" cx="9.36" cy="10.57" r="7.07" gradientUnits="userSpaceOnUse">
      <stop offset="0" stop-color="#f2f2f2"/>
      <stop offset=".58" stop-color="#eee"/>
      <stop offset="1" stop-color="#e6e6e6"/>
    </radialGradient>
  </defs>
  <circle cx="25" cy="25" r="25" fill="#fff" class="icon-circle"/>
  <path fill="url(#a)" d="M9 5.14c-3.54 0-6.41-1-6.41-2.32v12.36c0 1.27 2.82 2.3 6.32 2.32H9c3.54 0 6.41-1 6.41-2.32V2.82c0 1.3-2.87 2.32-6.41 2.32z" transform="matrix(2 0 0 2 7 7)"/>
  <path fill="#e8e8e8" d="M37.82 12.64c0 2.58-5.74 4.64-12.82 4.64s-12.82-2-12.82-4.64S17.92 8 25 8s12.82 2 12.82 4.64"/>
  <path fill="#50e6ff" d="M34.84 12.26c0 1.64-4.42 2.96-9.84 2.96s-9.84-1.3-9.84-2.94S19.58 9.32 25 9.32s9.84 1.32 9.84 2.94"/>
  <path fill="#198ab3" d="M25 13a23.1 23.1 0 0 0-7.78 1.14 22.84 22.84 0 0 0 7.8 1.08 22.3 22.3 0 0 0 7.78-1.14A23.68 23.68 0 0 0 24.98 13z"/>
  <path fill="url(#b)" d="M12.9 11.4V8H12v4.13h2.46v-.73zM5.76 9.73a1.83 1.83 0 0 1-.51-.31.44.44 0 0 1-.12-.32.34.34 0 0 1 .15-.3.68.68 0 0 1 .42-.12 1.62 1.62 0 0 1 1 .29v-.86a2.58 2.58 0 0 0-1-.16 1.64 1.64 0 0 0-1.09.34 1.08 1.08 0 0 0-.42.87c0 .51.32.91 1 1.21a2.88 2.88 0 0 1 .62.36.42.42 0 0 1 .15.32.38.38 0 0 1-.16.3.81.81 0 0 1-.45.12 1.66 1.66 0 0 1-1.09-.42V12a2.17 2.17 0 0 0 1.07.24 1.88 1.88 0 0 0 1.18-.33 1.08 1.08 0 0 0 .33-.91 1.05 1.05 0 0 0-.25-.7 2.42 2.42 0 0 0-.83-.57zM11 11.32a2.34 2.34 0 0 0 .33-1.26A2.32 2.32 0 0 0 11 9a1.81 1.81 0 0 0-.7-.75 2 2 0 0 0-1-.26 2.11 2.11 0 0 0-1.08.27 1.86 1.86 0 0 0-.73.74 2.46 2.46 0 0 0-.26 1.14 2.26 2.26 0 0 0 .24 1 1.76 1.76 0 0 0 .7.74 2.06 2.06 0 0 0 1 .3l.85 1h1.21L10 12.08a1.79 1.79 0 0 0 1-.76zm-1-.25a.94.94 0 0 1-.76.35.92.92 0 0 1-.76-.36 1.52 1.52 0 0 1-.29-1 1.53 1.53 0 0 1 .27-1 1 1 0 0 1 .78-.37.87.87 0 0 1 .75.35 1.62 1.62 0 0 1 .27 1 1.46 1.46 0 0 1-.28 1.01z" transform="matrix(2 0 0 2 7 7)"/>
  <text x="25" y="40" text-anchor="middle"
    font-family="Arial" font-weight="bold" font-size="0.5em"
    fill="url(#b)">ODS</text>
</svg>
