<svg xmlns="http://www.w3.org/2000/svg" viewBox="0 0 50 50">
  <path fill="#007DC1" d="M 8.423 20.635 C 5.418 20.635 2.985 23.069 2.985 26.075 C 2.985 29.08 5.418 31.513 8.423 31.513 C 11.43 31.513 13.863 29.08 13.863 26.075 C 13.863 23.069 11.43 20.635 8.423 20.635 Z M 8.423 28.8 C 6.921 28.8 5.699 27.577 5.699 26.075 C 5.699 24.572 6.921 23.349 8.423 23.349 C 9.927 23.349 11.149 24.572 11.149 26.075 C 11.149 27.577 9.927 28.8 8.423 28.8 Z M 17.982 27.902 C 17.982 27.47 18.501 27.264 18.804 27.566 C 20.166 28.95 22.415 31.329 22.426 31.34 C 22.458 31.372 22.491 31.427 22.621 31.47 C 22.675 31.492 22.762 31.492 22.858 31.492 L 25.313 31.492 C 25.756 31.492 25.886 30.983 25.68 30.724 L 21.615 26.56 L 21.399 26.345 C 20.934 25.793 20.987 25.578 21.517 25.015 L 24.739 21.414 C 24.945 21.155 24.815 20.657 24.361 20.657 L 22.134 20.657 C 22.047 20.657 21.982 20.657 21.917 20.679 C 21.788 20.722 21.734 20.766 21.702 20.809 C 21.691 20.82 19.907 22.745 18.804 23.923 C 18.501 24.247 17.961 24.031 17.961 23.588 L 17.961 17.413 C 17.961 17.1 17.7 16.981 17.496 16.981 L 15.679 16.981 C 15.365 16.981 15.214 17.187 15.214 17.37 L 15.214 31.059 C 15.214 31.372 15.473 31.459 15.69 31.459 L 17.506 31.459 C 17.787 31.459 17.971 31.253 17.971 31.048 L 17.971 27.902 Z M 32.817 30.994 L 32.622 29.178 C 32.601 28.928 32.363 28.756 32.115 28.8 C 30.524 29.044 29.068 27.865 28.978 26.258 L 28.978 23.879 C 28.978 23.588 29.195 23.349 29.486 23.349 L 31.92 23.349 C 32.093 23.349 32.352 23.199 32.352 22.884 L 32.352 21.165 C 32.352 20.831 32.136 20.657 31.941 20.657 L 29.486 20.657 C 29.206 20.657 28.978 20.452 28.967 20.171 L 28.967 17.413 C 28.967 17.24 28.838 16.981 28.502 16.981 L 26.697 16.981 C 26.47 16.981 26.254 17.122 26.254 17.403 L 26.254 26.258 C 26.329 29.199 28.741 31.546 31.692 31.546 C 31.941 31.546 32.178 31.524 32.417 31.492 C 32.676 31.459 32.849 31.242 32.817 30.994 Z M 45.922 28.713 C 44.386 28.713 44.149 28.161 44.149 26.095 L 44.149 21.111 C 44.149 20.939 44.019 20.646 43.673 20.646 L 41.857 20.646 C 41.629 20.646 41.381 20.831 41.381 21.111 L 41.381 21.339 C 40.591 20.885 39.672 20.625 38.698 20.625 C 35.693 20.625 33.26 23.058 33.26 26.064 C 33.257 30.247 37.784 32.867 41.41 30.779 C 41.702 30.61 41.978 30.414 42.235 30.194 C 42.743 30.972 43.565 31.492 44.851 31.502 C 45.068 31.502 46.235 31.546 46.235 30.994 L 46.235 29.059 C 46.235 28.896 46.106 28.713 45.922 28.713 Z M 38.709 28.8 C 37.207 28.8 35.985 27.577 35.985 26.075 C 35.985 24.572 37.207 23.349 38.709 23.349 C 40.213 23.349 41.435 24.572 41.435 26.075 C 41.424 27.577 40.202 28.8 38.709 28.8 Z"/>
</svg>