<svg xmlns="http://www.w3.org/2000/svg" viewBox="0 0 50 50">
  <path fill="#f36418" d="M4.36 16.07c-1 0-1.8.8-1.8 1.8v14.22c0 .99.8 1.8 1.8 1.8h41.41c1 0 1.8-.81 1.8-1.8V17.86c0-.98-.8-1.8-1.8-1.8H4.36"/>
  <path fill="#fff" d="M8.26 26.87c0 .65.2.97.8.97s.8-.32.8-.97v-4.45c0-.65-.19-.97-.8-.97-.6 0-.8.32-.8.97v4.45zm-1.5-4.48c0-1.24.73-2.25 2.3-2.25s2.3 1 2.3 2.25v4.51c0 1.24-.72 2.25-2.3 2.25s-2.3-1-2.3-2.25V22.4m6.95 5.3c.27.2.51.34.78.34.36 0 .65-.2.65-1.05v-2.43c0-.86-.29-1.06-.65-1.06-.27 0-.51.14-.78.33v3.86zm-.07-5.2v.68h.02c.45-.57.78-.8 1.46-.8.85 0 1.38.63 1.38 1.82v3.13c0 1.19-.53 1.82-1.38 1.82-.6 0-.87-.24-1.4-.68v2.62h-1.37v-8.6h1.29m6.66 2.4v-.34c0-.75-.27-1.07-.75-1.07-.5 0-.76.32-.76 1.07v.34h1.5zm1.36 1.12h-2.87v.95c0 .75.27 1.06.76 1.06.48 0 .75-.31.75-1.06v-.15h1.36c-.03 1.38-.6 2.33-2.11 2.33-1.56 0-2.12-1-2.12-2.43V24.8c0-1.43.56-2.42 2.12-2.42s2.1 1 2.1 2.42v1.22m.88 3V22.5h1.28v.65c.57-.48.87-.77 1.65-.77.72 0 1.15.52 1.15 1.37v5.28h-1.36v-5.06c0-.33-.2-.48-.49-.48s-.56.19-.87.42v5.12h-1.36m6.6-1.24h.52c.8-.01 1.08-.31 1.08-1.24v-3.83c0-.92-.28-1.23-1.08-1.23h-.52v6.3zm-1.5-7.54h2.22c1.56 0 2.38.85 2.38 2.65v3.47c0 1.8-.82 2.65-2.38 2.65h-2.23v-8.77m5.6 8.77v-8.77h1.39l1.83 5.02h.03v-5.02h1.36v8.77h-1.31l-1.92-5.48h-.03v5.48h-1.36m8.6-6.7c-.05-.75-.45-.97-.8-.97-.48 0-.74.32-.74.87 0 1.49 3.05 2.2 3.05 4.58 0 1.45-.97 2.25-2.38 2.25-1.4 0-2.2-1.12-2.25-2.43l1.43-.2c.06.88.41 1.32.9 1.32.52 0 .87-.28.87-.8 0-1.74-3.06-2.2-3.06-4.71 0-1.4.85-2.19 2.33-2.19 1.23 0 1.96.89 2.1 2.13l-1.44.15"/>
</svg>
