<svg xmlns="http://www.w3.org/2000/svg" viewBox="0 0 50 50">
  <path fill="#005daa" d="M38.88 39.94c0 1.2-.5 1.9-1.46 2.27a35.38 35.38 0 0 1-12.38 2.18 35.4 35.4 0 0 1-12.38-2.18c-.97-.37-1.46-1.07-1.46-2.27V8h27.68z"/>
  <path fill="#ffd200" d="M18.62 27.47c-3.83-2.4-5.1-3.46-5.2-5.03-.02-.31.05-.85.19-1.24l-.37-.23a3.2 3.2 0 0 0-.47 1.62c0 .9.3 1.59.65 2.14.54.83 1.1 1.35 2.5 2.4a9.5 9.5 0 0 1 3.12 3.82h.21v-1.57c2.03 1.16 3.82 2.24 4.7 4.18h.22c-.35-2-1.48-3.56-5.55-6.1m17.66 6.1H36c0-1.43-1.3-1.82-2.68-1.82h-4.3c.15.7.2 1.53.1 2.31h-.21c-.4-3.21-2.21-4.8-4.75-6.5V29h-.22c-.67-1.51-2.15-2.93-3.56-3.93l-1.14-.82v1.58h-.21c-.6-1.57-1.68-2.73-3.22-4.12-1.67-1.5-2.34-2.4-2.73-3.43a4.86 4.86 0 0 1-.3-1.81c-.02-1.23.6-2.34 1.37-2.75v.6a3 3 0 0 0-.58 1.8 4.03 4.03 0 0 0 .44 1.84c.94 1.78 4.1 3.97 6.1 5.32 6.23 4.18 7.48 4.9 8.51 7.12.12.25.23.58.33.97l4.77-.73.48-.06c.57-.36 1-.8 1.4-1.37l-2.4-.19c-.12.27-.24.5-.35.69h-.2l.18-.72-.61-.04v-.13l.66-.09c.13-.67.19-1.31.2-1.9l-3.01-.18a10.15 10.15 0 0 0 0 .87h-.2c-.07-.3-.12-.6-.16-.89l-.65-.04v-.2l.62-.03a13.74 13.74 0 0 1-.06-2.18l-1.76-.08c.08.16.17.3.23.48a5.8 5.8 0 0 1 .16 2.88h-.2a6.4 6.4 0 0 0-.47-1.97c-.5-1.15-1.58-2.16-3.41-3.34v1.47h-.22c-.6-1.93-2.12-3-4.37-4.16-1.86-.95-2.44-2.1-2.34-3.88l.63.37a2.77 2.77 0 0 0 2.78 2.62c.79 0 1.53-.11 2.24-.25 1.03-.21 1.98-.39 2.78-.1v-1h-.63c-.22.2-.67.42-1.34.44-.73 0-2.12-.41-2.12-1.96 0-1.35 1.14-1.57 2.06-1.57.5 0 1.33-.01 1.6-.03.22-.01.37-.04.47-.14.12-.1.15-.21.17-.35.03-.17.03-.34.03-.63v-.98h-4.3v1.7l-1.63-.6v-.41h.78V12h-2.9v-1.42h-.99c-.52 0-1.13.38-1.18 1.1-.04.68.27 1.26.98 1.26h.13v.82h-.13a2.13 2.13 0 0 1-2.18-2.17c0-1.29 1.1-2.27 2.43-2.27h2.1v1.42h8.16v2.09c0 .35-.02.82-.06 1.12-.02.22-.1.61-.51.93-.25.18-.63.26-1.23.26a25.32 25.32 0 0 1-1.47-.05c-.93-.06-1.2.3-1.24.63v.2a1.88 1.88 0 0 1 1.76-.35c1.23.4 1.58.43 2.22-.08l.06.15c-.07.1-.19.26-.37.4h.6v3.21l1.85-1.1h5.2l2.55 1.33c.32.16.44.36.5.66.04.25-.03.56-.15.76l-.99 1.63a5.6 5.6 0 0 1 1.48 3.78c0 1.35-.5 3.1-2.12 4.39.71.23 1.17.62 1.53 1.13zm-11.6-17.34c-.72-.16-1.13-.07-1.55.33.2.1.47.15.75.13.41-.03.66-.28.8-.46m-.41 4.64l2.06-1.23a3.13 3.13 0 0 0-1.38-.34c-.71-.01-1.91.31-2.49.4l1.8 1.17m9.19.13l.28-.4-.44-.59.08-.13 1.24.67-.28.82c.2.1.39.22.63.38l.8-1.32-2.07-1.08H29.1l-3.72 2.24c.7.48 1.34 1 1.8 1.54a5.58 5.58 0 0 1 6.27-2.13m-.37 5.19a10.9 10.9 0 0 0-.23-1.85l-2.43-.11a15.07 15.07 0 0 0-.33 2.12zm.81-1.8c.08.62.1 1.21.05 1.75l2.4-.12a4.68 4.68 0 0 0-.44-1.54zm-1.22-.8a8.6 8.6 0 0 0-.71-1.75 4.92 4.92 0 0 0-.3-.01c-.18 0-.35.02-.51.04-.25.6-.45 1.22-.6 1.84zm.66-1.45c.18.48.32.95.42 1.4l1.47-.08a4.73 4.73 0 0 0-1.89-1.32m2.71 6.2a4.02 4.02 0 0 0 .32-1.32l-2.5-.14a8.57 8.57 0 0 1-.5 1.8zm-6.17-6.1a4.5 4.5 0 0 0-1.93 1.61l1.7-.09a11.22 11.22 0 0 1 .23-1.52"/>
  <path fill="#fff" d="M26.7 37.26c.69-.11 1.36-.66 1.36-1.48 0-.74-.32-1.55-2.5-1.55h-3.68v.06c.12.03.3.12.4.24.26.24.34.6.35 1.09v5.5h3.05c1.67 0 2.89-.63 2.89-2.1 0-1.2-.93-1.7-1.88-1.76m-1.57-2.37c.78 0 1.31.17 1.31 1 0 .89-.7 1.13-1.52 1.13h-.7v-2.13zm.08 5.58h-.98v-2.81h.94c1.29 0 1.78.38 1.78 1.35 0 1.04-.65 1.46-1.74 1.46m-6.03.65h1.99l-2.54-3.24c1.02-.27 1.78-.83 1.78-1.84 0-1.18-.71-1.81-2.57-1.81H14v.06c.14.05.3.14.4.24.27.27.35.67.35 1.22v5.37h1.6v-3.05h.57zm-2.83-6.23h1.07c.9 0 1.36.26 1.36 1.2 0 .85-.6 1.36-1.58 1.36h-.85zm18.67.29c.42.23.55.55.56.55.02.03.06.02.06.02l.35-1.18s-.62-.45-2.1-.45c-2.25 0-3.92 1.13-3.92 3.6 0 2.79 2 3.51 3.76 3.51 1.64 0 2.28-.52 2.28-.52v-.8s-.58.54-1.82.54c-1.03 0-2.53-.47-2.56-2.76-.03-2.11.89-2.8 2.12-2.8.69 0 1.03.16 1.27.3"/>
</svg>
