<svg xmlns="http://www.w3.org/2000/svg" viewBox="0 0 160 121">
  <path transform="translate(5 8) scale(0.25)" fill="#E00" d="M106.3 69.4c10.4 0 25.6-2.1 25.6-14.6 0-1 0-1.9-.3-2.8l-6.2-27.1c-1.5-6-2.7-8.7-13.2-13.9a122 122 0 0 0-31-11C76.3 0 74.9 6.3 69 6.3c-5.6 0-9.8-4.7-15-4.7-5 0-8.3 3.4-10.8 10.5l-8 22.7c0 .5-.2 1-.1 1.6 0 7.7 30.3 33 71 33m27.3-9.5c1.4 6.8 1.4 7.6 1.4 8.5 0 11.7-13.2 18.2-30.5 18.2-39 0-73.4-23-73.4-38 0-2.2.5-4.3 1.3-6.2C18.3 43 0 45.6 0 61.7c0 26.3 62.4 58.8 111.8 58.8 38 0 47.5-17.1 47.5-30.7 0-10.6-9.2-22.7-25.8-30"/>
</svg>
