<svg xmlns="http://www.w3.org/2000/svg" viewBox="0 0 50 50">
  <path fill="#00A1E0" d="M 21.948 12.725 C 25.444 9.038 31.521 9.839 33.944 14.305 C 35.113 13.782 36.379 13.511 37.66 13.511 C 42.744 13.511 46.867 17.667 46.867 22.794 C 46.867 27.92 42.748 32.073 37.665 32.073 C 37.056 32.074 36.449 32.013 35.853 31.893 C 34.114 35.007 30.247 36.222 27.04 34.662 C 24.727 40.1 17.394 40.994 13.841 36.272 C 13.393 35.676 13.034 35.019 12.775 34.32 C 8.325 35.225 4.168 31.812 4.189 27.271 C 4.184 24.707 5.54 22.333 7.751 21.034 C 5.232 15.172 10.003 8.782 16.339 9.531 C 18.563 9.794 20.586 10.946 21.948 12.725"/>
  <path fill="#FFF" d="M 10.37 24.955 C 10.345 25.024 10.379 25.041 10.387 25.054 L 10.631 25.199 C 11.025 25.407 11.467 25.51 11.912 25.498 C 12.784 25.498 13.322 25.028 13.322 24.285 L 13.322 24.268 C 13.322 23.576 12.716 23.324 12.139 23.14 L 12.062 23.119 C 11.63 22.978 11.25 22.854 11.25 22.568 L 11.25 22.555 C 11.25 22.311 11.472 22.127 11.806 22.127 C 12.196 22.135 12.579 22.233 12.925 22.414 C 12.925 22.414 13.01 22.469 13.04 22.388 L 13.22 21.91 C 13.237 21.867 13.207 21.824 13.177 21.811 C 12.796 21.588 12.363 21.47 11.921 21.47 L 11.836 21.47 C 11.032 21.47 10.473 21.957 10.473 22.649 L 10.473 22.666 C 10.473 23.396 11.092 23.635 11.669 23.798 L 11.763 23.828 C 12.182 23.956 12.545 24.067 12.545 24.366 L 12.545 24.379 C 12.545 24.652 12.31 24.849 11.93 24.849 C 11.784 24.849 11.31 24.849 10.802 24.528 L 10.661 24.439 C 10.635 24.422 10.575 24.396 10.545 24.477 L 10.374 24.955 Z M 23.186 24.955 C 23.161 25.024 23.195 25.041 23.203 25.054 C 23.285 25.109 23.366 25.152 23.447 25.199 C 23.842 25.407 24.283 25.51 24.729 25.498 C 25.6 25.498 26.143 25.028 26.143 24.285 L 26.143 24.268 C 26.143 23.576 25.532 23.324 24.955 23.14 L 24.878 23.119 C 24.451 22.978 24.066 22.854 24.066 22.568 L 24.066 22.555 C 24.066 22.311 24.289 22.127 24.63 22.127 C 25.018 22.136 25.398 22.234 25.741 22.414 C 25.741 22.414 25.827 22.469 25.857 22.388 L 26.036 21.91 C 26.053 21.867 26.023 21.824 25.993 21.811 C 25.612 21.588 25.179 21.47 24.737 21.47 L 24.652 21.47 C 23.849 21.47 23.289 21.957 23.289 22.649 L 23.289 22.666 C 23.289 23.396 23.908 23.635 24.485 23.798 L 24.579 23.828 C 24.998 23.956 25.365 24.067 25.365 24.366 L 25.365 24.379 C 25.365 24.652 25.126 24.849 24.746 24.849 C 24.601 24.849 24.126 24.849 23.618 24.528 L 23.477 24.439 C 23.464 24.426 23.391 24.396 23.362 24.477 L 23.191 24.955 Z M 31.936 23.486 C 31.936 23.913 31.85 24.246 31.701 24.481 C 31.551 24.716 31.316 24.827 30.992 24.827 C 30.663 24.827 30.436 24.716 30.282 24.481 C 30.112 24.178 30.032 23.833 30.052 23.486 C 30.031 23.143 30.111 22.801 30.282 22.503 C 30.432 22.268 30.667 22.162 30.992 22.162 C 31.316 22.162 31.547 22.268 31.701 22.503 C 31.872 22.802 31.953 23.143 31.936 23.486 M 32.662 22.704 C 32.539 22.233 32.209 21.844 31.765 21.645 C 31.523 21.536 31.261 21.481 30.996 21.482 C 30.697 21.482 30.428 21.538 30.206 21.64 C 29.761 21.841 29.431 22.232 29.308 22.704 C 29.162 23.217 29.162 23.76 29.308 24.272 C 29.377 24.505 29.494 24.722 29.65 24.909 C 29.801 25.089 29.991 25.234 30.206 25.331 C 30.453 25.438 30.722 25.491 30.992 25.485 C 31.26 25.49 31.527 25.438 31.773 25.331 C 32.211 25.126 32.538 24.739 32.666 24.272 C 32.739 24.033 32.773 23.768 32.773 23.486 C 32.773 23.204 32.739 22.943 32.666 22.704 M 38.668 24.712 C 38.643 24.644 38.575 24.669 38.575 24.669 C 38.341 24.767 38.088 24.811 37.835 24.797 C 37.524 24.814 37.221 24.699 36.998 24.481 C 36.797 24.276 36.682 23.939 36.682 23.486 C 36.682 23.072 36.784 22.76 36.964 22.52 C 37.143 22.285 37.413 22.166 37.776 22.166 C 38.075 22.166 38.305 22.2 38.545 22.277 C 38.545 22.277 38.604 22.303 38.63 22.226 L 38.814 21.726 C 38.831 21.67 38.784 21.645 38.771 21.64 C 38.438 21.522 38.086 21.467 37.733 21.478 C 37.425 21.478 37.152 21.534 36.917 21.636 C 36.461 21.834 36.115 22.224 35.973 22.7 C 35.892 22.954 35.851 23.219 35.853 23.486 C 35.853 24.093 36.016 24.58 36.34 24.938 C 36.661 25.297 37.152 25.481 37.78 25.481 C 38.133 25.481 38.483 25.417 38.814 25.293 C 38.814 25.293 38.865 25.267 38.844 25.208 L 38.664 24.712 Z M 39.946 23.08 C 39.98 22.845 40.044 22.653 40.147 22.499 C 40.296 22.268 40.531 22.14 40.851 22.14 C 41.172 22.14 41.394 22.268 41.548 22.499 C 41.649 22.676 41.705 22.876 41.71 23.08 L 39.946 23.08 Z M 42.407 22.568 C 42.286 22.159 42.001 21.818 41.621 21.628 C 41.131 21.424 40.58 21.43 40.095 21.645 C 39.646 21.847 39.312 22.243 39.19 22.721 C 39.037 23.237 39.037 23.786 39.19 24.302 C 39.338 24.783 39.701 25.168 40.172 25.344 C 40.46 25.446 40.764 25.494 41.069 25.485 C 41.787 25.485 42.163 25.323 42.317 25.238 C 42.347 25.22 42.372 25.195 42.338 25.118 L 42.176 24.665 C 42.154 24.597 42.082 24.622 42.082 24.622 C 41.911 24.691 41.655 24.806 41.069 24.806 C 40.685 24.806 40.399 24.691 40.224 24.516 C 40.04 24.336 39.95 24.067 39.933 23.691 L 42.411 23.691 C 42.411 23.691 42.475 23.691 42.479 23.631 C 42.479 23.601 42.565 23.119 42.407 22.563 M 20.136 23.08 C 20.16 22.875 20.227 22.677 20.333 22.499 C 20.487 22.268 20.717 22.14 21.042 22.14 C 21.366 22.14 21.58 22.268 21.734 22.499 C 21.838 22.676 21.897 22.875 21.905 23.08 L 20.136 23.08 Z M 22.593 22.568 C 22.473 22.16 22.19 21.819 21.811 21.628 C 21.322 21.424 20.77 21.43 20.286 21.645 C 19.836 21.847 19.503 22.243 19.38 22.721 C 19.228 23.237 19.228 23.786 19.38 24.302 C 19.528 24.783 19.891 25.168 20.363 25.344 C 20.651 25.446 20.955 25.494 21.26 25.485 C 21.977 25.485 22.353 25.323 22.507 25.238 C 22.533 25.22 22.558 25.195 22.528 25.118 L 22.366 24.665 C 22.341 24.597 22.272 24.622 22.272 24.622 C 22.101 24.691 21.845 24.806 21.255 24.806 C 20.871 24.806 20.589 24.691 20.41 24.516 C 20.23 24.336 20.141 24.067 20.123 23.691 L 22.597 23.691 C 22.597 23.691 22.661 23.691 22.67 23.631 C 22.67 23.601 22.755 23.119 22.593 22.563 M 14.788 24.699 C 14.731 24.661 14.683 24.611 14.647 24.554 C 14.591 24.456 14.565 24.345 14.57 24.234 C 14.57 24.02 14.642 23.858 14.792 23.755 C 14.792 23.755 15.005 23.567 15.509 23.576 C 15.864 23.576 16.18 23.631 16.18 23.631 L 16.18 24.759 C 16.18 24.759 15.868 24.823 15.514 24.844 C 15.01 24.879 14.788 24.699 14.788 24.704 M 15.77 22.965 C 15.672 22.956 15.539 22.952 15.386 22.952 C 15.172 22.952 14.967 22.978 14.775 23.029 C 14.591 23.077 14.417 23.158 14.262 23.268 C 14.113 23.375 13.99 23.516 13.903 23.678 C 13.814 23.854 13.77 24.049 13.775 24.246 C 13.775 24.468 13.805 24.656 13.882 24.815 C 13.959 24.968 14.066 25.101 14.207 25.199 C 14.343 25.302 14.514 25.37 14.711 25.413 C 14.903 25.455 15.125 25.485 15.364 25.485 C 15.621 25.485 15.868 25.464 16.116 25.421 L 16.74 25.302 C 16.797 25.288 16.854 25.274 16.911 25.259 C 16.975 25.242 16.966 25.173 16.966 25.173 L 16.966 22.909 C 16.966 22.418 16.838 22.055 16.573 21.824 C 16.317 21.593 15.932 21.482 15.437 21.482 C 15.253 21.482 14.954 21.504 14.775 21.542 C 14.775 21.542 14.236 21.645 14.006 21.82 C 14.006 21.82 13.963 21.85 13.989 21.918 L 14.164 22.388 C 14.185 22.448 14.249 22.431 14.249 22.431 L 14.288 22.409 C 14.762 22.153 15.364 22.157 15.364 22.157 C 15.633 22.157 15.834 22.213 15.975 22.32 C 16.112 22.422 16.18 22.576 16.18 22.905 L 16.18 23.012 C 15.967 22.982 15.77 22.965 15.77 22.965 M 35.721 21.687 C 35.742 21.632 35.704 21.602 35.687 21.602 C 35.644 21.585 35.43 21.538 35.272 21.529 C 34.875 21.487 34.482 21.64 34.217 21.939 L 34.217 21.64 C 34.217 21.598 34.187 21.564 34.144 21.564 L 33.516 21.564 C 33.474 21.564 33.444 21.598 33.444 21.64 L 33.444 25.327 C 33.444 25.37 33.478 25.404 33.521 25.404 L 34.17 25.404 C 34.211 25.402 34.243 25.368 34.243 25.327 L 34.243 23.49 C 34.243 23.234 34.272 22.99 34.328 22.837 C 34.379 22.683 34.456 22.559 34.542 22.473 C 34.627 22.388 34.734 22.324 34.849 22.29 C 35.044 22.233 35.25 22.227 35.447 22.273 C 35.499 22.281 35.524 22.251 35.541 22.209 L 35.729 21.687 M 29.629 19.979 C 29.439 19.923 29.242 19.894 29.044 19.893 C 28.595 19.893 28.245 20.021 27.997 20.269 C 27.719 20.583 27.544 20.976 27.497 21.393 L 27.467 21.564 L 26.907 21.564 C 26.907 21.564 26.839 21.564 26.822 21.632 L 26.737 22.144 C 26.724 22.196 26.745 22.23 26.813 22.23 L 27.356 22.23 L 26.801 25.323 C 26.758 25.571 26.715 25.776 26.655 25.934 C 26.617 26.059 26.559 26.177 26.485 26.284 C 26.429 26.364 26.35 26.423 26.258 26.455 C 26.054 26.521 25.833 26.513 25.634 26.434 C 25.634 26.434 25.57 26.412 25.545 26.476 L 25.361 26.976 C 25.344 27.028 25.369 27.062 25.399 27.075 L 25.626 27.143 C 25.949 27.208 26.283 27.188 26.596 27.083 C 26.766 27.019 26.916 26.912 27.053 26.763 C 27.194 26.605 27.288 26.438 27.373 26.207 C 27.469 25.938 27.541 25.661 27.587 25.379 L 28.142 22.226 L 28.962 22.226 C 28.962 22.226 29.031 22.226 29.048 22.153 L 29.137 21.64 C 29.137 21.589 29.125 21.559 29.052 21.559 L 28.266 21.559 C 28.266 21.542 28.309 21.26 28.394 21.004 C 28.432 20.904 28.492 20.813 28.569 20.739 C 28.629 20.679 28.697 20.632 28.779 20.611 C 28.856 20.585 28.945 20.568 29.044 20.568 C 29.155 20.569 29.266 20.587 29.372 20.624 C 29.458 20.645 29.458 20.624 29.479 20.581 L 29.667 20.068 C 29.689 20.008 29.642 19.983 29.624 19.983 M 18.573 25.323 C 18.573 25.366 18.543 25.4 18.5 25.4 L 17.846 25.4 C 17.804 25.4 17.774 25.366 17.774 25.323 L 17.774 20.051 C 17.774 20.008 17.804 19.974 17.846 19.974 L 18.5 19.974 C 18.543 19.974 18.573 20.008 18.573 20.051 L 18.573 25.327 Z"/>
</svg>