<svg xmlns="http://www.w3.org/2000/svg" viewBox="0 0 50 50">
  <path fill="#00b073" d="M 37.817 9.165 C 38.301 8.443 37.871 7.526 37.018 7.526 L 23.473 7.526 C 20.615 7.526 18.353 8.28 16.671 9.801 C 15 11.305 14.036 13.473 13.775 16.291 L 13.128 23.681 C 12.892 26.506 13.479 28.666 14.891 30.176 C 16.309 31.686 18.45 32.451 21.305 32.451 L 24.395 32.451 L 24.395 32.429 C 25.003 32.344 25.339 31.971 25.397 31.314 L 25.72 27.686 C 25.783 27.096 25.357 26.564 24.766 26.5 L 24.633 26.494 L 22.907 26.494 C 21.786 26.494 21.004 26.253 20.561 25.762 C 20.12 25.277 19.948 24.451 20.044 23.298 L 20.627 16.668 C 20.729 15.52 21.041 14.695 21.575 14.209 C 22.104 13.725 22.928 13.477 24.054 13.477 L 33.197 13.477 C 34.275 13.477 35.321 12.906 35.945 11.972 L 37.817 9.169 Z"/>
  <path fill="#00b073" d="M 11.787 40.704 C 11.297 41.431 11.744 42.343 12.584 42.343 L 26.329 42.343 C 29.18 42.343 31.451 41.583 33.133 40.067 C 34.804 38.56 35.772 36.397 36.026 33.578 L 36.674 26.193 C 36.912 23.363 36.323 21.197 34.917 19.692 C 33.499 18.183 31.358 17.417 28.507 17.417 L 25.413 17.417 L 25.413 17.44 C 24.803 17.524 24.469 17.897 24.411 18.555 L 24.092 22.182 C 24.03 22.771 24.453 23.301 25.042 23.368 L 25.176 23.374 L 26.901 23.374 C 28.022 23.374 28.803 23.616 29.247 24.102 C 29.688 24.587 29.86 25.411 29.762 26.564 L 29.18 33.195 C 29.079 34.343 28.766 35.168 28.232 35.653 C 27.698 36.138 26.879 36.385 25.758 36.385 L 16.423 36.385 C 15.345 36.385 14.293 36.958 13.672 37.89 L 11.787 40.704 Z"/>
</svg>