<svg xmlns="http://www.w3.org/2000/svg" viewBox="0 0 50 50">
  <path fill="#181818" d="M10.63,25c0,0.7,-0.59,1.38,-1.53,1.38a2.03,2.03,0,0,1,-1.7,-0.84l0.6,-0.47c0.27,0.43,0.63,0.66,1.1,0.66c0.5,0,0.83,-0.32,0.83,-0.73c0,-0.46,-0.5,-0.62,-1.03,-0.78c-0.62,-0.2,-1.3,-0.46,-1.3,-1.3c0,-0.69,0.63,-1.24,1.47,-1.24a1.8,1.8,0,0,1,1.48,0.67l-0.56,0.42a1.03,1.03,0,0,0,-0.91,-0.5c-0.47,0,-0.77,0.29,-0.77,0.64c0,0.44,0.48,0.58,1,0.76c0.63,0.21,1.32,0.48,1.32,1.33zm1.98,-1.88zm1.61,1.6v0.26h-2.6c0.1,0.48,0.47,0.8,1.02,0.8a0.98,0.98,0,0,0,0.91,-0.56l0.56,0.3c-0.28,0.52,-0.77,0.86,-1.47,0.86c-1,0,-1.66,-0.71,-1.66,-1.62a1.62,1.62,0,0,1,1.63,-1.64c0.93,0,1.61,0.67,1.61,1.6zm-0.68,-0.31c-0.1,-0.45,-0.45,-0.7,-0.92,-0.7a0.97,0.97,0,0,0,-0.96,0.7zm2.72,1.34a0.99,0.99,0,0,1,-0.99,-1a0.98,0.98,0,0,1,0.98,-1a0.93,0.93,0,0,1,0.88,0.58l0.6,-0.25a1.58,1.58,0,0,0,-1.48,-0.96a1.61,1.61,0,0,0,-1.64,1.63a1.62,1.62,0,0,0,1.64,1.63a1.58,1.58,0,0,0,1.5,-0.99l-0.61,-0.26a0.94,0.94,0,0,1,-0.88,0.62zm10.63,-1.03v0.26h-2.6c0.1,0.48,0.47,0.8,1.02,0.8a0.98,0.98,0,0,0,0.92,-0.56l0.55,0.3c-0.28,0.52,-0.77,0.86,-1.47,0.86c-0.99,0,-1.65,-0.71,-1.65,-1.62a1.61,1.61,0,0,1,1.62,-1.64c0.93,0,1.61,0.67,1.61,1.6zm-0.68,-0.31c-0.1,-0.45,-0.45,-0.7,-0.93,-0.7a0.97,0.97,0,0,0,-0.95,0.7zm-0.93,-1.3zm5.42,2.3l-0.8,-2.23h-0.67l-0.82,2.23l-0.72,-2.23h-0.68l1.04,3.14h0.66l0.85,-2.24l0.83,2.24h0.65l1.09,-3.14h-0.69zm12.1,-0.98c-0.45,-0.1,-0.73,-0.16,-0.73,-0.4c0,-0.2,0.18,-0.37,0.54,-0.37a0.8,0.8,0,0,1,0.7,0.36l0.55,-0.3c-0.24,-0.38,-0.67,-0.61,-1.25,-0.61c-0.74,0,-1.21,0.45,-1.21,0.94c0,0.65,0.55,0.82,1.08,0.94c0.4,0.07,0.76,0.13,0.76,0.39c0,0.21,-0.2,0.4,-0.57,0.4a0.9,0.9,0,0,1,-0.8,-0.45l-0.6,0.32c0.26,0.46,0.72,0.73,1.37,0.73c0.9,0,1.27,-0.58,1.27,-1.01c0,-0.66,-0.58,-0.83,-1.1,-0.94zm1.12,-1.9l0.13,0.19h-0.1l-0.12,-0.18h-0.06v0.18h-0.07v-0.5h0.18a0.15,0.15,0,0,1,0.16,0.16a0.15,0.15,0,0,1,-0.12,0.15zm-0.04,-0.07a0.08,0.08,0,1,0,0,-0.16h-0.1v0.16zm0.32,-0.35a0.5,0.5,0,0,1,0.14,0.35a0.49,0.49,0,1,1,-0.98,0a0.49,0.49,0,0,1,0.5,-0.5a0.5,0.5,0,0,1,0.34,0.15zm0.06,0.35a0.41,0.41,0,1,0,-0.4,0.42a0.4,0.4,0,0,0,0.4,-0.42zm-23.91,2.45a0.77,0.77,0,0,1,-1.54,0v-1.73h-0.68v1.73a1.45,1.45,0,1,0,2.9,0v-1.73h-0.68zm15.56,-0.55v1.95h0.68v-1.95a0.52,0.52,0,0,1,0.52,-0.53h0.71v-0.67h-0.7a1.2,1.2,0,0,0,-1.2,1.2zm-14.39,0.2v1.75h0.68v-1.76a0.72,0.72,0,0,1,0.72,-0.71h0.51v-0.68h-0.5a1.4,1.4,0,0,0,-1.4,1.4zm13.9,0.53a0.86,0.86,0,0,1,-0.03,0.08l-0.01,0.06l-0.04,0.08a1.44,1.44,0,0,1,-0.1,0.21l-0.03,0.07a1.56,1.56,0,0,1,-0.1,0.13l-0.02,0.03a1.63,1.63,0,0,1,-0.38,0.35h-0.02a1.53,1.53,0,0,1,-0.23,0.13l-0.08,0.03a1.46,1.46,0,0,1,-0.16,0.05l-0.11,0.02l-0.07,0.02h-0.09l-0.1,0.01h-0.17l-0.1,-0.01a1.64,1.64,0,0,1,-0.24,-0.05l-0.09,-0.03a1.4,1.4,0,0,1,-0.15,-0.06l-0.1,-0.06l-0.13,-0.08l-0.09,-0.06a1.56,1.56,0,0,1,-0.14,-0.13l-0.05,-0.05a1.6,1.6,0,0,1,-0.15,-0.2a1.6,1.6,0,0,1,-0.2,-0.47h-0.01l-0.01,-0.05l-0.03,-0.13a1.53,1.53,0,0,1,-0.01,-0.16v-0.12a1.48,1.48,0,0,1,0,-0.17c0,-0.04,0.02,-0.07,0.03,-0.1a1.71,1.71,0,0,1,0.04,-0.18l0.03,-0.1a1.48,1.48,0,0,1,0.07,-0.16l0.06,-0.1a1.74,1.74,0,0,1,0.1,-0.15l0.02,-0.03a1.62,1.62,0,0,1,0.39,-0.35v0.01a1.64,1.64,0,0,1,0.2,-0.12h0.05a1.5,1.5,0,0,1,0.22,-0.08l0.07,-0.02a1.6,1.6,0,0,1,0.19,-0.04h0.28a0.3,0.3,0,0,1,0.07,0a1.61,1.61,0,0,1,0.5,0.16l0.06,0.02a1.83,1.83,0,0,1,0.17,0.11l0.06,0.05a1.77,1.77,0,0,1,0.16,0.14c0.02,0,0.03,0.02,0.04,0.03a1.6,1.6,0,0,1,0.18,0.22a1.47,1.47,0,0,1,0.2,0.48l0.02,0.06a1.38,1.38,0,0,1,0.03,0.13v0.12l0.01,0.1v0.14l-0.01,0.1v0.13zm-2.43,-0.9a0.98,0.98,0,0,0,-0.12,0.24v0.02a1,1,0,0,0,-0.03,0.22v0.1a0.98,0.98,0,0,0,0.1,0.43a1,1,0,0,0,0.12,0.16a0.98,0.98,0,0,0,0.8,0.35a0.96,0.96,0,0,0,0.15,-0.02h0.05a1,1,0,0,0,0.6,-0.47l0.04,-0.06a0.86,0.86,0,0,0,0.04,-0.08l0.02,-0.07l0.02,-0.09l0.01,-0.07l0.01,-0.08v-0.08v-0.08a0.99,0.99,0,0,0,-0.24,-0.53l-0.03,-0.04a0.8,0.8,0,0,0,-0.08,-0.07l-0.04,-0.03a0.9,0.9,0,0,0,-0.1,-0.07a0.99,0.99,0,0,0,-0.3,-0.11a0.92,0.92,0,0,0,-0.15,-0.02h-0.02a1.01,1.01,0,0,0,-0.14,0l-0.1,0.03a0.95,0.95,0,0,0,-0.17,0.05l-0.05,0.02a0.99,0.99,0,0,0,-0.38,0.35zm5.3,-2.45v4.58h0.66v-4.58zm2.11,1.44l-1.45,1.57l1.45,1.57h0.8l-1.45,-1.57l1.45,-1.57z"/>
</svg>
