<svg xmlns="http://www.w3.org/2000/svg" viewBox="0 0 50 50">
  <path fill="#81b5a1" d="M25,5c-8.252,0.019,-15.664,5.048,-18.731,12.708c-3.066,7.661,-1.172,16.416,4.788,22.123c1.422,1.359,3.624,1.473,5.179,0.27c5.108,-3.789,12.094,-3.789,17.203,0c1.571,1.243,3.822,1.128,5.258,-0.27c11.244,-10.77,6.613,-29.674,-8.337,-34.027c-1.742,-0.507,-3.545,-0.778,-5.36,-0.804m-0.113,30.258c-5.632,0.183,-10.258,-4.411,-10.112,-10.045c-0.257,-7.737,7.959,-12.852,14.789,-9.206c0.13,0.07,0.259,0.142,0.386,0.218c3.16,1.871,5.049,5.317,4.926,8.987c0.072,2.685,-0.964,5.283,-2.863,7.182c-1.9,1.899,-4.497,2.934,-7.182,2.863"/>
</svg>