<svg xmlns="http://www.w3.org/2000/svg" viewBox="0 0 50 50">
  <g transform="translate(3.8 13) scale(0.11)">
    <path fill="#0092d4" d="M28.27 117.67H2V135c6.8 0 43.47 0 77.6-.4h42c5.07 0 10-.4 14.27-1.2l2.66-.67c.8 0 1.74-.26 2.54-.53h.26c4.27-1.2 8.4-2.67 12-4.27l2.54-1.06c.4-.54 1.2-.67 1.86-1.34a66.4 66.4 0 0 0 28.14-28.8 77.07 77.07 0 0 0 8.93-34.8V60.6c0-12-3.33-23.2-9.73-32.67a63.6 63.6 0 0 0-18.4-18.4c-1.34-.93-2.8-2-4.27-2.66l-4.67-2.27a60.93 60.93 0 0 0-56.66 4.93 38.9 38.9 0 0 0-5.34 3.87 36.82 36.82 0 0 0-4.93 4.4 61.6 61.6 0 0 0-10.13 13.33 24.69 24.69 0 0 0-2.4 5.07 56.27 56.27 0 0 0-5.07 24.53l.13 5.74v1.33c.27.8.27 1.33.27 1.73l.8 4 .13 1.34c.27.26.27.4.27.93.8 2.53 1.47 4.93 2.4 7.33.27.27.27.67.53 1.2l.67 1.34a53.73 53.73 0 0 0 15.6 20.4l8.53 7.6h8.67a86.67 86.67 0 0 0 23.47-2 76.53 76.53 0 0 1-23.2-12.54v-.26c-1.74-1.47-3.74-2.94-5.34-4.67a50 50 0 0 1-5.06-5.07 26.13 26.13 0 0 1-4.14-5.06 26.94 26.94 0 0 1-3.2-5.34l-1.86-5.06c0-.27 0-.8-.27-1.07l-.27-.93c0-.27 0-.4-.26-.67v-.8c-.54-1.6-.8-3.6-1.07-5.33v-5.34c0-4.8 1.07-9.2 2.67-13.6L94 42.07l1.87-3.6a38.67 38.67 0 0 1 7.06-8.94 40 40 0 0 1 11.47-8.26c.67-.54 1.6-.67 2.4-1.34 5.07-2 10.4-3.33 16-3.33h2.4c8.27.27 16 2.67 22.53 7.07l4 2.66 3.34 3.2a44 44 0 0 1 10.13 15.74c.53 1.2.67 2.4 1.33 3.6.8 3.6 1.34 7.73 1.34 11.73v1.2a60.27 60.27 0 0 1-14.27 37.87c-2 2.13-4 4-6.4 6a37.07 37.07 0 0 1-7.47 5.06c-2.66 1.47-5.6 2.67-8.66 4-.8 0-1.34 0-2 .4l-2 .4c-3.34 1.07-6.94 1.47-10.8 1.74-.8.26-1.47.26-2.27.26H44.8z"/>
    <path fill="#004d8f" d="M176.13 117.67l-.4.53a81.2 81.2 0 0 1-23.6 16.27l11.47.13h11.33c5.2 0 9.74-.4 14.4-1.2l2.4-.4c.94-.27 1.6-.53 2.67-.53l.13-.27c4.27-.93 8.27-2.4 12.14-4 .8-.67 1.6-.8 2.26-1.33l2.14-.94A72 72 0 0 0 236 102.47a48.4 48.4 0 0 0 3.2-5.74 80.93 80.93 0 0 0 9.07-34.8V60.6c0-12-3.74-23.2-9.74-32.67a36.93 36.93 0 0 0-4-5.33 23.98 23.98 0 0 0-4.26-4.8A80.67 80.67 0 0 0 215.6 6.87l-4.53-2.27a60.8 60.8 0 0 0-32.8-4l-1.6.13-1.74.27-.93.27-.93.26-4.4 1.2-2.27.94c2.67 1.6 5.33 3.6 7.87 5.6 2.66 2.4 5.33 4.8 7.73 7.73l4-.27h2.27a42.53 42.53 0 0 1 26.26 9.74l3.74 3.2c4 4 7.2 8.66 9.33 14 .67.93.8 2.13 1.33 3.2a47.15 47.15 0 0 1 2.14 13.86v1.2a60.53 60.53 0 0 1-20.54 43.87 47.2 47.2 0 0 1-7.6 5.07 50.27 50.27 0 0 1-10.66 4.4l-1.87.66a73.33 73.33 0 0 1-10.67 1.47c-.8.27-1.6.27-2.26.27z"/>
    <path fill="#e42313" d="M229.6 117.67a73.87 73.87 0 0 1-22.67 16c-.53.26-.66.53-1.33.53l8.67.4h14.66c4.94 0 9.87-.4 14.14-1.2.93-.13 2-.13 2.66-.4 1.07-.27 1.74-.53 2.67-.53v-.27c4.4-.93 8.53-2.4 12.4-4 .8-.67 1.33-.8 2.13-1.33l2.27-.94a72 72 0 0 0 24.93-23.46c.94-2 2.14-3.74 3.2-5.74a79.73 79.73 0 0 0 8.94-34.8H302V60.6a60.13 60.13 0 0 0-28-51.07c-1.33-.93-2.67-2-4.13-2.66l-4.94-2.27a59.2 59.2 0 0 0-32.53-4l-1.6.13-1.73.27-1.34.27-.66.26c-1.74.4-3.07.67-4.4 1.2l-2.4.94C223.73 5.8 229.33 9.8 235.6 17h1.47c.8-.27 1.33-.27 2.13-.27h3.2c8.27.27 16 2.67 22.53 7.07a19 19 0 0 1 4 2.67c1.07 1.06 2.27 2 3.2 3.2h.27c4 4 7.07 8.66 9.47 14 .26.93.8 2.13.93 3.2 1.47 4.4 2.53 8.93 2.53 13.86v1.2a60.4 60.4 0 0 1-14.4 37.87 46.13 46.13 0 0 1-14 11.07 57.3 57.3 0 0 1-8.66 4 4.67 4.67 0 0 1-2 .4l-2 .66c-3.07.8-7.47 1.34-11.6 1.74z"/>
    <path fill="#e42313" d="M376.27 134.87h13.06v-16.94h-75.46l-11.07-.26h-5.33l-1.34-.27h-1.6l-.53-.27h-.67l-4.4-.66-3.33-.8c-5.33 5.86-8 7.86-14.8 12.93a94 94 0 0 0 17.2 4.8l3.33.8 3.34.27h1.6l3.33.13h2.4c22.67.27 47.33.27 65.07.27z"/>
    <g fill="#0092d4">
      <path id="s" d="M17.33 154.33V161s-5.06-2.27-6.66-2.53c-1.34-.27-3.2.26-4 1.86-.54 1.07-.54 2.27 1.33 2.94 2 1.33 3.73 2 6.4 3.33 2.67 1.6 5.07 5.33 3.73 10.53a10 10 0 0 1-8.8 6.67c-2.93.4-7.33-.93-9.46-2.27v-6.66L6 177.13s4 2 5.73-1.73c1.34-3.33-2.93-4.4-4.26-5.07C6 169.67-.13 167.67.13 161c.27-6.93 7.34-8.67 7.74-8.67 5.33-.66 9.46 2 9.46 2"/>
      <path id="m" d="M20.93 181.93v-16.66c0-2 .54-3.74.94-5.07a9.33 9.33 0 0 1 2.66-4.4c0-.27.4-.8.8-1.07.27-.13.8-.4.94-.66 2-1.34 4.13-2 6.8-2 2.26 0 4.4.53 6.13 1.73l.67.53.66.4 1.34 1.34.13-.27c.8-.8 1.6-1.47 2.53-2l.67-.4.8-.27c1.33-.8 2.8-.93 4.53-.93 1.74 0 3.47.13 4.94.93a10.53 10.53 0 0 1 6.26 7.07c.54 1.33.8 3.07.8 5.07v18.66h-6.4v-19.46c0-.94 0-1.87-.26-2.67l-.14-.27c-.26-.66-.8-1.2-1.06-1.6l-.94-.8-.93-.4c-.53-.26-1.33-.26-2.27-.26s-1.73 0-2.4.26c0 0 0 .27-.26.27-.4.13-.94.4-1.34.93 0 .27-.26.4-.26.4-.27.27-.27.54-.54.54a8 8 0 0 0-.66 3.6v19.46h-6.54v-19.46a8.5 8.5 0 0 0-.53-2.67v-.27l-1.07-1.6-.53-.53-.53-.27a5.6 5.6 0 0 0-2.94-.66c-.93 0-1.73 0-2.4.26a8 8 0 0 0-1.73 1.2c-.13.27-.13.4-.4.4l-.27.54a8 8 0 0 0-.93 3.6v19.46h-6.4z"/>
      <path id="a" d="M91.07 168.47c0 5.33-4.4 9.6-9.74 9.6a9.73 9.73 0 0 1-10-9.6 9.87 9.87 0 1 1 19.74 0m6.13 15.33v-15.73c-.27-9.07-7.33-16-16-16-8.93 0-16.27 7.2-16.27 16.26 0 8.67 7.34 16 16.27 16 3.73 0 7.07-1.33 9.73-3.46v2.93z"/>
      <path id="r1" d="M104.93 183.8h-4.4v-17.33c0-2.27.14-4 .8-5.87.67-1.6 1.34-3.2 2.67-4.67a14 14 0 0 1 4.27-2.8c1.33-.8 3.46-1.06 5.33-1.06h2v6.13h-2c-.93 0-1.87.27-2.93.53-.67.27-1.34.94-2 1.34-.67.8-1.2 1.46-1.34 2.53-.26.93-.53 1.87-.53 3.07v18.26z"/>
      <path id="t1" d="M118.53 145.13h6.27v6.94h7.07v6.13h-7.07v14.27s-.27 3.2 1.6 4.66c1.33.67 1.73.94 5.33.94v5.73s-6 .4-9.6-2.4c-3.46-2.67-3.73-9.07-3.73-9.07z"/>
      <path id="e1" d="M158 164.73a9.73 9.73 0 0 0-18.13 0zm-9.07-12.66a16 16 0 0 1 15.87 16V171h-24.93a9.6 9.6 0 0 0 16 4h7.46a16.24 16.24 0 0 1-14.4 8.93c-8.8 0-16-7.06-16-15.73a16 16 0 0 1 16-16"/>
      <path id="s" d="M183.73 154.33V161s-5.06-2.27-6.4-2.53a4.03 4.03 0 0 0-4.26 1.86c-.27 1.07-.27 2.27 1.2 3.2a65.33 65.33 0 0 1 6.66 3.07c2.67 1.6 5.2 5.33 3.47 10.53a9.33 9.33 0 0 1-8.53 6.67 16 16 0 0 1-9.34-2.27v-6.66l6 2.26s4 2 5.6-1.46c1.74-3.6-2.93-4.67-4.4-5.34-1.33-.66-7.46-2.66-7.33-9.33.27-6.93 7.33-8.67 8-8.67 5.33-.66 9.33 2 9.33 2"/>
      <path id="t2" d="M188.27 145.13h6.13v6.94h7.07v6.13h-7.07v14s0 3.47 1.6 4.93c1.33.67 1.73.67 5.6.94v5.73s-6.27.27-9.87-2.4c-3.46-2.67-3.46-9.07-3.46-9.07z"/>
    </g>
    <g fill="#e42313">
      <path id="e2" d="M228.4 164.73a10.13 10.13 0 0 0-9.33-6.26 9.33 9.33 0 0 0-8.94 6.26zm-9.33-12.66a16 16 0 0 1 15.73 16c0 1.06.27 1.6 0 2.93h-24.93c2 5.07 6 6.8 9.33 6.8 2.67 0 4.93-1.33 6.93-2.93h7.47a16 16 0 0 1-30.67-6.67c.14-8.8 7.47-16 16.27-16"/>
      <path id="n" d="M238 166.2h.27c0-.8 0-1.33.26-1.73l.27-1.34c.93-2.53 1.87-4 2.13-4 1.34-2 2.94-3.33 5.07-4.53 2-1.47 4.67-2.53 8.27-2.53s7.73 1.46 10.93 4.4a15.7 15.7 0 0 1 5.07 11.73v15.6h-6.4v-15.73a9.73 9.73 0 0 0-9.74-9.74 10.67 10.67 0 0 0-6.93 2.94 8.93 8.93 0 0 0-2.67 6.66v15.87H238v-17.07z"/>
      <path id="e3" d="M298.13 164.73a9.47 9.47 0 0 0-8.93-6.26c-4.4 0-7.73 2.66-9.33 6.26zm-9.2-12.66a16 16 0 0 1 16 16V171H279.6c2 5.07 6.27 6.8 9.6 6.8a9.68 9.68 0 0 0 6.67-2.93h7.6a16 16 0 0 1-14.54 9.06 15.76 15.76 0 0 1-15.73-15.73 16 16 0 0 1 15.73-16"/>
      <path id="r" d="M312.27 183.8h-4.4v-17.33c0-2.27.26-4 .93-5.87.53-1.6 1.33-3.2 2.67-4.67a16.17 16.17 0 0 1 4.13-2.8 12.3 12.3 0 0 1 5.33-1.06h2.14v6.13h-2.14a8.8 8.8 0 0 0-2.66.53l-2.14 1.34c-.53.8-.93 1.46-1.33 2.53a9.33 9.33 0 0 0-.67 3.07v18.26z"/>
      <path id="g" d="M349.73 167.8a9.33 9.33 0 0 1-9.6 9.73c-5.33 0-9.73-4-9.73-9.73 0-5.33 4.4-9.6 9.73-9.6 5.6 0 9.6 4.4 9.6 9.6m6.4 15.6v-15.6a16 16 0 0 0-16-15.6 15.73 15.73 0 0 0-15.73 15.73c0 9.07 6.93 16 15.73 16 4 0 7.07-1.06 9.87-3.33l-.27 1.33a9.02 9.02 0 0 1-5.33 7.74c-.67.4-1.33.66-2.13.66-.54.27-1.2.27-2 .27a9.38 9.38 0 0 1-6.67-2.93c-.53-.27-.8-.8-1.07-1.34h-6.93v.54c1.33 3.46 4 6.4 7.2 8 .67.53 1.47.8 2.27 1.06 1.6.4 3.33.94 5.33.94a16 16 0 0 0 14-8.4c.53-1.07 1.07-2 1.33-2.94l.4-2"/>
      <path id="y" d="M390.27 181.93H390c0 1.34-.13 2.4-.4 3.47-.27 1.2-.8 2.13-1.33 3.2-2.67 4.8-8 8-13.74 8a18.67 18.67 0 0 1-5.33-.8c-.67-.27-1.33-.8-2-.93a15.6 15.6 0 0 1-7.2-8v-.54h6.67c.4.4.8.67 1.06 1.2a9.33 9.33 0 0 0 6.8 2.94c.8 0 1.47 0 2-.27.67 0 1.34-.27 1.87-.4a9.44 9.44 0 0 0 5.6-8v-1.07a16 16 0 0 1-9.33 3.2c-4.27 0-8-1.73-10.94-4.66a14.67 14.67 0 0 1-4.66-10.8V153.4h6.26v15.07c0 2.66.94 4.8 2.67 6.4 1.73 1.73 4 2.93 6.67 2.93s4.93-1.33 6.66-2.93a8.54 8.54 0 0 0 2.67-6.4V153.4h6.27c0 9.6-.27 12.8 0 28.53"/>
    </g>
  </g>
</svg>
