<svg xmlns="http://www.w3.org/2000/svg" viewBox="0 0 50 50">
  <path fill="#007aff" d="M5.22 27.76h3.01c.53 0 .81-.05.98-.16a.7.7 0 0 0 .33-.6c0-.3-.16-.57-.43-.7a1.6 1.6 0 0 0-.7-.12H7.17c-.8 0-1.3-.14-1.66-.44a1.93 1.93 0 0 1-.62-1.45c0-.84.47-1.58 1.15-1.82.3-.1.64-.14 1.42-.14h3.27v1.18l-2.96.01c-.62.01-.67.01-.88.06-.28.07-.44.33-.44.68 0 .3.14.53.37.64.2.09.36.1.84.1h1.06c.97 0 1.5.15 1.88.55.3.3.5.88.5 1.45 0 .7-.33 1.36-.85 1.68-.32.2-.74.27-1.72.27H5.22v-1.18zm9.66-5.48c-.93 0-1.74.23-2.26.65-.65.51-1 1.48-1 2.74 0 .88.19 1.6.58 2.15.51.75 1.51 1.16 2.78 1.16.9 0 1.65-.21 2.14-.61.66-.53 1.02-1.48 1.02-2.64v-.37l-.02-.18-.02-.18-.02-.17-.03-.17-.03-.16-.04-.16-.02-.08-.02-.07-.03-.08-.02-.07-.03-.07-.02-.07-.03-.07-.03-.06-.03-.07-.03-.06-.03-.06-.04-.06-.03-.06-.04-.05-.03-.05-.04-.05c-.5-.66-1.45-1.03-2.63-1.03zm.01 1.12c1.18 0 1.7.7 1.7 2.24 0 1.53-.53 2.23-1.7 2.23-1.19 0-1.72-.7-1.72-2.25v-.37l.01-.06v-.06l.01-.06v-.05l.01-.06v-.05l.02-.05v-.06l.01-.05.01-.05.01-.04.01-.05.01-.05.02-.04v-.05l.02-.04.02-.04.02-.04.01-.04.02-.04.02-.03.01-.04.02-.04.02-.03.02-.03.02-.03c.26-.43.77-.67 1.4-.67zm4-1.07v6.61h1.41v-2.3h2.27c.75 0 1.1-.1 1.5-.43.45-.39.73-1.03.73-1.73 0-.58-.21-1.13-.6-1.54-.43-.49-.84-.6-2-.6h-3.3zm1.41 1.18l1.95.01c.23 0 .4.02.51.06.31.1.49.43.49.86 0 .37-.11.69-.29.84h-.01l-.02.02-.01.01-.02.02h-.01l-.02.02h-.02l-.01.02h-.02l-.02.01-.02.01h-.02l-.02.02h-.04l-.03.01-.02.01h-.05l-.02.01h-.03l-.02.01h-.12l-.03.01H20.3v-1.94zm10.51 5.44h-1.4v-2.72h-2.55v2.72h-1.41v-6.6h1.4v2.7h2.56v-2.7h1.4zm4.1-6.66c-.92 0-1.74.23-2.25.65-.66.51-1 1.48-1 2.74 0 .88.18 1.6.57 2.15.52.75 1.52 1.16 2.79 1.16.89 0 1.64-.21 2.14-.61.65-.53 1.02-1.48 1.02-2.64v-.19l-.01-.18-.02-.18-.02-.18-.02-.17-.03-.17-.03-.16-.04-.16-.02-.08-.02-.07-.02-.08-.03-.07-.02-.07-.03-.07-.03-.07-.03-.06-.03-.07-.03-.06-.03-.06-.03-.06-.04-.06-.03-.05-.04-.05-.04-.05c-.5-.66-1.44-1.03-2.62-1.03zm.02 1.12c1.18 0 1.7.7 1.7 2.24 0 1.53-.53 2.23-1.7 2.23-1.2 0-1.73-.7-1.73-2.25v-.32l.01-.06v-.06l.01-.06v-.06l.01-.05v-.06l.01-.05.01-.05v-.06l.02-.05v-.05l.02-.04v-.1l.02-.04.01-.05.01-.04.02-.04.01-.04.02-.04.01-.04.02-.03.01-.04.02-.04.02-.03.02-.03.02-.03c.27-.43.77-.67 1.42-.67zM39 27.76h3.02c.52 0 .8-.05.98-.16a.7.7 0 0 0 .32-.6c0-.3-.16-.57-.42-.7a1.6 1.6 0 0 0-.72-.12h-1.22c-.79 0-1.3-.14-1.65-.44a1.93 1.93 0 0 1-.63-1.46c0-.84.47-1.57 1.15-1.81.3-.1.65-.14 1.42-.14h3.27v1.18h-2.95c-.63.02-.68.02-.88.07-.28.07-.45.33-.45.67 0 .3.14.54.38.65.2.09.35.1.83.1h1.06c.97 0 1.5.15 1.88.54.3.3.5.88.5 1.46 0 .7-.33 1.36-.84 1.68-.33.2-.75.27-1.73.27h-3.32v-1.18z"/>
</svg>
