
<svg xmlns="http://www.w3.org/2000/svg" viewBox="0 0 50 50">
  <circle cx="25" cy="25" r="25" fill="#fff" class="icon-circle"/>
  <path d="M 8.33 26.51 C 8.33 26.793 8.272 27.076 8.141 27.322 C 8.014 27.561 7.84 27.773 7.631 27.945 C 7.404 28.114 7.14 28.246 6.838 28.341 C 6.536 28.435 6.197 28.492 5.838 28.492 C 5.404 28.492 5.003 28.435 4.668 28.322 C 4.333 28.21 3.989 28.001 3.63 27.738 L 4.196 26.813 C 4.479 27.039 4.724 27.209 4.932 27.323 C 5.159 27.436 5.385 27.473 5.612 27.473 C 5.895 27.473 6.122 27.398 6.291 27.247 C 6.461 27.096 6.555 26.907 6.555 26.662 C 6.555 26.549 6.536 26.455 6.517 26.361 C 6.475 26.259 6.417 26.163 6.347 26.078 C 6.248 25.957 6.134 25.849 6.008 25.757 L 5.442 25.341 L 4.932 24.963 C 4.762 24.832 4.611 24.68 4.479 24.529 C 4.345 24.374 4.23 24.203 4.139 24.019 C 4.064 23.83 4.008 23.623 4.008 23.378 C 4.008 23.095 4.065 22.849 4.177 22.623 C 4.29 22.396 4.451 22.196 4.649 22.038 C 4.838 21.888 5.083 21.755 5.366 21.66 C 5.649 21.566 5.951 21.529 6.271 21.529 C 6.611 21.529 6.951 21.566 7.272 21.66 C 7.593 21.755 7.894 21.887 8.159 22.057 L 7.649 22.892 C 7.29 22.647 6.932 22.514 6.536 22.514 C 6.29 22.514 6.101 22.571 5.951 22.703 C 5.801 22.835 5.725 22.986 5.725 23.175 C 5.725 23.344 5.8 23.514 5.932 23.646 C 6.064 23.797 6.31 23.986 6.635 24.25 L 7.47 24.892 C 7.697 25.081 7.867 25.25 7.999 25.42 C 8.131 25.59 8.225 25.741 8.262 25.91 C 8.3 26.137 8.338 26.326 8.338 26.514 M 14.189 24.967 C 14.189 24.25 14.038 23.665 13.755 23.25 C 13.453 22.835 13.052 22.627 12.547 22.627 C 12.019 22.627 11.58 22.854 11.283 23.288 C 10.962 23.722 10.811 24.326 10.811 25.1 C 10.811 25.836 10.962 26.421 11.264 26.855 C 11.566 27.288 12 27.496 12.528 27.496 C 12.849 27.496 13.113 27.421 13.321 27.251 C 13.53 27.079 13.703 26.867 13.83 26.628 C 13.969 26.37 14.058 26.088 14.095 25.798 C 14.17 25.496 14.189 25.213 14.189 24.963 M 16.038 24.887 C 16.038 25.416 15.963 25.888 15.793 26.321 C 15.645 26.742 15.421 27.132 15.133 27.473 C 14.85 27.794 14.51 28.057 14.113 28.228 C 13.717 28.417 13.302 28.491 12.849 28.491 C 12.658 28.493 12.468 28.474 12.282 28.435 C 12.108 28.395 11.937 28.338 11.773 28.265 C 11.603 28.177 11.445 28.07 11.301 27.944 C 11.128 27.79 10.964 27.626 10.811 27.454 L 10.811 31.662 L 9.099 31.662 L 9.099 21.717 L 10.797 21.717 L 10.797 22.684 C 11.099 22.288 11.439 22.005 11.797 21.835 C 12.156 21.646 12.59 21.571 13.062 21.571 C 13.496 21.571 13.897 21.647 14.251 21.817 C 14.6 21.982 14.913 22.213 15.175 22.496 C 15.439 22.779 15.628 23.138 15.779 23.534 C 15.949 23.949 16.024 24.402 16.024 24.897 M 24.253 28.341 L 24.253 27.454 C 23.913 27.832 23.573 28.096 23.215 28.265 C 22.856 28.435 22.441 28.511 21.984 28.511 C 21.456 28.511 21.017 28.416 20.663 28.209 C 20.309 28.001 20.04 27.699 19.889 27.284 C 19.849 27.186 19.818 27.085 19.795 26.982 L 19.738 26.623 C 19.714 26.467 19.702 26.31 19.7 26.152 L 19.7 21.736 L 21.455 21.736 L 21.455 25.529 L 21.493 26.303 C 21.531 26.472 21.587 26.642 21.662 26.774 C 21.87 27.152 22.228 27.34 22.738 27.34 C 23.398 27.34 23.851 27.057 24.1 26.505 C 24.157 26.354 24.214 26.203 24.232 26.034 C 24.259 25.789 24.271 25.543 24.27 25.297 L 24.27 21.712 L 26.025 21.712 L 26.025 28.359 L 24.253 28.359 Z M 31.782 28.341 L 31.782 24.571 L 31.745 23.797 C 31.707 23.628 31.65 23.458 31.575 23.326 C 31.367 22.948 31.009 22.779 30.499 22.779 C 30.204 22.776 29.911 22.847 29.65 22.986 C 29.424 23.118 29.235 23.326 29.122 23.59 C 29.065 23.741 29.009 23.892 28.99 24.08 C 28.971 24.25 28.952 24.496 28.952 24.798 L 28.952 28.364 L 27.197 28.364 L 27.197 21.717 L 28.952 21.717 L 28.952 22.604 C 29.292 22.226 29.632 21.962 29.991 21.793 C 30.349 21.623 30.764 21.548 31.221 21.548 C 31.749 21.548 32.188 21.661 32.542 21.868 C 32.897 22.076 33.165 22.397 33.316 22.793 C 33.354 22.888 33.391 22.982 33.41 23.095 L 33.486 23.454 C 33.51 23.61 33.523 23.767 33.524 23.925 L 33.524 28.341 Z M 34.745 28.341 L 36.5 28.341 L 36.5 24.831 L 39.137 28.473 L 40.765 27.911 L 38.104 24.609 L 40.346 22.193 L 39.025 21.627 L 36.685 24.345 L 36.496 24.345 L 36.496 18.631 L 34.741 18.631 Z M 16.78 28.719 L 18.535 28.719 L 18.535 19 L 16.78 19 Z" style=""></path>
  <path fill="#989898" d="M 42.275 22.982 L 42.275 21.793 L 47.577 24.454 L 47.577 25.529 L 42.275 28.17 L 42.275 27.001 L 46.388 24.982 Z" style=""></path>
</svg>