<svg xmlns="http://www.w3.org/2000/svg" viewBox="0 0 50 50">
  <path fill="#8c1515" d="M18.75 7.7l-4.8 4.67V24.9l4.14 4.2h1.9c-.04.15-.1.34.03.53.13.2.38.2.48.2.1 0 .27 0 .5-.03s.1.08-.2.18c-.25.1-.47.23-.55.48v.05h-6.28v6.4l4.76 4.7h12.53L36 36.9V24.94l-4.13-4.23h-3.52l-.46-.27-.06-.04-.26-.2-.2-.17-.24-.28c.55.14 1.14.2 1.43.2h.12l.17.03.1.05.13.05h.14c.2 0 .42-.12.5-.32a.8.8 0 0 0 .04-.4h6.25v-6.98L31.26 7.7H18.72z"/>
  <path fill="#fff" d="M35.44 12.62l-4.43-4.34H18.96l-4.4 4.34v12.01l3.78 3.9h2.46c-.28.25-.36.5-.42.63-.08.28-.19.36.7.24a3.2 3.2 0 0 0 .98-.37c.22-.17.7-.03.64.3a1.6 1.6 0 0 1-1.27.9c-1.2.16-.69.61-.69.61.14.09.24.18.3.25h-6.5v5.58l4.42 4.34h12.07l4.41-4.34V25.18l-3.79-3.86h-3.08l-.87-.55c-.13-.08-.24-.13-.35-.27a2.84 2.84 0 0 1-.75-.91c-.1-.25-.09-.55.13-.42a4.55 4.55 0 0 0 1.86.4l.39.05.18.08c.14.05.38-.14.1-.5-.07-.14-.2-.27-.34-.41h6.53v-6.16"/>
  <path fill="#8c1515" d="M19.19 8.86l-4.1 4v11.56l3.48 3.52h3.27c.55-.25.69-.22.82-.54a1.1 1.1 0 0 0 .05-.33c0-.04.08-.46-.13-.36-.34.18-1.05-.27-1.58 0-.52.28-.13-.37-.05-.48 0 0 .28-.37.7-.62.02 0 .03 0 .05-.03l.13-.05a8.09 8.09 0 0 0 1.4-.97c.1-.1.28-.36.28-.5.03-.13.06-.31-.06-.4-.17-.1-.32.12-.6.24a1.65 1.65 0 0 1-.71.18c-.24 0-.47-.08-.6-.06-.15 0-.23-.08.02-.34l.23-.22c.6-.39 1.16-.41 1.48-1.1 0 0 .23-.62-.22-.36-.27.15-.4.37-1.13.37-.72 0-1 .35-1.13.48-.01 0-.5.7-.39-.27.14-.97.32-1.46.78-1.83.38-.32 1.36-.76 1.7-1.24.2-.18.64-.7.38-1.13-.11-.18-.38.27-.66.35-.32.09-.72.18-1.04.13-.37-.08-.62.07-.77.14s-.41-.14-.08-.53a9.97 9.97 0 0 1 2.8-1.83c.06 0 .15-.07.2-.14.14-.14.26-.27.22-.41-.03-.14-.1-.2-.3-.22-.18 0-.46.18-.7.16-.35-.02-.89.06-.7-.2a1.52 1.52 0 0 1 .5-.43l.64-.28c.47-.22.4-.74.22-.75-.28-.03-1.02.2-.5-.42 0 0 .25-.23.5-.4l.55-.23c.14-.04.45-.32-.3-.36 0 0-.42.02-.35-.18.07-.14.44-.36.44-.36s.3-.2.41-.33c.14-.1.21-.2.21-.3 0-.14-.32-.27-.44-.41-.08-.14 0-.17.04-.18l.1-.02c.32 0 .41-.3.58-1.1.05-.25.05-.3.13-.3H25l.2.87c.09.25.18.36.36.36h.1c.05 0 .14.05.04.17-.07.09-.27.24-.27.32-.09.25.16.35.4.36.34.03.2.23-.17.5-.36.28.55.84.55.84.52.4.14.52.06.57-.11.06-.42.24-.11.36.29.11.7.51.7.51.52.6-.22.37-.5.42-.18 0-.25.55.22.73.7.3.86.36 1.1.54.46.34.21.63-.37.53 0 0-.36-.1-.62-.04a1.24 1.24 0 0 0-.36.11c-.02.06-.13.3.7.55.37.1.85.4 1.26.72h6.61v-5.37l-4.1-4h-11.6zm9.95 13.02a3.44 3.44 0 0 1 .38 1.32c0 .36-.47.2-.63.1a1.38 1.38 0 0 0-.43-.2c-.36-.08-1.18-.44-1.42-.52-.22-.1-.4.08-.41.14-.07.12.05.34.05.34.33.73.93.69 1.59 1.17.9.65.41.79.23.69-.18-.1-.48-.04-.48-.04-.73.2-.96-.1-1.38-.22-.43-.11-.08.41.07.6.17.18 1.1.82 1.42.95a2.34 2.34 0 0 1 1.28 1.52c.2.65-.03.5-.2.43-.16-.09-.2-.25-.61-.24-.42 0-.65-.02-.97-.26l-.18-.18c-.28-.23-.23.5-.17.6.2.42.34.26 1.51.9.56.3.7.68.75.86.1.27.2.36-.66.23a3.28 3.28 0 0 1-1-.37c-.23-.17-.7-.03-.66.3.22.53.78.86 1.29.91.45.07.66.17.74.28.25.27-.2.69-.2.69-.24.27 0 .58.19.69.27.13.8.45.99.9.93 2.42.02 1.73-.42 1.45s-1.3-.96-2.06-.92c-.76.05-1.02.1-1.48-.26-.45-.36-.4.22-.4.22v2.9c.02.65.13 1.27.65 1.78.41.44.75.36 1.34 1.1.27.33 1.18.7 1.78.7h1.14l4.1-4V25.42l-3.47-3.54h-2.27zM15.1 31.66v4.75l4.08 4h1.3c1.24-.05 1.7-1.01 2.06-1.6.28-.43.79-.82 1.1-1.14.35-.34.4-1.11.42-1.95v-1.76.03-1.53c0-.18-.2-.2-.65.3s-1.2.43-1.62.47c-.43.04-1.68.7-2.03 1.16-.22.28-.55.04-.41-.52.05-.26.16-.6.34-1.06.25-.64 1.17-1 1.17-1s.1-.05.18-.13h-5.95z"/>
</svg>
