<svg xmlns="http://www.w3.org/2000/svg" viewBox="0 0 50 50">
  <path fill="#fdb511" d="M41.038 8.635v1.077h.941V8.635h-.941zm0 2.018v1.076l.941-.001v-1.077h-.941zm-3.094 1.076v.94h1.077v-.941h-1.077zM24.763 12.401c-11.183 0-18.172 12.106-12.58 21.791a14.526 14.526 0 0 0 12.58 7.263c11.183 0 18.17-12.106 12.58-21.79a14.526 14.526 0 0 0-12.58-7.264zm0 4.708c7.61 0 12.366 8.238 8.56 14.829a9.886 9.886 0 0 1-8.56 4.943c-5.381 0-9.819-4.438-9.819-9.953 0-5.38 4.438-9.819 9.819-9.819z"/>
  <path d="M28.933 19.665c-2.69 3.362-3.363 4.842-4.305 7.533-1.345-2.422-2.69-4.036-5.111-5.246-.538 0-.673-.135-1.076.268-.269.404 0 .807.27 1.346 1.075 1.21 2.151 2.286 2.958 3.766l2.287 4.976c.404.538 1.075.807 1.345.807 1.48-.27 1.48-.941 1.748-2.286a12.108 12.108 0 0 1 3.901-6.995v-4.035h-2.017zM39.962 9.712v.941h1.076v-.941h-1.076zm0 .941h-1.884v1.076l2.018-.001v-1.077zm-2.018 1.076l-.941-.001v2.017h.941v-2.153zm0 2.017v.941h1.077v-.941h-1.077zm1.077 0h.941v-1.076h-.941v1.076zm-1.077.941h-.941v1.076h-1.076v-1.076h-1.884v1.076h-.941v.942h.941v1.075h-.941v-1.075h-1.076v1.075h-.942v.943h-1.075v4.035h2.017v-.942h1.076v-1.076h.941v-.942h-.941v-1.075h.941v1.075h1.077v-1.075h.941v-.943h1.076v-1.075h.941v-2.018zm-2.017 0h1.076v-.941h-1.076v.941zm0-.941v-1.076h-.942v1.076h.942z"/>
</svg>
