<svg xmlns="http://www.w3.org/2000/svg" viewBox="0 0 50 50">
  <circle cx="25" cy="25" r="25" fill="#22313f"/>
  <path fill="#fff" d="M13.34 19.23h-3c-.57 0-.98-.22-.98-.69s.41-.7.97-.7h8c.57 0 .98.23.98.7s-.4.69-.98.69h-3v9.85c0 .49-.39.78-1 .78-.6 0-.98-.3-.98-.78zM27.3 24.3c-.57 0-.98-.22-.98-.7s.4-.68.98-.68h3.35c1 0 1.44.28 1.44 1.2 0 2.89-1.4 5.72-6.87 5.72-4.63 0-7.05-2.96-7.05-6.05 0-3.1 2.3-6.06 7.34-6.06 3.3 0 5.51 1.28 5.51 1.9 0 .4-.37.71-.94.71-1 0-1.8-1.33-4.7-1.33-3.62 0-5.09 2.5-5.09 4.78s1.43 4.79 5.18 4.79c3.11 0 4.63-1.98 4.63-3.59v-.7zm8.02 4.66c0 .59-.4.89-1 .89s-.98-.3-.98-.89V18.63c0-.57.37-.88.99-.88.6 0 .99.3.99.9v4.5h8.46v-4.5c0-.6.4-.9 1-.9s1 .3 1 .9v10.33c0 .59-.4.88-1 .88s-.99-.3-.99-.88v-4.55h-8.47z"/>
  <path fill="#fff453" d="M27.72 35.33c-12.35 0-22.36-5.13-22.36-11.47 0-2.3 1.32-4.44 3.58-6.23-3.15 1.98-5.04 4.5-5.04 7.27 0 6.32 10 11.46 22.34 11.46 7.88 0 14.8-2.1 18.78-5.25-4.1 2.57-10.33 4.2-17.3 4.2"/>
</svg>
