<svg xmlns="http://www.w3.org/2000/svg" viewBox="0 0 50 50">
  <path fill="#804998" d="M43.75 32.88V17.12L32.8 6.26H17.28L6.24 17.5v15.3L17.2 43.75h15.6z"/>
  <path fill="#fff" fill-opacity=".8" d="M32.13 7.75H17.87L7.76 18.1v14.1l10.13 10.05h14.25l10.12-9.97V17.8L32.12 7.75zm-.76 32.4h-.15l-8.47-8.55 1.8-2.03H18.4v6.3l2.03-2.17 6.6 6.45h-8.25l-9-8.85V19l2.55-2.63 6.6 6-3.75 3.9h12v-12l-3.9 3.98-6.68-6.23 2.18-2.25H31.3l8.85 8.93v11.02l-4.2-3.97 3.07-2.78h-8.47v8.1l2.78-2.77 4.72 5.17-6.75 6.75z"/>
  <path fill="#fff" fill-opacity=".2" d="M38.42 11.88L32.8 6.25H17.28L6.24 17.5v15.3l5.63 5.7z"/>
</svg>
