<svg xmlns="http://www.w3.org/2000/svg" viewBox="0 0 50 50">
  <circle cx="25" cy="25" r="25" fill="#dd4814"/>
  <path fill="#FFF" d="M8.033 21.607a3.33 3.33 0 1 0 0 6.66 3.33 3.33 0 0 0 0-6.66zM31.807 36.74a3.328 3.328 0 1 0 3.324 5.766 3.328 3.328 0 0 0-3.324-5.766v.004zM15.266 24.937A9.713 9.713 0 0 1 19.4 16.98l-2.433-4.076a14.494 14.494 0 0 0-5.98 8.407 4.668 4.668 0 0 1 0 7.257 14.484 14.484 0 0 0 5.98 8.409l2.433-4.079a9.707 9.707 0 0 1-4.134-7.957zm9.726-9.726a9.727 9.727 0 0 1 9.686 8.867l4.744-.072a14.42 14.42 0 0 0-4.297-9.381A4.668 4.668 0 0 1 28.855 11a14.504 14.504 0 0 0-3.865-.527 14.412 14.412 0 0 0-6.41 1.498l2.315 4.146a9.688 9.688 0 0 1 4.095-.904zm0 19.453a9.688 9.688 0 0 1-4.097-.906l-2.313 4.146a14.46 14.46 0 0 0 10.273.97 4.666 4.666 0 0 1 2.278-3.3 4.666 4.666 0 0 1 3.992-.322 14.42 14.42 0 0 0 4.297-9.383l-4.746-.07a9.723 9.723 0 0 1-9.688 8.864zm6.813-21.531a3.327 3.327 0 1 0 3.33-5.76 3.328 3.328 0 0 0-3.334 5.762z"/>
</svg>
