<svg xmlns="http://www.w3.org/2000/svg" viewBox="0 0 50 50">
  <defs>
    <linearGradient id="a" x1=".39" x2=".63" y1=".99" y2=".03" gradientUnits="objectBoundingBox">
      <stop offset=".2" stop-color="#006daa"/>
      <stop offset=".75" stop-color="#35ac46"/>
      <stop offset=".84" stop-color="#47af46"/>
      <stop offset=".99" stop-color="#68b943"/>
      <stop offset="1" stop-color="#6cba43"/>
    </linearGradient>
  </defs>
  <path fill="url(#a)" d="M21.13 6.277c0-.02 0-.02-.03-.05a23.514 23.514 0 0 0-2.65-.22l.15.42c1.854 6.675-4.214 12.854-10.922 11.122a9.004 9.004 0 0 1-6.398-6.222c-.43.32-.85.64-1.28 1 2.404 8.11 12.687 10.579 18.51 4.44a10.99 10.99 0 0 0 2.62-10.49zM6.17 8.437c-.4-1.685 1.172-3.173 2.832-2.678.595.177 1.09.593 1.368 1.148.48-.12.96-.25 1.43-.35-1.056-2.48-4.4-2.885-6.018-.73-.647.86-.86 1.97-.582 3.01.328-.114.649-.247.96-.4.032.136.075.27.13.4.73 1.566 2.884 1.754 3.875.337.46-.658.534-1.51.195-2.237a30.822 30.822 0 0 0-4.2 1.5h.01zm5.86-1.28c.693 2.605-1.695 4.984-4.298 4.28a3.503 3.503 0 0 1-2.472-2.48l-.02-.1-.9.48.02.12c.943 3.533 5.357 4.72 7.946 2.137a4.75 4.75 0 0 0 1.234-4.587 4.196 4.196 0 0 0-.25-.68c-.5.07-.98.17-1.48.28.103.17.177.355.22.55zm-7.67 2.18c-.835-3.552 2.488-6.676 5.982-5.623a4.737 4.737 0 0 1 2.968 2.623c.5-.08 1-.16 1.5-.2-1.847-4.234-7.584-4.88-10.327-1.164A6 6 0 0 0 3.46 9.867c.3-.17.57-.35.9-.53zm10.7-2.48c1.395 4.403-2.5 8.665-7.011 7.67a6 6 0 0 1-4.569-4.57l-.02-.1c-.3.18-.6.36-.9.56v.05c1.56 5.35 8.327 7.005 12.181 2.98a7.24 7.24 0 0 0 1.799-6.74l-.23-.7c-.5.03-1.02.05-1.55.1.132.236.233.488.3.75zm3.36-.85C16.116-.527 7.602-2.116 3.096 3.147a9 9 0 0 0-1.916 7.95l.07.22 1.3-.9C1.072 5.043 5.966.084 11.36 1.492a7.24 7.24 0 0 1 4.98 4.545 18.992 18.992 0 0 1 2.08-.03z" transform="matrix(2 0 0 2 4 6)"/>
</svg>
