<svg xmlns="http://www.w3.org/2000/svg" viewBox="0 0 50 50">
  <g transform="translate(10 6) scale(0.9)">
    <path id="leaf-1" fill="#ae132a" d="M14.9 29.3a17 17 0 0 0-14.7-3A17 17 0 0 0 21.5 43a17 17 0 0 0-6.6-13.7z"/>
    <path id="leaf-2" fill="#f47b20" d="M32.7 24.6a15 15 0 0 0-1.6-13 14.6 14.6 0 0 0-9.4 9 15 15 0 0 0 1.5 13.2c4.2-1.4 7.8-4.6 9.5-9.2z"/>
    <path id="leaf-3" fill="#fcb117" d="M10.4 12.5A12 12 0 0 0 0 9.5a12 12 0 0 0 3.6 9.8 12 12 0 0 0 10.2 3 12 12 0 0 0-3.6-9.8z"/>
    <path id="leaf-4" fill="#00aac9" d="M24.3 9.5c1.3-3.3 1-6.6-.7-9.5-3 .8-5.8 3-7.1 6a11 11 0 0 0 .6 9.6 11 11 0 0 0 7.2-6.1z"/>
  </g>
</svg>