<svg xmlns="http://www.w3.org/2000/svg" viewBox="0 0 50 50">
  <defs>
    <linearGradient id="linear-gradient" x1="205.84" x2="206.35" y1="476.7" y2="476.7" gradientTransform="scale(-98.72486 98.72486) rotate(45 678.11 -10.606)" gradientUnits="userSpaceOnUse">
      <stop offset="0" stop-color="#fff"/>
      <stop offset="1" stop-color="#868484"/>
    </linearGradient>
    <radialGradient id="radial-gradient" cx="189.96" cy="466.4" r=".51" gradientTransform="matrix(39.28041 0 0 -39.28041 -7561.983 18764.958)" gradientUnits="userSpaceOnUse">
      <stop offset="0" stop-color="#1761a8"/>
      <stop offset="1" stop-color="#14477b"/>
    </radialGradient>
    <radialGradient id="radial-gradient-7" cx="25" cy="25" r="25">
      <stop offset="0" stop-color="#165da1"/>
      <stop offset="1" stop-color="#164375"/>
    </radialGradient>
    <linearGradient id="linear-gradient-3" x1="205.84" x2="206.35" y1="476.7" y2="476.7" gradientTransform="scale(-98.72486 98.72486) rotate(45 678.11 -10.606)" gradientUnits="userSpaceOnUse">
      <stop offset="0" stop-color="#eee"/>
      <stop offset="1" stop-color="#7e7b7c"/>
    </linearGradient>
  </defs>
  <path fill="url(#linear-gradient)" d="M0 24.062A24.958 24.958 0 0 1 8.313 6.39 24.912 24.912 0 0 0 1.924 23.09c0 13.817 11.202 25.015 25.016 25.015a24.921 24.921 0 0 0 16.704-6.39 24.94 24.94 0 0 1-17.95 8.315c13.545-.376 24.329-11.465 24.323-25.016C50.017 11.212 38.836.017 25.032 0 11.574-.018.514 10.615 0 24.062m4.618.954C4.576 13.81 13.612 4.686 24.816 4.618h.201c11.22 0 20.32 9.1 20.32 20.32-.226 11.062-9.26 19.91-20.32 19.906-11.063.044-20.13-8.769-20.399-19.828M0 24.156v-.094.077m25.51 25.86zm-.232.017zm0 0zm0 0zm0 0z"/>
  <path fill="#1761a9" d="M45.337 25.016c-.06 15.642-17.03 25.355-30.547 17.482-13.518-7.873-13.444-27.426.133-35.195a20.318 20.318 0 0 1 10.094-2.685c11.22 0 20.32 9.1 20.32 20.32"/>
  <path fill="url(#radial-gradient)" d="M23.476 4.618h.924-.924m-.245 0h.246-.245m-.507 0h.508-.507M4.618 25.016c0 11.222 9.1 20.321 20.32 20.321a20.336 20.336 0 0 0 18.86-12.748 20.351 20.351 0 0 1-5.311 7.543 20.244 20.244 0 0 0 5.203-13.531c0-11.223-9.098-20.32-20.321-20.32a20.243 20.243 0 0 0-13.485 5.172 20.282 20.282 0 0 1 11.53-6.435C11.71 6.734 4.632 15.161 4.618 25.015m40.642.677v-.261.261m-1.124 6.127v-.108.108m0 .124v-.107.107m0 .092v-.092.092m0 .077v-.077.077m0 0"/>
  <path fill="url(#radial-gradient-7)" d="M25 4.618h-.17A20.274 20.274 0 0 0 9.9 11.377a20.245 20.245 0 0 1 13.547-5.189c11.227-.01 20.334 9.092 20.334 20.321a20.25 20.25 0 0 1-5.186 13.563 20.257 20.257 0 0 0 6.757-14.702c.24-11.397-8.936-20.762-20.335-20.752z"/>
  <path fill="url(#linear-gradient-3)" d="M0 24.754v.154c-.061 13.859 11.158 25.124 25.017 25.124h.246a24.94 24.94 0 0 0 18.381-8.314 24.921 24.921 0 0 1-16.704 6.389c-13.814 0-25.016-11.198-25.016-25.015A24.912 24.912 0 0 1 8.313 6.389 24.96 24.96 0 0 0 0 24.754"/>
  <path fill="#fff" d="M34.592 23.985h-9.344l4.509-7.821h9.345zM20.551 16.164h-9.236l13.732 23.785 4.618-8.036z"/>
</svg>
