<svg xmlns="http://www.w3.org/2000/svg" viewBox="0 0 50 50">
  <path transform="translate(2 22) scale(.3333)" fill="#717074" d="M60.1 20.2L54 3.1l-.2-.8c0-.7.6-1.5 1.6-1.5.7 0 1.3.5 1.6 1.3l5 14.7L67.1 2c.2-.7.7-1.3 1.5-1.3h.2c.8 0 1.4.5 1.6 1.3l5 14.8L80.5 2c.2-.6.6-1.2 1.5-1.2s1.5.6 1.5 1.4l-.2.8-6.2 17.1c-.3.9-.9 1.4-1.7 1.4h-.1c-.7 0-1.4-.4-1.7-1.4l-5-14.5-5 14.5c-.3.9-.8 1.4-1.7 1.4h-.1c-.8.1-1.4-.5-1.7-1.3M104.7 2.4c0-.8.6-1.6 1.5-1.6.8 0 1.6.6 1.6 1.6v3.5a8.1 8.1 0 0 1 6.9-4.9c.9 0 1.5.6 1.5 1.6 0 .8-.5 1.4-1.4 1.6-3.9.4-7.1 3.4-7.1 9.2v6.8c0 .8-.6 1.6-1.5 1.6-.8 0-1.6-.6-1.6-1.6V2.4M125.9 21.7c-5.4 0-9.8-4.2-9.8-10.4v-.1c0-5.8 4-10.4 9.5-10.4 5.9 0 9.2 4.8 9.2 10.2 0 .8-.6 1.4-1.4 1.4H119c.4 4.3 3.5 6.8 7 6.8 2.4 0 4.3-.9 5.7-2.3.2-.2.5-.3.8-.3.7 0 1.3.6 1.3 1.3 0 .3-.1.7-.4.9a10.5 10.5 0 0 1-7.5 2.9m5.9-11.6c-.3-3.7-2.4-6.8-6.3-6.8-3.5 0-6.1 2.9-6.4 6.8h12.7zM83.4 15.5c0-4.3 3.5-6.6 8.6-6.6 2.6 0 4.4.3 6.2.8V9c0-3.7-2.2-5.4-6-5.4-2 0-3.2.2-4.7.9l-.5.1c-.7 0-1.4-.6-1.4-1.3s.3-1 .8-1.3c2-.8 3.5-1.2 6.1-1.2 2.8 0 5 .7 6.5 2.2a8 8 0 0 1 2.1 5.9V20c0 .8-.6 1.5-1.5 1.5-.8 0-1.5-.6-1.5-1.4v-2a8.8 8.8 0 0 1-7.3 3.5c-3.6.1-7.4-2-7.4-6.1m14.8-1.6v-2c-1.5-.4-3.5-.8-6-.8-3.8 0-5.9 1.7-5.9 4.2v.1c0 2.5 2.3 4 5 4 3.9 0 6.9-2.3 6.9-5.5M5.5 2.1C4.9.6 3.2 0 1.7.6A2.7 2.7 0 0 0 .4 4.4l6.4 13.9c1 2.2 2.1 3.4 4.1 3.4 2.1 0 3-1.3 4.1-3.4L20.7 6c.1-.1.2-.5.8-.5.5 0 .8.4.8.9v11.8c0 1.8 1 3.4 2.9 3.4 2 0 3-1.5 3-3.4V8.6a3 3 0 0 1 3.1-3.1c1.8 0 3 1.3 3 3.1v9.7c0 1.8 1 3.4 2.9 3.4 2 0 3-1.5 3-3.4V8.6a3 3 0 0 1 3.1-3.1c1.8 0 3 1.3 3 3.1v9.7c0 1.8 1 3.4 2.9 3.4 2 0 3-1.5 3-3.4v-11C52.2 3.2 49 .4 45 .4s-6.4 2.7-6.4 2.7C37.2 1.4 35.5.4 32.4.4c-3.2 0-6.1 2.7-6.1 2.7A7.3 7.3 0 0 0 21 .4c-2.8 0-5.1 1.3-6.5 4.4l-4.1 9.6L5.5 2.1M134.9 3.3c0-1.4 1.2-2.5 2.5-2.5 1.4 0 2.5 1.2 2.5 2.5 0 1.4-1.2 2.5-2.5 2.5a2.5 2.5 0 0 1-2.5-2.5m4.5 0c0-1.2-.8-2-2-2s-2 .9-2 2c0 1.2.8 2 2 2s2-.9 2-2M138.4 3.4l-.5.3.6.9h-.5l-.6-.9h-.4v.9h-.5V2h1.1l.5.1.3.3.1.4c.1.3 0 .5-.1.6zm-1.4-.1h.6l.4-.1.1-.3-.1-.3-.4-.1h-.6v.8z"/>
</svg>
