<svg xmlns="http://www.w3.org/2000/svg" viewBox="0.1 0.4 48.8 48.8">
  <path fill="#3a96dd" d="M.1 24.8a24.4 24.4 0 1 1 48.8 0 24.4 24.4 0 0 1-48.8 0z"/>
  <path fill="#f1f1f1" fill-rule="evenodd" d="M6.6 13.7v22.7l31.7 4.5V9.3L6.6 13.7zm2 1.7v19.3l27.8 4V11.4l-27.8 4z"/>
  <path fill="#f1f1f1" d="M17.6 27c2.5 3.2 7.6 2.5 8.7-2.1l2 .3A6.9 6.9 0 0 1 16.6 29v2h-2.1v-5.8h6v2h-2.9zm7.7-5.9c-2.5-3.2-7.6-2.4-8.7 2.2l-2-.4a6.9 6.9 0 0 1 11.8-3.7v-2h2V23h-6v-1.9h3z"/>
  <path fill="#fff" fill-opacity=".4" d="M2.4 35c-12.6-28 27-50 43.3-22.2"/>
</svg>
