<svg xmlns="http://www.w3.org/2000/svg" viewBox="0 0 50 50">
  <path fill="#f7971d" d="M35.1 35.2h-3.9l3.6-7.2zm.4 3.3l.3 2.9h4.5l-1.5-16.7h-7l-8.4 16.7H28l1.3-3z"/>
  <path fill="#0095d6" d="M25.4 45.3a20.7 20.7 0 0 1-14.7-19.5 20.7 20.7 0 0 1 15-20c1-.3.6-1-.3-1-11.9.4-21 9.5-21 21s9.2 20.5 21 20.5c1 0 1-.6 0-1zm-10.8-15v-1.6a16.2 16.2 0 0 1 16.3-16.3c8.4 0 11 3.9 11.4 3.5s-3-7.7-13-7.7a16.2 16.2 0 0 0-16.4 16.2c0 2 .4 4 1 6 .3.9.7.9.7 0zm6.8-11.7c4.3-2 9.5-2 14.7 0 3.6 1.3 5.5 3 5.8 3s-2-4-6.1-5.7A14.9 14.9 0 0 0 21 18.3c-.3.3 0 .6.3.3z"/>
</svg>
