<svg xmlns="http://www.w3.org/2000/svg" viewBox="0 0 50 50">
  <path d="M28.4 29.7c-.6.7-1.2 1.3-2 1.8-1.4.8-3 1.3-4.7 1.3-1.4 0-2.8-.5-4-1.3a6.7 6.7 0 0 1-2-7c.8-2.3 2.5-4 4.7-4.9a25 25 0 0 1 7.3-1v-2.7a2.6 2.6 0 0 0-2.3-2.2 4 4 0 0 0-2.2.3c-1 .5-1.6 1.3-2 2.4 0 .4-.4.6-.8.5l-3.6-.3a.8.8 0 0 1-.5-.8 7.2 7.2 0 0 1 2.5-4.4 10.2 10.2 0 0 1 12.3-.2 6 6 0 0 1 2.1 5v9c0 .7.2 1.4.6 2.1l1 1.6c.2.3.2.5 0 .8l-3.2 2.8a1 1 0 0 1-.9 0l-2.3-2.8zm-.7-8.1c-1 0-2 0-3.1.2-1.3.2-2.3 1-3 2.2-.4 1.2-.4 2.6.3 3.8.8 1 2.1 1.3 3.3.8a5.6 5.6 0 0 0 2.5-3.9v-3.1"/>
  <g fill="#F39700">
    <path d="M10.5 33.5a21 21 0 0 0 10.7 6.7c3.8.7 7.7.3 11.2-1.2 1.7-.8 3.3-2 4.7-3.3 0-.2 0-.5-.2-.6h-.5a28.8 28.8 0 0 1-8.2 2.7c-3 .3-6 .1-9-.7A32 32 0 0 1 11 33c-.2-.1-.4 0-.4.2v.3z"/>
    <path d="M34.3 34.2c1-.2 2.2-.3 3.4-.2.3.1.6.5.5.9-.2 1-.6 2.2-1 3.2v.2h.3c1.3-1 2.1-2.7 2.1-4.5 0-.5-.2-.9-.7-1-1.7-.3-3.4.1-4.8 1v.3s0 .1.1 0z"/>
  </g>
</svg>
