<svg xmlns="http://www.w3.org/2000/svg" viewBox="0 0 249 99">
  <path fill="#288EC0" d="M 154.082 0.852 C 137.543 4.482 121.878 11.319 107.969 20.974 C 71.797 45.407 34.188 48.761 6.401 30.076 C -1.624 24.687 -2.103 24.926 4.963 31.035 C 19.526 43.982 36.614 53.77 55.149 59.78 C 74.03 65.319 94.36 62.805 111.322 52.833 C 134.559 38.461 145.937 33.19 164.622 28.16 C 173.036 26.059 181.707 25.172 190.373 25.525 C 198.993 24.666 207.697 25.688 215.885 28.519 C 220.556 30.196 224.509 31.154 224.509 30.555 C 224.509 28.519 208.1 13.069 202.47 9.835 C 187.811 1.48 170.763 -1.684 154.082 0.852 Z"/>
  <path fill="#82CEE3" d="M 178.036 36.784 C 161.498 40.414 145.833 47.251 131.924 56.906 C 95.752 81.34 58.143 84.693 30.355 66.008 C 22.331 60.619 21.852 60.858 28.918 66.967 C 43.48 79.914 60.568 89.702 79.103 95.712 C 97.984 101.251 118.315 98.737 135.277 88.765 C 158.513 74.393 169.892 69.123 188.576 64.092 C 196.991 61.991 205.662 61.104 214.328 61.457 C 222.948 60.598 231.652 61.62 239.84 64.451 C 244.511 66.128 248.463 67.086 248.463 66.488 C 248.463 64.451 232.054 49.001 226.425 45.767 C 211.766 37.413 194.717 34.248 178.036 36.784 Z"/>
</svg>