<svg xmlns="http://www.w3.org/2000/svg" viewBox="-.75 -2.41 200.9 402.41">
  <linearGradient id="a" x1="150.94" x2="235.2" y1="31.74" y2="8.32" gradientUnits="userSpaceOnUse">
    <stop offset="0" stop-color="#f69923"/>
    <stop offset=".31" stop-color="#f79a23"/>
    <stop offset=".84" stop-color="#e97826"/>
  </linearGradient>
  <linearGradient id="b" x1="-9585.34" x2="-5326.21" y1="620.5" y2="620.5" gradientTransform="rotate(-65 -197.72 -455.5) scale(.09521)" gradientUnits="userSpaceOnUse">
    <stop offset=".32" stop-color="#9e2064"/>
    <stop offset=".63" stop-color="#c92037"/>
    <stop offset=".75" stop-color="#cd2335"/>
    <stop offset="1" stop-color="#e97826"/>
  </linearGradient>
  <linearGradient id="c" x1="-9071.21" x2="-6533.18" y1="1047.69" y2="1047.69" gradientTransform="rotate(-65 -197.72 -455.5) scale(.09521)" gradientUnits="userSpaceOnUse">
    <stop offset="0" stop-color="#282662"/>
    <stop offset=".1" stop-color="#662e8d"/>
    <stop offset=".79" stop-color="#9f2064"/>
    <stop offset=".95" stop-color="#cd2032"/>
  </linearGradient>
  <linearGradient id="d" x1="-9346.13" x2="-5086.99" y1="580.82" y2="580.82" gradientTransform="rotate(-65 -197.72 -455.5) scale(.09521)" gradientUnits="userSpaceOnUse">
    <stop offset=".32" stop-color="#9e2064"/>
    <stop offset=".63" stop-color="#c92037"/>
    <stop offset=".75" stop-color="#cd2335"/>
    <stop offset="1" stop-color="#e97826"/>
  </linearGradient>
  <linearGradient id="e" x1="-9035.5" x2="-6797.2" y1="638.44" y2="638.44" gradientTransform="rotate(-65 -197.72 -455.5) scale(.09521)" gradientUnits="userSpaceOnUse">
    <stop offset="0" stop-color="#282662"/>
    <stop offset=".1" stop-color="#662e8d"/>
    <stop offset=".79" stop-color="#9f2064"/>
    <stop offset=".95" stop-color="#cd2032"/>
  </linearGradient>
  <linearGradient id="f" x1="-9346.13" x2="-5086.99" y1="1021.62" y2="1021.62" gradientTransform="rotate(-65 -197.72 -455.5) scale(.09521)" gradientUnits="userSpaceOnUse">
    <stop offset=".32" stop-color="#9e2064"/>
    <stop offset=".63" stop-color="#c92037"/>
    <stop offset=".75" stop-color="#cd2335"/>
    <stop offset="1" stop-color="#e97826"/>
  </linearGradient>
  <linearGradient id="g" x1="-9610.33" x2="-5351.2" y1="999.73" y2="999.73" gradientTransform="rotate(-65 -197.72 -455.5) scale(.09521)" gradientUnits="userSpaceOnUse">
    <stop offset=".32" stop-color="#9e2064"/>
    <stop offset=".63" stop-color="#c92037"/>
    <stop offset=".75" stop-color="#cd2335"/>
    <stop offset="1" stop-color="#e97826"/>
  </linearGradient>
  <path fill="url(#a)" d="M170.52-.5c-6.31 3.73-16.8 14.28-29.32 29.56l11.5 21.7c8.08-11.54 16.28-21.93 24.55-30.8l.97-1.04-.97 1.04c-2.68 2.95-10.8 12.42-23.05 31.23 11.8-.59 29.92-3 44.71-5.53 4.4-24.64-4.3-35.92-4.3-35.92S183.52-8.18 170.52-.5z"/>
  <path fill="url(#b)" d="M118.8 106.85c3.5-6.53 7.04-12.92 10.62-19.13a551.25 551.25 0 0 1 11.27-18.76l.67-1.07a441.37 441.37 0 0 1 11.35-17.12l-11.5-21.71-2.62 3.23a515.6 515.6 0 0 0-10.3 13.29 641.16 641.16 0 0 0-23.85 34.16A715.37 715.37 0 0 0 94.5 95.4l-.38.6 14.97 29.56c3.2-6.33 6.44-12.58 9.71-18.7z"/>
  <path fill="url(#c)" d="M50.63 273.42a1839.9 1839.9 0 0 0-5.97 16.65l-.08.25-.85 2.4c-1.34 3.82-2.5 7.25-5.19 15.07 4.4 2 7.95 7.3 11.3 13.3a24.14 24.14 0 0 0-7.82-16.6c21.74 1 40.47-4.5 50.15-20.4.87-1.41 1.66-2.9 2.37-4.5-4.4 5.6-9.85 7.97-20.13 7.39l-.06.03.07-.03c15.11-6.77 22.7-13.26 29.4-24.03 1.6-2.56 3.14-5.34 4.72-8.44-13.23 13.58-28.55 17.44-44.68 14.51l-12.1 1.33-1.13 3.06z"/>
  <path fill="url(#d)" d="M56.28 246.31a1638.64 1638.64 0 0 1 24.76-60.51 1201.49 1201.49 0 0 1 21.73-47.46c1.97-4.09 3.97-8.13 6-12.14l.32-.65L94.12 96l-.73 1.2a661.95 661.95 0 0 0-28.66 51.66l-1.58 3.23c-3.26 6.7-6.2 13.2-8.87 19.43a392.62 392.62 0 0 0-12.2 32.39 366.77 366.77 0 0 0-2.99 10 310.23 310.23 0 0 0-5.74 23.44l15.05 29.7a2077.73 2077.73 0 0 1 7.88-20.73z"/>
  <path fill="url(#e)" d="M33.15 238.4a230.95 230.95 0 0 0-3.9 28.37l-.08.99c-4.7-7.53-17.26-14.87-17.23-14.8 9 13.04 15.82 26 16.84 38.7-4.82 1-11.41-.44-19.04-3.24 7.95 7.3 13.92 9.32 16.24 9.86-7.3.46-14.9 5.47-22.57 11.25 11.2-4.57 20.26-6.38 26.74-4.9-10.28 29.1-20.6 61.25-30.9 95.37 3.16-.93 5.04-3.06 6.1-5.93 1.84-6.18 14.04-46.72 33.14-100l1.65-4.58.47-1.27a1984.97 1984.97 0 0 1 7.76-21.1l.03-.07-15.03-29.68-.22 1.02z"/>
  <path fill="url(#f)" d="M111.41 128.06a1577.51 1577.51 0 0 0-5.24 10.84c-1.43 3.02-2.88 6.1-4.34 9.26l-2.23 4.82a1254.57 1254.57 0 0 0-15.44 34.97 1700.53 1700.53 0 0 0-24.27 60.52l-.37.98a1828.7 1828.7 0 0 0-7.77 20.92l12.1-1.33c-.23-.05-.48-.08-.72-.12 14.48-1.8 33.7-12.62 46.14-25.97 5.73-6.15 10.93-13.4 15.74-21.9a188.85 188.85 0 0 0 10.16-21.08c2.8-6.78 5.48-14.12 8.07-22.08a43.9 43.9 0 0 1-11.33 3.93 76.5 76.5 0 0 1-4.56.8h.03c13.5-5.2 22-15.22 28.2-27.5a48.05 48.05 0 0 1-16.24 7.12 43.18 43.18 0 0 1-3.6.61h.02a54.88 54.88 0 0 0 12.07-6.76 42.44 42.44 0 0 0 6.9-6.56 47 47 0 0 0 4.84-6.94l1.3-2.56a143.1 143.1 0 0 0 4.58-10.14 94.6 94.6 0 0 0 3.26-9.4c.46-1.68.73-3 .89-3.96-.46.36-1 .72-1.58 1.07-4.07 2.44-11.06 4.65-16.7 5.7l11.12-1.23-11.11 1.22-.26.04-1.7.28c.1-.05.19-.1.29-.13l-38.02 4.17-.2.4z"/>
  <path fill="url(#g)" d="M154.2 51.2a511.9 511.9 0 0 0-11.03 17.76l-.63 1.06a683.92 683.92 0 0 0-10.9 19.07c-3.32 6-6.76 12.43-10.34 19.35a938.1 938.1 0 0 0-9.67 19.2l38.02-4.17c11.07-5.1 16.02-9.7 20.83-16.37 1.28-1.84 2.56-3.76 3.84-5.75 3.9-6.1 7.73-12.8 11.16-19.48 3.3-6.44 6.2-12.83 8.45-18.6a97.54 97.54 0 0 0 3.35-10.06 91.5 91.5 0 0 0 1.66-7.53c-14.8 2.52-32.94 4.94-44.73 5.52z"/>
</svg>
