<svg xmlns="http://www.w3.org/2000/svg" viewBox="60 60 620 160">
  <defs>
      <linearGradient id="mya" x1="46" y1="105.45" x2="152" y2="133.8" gradientUnits="userSpaceOnUse" spreadMethod="pad">
      <stop offset="0" stop-color="#ee7219"/>
      <stop offset=".2" stop-color="#ee7219"/>
      <stop offset=".42" stop-color="#ffcf21"/>
      <stop offset=".69" stop-color="#ffcf21"/>
      <stop offset=".9" stop-color="#ee7219"/>
      <stop offset="1" stop-color="#ee7219"/>
    </linearGradient>
    <linearGradient id="myb" x1="50" y1="112" x2="164" y2="88" gradientUnits="userSpaceOnUse" spreadMethod="pad">
      <stop offset="0" stop-color="#ee7219"/>
      <stop offset=".08" stop-color="#ee7219"/>
      <stop offset=".34" stop-color="#f9b000"/>
      <stop offset=".58" stop-color="#f9b000"/>
      <stop offset=".82" stop-color="#ee7219"/>
      <stop offset="1" stop-color="#ee7219"/>
    </linearGradient>
    <linearGradient id="myc" x1="50" y1="112" x2="164" y2="88" gradientUnits="userSpaceOnUse" spreadMethod="pad">
      <stop offset="0" stop-color="#ee7219"/>
      <stop offset=".52" stop-color="#ee7219"/>
      <stop offset=".64" stop-color="#df0067"/>
      <stop offset=".95" stop-color="#ee7219"/>
      <stop offset="1" stop-color="#ee7219"/>
    </linearGradient>
    <linearGradient id="myd" x1="55" y1="68.8" x2="166.4" y2="84.5" gradientUnits="userSpaceOnUse" spreadMethod="pad">
      <stop offset="0" stop-color="#ee7219"/>
      <stop offset=".15" stop-color="#ee7219"/>
      <stop offset=".3" stop-color="#e11f22"/>
      <stop offset=".48" stop-color="#e11f22"/>
      <stop offset=".91" stop-color="#ee7219"/>
      <stop offset="1" stop-color="#ee7219"/>
    </linearGradient>
  </defs>
  <path fill="#ee7219" stroke="#1d1d1b" stroke-width=".1" d="M288.7 177.88a32.93 32.93 0 0 1-8.82 1.08c-8.32 0-12.48-3.01-12.48-9.04 0-6.31 4.59-9.47 13.77-9.47 3.73 0 6.24.22 7.53.65zm-11.62-51.65c-3.59 0-7.07.32-10.44.97-3.37.64-6.06 1.54-8.07 2.69l1.08 10.1c3.01-.86 5.7-1.47 8.07-1.83a48.4 48.4 0 0 1 7.2-.53c9.2 0 13.78 3.52 13.78 10.54v2.37a48.69 48.69 0 0 0-9.03-.65c-8.04 0-14.4 1.8-19.05 5.38-4.67 3.6-7 8.54-7 14.85 0 12.92 8.83 19.38 26.48 19.38 7.17 0 14.63-1.08 22.38-3.23v-37.02c0-15.35-8.47-23.03-25.4-23.03m31.64 1.5H324l14.86 46.5 15.06-46.5h14.64L345.74 188h-14.2zm98.15 50.15a32.93 32.93 0 0 1-8.83 1.08c-8.32 0-12.48-3.01-12.48-9.04 0-6.31 4.59-9.47 13.78-9.47 3.72 0 6.23.22 7.53.65zm-11.63-51.65c-3.58 0-7.06.32-10.43.97-3.38.64-6.07 1.54-8.08 2.69l1.08 10.1c3.01-.86 5.7-1.47 8.07-1.83a48.41 48.41 0 0 1 7.21-.53c9.18 0 13.78 3.52 13.78 10.54v2.37a48.71 48.71 0 0 0-9.04-.65c-8.04 0-14.39 1.8-19.05 5.38-4.66 3.6-7 8.54-7 14.85 0 12.92 8.83 19.38 26.48 19.38a83.5 83.5 0 0 0 22.38-3.23v-37.02c0-15.35-8.47-23.03-25.4-23.03m78.69 26.26c0-5.45-1.05-9.22-3.13-11.3s-5.77-3.12-11.08-3.12c-1.3 0-2.83.14-4.63.43a49.3 49.3 0 0 0-5.07 1.07V188h-13.99v-57.25a60.92 60.92 0 0 1 12.27-3.34c4.6-.78 9.04-1.18 13.35-1.18 17.5 0 26.25 7.9 26.25 23.67V188h-13.98zm60.04 25.4a32.93 32.93 0 0 1-8.82 1.06c-8.32 0-12.48-3.01-12.48-9.04 0-6.31 4.59-9.47 13.77-9.47 3.73 0 6.24.22 7.54.65zm-11.62-51.67c-3.58 0-7.07.32-10.44.97-3.37.64-6.06 1.54-8.07 2.69l1.08 10.1c3.01-.86 5.7-1.47 8.07-1.83a48.41 48.41 0 0 1 7.21-.53c9.18 0 13.77 3.52 13.77 10.54v2.37a48.71 48.71 0 0 0-9.03-.65c-8.04 0-14.4 1.8-19.05 5.38-4.68 3.6-7 8.54-7 14.85 0 12.92 8.82 19.38 26.47 19.38a83.5 83.5 0 0 0 22.38-3.23v-37.02c0-15.35-8.47-23.03-25.4-23.03m77.49 50.8c-1.59.57-4.45.86-8.61.86-11.92-.01-17.87-6.54-17.87-19.6 0-6.6 1.54-11.7 4.63-15.28 3.08-3.59 7.43-5.38 13.02-5.38 3.45 0 6.38.5 8.83 1.5zm0-72.54v23.03c-2.59-.86-5.96-1.3-10.12-1.3-9.19 0-16.65 2.99-22.39 8.94-5.74 5.96-8.6 13.74-8.6 23.35 0 10.05 2.8 17.73 8.39 23.03 5.6 5.31 13.77 7.97 24.54 7.97 6.74 0 14.13-1.08 22.17-3.23v-81.8zm39.6 47.14c.43-4.6 1.83-8.18 4.2-10.77a11.85 11.85 0 0 1 9.14-3.87c3.73 0 6.75 1.3 9.04 3.87 2.3 2.59 3.45 6.18 3.45 10.77zm39.39 3.01c0-8.75-2.3-15.68-6.9-20.77-4.58-5.1-10.83-7.64-18.72-7.64-8.6 0-15.45 2.87-20.54 8.6-5.1 5.75-7.64 13.57-7.64 23.47 0 9.9 2.72 17.58 8.18 23.03 5.45 5.45 13.2 8.18 23.24 8.18 6.6 0 12.84-1.15 18.73-3.45l-1.5-10.54a49.47 49.47 0 0 1-16.15 2.58c-11.77 0-17.8-5.3-18.08-15.93h39.39z"/>
  <path fill="url(#mya)" d="M93.85 162.95c-2-.76-4.06-2.12-6.2-4.07a44.71 44.71 0 0 1-6.66-8.03c-2.3-3.4-4.74-7.76-7.31-13.08a349.24 349.24 0 0 0-9.01-17.53c-2.43-4.34-4.58-7.8-6.43-10.38a38.12 38.12 0 0 0-5.19-6.05 70.25 70.25 0 0 0-5.44-4.41l1.77-2.72a85.65 85.65 0 0 1 7.9 5.42 31.04 31.04 0 0 1 5.89 6.34 94.32 94.32 0 0 1 6.1 10.08c2.22 4.13 5.1 9.67 8.67 16.61 2.34 4.6 4.5 8.44 6.47 11.54a52.76 52.76 0 0 0 5.55 7.45 16.32 16.32 0 0 0 4.95 3.88 9.82 9.82 0 0 0 9.47-.4c1.53-.9 3.26-2.6 5.2-5.1a85.52 85.52 0 0 0 6.62-10.52c2.49-4.5 5.52-10.35 9.1-17.55 2.92-5.92 5.73-10.85 8.44-14.79a49.38 49.38 0 0 1 8.45-9.65 30.08 30.08 0 0 1 9.45-5.55 50.22 50.22 0 0 1 11.58-2.51l-2.2 3.82a56.08 56.08 0 0 0-9.52 3.68 31.78 31.78 0 0 0-7.66 5.5 46.9 46.9 0 0 0-6.85 8.57 127.58 127.58 0 0 0-7.1 12.96 311.56 311.56 0 0 1-10.05 19.44c-2.84 4.94-5.4 8.71-7.7 11.34-2.29 2.63-4.4 4.4-6.34 5.3-1.94.89-3.9 1.37-5.86 1.44a15.51 15.51 0 0 1-6.1-1.03" transform="matrix(1.33333 0 0 -1.33333 0 282.16)"/>
  <path fill="url(#myb)" d="M64.07 105.06c-4.13-1-7.78-2.43-10.96-4.3l-3.3-1.6 1.78-2.08a67.72 67.72 0 0 0 12.18 3.4 57.89 57.89 0 0 0 12.24.89c2.69-.1 5.24-.5 7.65-1.2a57.6 57.6 0 0 0 7.06-2.59 91.18 91.18 0 0 0 6.8-3.35 111.04 111.04 0 0 1 7.05-3.52c3.26-1.57 7-2.93 11.2-4.06a67.17 67.17 0 0 1 15.02-2c12.84-.45 22.81 1.59 29.92 6.12l-.52 2.83c-4-1.42-8.54-2.49-13.64-3.2a90.5 90.5 0 0 0-15.58-.77c-5.6.2-10.24.82-13.93 1.89a78.54 78.54 0 0 0-10.45 3.8 97.34 97.34 0 0 0-7.33 3.6 111.34 111.34 0 0 1-7.03 3.52 49.27 49.27 0 0 1-7.45 2.68 37.5 37.5 0 0 1-10.02 1.26c-3.48 0-7.04-.44-10.67-1.32" transform="matrix(1.33333 0 0 -1.33333 0 282.16)"/>
  <path fill="url(#myc)" d="M131.78 131.46c-2.1-.92-4.4-2.7-6.87-5.37a97.62 97.62 0 0 1-8.63-11.24 609.63 609.63 0 0 1-12.17-18.83c-5.38-8.65-10.3-14.87-14.73-18.66-4.43-3.8-8.82-5.62-13.17-5.46-4.66.16-9.08 2.63-13.27 7.4-4.2 4.77-7.65 11.15-10.37 19.14l-4.95.96c2.66-10.07 6.58-17.95 11.77-23.64 5.2-5.7 10.74-8.64 16.65-8.85 5.59-.2 10.92 1.83 16 6.07 5.06 4.24 10.57 11.14 16.5 20.7a698.44 698.44 0 0 0 11.02 17.16 103.2 103.2 0 0 0 7.75 10.4c2.2 2.53 4.16 4.25 5.86 5.18 1.68.93 3.46 1.36 5.33 1.3 3.93-.14 7.62-2.84 11.07-8.1 3.44-5.27 6.84-13.42 10.19-24.45l5.36-2.21c-3.37 13.31-7.23 23.22-11.56 29.7-4.33 6.5-9.3 9.84-14.89 10.04h-.64a15.5 15.5 0 0 1-6.24-1.24" transform="matrix(1.33333 0 0 -1.33333 0 282.16)"/>
  <path fill="url(#myd)" d="M51.2 95.22a59.85 59.85 0 0 0 10.82-2.1 40.3 40.3 0 0 0 8.8-3.89c2.8-1.65 5.6-3.83 8.41-6.53 2.8-2.7 5.96-6.02 9.45-10 4.58-5.24 8.37-9.5 11.37-12.78 3-3.28 5.6-5.81 7.82-7.6 2.22-1.8 4.17-3 5.86-3.64 1.7-.63 3.57-.98 5.64-1.05 3.83-.14 7.37.96 10.61 3.3 3.25 2.32 6.93 6.27 11.07 11.84 3.04 4.05 5.55 7.37 7.5 9.95a547.2 547.2 0 0 0 5.38 6.99 195.49 195.49 0 0 0 4.95 6.06 596.91 596.91 0 0 0 6.24 7.19l-3.05 1.66A1050.9 1050.9 0 0 1 155.3 88a109.56 109.56 0 0 1-5.33-5.66 121.36 121.36 0 0 1-5.53-6.83 1722.42 1722.42 0 0 0-7.5-9.79c-3.9-5.16-7.14-8.66-9.7-10.5-2.54-1.83-5.12-2.7-7.7-2.6a12.71 12.71 0 0 0-4.17.84c-1.33.51-2.96 1.6-4.86 3.28a105.6 105.6 0 0 0-7.22 7.2 554.6 554.6 0 0 0-11.22 12.55c-3.7 4.28-7.04 7.8-10.05 10.56-3.02 2.75-6 4.96-8.95 6.62a34.27 34.27 0 0 1-9.36 3.6c-3.3.74-7.06 1.3-11.3 1.65z" transform="matrix(1.33333 0 0 -1.33333 0 282.16)"/>
</svg>
