<svg xmlns="http://www.w3.org/2000/svg" viewBox="0 0 88 82.9">
  <path d="M27.1 1c1.3-.5 3.1.5 3.7 2.5l11.7 34.6-4.2 12.6H27s-2.5-.3-4.3 1.1c-.3.2-1 1-1.5 2.1-.8 2.5 1.1 4.8 1.2 5l10 9.2-4 12a4.2 4.2 0 0 1-3.9 2.7H4.1a4 4 0 0 1-4-4l.1-1.4L25.4 2.8c.1-.2.6-1.5 1.7-1.9z"/>
  <path d="M62.6 2.8A4 4 0 0 0 58.7 0h-29a4 4 0 0 1 4 2.8l25.1 74.6c.7 2.2-.4 4.5-2.6 5.3L55 83h29c2.3 0 4.1-1.9 4.1-4.2l-.2-1.3L62.6 2.8z"/>
  <path d="M26 53.6a3 3 0 0 0-1.3.4s-1 .7-1 1.6c0 .7.4 1.2.6 1.4l26.2 24.2c1.7.8 3.7.5 4.7-.8 1-1 .7-2.5.6-2.8l-8-24H26z"/>
</svg>
