<svg xmlns="http://www.w3.org/2000/svg" viewBox="0 0 50 50">
  <circle fill="#59b4d9" cx="25" cy="25" r="25"/>
  <path fill="#fff" d="M35.6 29.378a5.385 5.385 0 0 0 7.541 1.004c.123-.094.218-.208.33-.309 2.409 1.697 4.082 2.817 5.025 3.459.279-.723.472-1.417.67-2.142a130.857 130.857 0 0 1-4.29-3.356c.639-1.68.437-3.64-.73-5.171a5.36 5.36 0 0 0-6.936-1.377 224.317 224.317 0 0 1-8.293-7.833c9.165-4.929 15.676-4.207 15.676-4.207-1.087-1.386-2.305-2.6-3.606-3.697-3.865-.597-9.869-.53-16.729 3.119l-.002-.003h-.001a200.322 200.322 0 0 1-6.983-7.712A23.264 23.264 0 0 0 13.96 2.5c1.749 2.862 4.102 5.749 6.754 8.565l.017.017a46.293 46.293 0 0 0-6.944 6.015c-.29.309-.569.62-.842.931a7.546 7.546 0 0 0-4.117.282C6.564 13.425 6.746 9.501 7.104 7.478c-.983 1.03-1.901 2.113-2.692 3.267-.591 2.415-.759 5.898.985 10.095a7.538 7.538 0 0 0-.005 9.153c.176.229.364.442.559.645a37.87 37.87 0 0 0-1.46 8.761c.237.322.237.582.472.896 1.199 1.538 2.705 2.834 4.16 4.008-.18-2.75.014-6.806 1.714-11.372a7.507 7.507 0 0 0 3.483-.566c.64.563 1.31 1.132 2.025 1.711a41.672 41.672 0 0 0 7.285 4.643 4.974 4.974 0 0 0 .968 3.518 4.998 4.998 0 0 0 6.983.919 4.918 4.918 0 0 0 1.108-1.216c3.889.866 7.287 1.019 9.806 1.019.386 0 2.177-2.436 3.203-3.946-1.534.321-6.083.946-12.3-.84a4.952 4.952 0 0 0-.898-1.98c-1.579-2.07-4.466-2.518-6.618-1.133a46.853 46.853 0 0 1-6.758-4.49 46.422 46.422 0 0 1-1.359-1.118 7.578 7.578 0 0 0 .318-7.55c.286-.286.567-.573.871-.857 2.311-2.159 4.485-3.887 6.519-5.274-.082-.076-.156-.156-.236-.233.081.075.157.152.239.227l-.002.001c3.121 2.886 6.43 5.621 9.564 8.065-.829 1.758-.699 3.899.562 5.547z"/>
  <path fill="#fcc24c" d="M 35.379 37.396 L 14.761 37.396 C 13.459 37.396 12.402 36.34 12.402 35.037 L 12.402 20.01 C 12.402 18.707 13.459 17.651 14.761 17.651 L 35.379 17.651 C 36.682 17.651 37.738 18.707 37.738 20.01 L 37.738 35.037 C 37.738 36.34 36.682 37.396 35.379 37.396 Z"/>
  <path fill="#ff4397" d="M 26.651 12.72 C 26.651 11.504 25.334 10.743 24.28 11.352 C 23.791 11.634 23.49 12.156 23.49 12.72 C 23.49 13.937 24.807 14.697 25.861 14.089 C 26.35 13.807 26.651 13.285 26.651 12.72 Z"/>
  <path fill="#dea42e" d="M 35.379 17.651 L 33.492 17.651 C 34.795 17.651 35.851 18.707 35.851 20.01 L 35.851 35.037 C 35.851 36.34 34.795 37.396 33.492 37.396 L 35.379 37.396 C 36.682 37.396 37.738 36.34 37.738 35.037 L 37.738 20.01 C 37.738 18.707 36.682 17.651 35.379 17.651 Z"/>
  <path fill="#fce06a" d="M 14.761 37.396 L 16.649 37.396 C 15.346 37.396 14.29 36.34 14.29 35.037 L 14.29 20.01 C 14.29 18.707 15.346 17.651 16.649 17.651 L 14.761 17.651 C 13.459 17.651 12.402 18.707 12.402 20.01 L 12.402 35.037 C 12.402 36.34 13.459 37.396 14.761 37.396 Z"/>
  <path fill="#f4efed" d="M 30.378 34.353 L 19.763 34.353 C 17.665 34.157 16.566 31.765 17.784 30.046 C 18.245 29.395 18.968 28.977 19.763 28.903 L 30.378 28.903 C 32.476 29.099 33.575 31.491 32.357 33.21 C 31.896 33.861 31.173 34.279 30.378 34.353 Z"/>
  <path fill="#ff4397" d="M 22.593 25.554 C 21.414 26.733 19.527 26.733 18.347 25.554 C 17.168 24.374 17.168 22.487 18.347 21.307 Z M 31.794 21.307 C 32.95 22.487 32.95 24.374 31.794 25.554 C 30.638 26.733 28.727 26.733 27.547 25.554 Z"/>
  <path fill="#690589" d="M 35.379 37.868 L 14.761 37.868 C 13.198 37.868 11.931 36.6 11.931 35.037 L 11.931 20.01 C 11.931 18.446 13.198 17.179 14.761 17.179 L 35.379 17.179 C 36.943 17.179 38.21 18.446 38.21 20.01 L 38.21 35.037 C 38.21 36.6 36.943 37.868 35.379 37.868 Z M 14.761 18.123 C 13.719 18.123 12.874 18.968 12.874 20.01 L 12.874 35.037 C 12.874 36.079 13.719 36.924 14.761 36.924 L 35.379 36.924 C 36.422 36.924 37.267 36.079 37.267 35.037 L 37.267 20.01 C 37.267 18.968 36.422 18.123 35.379 18.123 Z"/>
  <path fill="#690589" d="M 30.378 34.825 L 19.763 34.825 C 17.302 34.613 15.993 31.817 17.407 29.792 C 17.951 29.011 18.814 28.513 19.763 28.432 L 30.378 28.432 C 32.839 28.643 34.148 31.439 32.734 33.464 C 32.189 34.245 31.327 34.743 30.378 34.825 Z M 19.763 29.399 C 18.037 29.65 17.231 31.674 18.311 33.043 C 18.67 33.498 19.189 33.797 19.763 33.881 L 30.378 33.881 C 32.103 33.63 32.91 31.606 31.83 30.237 C 31.471 29.782 30.952 29.482 30.378 29.399 Z"/>
  <path fill="#690589" d="M 25.07 34.825 C 24.81 34.825 24.599 34.613 24.599 34.353 L 24.599 28.903 C 24.599 28.54 24.992 28.313 25.306 28.495 C 25.452 28.579 25.542 28.735 25.542 28.903 L 25.542 34.353 C 25.542 34.613 25.331 34.825 25.07 34.825 Z M 20.919 34.825 C 20.658 34.825 20.447 34.613 20.447 34.353 L 20.447 28.903 C 20.447 28.54 20.84 28.313 21.154 28.495 C 21.3 28.579 21.39 28.735 21.39 28.903 L 21.39 34.353 C 21.39 34.613 21.179 34.825 20.919 34.825 Z M 29.222 34.825 C 28.962 34.825 28.75 34.613 28.75 34.353 L 28.75 28.903 C 28.75 28.54 29.144 28.313 29.458 28.495 C 29.604 28.579 29.694 28.735 29.694 28.903 L 29.694 34.353 C 29.694 34.613 29.483 34.825 29.222 34.825 Z M 20.494 26.898 C 19.565 26.908 18.672 26.542 18.017 25.884 C 17.365 25.234 16.999 24.351 17.003 23.43 C 17.003 22.487 17.38 21.638 18.017 21.001 C 18.203 20.805 18.515 20.805 18.701 21.001 L 22.947 25.223 C 23.127 25.407 23.127 25.7 22.947 25.884 C 22.292 26.542 21.399 26.908 20.47 26.898 Z M 18.371 22.015 C 18.09 22.433 17.942 22.926 17.946 23.43 C 17.933 24.83 19.071 25.968 20.47 25.955 C 20.989 25.955 21.461 25.789 21.886 25.506 Z M 29.671 26.898 C 28.75 26.901 27.867 26.536 27.217 25.884 C 27.037 25.7 27.037 25.407 27.217 25.223 L 31.463 20.977 C 31.647 20.797 31.941 20.797 32.124 20.977 C 33.493 22.326 33.493 24.535 32.124 25.884 C 31.474 26.536 30.591 26.901 29.671 26.898 Z M 28.255 25.506 C 28.671 25.796 29.164 25.952 29.671 25.955 C 31.07 25.968 32.208 24.83 32.195 23.43 C 32.195 22.959 32.03 22.44 31.746 22.015 Z M 25.07 18.123 C 24.81 18.123 24.599 17.911 24.599 17.651 L 24.599 14.301 C 24.599 13.938 24.992 13.711 25.306 13.892 C 25.452 13.977 25.542 14.132 25.542 14.301 L 25.542 17.651 C 25.542 17.911 25.331 18.123 25.07 18.123 Z"/>
  <path fill="#690589" d="M 25.07 14.773 C 23.491 14.773 22.503 13.062 23.293 11.694 C 23.66 11.059 24.337 10.668 25.07 10.668 C 26.65 10.668 27.638 12.378 26.848 13.747 C 26.481 14.382 25.804 14.773 25.07 14.773 Z M 25.07 11.612 C 24.217 11.612 23.684 12.536 24.11 13.275 C 24.537 14.014 25.604 14.014 26.031 13.275 C 26.128 13.106 26.179 12.915 26.179 12.72 C 26.179 12.108 25.683 11.612 25.07 11.612 Z"/>
  <path fill="#526faa" d="M 12.402 27.535 L 12.402 30.319 L 9.194 28.903 L 5.986 27.535 L 9.194 26.12 L 12.402 24.751 Z"/>
  <path fill="#690589" d="M 12.402 30.791 C 12.337 30.788 12.273 30.772 12.214 30.743 L 5.797 27.96 C 5.47 27.801 5.437 27.348 5.738 27.145 C 5.757 27.132 5.777 27.12 5.797 27.11 L 12.214 24.327 C 12.522 24.192 12.869 24.415 12.874 24.751 L 12.874 30.319 C 12.874 30.579 12.663 30.791 12.402 30.791 Z M 7.165 27.535 L 11.931 29.587 L 11.931 25.459 Z"/>
  <path fill="#526faa" d="M 37.738 27.535 L 37.738 24.751 L 40.947 26.143 L 44.155 27.559 L 40.947 28.927 L 37.738 30.319 Z"/>
  <path fill="#690589" d="M 37.738 30.791 C 37.478 30.791 37.267 30.579 37.267 30.319 L 37.267 24.751 C 37.272 24.415 37.619 24.192 37.927 24.327 L 44.344 27.11 C 44.671 27.269 44.703 27.722 44.403 27.926 C 44.384 27.938 44.364 27.95 44.344 27.96 L 37.927 30.743 C 37.868 30.772 37.804 30.788 37.738 30.791 Z M 38.21 25.459 L 38.21 29.564 L 42.975 27.512 Z"/>
</svg>
