<svg xmlns="http://www.w3.org/2000/svg" viewBox="0 0 295 100">
  <path fill="#eff0f1" d="M 0 61.781 C 0 39.123 15.173 23.478 36.752 23.478 C 51.317 23.478 63.186 30.761 67.839 42.09 C 68.352 43.09 68.607 44.202 68.581 45.327 C 68.581 47.889 66.558 49.642 63.995 49.642 C 61.972 49.642 60.286 48.496 59.41 46.203 C 55.683 37.065 46.611 31.26 36.752 31.705 C 20.567 31.705 9.306 43.978 9.306 61.713 C 9.306 79.246 20.433 91.587 36.752 91.587 C 47.271 91.587 55.296 86.394 59.612 75.739 C 60.421 73.582 61.837 72.3 63.995 72.3 C 66.558 72.3 68.581 74.323 68.581 76.818 C 68.581 77.83 68.446 78.572 68.041 79.853 C 63.456 92.126 51.722 100.016 36.752 100.016 C 14.97 100.083 0 84.304 0 61.781 M 122.528 93.744 C 122.528 96.914 120.842 98.937 117.808 98.937 C 114.841 98.937 113.29 96.914 113.29 93.812 L 113.29 5.136 C 113.29 1.899 114.975 0.011 118.01 0.011 C 120.977 0.011 122.528 1.899 122.528 5.136 L 122.528 25.366 L 138.577 25.366 C 141.41 25.366 143.096 26.917 143.096 29.48 C 143.096 32.042 141.41 33.66 138.577 33.66 L 122.528 33.66 L 122.528 93.744 M 194.143 30.356 C 194.143 32.919 192.255 34.739 189.558 34.739 C 188.546 34.739 187.535 34.47 186.119 33.795 C 183.802 32.697 181.265 32.143 178.701 32.177 C 168.855 32.177 162.382 40.741 162.382 51.665 L 162.382 93.744 C 162.382 96.981 160.831 98.869 157.796 98.869 C 154.829 98.869 153.076 96.981 153.076 93.744 L 153.076 29.682 C 153.076 26.445 154.829 24.557 157.796 24.557 C 160.831 24.557 162.382 26.445 162.382 29.682 L 162.382 31.705 C 166.428 26.378 172.699 23.613 179.712 23.613 C 185.107 23.613 188.951 24.692 191.716 26.378 C 193.267 27.389 194.143 28.67 194.143 30.424 M 203.517 29.749 C 203.517 26.512 205.27 24.624 208.237 24.624 C 211.272 24.624 212.823 26.512 212.823 29.749 L 212.823 93.812 C 212.823 96.914 211.137 98.937 208.102 98.937 C 205.135 98.937 203.517 96.914 203.517 93.812 L 203.517 29.682 M 84.9 29.749 C 84.9 26.512 86.586 24.624 89.62 24.624 C 92.587 24.624 94.206 26.512 94.206 29.749 L 94.206 93.812 C 94.206 96.914 92.452 98.937 89.485 98.937 C 86.451 98.937 84.9 96.914 84.9 93.812 L 84.9 29.682 M 96.836 7.294 C 96.836 12.9 90.767 16.404 85.911 13.601 C 83.658 12.3 82.27 9.895 82.27 7.294 C 82.27 1.687 88.339 -1.817 93.194 0.987 C 95.448 2.287 96.836 4.692 96.836 7.294 M 261.106 67.445 L 235.818 97.116 C 234.948 98.286 233.567 98.964 232.109 98.937 C 229.546 98.937 227.658 96.914 227.658 94.621 C 227.658 93.61 227.995 92.463 229.007 91.384 L 255.374 61.511 L 229.951 32.312 C 228.939 31.165 228.4 30.221 228.4 28.94 C 228.4 26.647 230.221 24.624 232.985 24.624 C 234.334 24.624 235.413 25.231 236.559 26.512 L 261.106 55.307 L 285.719 26.445 C 286.865 25.096 287.81 24.557 289.293 24.557 C 291.99 24.557 293.811 26.58 293.811 28.873 C 293.811 30.154 293.272 31.098 292.26 32.244 L 266.837 61.443 L 293.272 91.317 C 294.283 92.396 294.553 93.542 294.553 94.554 C 294.553 96.846 292.665 98.869 290.102 98.869 C 288.754 98.869 287.405 98.263 286.393 96.981 L 261.106 67.445 M 268.388 7.294 C 268.388 12.9 262.319 16.404 257.464 13.601 C 255.21 12.3 253.823 9.895 253.823 7.294 C 253.823 1.687 259.892 -1.817 264.747 0.987 C 267.001 2.287 268.388 4.692 268.388 7.294"/>
</svg>