<svg xmlns="http://www.w3.org/2000/svg" viewBox="0 0 100 91">
  <path fill="#fff" d="M0 90.8L50.5 0 100 90.8H0z"/>
  <path fill="#0A3E77" d="M42.5 13.3l-9 16.4-1.6 2.7 3.3-2.4a46.6 46.6 0 0 1 22.5-8.4l4.5-.5-5.7-10.4-6-10.7c-.2-.2-3.7 5.6-8 13.3zm14 10.5c-12 4.7-18.3 9-23.3 15.5a37 37 0 0 0-5.5 29.1A53.6 53.6 0 0 0 39 88.5l2 2.3h29.6c27.5 0 29.6 0 29.4-.7L85.3 63 66.7 29.3a44.7 44.7 0 0 0-4.6-7.6c-.3 0-2.8 1-5.6 2zm13 14.5c0 1.7-.2 3.1-.5 3.3a72 72 0 0 1-7.7 2.7c-.2 0-.4-1.4-.4-3V38l3.8-1.3a34 34 0 0 1 4.3-1.3c.3 0 .5.8.5 3zM56 46c-.2.2-2 1-4 1.7-4.4 1.5-4.4 1.5-4-2.5v-2.7l4-1.4 4-1.3.2 3A9 9 0 0 1 56 46zm13.5 1.3v3l-4 1.2-4 1.4c-.4 0-.6-1.3-.6-3.1v-3.2l4-1.2c2.1-.8 4-1.3 4.3-1.2.1 0 .3 1.5.3 3zm-26 .1v3.1l-4 1.4-4.2 1.4c-.2 0-.3-1.4-.3-3.2V47l3.7-1.3c1.4-.5 2.8-1 4.3-1.3.3 0 .5.8.5 3zm12.8 4.3v3l-4 1.4c-2 .8-4 1.3-4.2 1.2-.6-.4-.4-5.6.1-6a75 75 0 0 1 7.5-2.7c.4 0 .6.9.6 3.1zm13 4.4V59L65 60.4l-4.2 1.4.1-3.3.2-3.2L65 54c2-.8 4-1.3 4.2-1 .1 0 .3 1.5.2 3zm-25.8 0v3l-3.8 1.4c-1.4.5-2.8 1-4.2 1.3-.5 0-.5-.8-.5-3l.2-3 3.8-1.5 4.2-1.4s.3 1.4.3 3.1zm12.8 4.2v3.1l-4 1.3c-2 .8-4 1.4-4.3 1.4 0 0-.3-1.4-.2-3.1l.2-3 3.8-1.5 4.2-1.3s.3 1.3.3 3zm-13 7.5l-3.8 1.4-4 1.4c-.5.2-.6-.3-.5-3l.2-3.4 4-1.3 4-1.4.2 3c0 1.6 0 3-.2 3.3zm26.1-3.4v3.2l-4 1.3a64 64 0 0 1-4.1 1.4c-.2 0-.4-1.4-.4-3.1V64l3.6-1.4c5-1.9 5-2 5 1.7zM56.2 69l-.2 3.3-4 1.3c-2.8 1-4 1.3-4 .9-.2-.3-.3-1.7-.2-3.2l.2-2.7 3.8-1.4 4.2-1.4s.3 1.4.2 3.2zm-12.7 4.5v3l-3.7 1.3-4.3 1.4c-.4.2-.5-.6-.5-3V73l3.7-1.3c1.4-.5 2.8-1 4.3-1.3.3 0 .5.8.5 3zM19.9 54.2C16.7 59.7 0 90.2 0 90.4c0 .2 8.7.4 19.4.4s19.4-.1 19.4-.4a54.7 54.7 0 0 1-11-11.6 45 45 0 0 1-6-12.3c-.4-2-.7-4.4-.7-8.4v-5.7L20 54.2z"/>
</svg>
