<svg xmlns="http://www.w3.org/2000/svg" viewBox="0 0 55 48">
  <path fill="#28a8ea" d="M51.5 0H39.3a3.5 3.5 0 0 0-2.47 1.02L8.03 29.84A3.5 3.5 0 0 0 7 32.3v12.2a3.5 3.5 0 0 0 3.49 3.5h12.2a3.5 3.5 0 0 0 2.47-1.02l28.82-28.8A3.5 3.5 0 0 0 55 15.7V3.5C55 1.56 53.44 0 51.5 0z"/>
  <path fill="#0078d4" d="M51.5 48H39.3a3.5 3.5 0 0 1-2.47-1.02L31 41.14v-10.9c0-3.45 2.8-6.24 6.24-6.24h10.9l5.84 5.83A3.5 3.5 0 0 1 55 32.3v12.21a3.5 3.5 0 0 1-3.5 3.5z"/>
  <path fill="#50d9ff" d="M10.49 0h12.2c.93 0 1.81.37 2.47 1.02L31 6.86v10.9c0 3.45-2.8 6.24-6.24 6.24h-10.9l-5.84-5.83A3.5 3.5 0 0 1 7 15.7V3.5A3.5 3.5 0 0 1 10.49 0z"/>
  <path d="M29 12.33v26.34A2.3 2.3 0 0 1 26.66 41H7V10h19.67A2.33 2.33 0 0 1 29 12.33z" fill-opacity=".2"/>
  <path d="M30 12.33v24.34A3.36 3.36 0 0 1 26.67 40H7V9h19.67C28.51 9 30 10.5 30 12.33z" fill-opacity=".1"/>
  <path d="M29 12.33v24.34A2.33 2.33 0 0 1 26.67 39H7V10h19.67A2.33 2.33 0 0 1 29 12.33z" fill-opacity=".2"/>
  <path d="M28 12.33v24.34A2.33 2.33 0 0 1 25.67 39H7V10h18.67A2.33 2.33 0 0 1 28 12.33z" fill-opacity=".1"/>
  <rect width="28" height="28" y="10" fill="#0078d4" rx="2.33"/>
  <path fill="#fff" d="M18.59 18.88h-6.55v3.83h6.14v2.45h-6.14v3.98h6.9v2.44H9.06V16.42h9.52z"/>
</svg>
