<svg xmlns="http://www.w3.org/2000/svg" viewBox="0 0 340 191">
  <path fill="#252d44" d="M77.3 14.3C84 13.2 91.8 14 96.9 19c5.1 4.9 6.3 12.3 6.6 19.1.1 10.6.5 21.2-.3 31.8-.6 7.2-4.2 15-11 18-6.9 3-15.1 3-21.7-.5a19 19 0 0 1-8.7-12.2c-2-7.3-1.3-14.9-1.4-22.3 0-8.9-.7-18 2-26.6 2.2-6.4 8-11.5 14.9-12.1m3.1 11.2c-4 1.1-4.9 5.8-5 9.5v33c0 3.2.4 6.6 2.5 9 2 2.4 6.1 2.4 8.2 0 2.2-2.4 2.5-5.8 2.5-9V38c0-3.1 0-6.4-1.3-9.4a5.8 5.8 0 0 0-6.9-3.1zM275.5 22.6c6.3-10.2 21.4-11.2 31-5 7.6 5.6 8 16.1 8 24.9h-14.4c-.2-5.3 1-11.5-2.8-15.8-3.5-3.4-10-.4-10.2 4.3-1.1 9-.3 18-.5 27 .1 5.6-.8 11.5 1.2 17 1.3 4.2 8 5 10.3 1.2 2.7-4.4 1.9-9.8 2-14.7h-8.4V51h23.1v37.7h-10.2l-1.3-4.9c-2.6 2.2-5.2 4.8-8.6 5.7A16.9 16.9 0 0 1 275 81c-4.7-9-3.3-19.4-3.5-29 .2-9.9-1.1-20.5 3.9-29.4zM24.8 15.4h30.8v10c-5.4 0-10.7-.1-16.1 0v20.1H51v10.2H39.5v33H24.7V15.4zM112.8 15.4h14.7v63h14.7v10.3h-29.4V15.4zM148 15.4c9.8.4 20-1.3 29.7 2 6.5 2.3 9.6 9.7 9.8 16.2.2 11.8.2 23.5 0 35.3a21.7 21.7 0 0 1-5.1 14.5c-2.5 2.6-6 3.7-9.4 4.4-8.3 1.6-16.7.6-25 .9V15.4m15.4 63.1c3-.6 8.3.2 9.1-3.8.8-14.8.4-29.7.2-44.5-.6-4.3-6-4.2-9.3-4.8v53.1zM197.8 15.4h14.8v73.3h-14.8V15.4zM222.8 15c3.5 0 7.1-.1 10.7.2l16 38V15h12.6v73.7h-10.5c-5.3-13.3-10.4-26.7-15.9-39.9v39.9h-13V15zM173.4 94.5a31.8 31.8 0 0 1 18 1c7.4 3 11.6 10.8 12.4 18.4 1.1 11 .5 22 .6 33.1.1 8-1 16.7-6.5 23-4.6 5.4-12.2 6.9-19 6.6-7-.3-14.1-3.6-17.4-10-5.2-9.3-3.8-20.4-4-30.6.3-10.6-1.3-22 3.7-31.9 2.5-4.7 7-8.4 12.2-9.6m5 12.1c-3.8 1.8-4.4 6.7-4.6 10.5-.2 11.3-.2 22.6-.2 34 .2 3.8.2 8.3 3 11.3 3 3.3 9.3 1.7 10.4-2.6 1.3-4.1 1.4-8.5 1.4-12.8-.1-7.7-.2-15.3 0-23 0-4.4-.1-9-1.3-13.2-.8-3.7-5.3-5.6-8.7-4.2zM102.9 95.2H119v32.5h11.7V95.3h16.1v79.9h-16.1c-.1-12 .1-23.8-.2-35.6h-11.5v35.6h-16.2V95zM214.4 95.2h19.3c3 17.5 5.5 35 8.6 52.5l9-52.4h18.9V175h-11.7c-1.3-18.6.2-37.2-1-55.7-2.4 18.6-6 37.1-9 55.7l-12.2-.1c-3.2-18.8-6.2-37.7-9.9-56.4V175h-12V95zM281.8 95.3h33.4v11H298V128h12v11.5h-12V164h17.3v11h-33.5V95.3zM40.7 107.7c9-5 20-5.5 29.9-3.1a29.8 29.8 0 0 1 18.6 14.2 42.3 42.3 0 0 1 4.6 19.1c.3 7.3-1.1 15.2-6.6 20.4-6.4 5.6-16.5 4.4-22.7-1-2.4 2.2-5 5-8.5 4.7-7.5-.1-13.3-7-14.3-14-1-7.8 0-16.3 4.4-23 3-4.7 10-6.5 14.6-3.3 4.1-2.6 9-.9 13.6-1.1.2 10-.5 20 .4 29.8 1.6 1.8 4.5.3 5-1.7 1.7-5.2 1.9-10.9 1-16.3-1-6.4-3.4-13.4-9.5-16.6-9.6-5.1-23.9-3.4-29.9 6.5-5 8-4.8 17.9-3.9 26.9.9 7.3 4 15 10.8 18.6 8.5 4.6 18.8 3.2 27.7.6l4.6 10C68 181.1 54 182.6 42 177.2c-9-3.9-14.6-13-16.5-22.3a59.7 59.7 0 0 1 .8-28.9 31.3 31.3 0 0 1 14.5-18.3m13.9 27.7c-.6 4.8-1.2 10.2 1.3 14.6 1.3 1.8 3.8.6 5.6.6-.1-6.6.1-13.2-.3-19.8-3.2-1.7-6.3 1.5-6.6 4.6z"/>
</svg>
