<svg xmlns="http://www.w3.org/2000/svg" viewBox="0 0 26.68 26.68">
  <path fill="#d71e25" d="M26.68 26.68H0V0h26.68z"/>
  <path fill="#fff" d="M2.38 11.02h1.69v5.47H2.38zM4.97 11.02H6.6v.5s.28-.64 1.62-.64c1.71 0 2.03 1.13 2.03 2.6v3h-1.7v-2.67c0-.63 0-1.44-.87-1.44-.88 0-1.01.68-1.01 1.4v2.72H4.97zM11.14 10.05c0-1.2.3-2.2 2.14-2.2.33 0 .67.02.99.1l-.08 1.42c-.2-.06-.35-.1-.55-.1-.54 0-.81.16-.81.88v.87h1.25v1.35h-1.25v4.12h-1.7zM17.33 10.88c1.7 0 3.04 1.13 3.04 2.87 0 1.75-1.35 2.87-3.04 2.87-1.68 0-3.03-1.12-3.03-2.87 0-1.74 1.35-2.87 3.03-2.87m0 4.26c.85 0 1.36-.57 1.36-1.39s-.51-1.38-1.36-1.38c-.84 0-1.35.56-1.35 1.38 0 .82.51 1.39 1.35 1.39M21.03 11.02h1.7v.47s.43-.69 2.15-.61v1.48a2.6 2.6 0 0 0-.72-.11c-1.28 0-1.44.92-1.44 2.01v2.23h-1.69zM2.38 9.21l1.69-1.15v2.06H2.38z"/>
</svg>
