<svg xmlns="http://www.w3.org/2000/svg" viewBox="0 0 256 256">
  <circle fill="#DD4813" cx="128" cy="128" r="128" />
  <path fill="#FFF" d="M65.9 207.1c-1.1 1.1-2.6 1.7-4 1.7a5.7 5.7 0 0 1-5.9-5.7 5.7 5.7 0 0 1 5.8-5.8 5.7 5.7 0 0 1 5.8 5.8c0 1.5-.6 3-1.7 4zm25-86a9.8 9.8 0 0 0-6.3-7 14 14 0 0 0-10 0 9.9 9.9 0 0 0-3.6 2.5c-1.1 1.1-2 2.6-2.5 4.5-.6 1.8-1 4.1-1 6.7V195H56v-68c0-3.5.5-6.7 1.4-9.6 1-2.9 2.4-5.4 4.3-7.6 2-2.1 4.4-3.8 7.4-5 2.9-1.1 6.4-1.7 10.5-1.7 4 0 7.7.6 10.6 1.7a19.6 19.6 0 0 1 11.8 12.6c1 2.9 1.5 6 1.5 9.5v9.3H91.9v-8.3a23 23 0 0 0-1-6.7zm48.4 47c0 3.4-.5 6.6-1.4 9.5a19.6 19.6 0 0 1-11.8 12.6 29 29 0 0 1-10.6 1.7c-4 0-7.6-.6-10.6-1.7a19.7 19.7 0 0 1-11.6-12.6c-1-2.9-1.4-6-1.4-9.5v-29.3h11.6v28.3c0 2.6.3 4.9.8 6.7.6 1.9 1.5 3.4 2.5 4.5 1 1.2 2.4 2 3.8 2.6 1.5.6 3.1.8 5 .8 1.8 0 3.5-.2 5-.8a9.8 9.8 0 0 0 3.8-2.6c1-1 1.9-2.6 2.5-4.5.5-1.8.8-4.1.8-6.7v-28.3h11.6v29.3zm-11.5-37.7a5.8 5.8 0 1 1 11.5 0 5.8 5.8 0 0 1-11.5 0zm35-81.7c-.6-1.9-1.5-3.4-2.6-4.5-1-1.2-2.3-2-3.8-2.6-1.5-.5-3.1-.8-5-.8a14 14 0 0 0-5 .8 10 10 0 0 0-3.7 2.6c-1 1.1-2 2.6-2.5 4.5-.6 1.8-.9 4.1-.9 6.7v67.1h-11.6v-68c0-3.5.5-6.7 1.4-9.6a19.6 19.6 0 0 1 11.7-12.6c3-1.1 6.5-1.7 10.5-1.7 4.1 0 7.7.6 10.7 1.7A19.5 19.5 0 0 1 173.8 45c1 2.9 1.4 6 1.4 9.5v9.3h-11.6v-8.3c0-2.6-.3-4.9-.9-6.7zm48.3 47c0 3.4-.5 6.6-1.5 9.5a19.6 19.6 0 0 1-11.8 12.6c-3 1.2-6.5 1.7-10.6 1.7-4 0-7.6-.6-10.5-1.7a19.6 19.6 0 0 1-11.7-12.6c-1-2.9-1.4-6-1.4-9.5V66.4h11.6v28.3c0 2.6.3 4.9.9 6.7.6 1.9 1.4 3.4 2.5 4.6 1 1 2.3 2 3.7 2.5 1.5.6 3.2.8 5 .8 1.8 0 3.5-.2 5-.8a9.8 9.8 0 0 0 3.8-2.5c1-1.2 2-2.7 2.5-4.6.6-1.8.9-4.1.9-6.7V66.4H211v29.3z"/>
</svg>
