<svg xmlns="http://www.w3.org/2000/svg" viewBox="0 0 712 860">
  <path fill="#222" d="M684 677.7c-6.2-6.8-9-19.5-12.2-33-3-13.6-6.5-28.2-17.6-37.6h-.1a46 46 0 0 0-6.8-5 44 44 0 0 0-6.8-3.3c15.4-45.8 9.3-91.3-6.3-132.5-19-50.5-52.4-94.5-78-124.7-28.5-36-56.3-70.1-55.8-120.6.9-77 8.5-219.8-127-220-5.6 0-11.3.3-17.3.7C204.7 14 244.8 174 242.6 227.5c-2.8 39.1-10.7 70-37.7 108.3-31.6 37.7-76.2 98.6-97.3 162-10 30-14.7 60.5-10.3 89.4a67.7 67.7 0 0 0-4 3.8c-9.3 10-16.1 22-23.8 30-7.1 7.2-17.3 9.9-28.5 13.9s-23.5 10-31 24.3A43.3 43.3 0 0 0 5.3 680c0 6.7 1 13.4 2 19.8 2 13.5 4.2 26.2 1.4 34.8-8.9 24.3-10 41-3.8 53.2 6.3 12.2 19.1 17.5 33.7 20.6 29 6 68.4 4.5 99.4 21l2.7-5-2.7 5c33.2 17.4 66.9 23.5 93.7 17.4a60.8 60.8 0 0 0 43.4-33.9c21-.1 44-9 81-11 25-2 56.3 8.9 92.3 6.9a49.1 49.1 0 0 0 4.2 11.2c14 28 39.9 40.8 67.5 38.6 27.7-2.2 57.1-18.5 80.9-46.8l-4.4-3.7 4.4 3.6c22.7-27.4 60.3-38.8 85.2-53.9 12.5-7.5 22.6-16.9 23.4-30.6.8-13.7-7.3-29-25.7-49.5z"/>
  <path fill="#fd7" d="M698.2 726.6c-.4 8.4-6.5 14.7-17.8 21.5-22.6 13.6-62.6 25.4-88.1 56.4-22.2 26.3-49.2 40.8-73 42.7s-44.4-8-56.5-32.3v-.1c-7.6-14.3-4.5-36.8 1.9-60.6 6.3-23.9 15.4-48.3 16.6-68.1 1.3-25.5 2.7-47.8 7-64.9 4.3-17.2 11-28.7 23-35.3l1.6-.8c1.3 22 12.3 44.5 31.5 49.3 21.1 5.6 51.5-12.5 64.4-27.3l7.5-.3c11.2-.2 20.7.4 30.4 8.9 7.5 6.3 11 18.2 14 31.5s5.5 27.8 14.7 38v.1c17.7 19.6 23.3 32.8 22.9 41.3zM269.5 789c-2 26.8-17.1 41.4-40.3 46.7-23.1 5.3-54.5 0-85.9-16.4-34.7-18.4-76-16.5-102.4-22-13.2-2.8-21.9-7-25.8-14.7-4-7.8-4-21.2 4.3-44.2l.1-.2c4.2-12.8 1-26.9-1-40-2-13.3-3-25.3 1.6-33.6v-.1c5.8-11.1 14.2-15.1 24.7-18.9 10.5-3.8 23-6.7 32.8-16.6h.1c9.1-9.7 16-21.7 24-30.2 6.7-7.2 13.4-12 23.6-12h.4c1.7 0 3.6.1 5.6.4 13.5 2 25.3 11.5 36.6 26.9l32.8 59.6c8.7 18.3 27.1 38.3 42.7 58.7 15.6 20.4 27.7 40.9 26 56.6zm163.3-556.3c-2.7-5.2-8-10-17.2-13.8-19-8.2-27.3-8.8-37.9-15.7-17.3-11-31.5-15-43.4-14.9a51.2 51.2 0 0 0-16.7 2.8c-14.5 5-24 15.4-30 21v.1l-6.5 4.9a1636.9 1636.9 0 0 0-17.2 12.7c-7.1 5.4-9.5 12.3-7 20.4 2.5 8.2 10.3 17.5 24.6 25.7 9 5.2 15 12.3 22 17.9 3.5 2.8 7.2 5.3 11.6 7.2 4.4 1.9 9.6 3.1 16 3.5a62 62 0 0 0 36.2-9.3c10-5.6 18.3-12.5 27.8-15.6 19.8-6.2 33.8-18.6 38.2-30.3a19.9 19.9 0 0 0-.5-16.6z"/>
  <path fill="#fff" d="M622.4 595.5c-2.2-.1-4.3 0-6.4 0h-.6c5.4-17-6.5-29.5-38.1-43.8-32.9-14.5-59-13-63.5 16.3a64 64 0 0 0-.6 4.6 49.8 49.8 0 0 0-7.4 3.3c-15.4 8.5-23.9 23.8-28.5 42.6-4.7 18.7-6 41.4-7.3 66.9-.8 12.8-6.1 30.1-11.5 48.5-53.7 38.4-128.4 55-191.8 11.7a281.6 281.6 0 0 0-14.3-20.1 885.2 885.2 0 0 0-9.8-12.6c6.5 0 12-1.1 16.5-3.1 5.5-2.5 9.4-6.6 11.4-11.8 3.8-10.4 0-25-12.4-41.8-12.4-16.7-33.3-35.6-64.1-54.5a90.7 90.7 0 0 1-41.2-50c-6-18.8-5.1-39-.5-59 8.7-38.4 31.2-75.7 45.6-99.1 3.8-2.9 1.4 5.2-14.6 34.8-14.2 27-40.9 89.4-4.4 138 1-34.6 9.3-70 23.2-103 20.2-45.8 62.5-125.3 65.9-188.7a175.1 175.1 0 0 0 10.3 6.8c7.8 4.5 13.6 11.2 21.2 17.3a52.2 52.2 0 0 0 35.3 12.3 70 70 0 0 0 35.7-10.3c10.4-6 18.7-12.5 26.6-15a71.3 71.3 0 0 0 37.4-25.2c13 51 43 124.5 62.3 160.4a373 373 0 0 1 39.5 108.2c5.6-.2 11.7.6 18.3 2.3 23-59.8-19.6-124.2-39-142.1-8-7.7-8.3-11-4.4-11a206 206 0 0 1 59 98.9c4.6 19.3 5.6 39.7.7 59.8l7.3 3.2c37 18 50.8 33.7 44.2 55.1zM434.5 174a64.6 64.6 0 0 1-5.5 27.5 53 53 0 0 1-7.7 12.8 252.8 252.8 0 0 0-13.4-5.5l-7.8-2.8c1.8-2 5.3-4.6 6.5-7.8a41 41 0 0 0 3.1-14.9l.1-.6c.1-5.3-.6-9.9-2.1-14.5a26.7 26.7 0 0 0-6.7-11.3c-3-2.9-6-4.2-9.5-4.3h-.5a14 14 0 0 0-9.3 3.6c-3.2 2.7-5.6 6-7.5 10.8a41.4 41.4 0 0 0-3.1 15v.6c-.1 3 0 5.8.6 8.6-7-3.5-15.7-6-21.8-7.4a73.6 73.6 0 0 1-.6-8.2v-.7c-.1-10 1.5-18.7 5.4-27.5 3.9-8.8 8.7-15 15.4-20.2a34 34 0 0 1 21.2-7.5h.4a34 34 0 0 1 21 7.1 48 48 0 0 1 15.8 19.9 64 64 0 0 1 6 26.6v.7zm-116 10a64 64 0 0 0-3 1c-5.5 2-9.9 4-14.1 6.8.4-3 .5-5.9.1-9.2v-.5a40 40 0 0 0-3-11.8 22.6 22.6 0 0 0-5.9-8.7 9.6 9.6 0 0 0-6.5-2.7h-.7c-2.6.2-4.8 1.5-6.8 4-2 2.4-3.3 5.5-4.3 9.5a38.5 38.5 0 0 0-.8 12.6v.5a39 39 0 0 0 3 11.9 22.5 22.5 0 0 0 7 9.6c-2.4 2-4.1 3.3-6.2 4.8l-4.8 3.5c-4-3.8-7.1-8.5-9.8-14.7a65.9 65.9 0 0 1-5.5-23.4v-.1c-.5-8.7.3-16.2 2.7-24a41 41 0 0 1 10.3-17.9 22 22 0 0 1 15-7.2h1.2a22 22 0 0 1 14.4 5.5c5.2 4 9 9.3 12.3 16.7a64.9 64.9 0 0 1 5.4 23.4c.3 3.7.2 7.2 0 10.5z"/>
  <path fill="#222" d="M382.9 261.7c-15.6 8.2-34 18-53.4 18s-34.7-9-45.8-17.7c-5.5-4.4-10-8.7-13.4-11.9-5.8-4.6-5.1-11-2.7-10.9 4 .5 4.6 5.9 7.2 8.2 3.4 3.2 7.7 7.4 13 11.6a67.2 67.2 0 0 0 41.7 16.3c17.5 0 37.8-10.2 50.1-17.2 7-4 16-11 23.3-16.4 5.6-4 5.4-9 10-8.4 4.6.5 1.2 5.4-5.2 11s-16.6 13.2-24.8 17.4zM344 204.9c.7 2 4 1.7 6 2.7 1.7.9 3 2.8 5 2.9 1.8 0 4.6-.7 4.9-2.5.3-2.4-3.2-3.9-5.4-4.8-3-1-6.6-1.6-9.3-.1-.7.3-1.3 1.1-1.1 1.8zm-19.7 0c-.6 2-4 1.7-6 2.7-1.6.9-3 2.8-4.9 2.9-1.8 0-4.6-.7-4.9-2.5-.3-2.4 3.2-3.9 5.5-4.8 2.8-1 6.5-1.6 9.2-.1.7.3 1.3 1.1 1.1 1.8z"/>
</svg>
