<svg xmlns="http://www.w3.org/2000/svg" viewBox="0 0 115.3 122.9">
  <path fill-rule="evenodd" d="M25.4 57h64.9V37.3H69.6c-2.2 0-5.2-1.1-6.6-2.6a9.4 9.4 0 0 1-2.3-6.1v-21H8l-.4.2-.2.4v106.5l.2.4.4.2h81.6l.2-.2c.2 0 .3-.3.3-.4v-11.2H25.5a7.6 7.6 0 0 1-7.6-7.5V64.5c0-4.1 3.4-7.5 7.6-7.5zm4 11.4H37v18.1h11.7v6H29.5V68.3zm20.5 12c0-3.9 1-7 3.3-9.1 2.2-2.2 5.2-3.3 9.1-3.3 4 0 7.1 1 9.3 3.2 2.2 2.1 3.2 5.2 3.2 9 0 2.9-.4 5.2-1.4 7-1 1.8-2.3 3.2-4.1 4.2-1.8 1-4 1.5-6.7 1.5s-5-.5-6.7-1.3a10 10 0 0 1-4.4-4.1 13.6 13.6 0 0 1-1.6-7zm7.4 0c0 2.5.5 4.2 1.4 5.3.9 1 2.1 1.6 3.7 1.6s2.8-.6 3.7-1.6c.9-1 1.3-2.9 1.3-5.6 0-2.3-.5-4-1.4-5-.9-1-2.1-1.5-3.7-1.5-1.5 0-2.7.5-3.6 1.6-1 1-1.4 2.8-1.4 5.2zm33.1 3.3v-5H102V89a23.7 23.7 0 0 1-5.8 3 19.9 19.9 0 0 1-13-.6 10 10 0 0 1-4.2-4.4c-1-1.9-1.5-4.1-1.5-6.6 0-2.6.6-5 1.6-6.8 1.1-2 2.7-3.5 4.8-4.5 1.6-.7 3.8-1.1 6.6-1.1 2.6 0 4.6.2 6 .7 1.3.5 2.3 1.2 3.2 2.2a10 10 0 0 1 2 3.9L94.4 76A4 4 0 0 0 93 74c-.7-.5-1.6-.8-2.7-.8-1.6 0-3 .6-3.9 1.7-1 1.2-1.4 3-1.4 5.4 0 2.6.5 4.5 1.4 5.6 1 1 2.4 1.7 4.1 1.7.9 0 1.7-.2 2.4-.4.8-.2 1.6-.7 2.6-1.2v-2.3h-5zM97.8 57h10c4 0 7.5 3.4 7.5 7.6V96c0 4.1-3.4 7.5-7.6 7.5h-10v13.6a5.8 5.8 0 0 1-5.7 5.8H5.8c-1.6 0-3-.7-4-1.7-1.2-1-1.8-2.5-1.8-4.1V5.8A5.8 5.8 0 0 1 5.8 0H65c.7 0 1.3.3 1.8.7.2 0 .2 0 .3.2l30 30.3c.5.5.9 1.2.9 2l-.1.7V57zM67.5 28V9L89 30.5H70.2c-.8 0-1.4-.3-1.9-.7-.5-.5-.8-1.2-.8-2z"/>
</svg>
