<svg xmlns="http://www.w3.org/2000/svg" viewBox="0 0 100 93">
  <path fill="#fff" d="M.68 58.98l-.66-9.81 30.24-35.75 40.72-.3 28.97 36.12-.63 9.76-49.88 24.44z"/>
  <path fill="#031C5B" d="M66.93 35.89l7.7 23.05h1.73v.02h22.97c-.47 4.02-1.2 7.59-2.16 10.66-1.88 6-4.82 10.68-8.8 14.05-4 3.35-9.12 5.65-15.33 6.84-6.23 1.2-13.62 1.81-22.18 1.81-9.14 0-16.9-.58-23.3-1.72-6.4-1.14-11.63-3.37-15.74-6.68-4.11-3.3-7.11-7.96-9-13.95A59.49 59.49 0 0 1 .64 58.96h23v-.02h1.72l7.72-23.05 14.14 42.2h5.57l14.13-42.2zM51.03 0c8.66 0 16.1.49 22.24 1.46 6.18.97 11.22 3.1 15.17 6.33 3.95 3.25 6.84 7.9 8.73 13.96 1.89 6.05 2.83 14.2 2.83 24.5 0 1-.03 1.99-.04 2.96H81.41L69.7 14.22h-5.55L49.99 56.46 35.85 14.2H30.3l-11.72 35H.03L0 46.24c0-9.93 1-17.91 3-23.98 2-6.04 5.07-10.74 9.24-14.04 4.17-3.3 9.48-5.5 15.93-6.58C34.62.55 42.23 0 51.03 0z"/>
</svg>
