<svg xmlns="http://www.w3.org/2000/svg" viewBox="0 0 130.5 290.6">
  <path fill="#10aa50" d="M128 115.6C112.8 48.1 81 30.1 72.8 17.4 69.3 11.8 66.3 6 63.7 0c-.4 6-1.1 9.8-6.2 14.3C47.3 23.4 3.7 58.9.2 135.6c-3.5 71.7 52.5 115.7 60 120.3 5.7 2.8 12.6 0 16-2.6 27-18.5 63.9-67.9 52-137.7"/>
  <path fill="#b8c4c2" d="M66.2 217.8a147 147 0 0 1-6 38s2.4 17 4 34.8H70a325 325 0 0 1 6.4-37.4c-7.5-3.7-10-19.9-10.2-35.4z"/>
  <path fill="#12924f" d="M76.4 253.3c-7.6-3.6-9.8-20.1-10.2-35.5 1.9-25.4 2.4-51 1.7-76.4-.4-13.3.2-123.7-3.3-140 2.3 5.5 5 10.9 8 16 8 12.7 40 30.7 55.4 98.2 12 69.7-24.7 119-51.7 137.6z"/>
</svg>
