<svg xmlns="http://www.w3.org/2000/svg" viewBox="0 0 50 50">
  <path fill="#556080" d="M37.864 39.174H11.639a1.85 1.85 0 0 1-1.859-1.858v-6.092c0-1.032.826-1.859 1.859-1.859h26.225c1.032 0 1.859.827 1.859 1.859v6.092a1.85 1.85 0 0 1-1.859 1.858z"/>
  <path fill="#8697cb" d="M12.878 34.27c0-1.391 1.506-2.26 2.71-1.565a1.808 1.808 0 0 1-1.807 3.129 1.805 1.805 0 0 1-.903-1.564zm21.682-.775a.517.517 0 1 1 1.034.002.517.517 0 0 1-1.034-.002zm-2.065 0a.516.516 0 1 1 1.033 0 .516.516 0 0 1-1.033 0zm3.098 1.549a.516.516 0 1 1 1.033 0 .516.516 0 0 1-1.033 0zm-2.066 0a.517.517 0 1 1 1.034.002.517.517 0 0 1-1.034-.002zm-3.097-1.549a.517.517 0 1 1 1.034.002.517.517 0 0 1-1.034-.002zm1.033 1.549a.516.516 0 1 1 1.032 0 .516.516 0 0 1-1.032 0zm-3.098-1.549a.516.516 0 1 1 1.033 0 .516.516 0 0 1-1.033 0zm1.032 1.549a.517.517 0 1 1 1.034.002.517.517 0 0 1-1.034-.002zM26.3 33.495a.517.517 0 1 1 1.034.002.517.517 0 0 1-1.034-.002zm1.033 1.549a.516.516 0 1 1 1.032 0 .516.516 0 0 1-1.032 0z"/>
  <path fill="#333" d="M15 19h20v2H15z"/>
  <path fill="#333" d="M18.771 8.269L35.545 19.16l-1.09 1.678L17.682 9.946z"/>
  <circle cx="35" cy="20" r="4" fill="#aaa"/>
  <circle cx="35" cy="20" r="2" fill="#fff"/>
  <circle cx="20" cy="10" r="4" fill="#aaa"/>
  <circle cx="20" cy="10" r="2" fill="#fff"/>
  <circle cx="15" cy="20" r="4" fill="#aaa"/>
  <circle cx="15" cy="20" r="2" fill="#fff"/>
  <text x="17" y="35.7" fill="#fff" font-family="sans-serif" font-size="4">
    UDP
  </text>
  <text x="25" y="28" font-family="sans-serif" font-size="5" text-anchor="middle">
    multicast
  </text>
</svg>
