<svg xmlns="http://www.w3.org/2000/svg" viewBox="0 0 192.6 100">
  <path fill="#fff" d="M0 91.1h6.4V66l9.9 22c1.1 2.6 2.7 3.6 5.8 3.6 3.2 0 4.7-1 5.9-3.6l9.8-22v25.2h6.4V66c0-2.4-1-3.6-3-4.2-4.8-1.5-8-.2-9.5 3L22 86.5l-9.4-21.8c-1.5-3.2-4.7-4.5-9.6-3-2 .6-3 1.8-3 4.2v25.2zM49.5 70.6H56v13.9c0 .7.3 2.5 3.7 2.5h14V70.5h6.3v22.7c0 5.5-6.9 6.8-10 6.8H49.6v-4.3h20.2c4-.4 3.6-2.4 3.6-3.1v-1.7H59.9c-6.3 0-10.3-2.8-10.4-6 0-.3.2-14.2 0-14.3zM187 54.6c-4-.1-7 .3-9.6 1.3-.7.3-1.9.3-2 1.3.4.4.5 1 .8 1.5.6 1 1.6 2.3 2.6 3l3 2.3c2 1.1 4.1 1.8 6 3l3.2 2.3c.6.4 1 1 1.6 1.3v-.2c-.4-.4-.5-1-.8-1.5l-1.5-1.5c-1.4-1.9-3.1-3.5-5-5-1.6-1-5-2.4-5.7-4.3 1-.1 2.3-.5 3.3-.8 1.7-.5 3.2-.4 4.9-.8l2.3-.7v-.4l-2.4-3a65 65 0 0 0-8-6c-1.6-1-3.5-1.6-5.2-2.4-.5-.3-1.5-.4-1.9-1-.8-1-1.3-2.4-2-3.7-1.4-2.7-2.8-5.6-4-8.5-.9-1.9-1.4-3.8-2.5-5.6A49.3 49.3 0 0 0 145.2 7c-1.8-1-4-1.5-6.2-2l-3.7-.2c-.8-.4-1.6-1.3-2.3-1.8-2.7-1.7-10-5.5-12-.5-1.3 3.2 2 6.3 3 8 1 1 2 2.3 2.6 3.6.3.8.4 1.7.8 2.6.7 2.1 1.5 4.5 2.5 6.5.5 1 1.1 2.1 1.8 3 .4.6 1 .9 1.2 1.7-.6 1-.7 2.5-1 3.7C130 37 130.6 44 133.1 48c.8 1.2 2.7 4 5.2 3 2.2-1 1.7-3.8 2.3-6.2.2-.6 0-1 .4-1.4v.1l2 4a28 28 0 0 0 6.3 6.6c1.2 1 2.1 2.4 3.6 3v-.2h-.1l-1.1-1c-1-.8-1.9-2-2.6-2.9-2-2.7-3.8-5.8-5.5-8.9l-2-4.7c-.4-.6-.4-1.4-.8-1.7-.8 1-1.8 2-2.4 3.3-1 2-1 4.7-1.4 7.4h-.2c-1.5-.3-2-2-2.6-3.3-1.5-3.5-1.8-9-.5-13 .4-1 1.8-4.3 1.2-5.3-.3-1-1.2-1.5-1.8-2.2-.6-1-1.3-2-1.7-3.1-1.2-2.8-1.8-5.8-3-8.5-.6-1.3-1.7-2.6-2.5-3.8-1-1.3-2-2.2-2.7-3.8-.2-.5-.6-1.4-.2-2 .1-.4.3-.5.7-.6.6-.6 2.4 0 3 .4a25 25 0 0 1 5 2.4c.6.5 1.3 1.5 2.2 1.7h1c1.6.3 3.4 0 4.8.5a43.4 43.4 0 0 1 22.3 20l1.4 3.5c1 2.4 2.3 4.8 3.3 7.1s2 4.7 3.5 6.6c.7 1 3.7 1.6 5 2l3.4 1.5a85 85 0 0 1 4.8 3.3c.8.6 3.3 1.8 3.4 2.8zM137 12c-.8 0-1.4.2-2 .3v.1h.1c.4.8 1.1 1.4 1.6 2l1.1 2.4.1-.1c.7-.5 1-1.3 1-2.5l-.5-1c-.3-.5-1-.7-1.4-1.1z"/>
  <path fill="#f57900" d="M84.8 91.1h18.4a14 14 0 0 0 5.9-1.2c2.8-1.3 4-3 4-5.3V80c0-1.9-1.4-3.6-4.5-4.7a16 16 0 0 0-5.4-1h-7.7c-2.6 0-3.8-.8-4.2-2.5v-3.5-.5c.4-1.3 1-1.6 3.3-1.9h18.8v-4.2H95.5c-2.6 0-4 .1-5.1.5-3.8 1.2-5.5 3-5.5 6.3v3.7c0 3 3.3 5.4 8.7 6h9.2c2 .2 2.9.6 3.4 1.3.4.4.5.7.5 1.2v3.7c0 .4-.3 1-.8 1.5-.6.5-1.6.8-2.8.9H84.8v4.3zM153 83.7c0 4.4 3.3 6.8 9.8 7.3l1.9.1h16.6v-4.3h-16.8c-3.7 0-5.1-.9-5.1-3.1v-22H153v22zM117.2 84V68.7c0-4 2.8-6.3 8.1-7H141c5.3.7 8 3 8 7v15.1c0 3.1-1.1 4.8-3.8 6l6.3 5.6H144l-5-4.6-5.2.3H127a15 15 0 0 1-3.7-.5c-4-1.1-6-3.3-6-6.8zm7-.4v.6c.4 1.8 2 2.7 4.6 2.7h5.8l-5.3-4.7h7.4l4.6 4.2a3 3 0 0 0 1.7-2V69v-.5c-.4-1.7-2-2.6-4.5-2.6h-9.7c-2.8 0-4.7 1.2-4.7 3.1v14.5zM184.2 91.2h1v-3.6h1.2v-.8H183v.8h1.2v3.6zm7.1 0h.9v-4.4h-1.3l-1 3-1.3-3h-1.2v4.4h.8v-3.3l1.3 3.3h.6l1.2-3.3v3.3z"/>
</svg>
