<svg xmlns="http://www.w3.org/2000/svg" viewBox="0 0 250.2 100">
  <path fill="#fff" d="M163 61.3a27 27 0 0 1-3.1 10 12 12 0 0 1-10.8 6.3 12 12 0 0 1-10.7-6.4c-2.7-4.2-4-11.3-4-21 0-9.8 1.4-16.8 4-21.1 2.6-4.2 6.1-6.4 10.5-6.4 4.5 0 8.1 2 10.8 6.3 1.8 3 2.9 6.4 3.3 10h21.7a52.7 52.7 0 0 0-9-26A31.3 31.3 0 0 0 149 .1a31 31 0 0 0-26.6 13.2c-6.3 8.8-9.6 21-9.6 36.8 0 11.3 1.7 20.7 5 28.2a36.3 36.3 0 0 0 12.5 16.4 34.4 34.4 0 0 0 19.5 5.3c7.8 0 14.3-2 19.5-6A37 37 0 0 0 181 77a65 65 0 0 0 3.5-15.7H163zM0 0h19.9l25.9 55.2V0h20v99.8h-20L19.9 45v54.8H0V0zm80.8 0h21.4v99.8H80.8V0zm111.4 0h57v21.3h-35.7V37h33.2v20.3h-33.2v19.8h36.7v22.6h-58V0z"/>
  <path fill="#0067AD" d="M58 38.2h22.7v22.6H58.1zm44.2 0H125v22.6h-22.7zm82.2 0H207v22.6h-22.6z"/>
</svg>
