<svg xmlns="http://www.w3.org/2000/svg" viewBox="0 0 85 24">
  <path fill="#293e40" d="M.5 23V1h5.7v1.7A9.6 9.6 0 0 1 12.3.5 9.9 9.9 0 0 1 19.9 4c1.5 1.8 2.3 4 2.3 7.8v11.1h-5.9V11.3c0-2.2-.5-3.3-1.3-4.1a4.6 4.6 0 0 0-3.3-1.3 7 7 0 0 0-5.2 2.8V23z"/>
  <path fill="#81b5a1" d="M37.3.5a12.9 12.9 0 0 0-8.8 22.2 2.5 2.5 0 0 0 3.3.2 9.2 9.2 0 0 1 11 0 2.5 2.5 0 0 0 3.3-.2A12.9 12.9 0 0 0 37.3.5m0 19.3a6.3 6.3 0 0 1-4.7-1.8 6.2 6.2 0 0 1-1.8-4.6 6.4 6.4 0 0 1 9.7-5.9 6.4 6.4 0 0 1 3 6 6.2 6.2 0 0 1-1.8 4.6 6.3 6.3 0 0 1-4.6 1.8"/>
  <path fill="#293e40" d="M66.4 10.5l-4.7 12.4h-4.4L48.5.9h5.8l4.9 12.6L63.9 1h5l4.6 12.5L78.3 1h5.8l-8.7 22h-4.3z"/>
</svg>
