<svg xmlns="http://www.w3.org/2000/svg" viewBox="0 0 94.6 100">
  <path fill="#2e9bdd" d="M6.3 75.9c7.5-4.9 16.4-13.2 13-23-1.8-5.3-4.3-9.9-4.7-15.7A35.3 35.3 0 0 1 16.8 23a36.4 36.4 0 0 1 45-21.3C78.4 6.6 90 26.2 83 43.2c-4 9.8-5.8 17.4 3.2 25 2.4 2 8.3 5.2 8.3 8.8 0 4.8-9.5-1-10.6-1.8 1.2 2 13.1 14.5 5.6 15.4-7 .8-13.1-9-17.3-13.1-7-7-5.8 8.5-5.9 11.7 0 5-3.6 15.3-10 8.6-5.3-5.5-3.3-14.3-7-20.4-4-6.7-10.7 6.7-12.4 9.1-1.9 2.8-11.3 16-15 9-3-5.7 1.8-14.8 4.2-20-.9 2-7 4.7-8.8 5.6-4 2-8.2 3.3-12.8 3-9.4-.7-2.2-5.7 1.7-8.2 1.3-.8-1.2.8 0 0"/>
</svg>
