<svg xmlns="http://www.w3.org/2000/svg" viewBox="0 0 50 50">
  <path fill="#556080" d="M 37.864 19.557 L 11.639 19.557 C 10.606 19.557 9.78 18.731 9.78 17.698 L 9.78 11.607 C 9.78 10.574 10.606 9.748 11.639 9.748 L 37.864 9.748 C 38.896 9.748 39.723 10.574 39.723 11.607 L 39.723 17.698 C 39.723 18.731 38.896 19.557 37.864 19.557 Z"/>
  <path fill="#38454f" d="M 37.864 29.365 L 11.639 29.365 C 10.606 29.365 9.78 28.54 9.78 27.507 L 9.78 21.415 C 9.78 20.383 10.606 19.557 11.639 19.557 L 37.864 19.557 C 38.896 19.557 39.723 20.383 39.723 21.415 L 39.723 27.507 C 39.723 28.54 38.896 29.365 37.864 29.365 Z"/>
  <path fill="#556080" d="M 37.864 39.174 L 11.639 39.174 C 10.606 39.174 9.78 38.349 9.78 37.316 L 9.78 31.224 C 9.78 30.192 10.606 29.365 11.639 29.365 L 37.864 29.365 C 38.896 29.365 39.723 30.192 39.723 31.224 L 39.723 37.316 C 39.723 38.349 38.896 39.174 37.864 39.174 Z"/>
  <path fill="#8697cb" d="M 12.878 14.653 C 12.878 13.261 14.384 12.393 15.588 13.088 C 16.147 13.411 16.491 14.007 16.491 14.653 C 16.491 16.043 14.985 16.912 13.781 16.217 C 13.222 15.894 12.878 15.298 12.878 14.653 Z M 34.56 13.878 C 34.56 13.481 34.99 13.232 35.335 13.431 C 35.494 13.524 35.593 13.694 35.593 13.878 C 35.593 14.275 35.163 14.524 34.818 14.325 C 34.658 14.232 34.56 14.062 34.56 13.878 Z M 32.495 13.878 C 32.495 13.481 32.925 13.232 33.269 13.431 C 33.429 13.524 33.527 13.694 33.527 13.878 C 33.527 14.275 33.098 14.524 32.753 14.325 C 32.594 14.232 32.495 14.062 32.495 13.878 Z M 35.593 15.427 C 35.593 15.03 36.023 14.781 36.367 14.98 C 36.526 15.072 36.625 15.242 36.625 15.427 C 36.625 15.824 36.195 16.072 35.851 15.874 C 35.692 15.781 35.593 15.611 35.593 15.427 Z M 33.527 15.427 C 33.527 15.03 33.958 14.781 34.302 14.98 C 34.462 15.072 34.56 15.242 34.56 15.427 C 34.56 15.824 34.13 16.072 33.786 15.874 C 33.626 15.781 33.527 15.611 33.527 15.427 Z M 30.43 13.878 C 30.43 13.481 30.86 13.232 31.205 13.431 C 31.364 13.524 31.463 13.694 31.463 13.878 C 31.463 14.275 31.033 14.524 30.688 14.325 C 30.528 14.232 30.43 14.062 30.43 13.878 Z M 31.463 15.427 C 31.463 15.03 31.892 14.781 32.237 14.98 C 32.396 15.072 32.495 15.242 32.495 15.427 C 32.495 15.824 32.065 16.072 31.721 15.874 C 31.561 15.781 31.463 15.611 31.463 15.427 Z M 28.365 13.878 C 28.365 13.481 28.795 13.232 29.139 13.431 C 29.299 13.524 29.397 13.694 29.397 13.878 C 29.397 14.275 28.967 14.524 28.624 14.325 C 28.464 14.232 28.365 14.062 28.365 13.878 Z M 29.397 15.427 C 29.397 15.03 29.828 14.781 30.172 14.98 C 30.332 15.072 30.43 15.242 30.43 15.427 C 30.43 15.824 30 16.072 29.656 15.874 C 29.496 15.781 29.397 15.611 29.397 15.427 Z M 26.3 13.878 C 26.3 13.481 26.73 13.232 27.075 13.431 C 27.234 13.524 27.333 13.694 27.333 13.878 C 27.333 14.275 26.903 14.524 26.558 14.325 C 26.398 14.232 26.3 14.062 26.3 13.878 Z M 27.333 15.427 C 27.333 15.03 27.762 14.781 28.107 14.98 C 28.266 15.072 28.365 15.242 28.365 15.427 C 28.365 15.824 27.935 16.072 27.591 15.874 C 27.431 15.781 27.333 15.611 27.333 15.427 Z M 12.878 24.462 C 12.878 23.07 14.384 22.201 15.588 22.896 C 16.147 23.219 16.491 23.816 16.491 24.462 C 16.491 25.852 14.985 26.721 13.781 26.026 C 13.222 25.703 12.878 25.106 12.878 24.462 Z M 34.56 23.687 C 34.56 23.289 34.99 23.041 35.335 23.24 C 35.494 23.332 35.593 23.502 35.593 23.687 C 35.593 24.084 35.163 24.333 34.818 24.134 C 34.658 24.041 34.56 23.871 34.56 23.687 Z M 32.495 23.687 C 32.495 23.289 32.925 23.041 33.269 23.24 C 33.429 23.332 33.527 23.502 33.527 23.687 C 33.527 24.084 33.098 24.333 32.753 24.134 C 32.594 24.041 32.495 23.871 32.495 23.687 Z M 35.593 25.235 C 35.593 24.838 36.023 24.59 36.367 24.789 C 36.526 24.881 36.625 25.051 36.625 25.235 C 36.625 25.633 36.195 25.881 35.851 25.682 C 35.692 25.59 35.593 25.42 35.593 25.235 Z M 33.527 25.235 C 33.527 24.838 33.958 24.59 34.302 24.789 C 34.462 24.881 34.56 25.051 34.56 25.235 C 34.56 25.633 34.13 25.881 33.786 25.682 C 33.626 25.59 33.527 25.42 33.527 25.235 Z M 30.43 23.687 C 30.43 23.289 30.86 23.041 31.205 23.24 C 31.364 23.332 31.463 23.502 31.463 23.687 C 31.463 24.084 31.033 24.333 30.688 24.134 C 30.528 24.041 30.43 23.871 30.43 23.687 Z M 31.463 25.235 C 31.463 24.838 31.892 24.59 32.237 24.789 C 32.396 24.881 32.495 25.051 32.495 25.235 C 32.495 25.633 32.065 25.881 31.721 25.682 C 31.561 25.59 31.463 25.42 31.463 25.235 Z M 28.365 23.687 C 28.365 23.289 28.795 23.041 29.139 23.24 C 29.299 23.332 29.397 23.502 29.397 23.687 C 29.397 24.084 28.967 24.333 28.624 24.134 C 28.464 24.041 28.365 23.871 28.365 23.687 Z M 29.397 25.235 C 29.397 24.838 29.828 24.59 30.172 24.789 C 30.332 24.881 30.43 25.051 30.43 25.235 C 30.43 25.633 30 25.881 29.656 25.682 C 29.496 25.59 29.397 25.42 29.397 25.235 Z M 26.3 23.687 C 26.3 23.289 26.73 23.041 27.075 23.24 C 27.234 23.332 27.333 23.502 27.333 23.687 C 27.333 24.084 26.903 24.333 26.558 24.134 C 26.398 24.041 26.3 23.871 26.3 23.687 Z M 27.333 25.235 C 27.333 24.838 27.762 24.59 28.107 24.789 C 28.266 24.881 28.365 25.051 28.365 25.235 C 28.365 25.633 27.935 25.881 27.591 25.682 C 27.431 25.59 27.333 25.42 27.333 25.235 Z M 12.878 34.27 C 12.878 32.879 14.384 32.01 15.588 32.705 C 16.147 33.028 16.491 33.625 16.491 34.27 C 16.491 35.661 14.985 36.53 13.781 35.834 C 13.222 35.512 12.878 34.915 12.878 34.27 Z M 34.56 33.495 C 34.56 33.098 34.99 32.85 35.335 33.048 C 35.494 33.141 35.593 33.311 35.593 33.495 C 35.593 33.893 35.163 34.142 34.818 33.942 C 34.658 33.851 34.56 33.68 34.56 33.495 Z M 32.495 33.495 C 32.495 33.098 32.925 32.85 33.269 33.048 C 33.429 33.141 33.527 33.311 33.527 33.495 C 33.527 33.893 33.098 34.142 32.753 33.942 C 32.594 33.851 32.495 33.68 32.495 33.495 Z M 35.593 35.044 C 35.593 34.647 36.023 34.399 36.367 34.597 C 36.526 34.69 36.625 34.86 36.625 35.044 C 36.625 35.442 36.195 35.69 35.851 35.491 C 35.692 35.399 35.593 35.229 35.593 35.044 Z M 33.527 35.044 C 33.527 34.647 33.958 34.399 34.302 34.597 C 34.462 34.69 34.56 34.86 34.56 35.044 C 34.56 35.442 34.13 35.69 33.786 35.491 C 33.626 35.399 33.527 35.229 33.527 35.044 Z M 30.43 33.495 C 30.43 33.098 30.86 32.85 31.205 33.048 C 31.364 33.141 31.463 33.311 31.463 33.495 C 31.463 33.893 31.033 34.142 30.688 33.942 C 30.528 33.851 30.43 33.68 30.43 33.495 Z M 31.463 35.044 C 31.463 34.647 31.892 34.399 32.237 34.597 C 32.396 34.69 32.495 34.86 32.495 35.044 C 32.495 35.442 32.065 35.69 31.721 35.491 C 31.561 35.399 31.463 35.229 31.463 35.044 Z M 28.365 33.495 C 28.365 33.098 28.795 32.85 29.139 33.048 C 29.299 33.141 29.397 33.311 29.397 33.495 C 29.397 33.893 28.967 34.142 28.624 33.942 C 28.464 33.851 28.365 33.68 28.365 33.495 Z M 29.397 35.044 C 29.397 34.647 29.828 34.399 30.172 34.597 C 30.332 34.69 30.43 34.86 30.43 35.044 C 30.43 35.442 30 35.69 29.656 35.491 C 29.496 35.399 29.397 35.229 29.397 35.044 Z M 26.3 33.495 C 26.3 33.098 26.73 32.85 27.075 33.048 C 27.234 33.141 27.333 33.311 27.333 33.495 C 27.333 33.893 26.903 34.142 26.558 33.942 C 26.398 33.851 26.3 33.68 26.3 33.495 Z M 27.333 35.044 C 27.333 34.647 27.762 34.399 28.107 34.597 C 28.266 34.69 28.365 34.86 28.365 35.044 C 28.365 35.442 27.935 35.69 27.591 35.491 C 27.431 35.399 27.333 35.229 27.333 35.044 Z"/>
  <path fill="#b1d3ef" d="M 29.914 31.947 L 40.239 31.947 L 40.239 40.207 L 29.914 40.207 Z"/>
  <path fill="#556080" d="M 36.625 35.561 C 36.636 34.369 35.353 33.611 34.315 34.197 C 33.277 34.783 33.263 36.274 34.29 36.88 C 34.375 36.931 34.466 36.973 34.56 37.006 L 34.56 38.142 C 34.56 38.539 34.99 38.787 35.335 38.589 C 35.494 38.496 35.593 38.326 35.593 38.142 L 35.593 37.006 C 36.207 36.789 36.619 36.212 36.625 35.561 Z"/>
  <path fill="#bdc3c7" d="M 32.495 30.914 C 32.495 28.927 34.646 27.685 36.367 28.679 C 37.166 29.14 37.657 29.993 37.657 30.914 L 37.657 31.947 L 38.69 31.947 L 38.69 30.914 C 38.69 28.132 35.679 26.394 33.269 27.785 C 32.151 28.43 31.463 29.623 31.463 30.914 L 31.463 31.947 L 32.495 31.947 L 32.495 30.914 Z"/>
</svg>