<svg xmlns="http://www.w3.org/2000/svg" viewBox="0 0 100 87.748">
  <path fill="#1279D5" d="M 1.438 0.711 C 0.983 1.08 0.443 1.762 0.273 2.188 C 0.045 2.785 -0.04 10.345 0.017 30.609 L 0.102 58.205 L 0.813 58.972 C 2.262 60.564 1.864 60.535 21.276 60.535 L 39.18 60.535 L 39.237 63.861 C 39.379 70.71 39.095 72.358 37.447 73.723 C 36.225 74.774 34.917 75.03 30.995 75.03 C 23.663 75.03 19.627 77.076 19.911 80.657 L 19.997 81.709 L 36.424 81.794 L 52.822 81.851 L 51.515 80.089 C 49.866 77.872 47.65 73.268 46.882 70.539 C 45.547 65.68 45.518 60.336 46.854 55.42 C 47.166 54.255 47.422 53.203 47.422 53.061 C 47.422 52.947 38.47 52.862 27.528 52.862 L 7.634 52.862 L 7.634 7.389 L 82.095 7.389 L 82.152 20.917 L 82.237 34.446 L 84.227 35.071 C 85.335 35.44 87.012 36.122 88.007 36.605 L 89.769 37.515 L 89.769 20.321 C 89.769 1.336 89.797 1.677 88.007 0.568 C 87.069 0 86.699 0 44.665 0 L 2.291 0 L 1.438 0.711 Z"/>
  <path fill="#D24726" d="M 70.812 38.225 C 65.27 39.22 60.922 41.607 56.886 45.842 C 47.962 55.249 47.962 70.369 56.886 79.776 C 59.302 82.334 61.632 84.039 64.503 85.403 C 71.921 88.899 80.703 88.473 88.063 84.21 C 90.337 82.874 94.97 78.327 96.249 76.11 C 98.835 71.733 100 67.555 100 62.809 C 100 58.063 98.835 53.857 96.249 49.508 C 94.884 47.178 90.593 42.943 88.149 41.522 C 82.72 38.339 76.638 37.174 70.812 38.225 Z M 86.017 48.826 C 86.5 49.48 86.927 50.134 86.927 50.333 C 86.927 50.531 85.534 52.123 83.8 53.857 C 82.095 55.619 80.674 57.239 80.674 57.494 C 80.674 57.779 82.01 59.37 83.658 61.075 C 85.648 63.15 86.642 64.372 86.642 64.798 C 86.642 65.68 84.369 67.925 83.459 67.925 C 82.919 67.925 81.584 66.731 77.889 62.98 C 75.104 60.166 73.001 57.807 73.001 57.494 C 73.001 56.954 82.465 47.348 83.232 47.093 C 83.886 46.894 84.994 47.576 86.017 48.826 Z M 72.12 62.468 C 76.269 66.475 77.065 67.356 77.065 68.038 C 77.065 68.721 76.241 69.687 72.091 73.779 C 69.363 76.508 66.976 78.724 66.805 78.724 C 66.606 78.724 65.81 78.128 65.043 77.417 C 62.968 75.485 63.053 75.172 66.436 71.79 C 67.999 70.227 69.334 68.721 69.42 68.379 C 69.533 67.953 68.88 67.101 66.464 64.656 C 64.673 62.866 63.338 61.274 63.338 60.962 C 63.338 60.223 65.867 57.693 66.606 57.693 C 66.947 57.722 69.079 59.541 72.12 62.468 Z"/>
</svg>