<svg xmlns="http://www.w3.org/2000/svg" viewBox="0 0 92.061 22.851">
  <path fill="#e50000" d="M 21.696 16.368 C 21.493 16.951 21.396 17.603 21.396 18.306 C 21.396 20.679 23.176 22.733 26.144 22.733 C 28.866 22.733 30.424 21.593 31.133 20.835 L 31.228 20.835 L 31.088 22.281 L 37.921 22.281 L 39.605 14.421 C 39.674 14.081 39.729 13.756 39.764 13.446 L 21.696 16.368 M 30.086 11.781 C 30.281 10.844 30.996 10.101 31.903 10.101 C 32.826 10.101 33.203 10.886 33.04 11.683 L 32.923 12.256 L 39.741 11.543 C 39.225 8.06 35.971 6.548 32.189 6.548 C 26.556 6.548 23.865 9.348 23.334 11.825 L 23.26 12.175 L 30.006 12.175 L 30.086 11.781 Z M 31.928 16.959 C 31.711 18.104 30.934 19.006 29.84 19.006 C 28.81 19.006 28.343 18.161 28.539 17.24 C 28.705 16.465 29.513 15.69 31.011 15.69 L 32.198 15.69 L 31.928 16.959 Z M 50.152 11.759 C 49.678 12.394 49.296 13.311 48.993 14.693 C 48.346 17.681 49.051 18.462 49.933 18.462 C 51.112 18.462 52.109 17.342 52.599 14.737 C 52.913 13.077 52.866 11.883 52.416 11.393 L 59.711 10.212 C 60.068 11.369 60.127 12.856 59.784 14.552 C 58.716 19.918 55.432 22.733 51.766 22.733 C 50.106 22.733 48.293 22.301 47.539 20.533 L 47.384 20.533 L 46.794 22.281 L 40.192 22.281 L 42.152 13.054 L 50.152 11.759 M 50.547 8.283 C 51.121 7.817 52.536 6.733 54.701 6.733 C 56.899 6.733 58.589 7.689 59.431 9.493 L 42.534 11.252 L 44.806 0.566 L 52.083 0.566 L 50.444 8.283 L 50.547 8.283 Z M 7.675 18.641 L 8.314 15.573 L 0.054 15.573 C -0.519 20.769 3.561 22.851 8.794 22.851 C 13.817 22.851 19.129 21.175 20.311 16.593 L 7.675 18.64 M 7.4 13.453 C 4.471 12.526 2.261 10.801 2.261 7.533 C 2.261 2.753 7.034 0.015 13.421 0 C 18.831 -0.02 22.411 2.235 21.781 6.733 L 14.081 6.733 C 14.353 5.503 13.646 4.806 12.329 4.806 C 11.305 4.806 10.513 5.336 10.386 5.958 C 10.208 6.848 10.778 7.408 12.158 7.783 C 13.321 8.1 14.116 8.311 15.26 8.638 C 18.516 9.57 20.074 11.514 20.476 13.548 L 10.801 14.546 L 7.401 13.453 Z M 73.61 6.999 C 72.002 6.999 70.715 7.926 69.846 9.119 L 69.714 9.119 L 69.939 7.182 L 63.189 7.182 L 62.779 9.147 L 66.504 8.758 L 66.421 9.129 L 62.641 9.743 L 59.98 22.281 L 67.257 22.281 C 67.257 22.281 68.009 18.678 68.467 16.568 C 69.2 13.202 71.047 12.441 72.277 12.441 C 73.315 12.441 73.964 12.909 74.125 13.041 L 75.316 7.428 C 75.201 7.363 74.58 7 73.61 7 M 85.78 12.868 L 85.855 12.518 C 86.075 11.35 85.515 10.466 84.292 10.466 C 83.165 10.466 82.203 11.275 81.865 12.868 L 85.78 12.868 M 91.186 17.438 C 90.06 20.635 86.962 22.733 81.881 22.733 C 77.651 22.733 73.573 20.273 74.58 14.638 C 75.422 9.895 79.78 6.735 84.763 6.735 C 90.345 6.735 92.783 10.567 91.877 15.035 L 91.66 16.058 L 81.176 16.058 C 81.071 16.429 81.015 16.813 81.01 17.198 C 81.01 18.538 81.72 19.008 82.626 19.008 C 83.561 19.008 84.365 18.485 84.807 17.438 L 91.186 17.438 Z"></path>
</svg>