<svg xmlns="http://www.w3.org/2000/svg" viewBox="0 0 66 25">
  <path fill="#00DC00" d="M52.97 7.99c0-3.14 2.35-4.66 4.89-4.66 2.53 0 4.82 1.54 4.82 4.66h-9.71zM57.4 0c-5.17 0-8.55 3.59-8.55 9.5 0 7.36 5.17 9.47 8.87 9.47 4.68 0 7.35-3.19 7.35-3.19l-2.38-2.42a6.8 6.8 0 0 1-4.91 1.84c-2.9 0-4.84-1.7-4.84-4.04H65.8S68.04 0 57.41 0zM10.75 7.67c-1.6-.2-6.23-.02-6.23-2.21 0-1.3 1.94-2 3.73-2a9.22 9.22 0 0 1 5.3 1.58l2.4-2.5A12 12 0 0 0 8.25 0C4.3 0 .75 2.15.75 5.6c0 5.28 6.13 5.28 8.7 5.54 1.54.15 2.96.27 2.96 1.85 0 1.47-2.17 2.29-3.84 2.29a7.97 7.97 0 0 1-5.98-2.44L0 15.54a11.63 11.63 0 0 0 8.34 3.43c4.6 0 7.95-2.1 7.95-6.34 0-2.8-1.82-4.48-5.54-4.96m17.31 4.3c0 3.51-2.42 3.32-4.58 3.32-2.18 0-3.58-.62-3.58-2.2 0-1.46 1.14-1.95 3.49-1.95h4.67v.8zM24.02 0c-4 0-6.6 2.11-7.08 2.54l2.43 2.5a7.47 7.47 0 0 1 4.68-1.56c3.07 0 3.98 1.26 3.98 2.7v1.78h-5.46c-2.02 0-6 .53-6 5.13 0 3.39 1.88 5.88 6.35 5.88 2.24 0 3.94-.76 5.1-2.21v1.83H32V6.43C32 2.2 29.48 0 24.02 0zm20.42 9.18c0 1.38-.02 2.4-.13 2.91-.23 1.14-1.56 2.65-3.97 2.65-.6 0-3.7-.34-4.05-2.96a19.2 19.2 0 0 1-.12-2.6c0-2.04.1-2.69.2-3.2.2-1.03 1.58-2.55 3.97-2.55 2.92 0 3.86 1.95 4 2.7.1.53.12 1.68.12 3.05zm0-8.8v1.97A6.58 6.58 0 0 0 39.14 0c-3.86 0-5.85 2.12-6.52 4.37-.25.84-.33 2.44-.33 4.8 0 2.23.02 4.26.8 5.82 1.12 2.18 3.8 3.4 6.05 3.4 2.18 0 4.03-.83 5.3-2.26v1.1a3.3 3.3 0 0 1-1.3 2.83 5.21 5.21 0 0 1-3.4 1.1 6.4 6.4 0 0 1-3.37-1.22l-2.74 2.68c1.77 1.4 3.9 2.36 6.18 2.38 2.43.02 4.38-.7 6.1-2.02 1.63-1.26 2.66-3.62 2.66-6.14V.38h-4.13z"/>
</svg>
