<svg xmlns="http://www.w3.org/2000/svg" viewBox="0 0 17 18">
  <path fill="#5FC2FF" d="M10.7 8.56l-.57.17s.14-.02.15.1l.1 1.24-.04.05a14.51 14.51 0 0 1-1.5-.95l.1-.05-.73.26c.1-.02.11.01.11.14l.01.2a5.3 5.3 0 0 1-.26 1.5c-.04.1-.07.12-.15.05A3.4 3.4 0 0 1 7 10.05c-.04-.1-.06-.14-.02-.18l-.3.12c.04.03.08.06.1.1.13.34.32.66.57.93.12.14.25.26.38.38.04.04.1.06.13.12-.78.35-1.56.6-2.38.86l.06-.13c.41-.67.75-1.37 1.03-2.1a.52.52 0 0 1 .05-.1L6.7 10l-.48.2A9.97 9.97 0 0 1 5 12.4a1.54 1.54 0 0 1-.23-.6 1.92 1.92 0 0 1 0-.81.33.33 0 0 1 .12-.2 9 9 0 0 0-.46.23l-.05.38a1.88 1.88 0 0 0 .24 1.06c.07.14.07.15-.09.2l-2.16.62c-.04.02-.1.02-.17.03l.08-.3a3.1 3.1 0 0 1 1.21-1.46c.18-.11.35-.22.54-.32a20.16 20.16 0 0 0-.75.4l-.35.28c-.38.3-.7.66-.94 1.1a1.44 1.44 0 0 0-.21.66c0 .4.18.74.44 1.04.28.3.62.56.98.77.65.4 1.36.62 2.1.8.61.14 1.25.25 1.89.34.52.07 1.05.1 1.57.14.16.02.26-.03.32-.18.22-.48.46-.94.67-1.42a10.82 10.82 0 0 0 .96-4.2c.04-.74 0-1.47-.1-2.2-.03-.17-.03-.2.1-.23zM8.35 11a6.8 6.8 0 0 0 .2-1.63c0-.15.04-.16.17-.1l1.6.9.05.06c-.64.47-1.34.8-2.06 1.11l-.02-.03.08-.3zm-.26.87c.05-.14.05-.15.19-.07a6.9 6.9 0 0 0 1.77.7l.13.05c-.17.18-2.58 1.18-2.93 1.21l.06-.14c.3-.56.57-1.14.78-1.75zm-.34 0l.03.02-.04.14a16.27 16.27 0 0 1-.93 1.84c-.05.08-.08.13-.2.07a5.22 5.22 0 0 1-1.28-1.08l-.1-.13c.88-.24 1.72-.5 2.53-.87zm-4.63 3.07c-.37-.32-.7-.68-.86-1.15-.03-.07-.04-.14-.05-.2-.02-.1.01-.15.1-.17l2.27-.53h.08l-.06.13-1.33 1.89c-.04.06-.08.1-.15.03zm.22.16c0-.05 0-.11.04-.15l.9-1.17.68-.8c.39.46.84.82 1.39 1.12l-.2.1-2.6.9-.03.02-.18-.03zm2 .96c-.6-.2-1.2-.4-1.72-.76l-.07-.05v-.05l2.94-.8-.1.18L5.48 16c-.04.06-.08.1-.15.07zm.3.07l-.03-.04.11-.12 1.07-1.45c.1-.15.1-.15.26-.1a8.71 8.71 0 0 0 2.15.53l.22.03.03.02c-.13.12-2.65.9-3.62 1.13h-.2zm3.82-.9L9 16.48c-.08.2-.1.2-.31.16a641.91 641.91 0 0 1-2.4-.38l-.26-.07v-.05l.2-.05c.75-.18 1.52-.34 2.25-.62.27-.1.54-.23.8-.34l.2-.08-.02.14zm.62-2.08c-.15.53-.3 1.07-.47 1.6-.05.2-.06.19-.26.15a9.17 9.17 0 0 1-2.07-.63l-.2-.1 3.1-1.46c-.03.15-.05.3-.1.44zm.31-2.33c-.02.37-.05.73-.09 1.1a4.45 4.45 0 0 1-.04.37c-.04.2-.04.2-.23.14a6.37 6.37 0 0 1-1.36-.62l-.31-.2 2.03-1.23v.44zm-3.68-7.7a.23.23 0 0 1-.12-.06l-.93-.9c-.02 0-.02-.03-.04-.07.76.2 1.5.34 2.27.4l-.02.05-.12.06-.85.48a.32.32 0 0 1-.22.03zm.5.2l.1-.1.78-.53c.05-.05.1-.11.14 0l.4.77v.07l.46.07a.22.22 0 0 1-.17-.1 12.4 12.4 0 0 1-1.1-2.4C7.79 1 7.78.9 7.75.78h-.03L7.6.86c-.57.22-1.15.43-1.72.66-.47.2-.94.4-1.35.73-.14.1-.22.2-.24.28.07.2.51.3.51.3-.14-.04-.16-.08-.09-.22.12-.23.3-.38.52-.52.02-.01.08 0 .1.02l.77.98v.04l-.15-.03.77.15.5.08zm-1.3-1.46a11.65 11.65 0 0 1 1.53-.7c.1-.04.11-.03.13.07a4.5 4.5 0 0 0 .24 1l.01.07-2.02-.34-.01-.03.1-.07z"/>
  <path fill="#0072c6" d="M8.63 3.55l-1.41-.22-.5-.08-.63-.12c-.1-.02-.22-.03-.32-.06-.3-.07-.6-.13-.88-.21s-.56-.13-.6-.34c-.03.1.03.21.2.37l1.04 1.03a3.56 3.56 0 0 1 .83 3.94A5.9 5.9 0 0 1 5.33 9.6a14.7 14.7 0 0 1-2.06 2.04c.18-.08.78-.41 1.62-.83l.62-.3.5-.23.94-.4a69.59 69.59 0 0 1 1.12-.44h.02c.26-.11.54-.2.8-.28a.3.3 0 0 1 .03-.02l.39-.12c.26-.1.47-.16.68-.23l.06-.02a59.01 59.01 0 0 1 .53-.15.78.78 0 0 1 .1-.04c.64-.18 1.25-.36 1.86-.52 1.16-.3 2.33-.58 3.52-.77l.3-.08-.07-.12a5.75 5.75 0 0 0-1.94-1.9c-.8-.47-1.66-.8-2.55-1.03a21.8 21.8 0 0 0-2.66-.55 7.04 7.04 0 0 0-.5-.08zM7 5.55c0-.07.02-.1.1-.1.39.1.79.2 1.21.38L7.08 6.96l-.01-.08c.01-.44.03-.9-.06-1.33zm1.43.54a4.5 4.5 0 0 1-.65 1.6l-.68-.5c.42-.39.85-.76 1.33-1.1zm-.16 1.2c.2-.38.34-.76.42-1.17.02-.08.04-.13.13-.09l.94.48.04.04-1.6.87.07-.14zm.3-1.88c0 .07-.04.1-.1.08L7.15 5.1c-.02 0-.03-.02-.06-.05.36-.42.8-.74 1.27-1.08.1.25.15.5.17.73.03.23.02.47.02.7zm-1.95-.64a5.07 5.07 0 0 0-1.26-1.4l.02-.02c.03 0 .07 0 .1.02l.7.19c.06 0 .1.04.13.1l.32 1.05-.01.06zm.28.16l-.47-1.3 1.73.33.01.03c-.45.27-.9.54-1.27.94zm.04 2.68c.18.08.34.2.5.35l-1.03.78.53-1.1zM5.47 9.87l.59-.68a.55.55 0 0 1 .1-.09l1.07-.74.06-.02.02.03a6.68 6.68 0 0 1-1.88 1.58l.04-.08zm2.46-.8a23.5 23.5 0 0 0-.9.37L6 9.9l-.13.05-.02-.03.08-.07A8.91 8.91 0 0 0 7.6 8.28c.08-.1.1-.1.17 0 .12.2.2.4.25.6.02.1 0 .15-.1.19zm.25-.08l-.03-.16a1.77 1.77 0 0 0-.2-.78c-.02-.06-.06-.11.03-.16.57-.3 1.14-.62 1.72-.94h.07a22.09 22.09 0 0 1-1.6 2.04zm.26-.13l.08-.09a9.99 9.99 0 0 0 1.64-1.86c.04-.06.07-.1.15-.05.43.28.83.6 1.2.95l.04.05-3.11 1zm5.4-3.3a7.22 7.22 0 0 1 1.87 1.5l.05.09a22.47 22.47 0 0 0-3.65.6l-.02-.05.22-.2a5.83 5.83 0 0 0 1.35-1.86c.06-.14.07-.14.18-.07zm-.29-.06l-.07.14-.83 1.1-.73.93-.14.16a4.96 4.96 0 0 0-1.2-1.29c.95-.43 1.93-.8 2.94-1.07l.03.03zm-2.36-.94c.7.18 1.37.41 2.04.7a.59.59 0 0 1 .09.05l.04.06a17.06 17.06 0 0 0-2.78.86l-.03-.02.06-.14c.2-.45.35-.9.4-1.4 0-.13.04-.15.16-.1zm-.3.1c-.11.48-.3.92-.55 1.34-.15.3-.15.28-.43.13l-.74-.35-.17-.08v-.04a15.47 15.47 0 0 1 1.89-1.17v.17zm-2.12.81a3.7 3.7 0 0 0-.3-1.44c.75.12 1.45.23 2.17.4L8.79 5.47z"/>
</svg>
