<svg xmlns="http://www.w3.org/2000/svg" viewBox="0 0 50 49">
  <linearGradient id="a" x1="4.5" y1="10" x2="21.2" y2="38.8" gradientUnits="userSpaceOnUse">
    <stop offset="0" stop-color="#058f92"/>
    <stop offset=".5" stop-color="#038489"/>
    <stop offset="1" stop-color="#026d71"/>
  </linearGradient>
  <circle fill="#036C70" cx="25.59" cy="13.96" r="13.96"/>
  <circle fill="#1A9BA1" cx="37.22" cy="26.75" r="12.79"/>
  <circle fill="#37C6D0" cx="27.33" cy="38.96" r="9.89"/>
  <path fill-opacity=".1" d="M27.91 12.6V37.4a2.14 2.14 0 0 1-2.13 2.13h-8.32l-.01-.58c0-.2 0-.39.02-.58.21-3.72 2.5-7 5.92-8.48v-2.16a13.94 13.94 0 0 1-11.32-17.27h13.71c1.18 0 2.13.95 2.13 2.13z"/>
  <path fill-opacity=".2" d="M24.62 11.63h-12.8a13.94 13.94 0 0 0 12.1 16.18c-3.6 1.71-6.23 6.57-6.45 10.57-.02.2-.03.39-.02.58v.58c.03.4.08.78.16 1.17h7.01a2.14 2.14 0 0 0 2.13-2.13V13.76c0-1.17-.95-2.13-2.13-2.13z"/>
  <path fill-opacity=".2" d="M24.62 11.63h-12.8A13.94 13.94 0 0 0 23.7 27.8c-3.49 1.83-6.01 6.67-6.23 10.6h7.15c1.17-.02 2.12-.97 2.13-2.14v-22.5c0-1.16-.95-2.12-2.13-2.12z"/>
  <path fill-opacity=".2" d="M23.46 11.63H11.83a13.94 13.94 0 0 0 10.31 15.85 19.22 19.22 0 0 0-4.67 10.9h5.99c1.17 0 2.12-.95 2.13-2.13v-22.5c0-1.17-.96-2.12-2.13-2.12z"/>
  <rect fill="url(#a)" y="11.63" width="25.58" height="25.58" rx="2.13" />
  <path fill="#FFF" d="M9.52 24.16c-.5-.33-.91-.77-1.22-1.29a3.53 3.53 0 0 1-.42-1.76 3.4 3.4 0 0 1 .79-2.29 4.67 4.67 0 0 1 2.1-1.37c.92-.3 1.9-.45 2.87-.44 1.28-.04 2.56.14 3.78.54v2.67a5.85 5.85 0 0 0-1.71-.7 8.31 8.31 0 0 0-2-.23 4.33 4.33 0 0 0-2.06.43c-.5.21-.81.7-.81 1.24 0 .32.12.64.35.87.26.28.58.5.93.67a29.98 29.98 0 0 0 2 .86c.75.3 1.5.66 2.2 1.08.52.33.97.78 1.3 1.31.32.6.48 1.29.46 1.98.04.85-.23 1.7-.74 2.38a4.14 4.14 0 0 1-1.98 1.33c-.91.28-1.86.42-2.82.4-.86.01-1.71-.06-2.56-.2a8.7 8.7 0 0 1-2.07-.61V28.2a8.2 8.2 0 0 0 4.4 1.37 4 4 0 0 0 2.1-.45c.45-.25.72-.73.7-1.25.01-.36-.13-.7-.39-.96a3.97 3.97 0 0 0-1.09-.76c-.46-.23-1.15-.54-2.05-.92-.72-.29-1.41-.65-2.06-1.08z"/>
</svg>
