<svg xmlns="http://www.w3.org/2000/svg"  viewBox="0 0 112 17">
  <path fill="#224482" d="M25.2.645h6.42v11.8H25.2V.645zm-25 15c3.06.518 6.44.878 9.68.878 6.93 0 13.1-1.46 13.1-5.31 0-2.18-2.16-3.78-10.1-4.68-3.6-.381-4.5-.92-4.5-1.55 0-.99 1.44-1.69 5.31-1.69 1.66 0 4.49.271 6.57.652l2.29-2.88c-3.19-.609-6.43-1.01-9.9-1.01-5.89 0-12.6 1.55-12.6 4.91 0 3.02 3.69 3.96 7.34 4.5 3.64.539 7.29.671 7.29 2.11 0 1.46-2.66 1.71-5.17 1.71-2.21 0-5.31-.384-7.2-.674l-2.03 3.04zm33.8-3.08l16.3-.01v-2.47l-10.1.011.021-2.29h4.78l1.52-2.37h-6.27l-.006-2.26 10.2-.014.011-2.47-16.5.008v11.9zm38.9-.022l16.2.012v-2.47l-10-.006.005-2.27h4.78l1.52-2.37h-6.27l-.007-2.3 9.94-.04-.04-2.4h-16l-.02 11.9zm-20.1 0l10.5.012c4.7 0 7.78-.992 7.78-3.22 0-1.41-1.41-2.38-4.12-2.76v-.034c2.44-.36 3.84-1.44 3.84-2.69 0-2.37-3.74-3.15-8.33-3.15H52.8l-.007 11.9zm5.8-4.84h3.22c1.82 0 3.08.461 3.08 1.32 0 .91-1.06 1.27-2.92 1.27h-3.39v-2.59zm.069-4.75h2.91c1.72 0 3.26.223 3.26 1.27 0 .72-.992 1.22-2.98 1.22h-3.19v-2.49zm32.6 9.59l16.6.012-.013-2.57h-10.4l-.03-9.29h-6.11l-.005 11.9M109 11.2c0-.592.446-1.04 1.02-1.04.564 0 1.01.448 1.01 1.04 0 .601-.449 1.05-1.01 1.05-.572 0-1.02-.448-1.02-1.05m1.02 1.25c.682 0 1.26-.525 1.26-1.25 0-.72-.582-1.25-1.26-1.25-.691 0-1.27.53-1.27 1.25 0 .729.58 1.25 1.27 1.25m-.265-1.16h.251l.381.63h.246l-.412-.638c.212-.029.375-.144.375-.399 0-.285-.169-.412-.51-.412h-.551v1.45h.22v-.63zm0-.184v-.449h.298c.152 0 .312.034.312.212 0 .222-.164.236-.348.236h-.262"/>
</svg>
