<svg xmlns="http://www.w3.org/2000/svg" viewBox="0 0 100 100">
  <path fill="#00a9e8" d="M 96.141 58.142 C 101.924 26.073 73.933 -1.918 41.864 3.866 C 23.412 -6.966 0.156 6.24 0.001 27.635 C -0.035 32.662 1.293 37.605 3.845 41.937 C -1.897 73.987 26.078 101.934 58.121 96.162 C 76.593 106.957 99.825 93.705 99.937 72.31 C 99.963 67.333 98.651 62.44 96.141 58.142 Z"/>
  <path fill="#fff" d="M 71.913 92.648 C 68.243 92.648 64.781 91.652 61.635 90.026 L 59.432 88.663 L 56.968 89.187 C 29.832 93.988 6.197 70.325 11.029 43.197 L 11.554 40.679 L 9.981 38.372 C 2.043 24.495 12.102 7.23 28.088 7.294 C 31.691 7.308 35.227 8.26 38.351 10.054 L 40.553 11.365 L 43.019 10.84 C 45.325 10.525 47.633 10.211 49.993 10.211 C 74.675 10.218 93.351 32.534 89.008 56.831 L 88.485 59.348 L 89.796 61.446 C 91.568 64.578 92.472 68.127 92.417 71.724 C 92.622 83.2 83.39 92.621 71.913 92.648 Z M 58.488 45.504 L 48 43.197 C 44.015 42.2 39.557 41.046 39.557 37.218 C 39.557 33.443 42.704 30.767 48.472 30.767 C 60.272 30.767 59.275 38.896 65.096 38.896 C 68.085 38.896 70.707 37.218 70.707 34.071 C 70.707 26.73 59.17 21.328 49.154 21.328 C 38.56 21.328 27.234 25.629 27.234 37.9 C 27.234 43.72 29.278 50.066 40.658 53.002 L 54.922 56.674 C 59.275 57.67 60.585 60.135 60.585 62.284 C 60.585 65.956 56.81 69.942 50.307 69.942 C 37.512 69.942 39.4 59.768 32.582 59.768 C 29.593 59.768 27.129 61.971 27.129 64.96 C 27.129 70.885 34.365 79.066 50.307 79.066 C 65.62 79.066 73.224 71.41 73.224 61.446 C 73.067 54.838 70.077 48.178 58.488 45.504 Z"/>
</svg>