<svg xmlns="http://www.w3.org/2000/svg" viewBox="0 0 100 29.65">
  <path d="M10.7 17.93c0 .64-.14 1.29-.43 1.85a4.7 4.7 0 0 1-1.17 1.41c-.51.39-1.11.69-1.8.9a8.45 8.45 0 0 1-4.94-.04A9.02 9.02 0 0 1 0 20.72l1.29-2.1c.64.51 1.2.9 1.67 1.16.52.25 1.03.34 1.55.34.64 0 1.16-.17 1.54-.52.4-.34.6-.77.6-1.33 0-.25-.04-.47-.08-.68-.1-.23-.23-.45-.39-.64a4.17 4.17 0 0 0-.77-.73l-1.29-.95-1.16-.86c-.38-.3-.73-.65-1.03-.99-.3-.35-.56-.74-.77-1.16a3.87 3.87 0 0 1 1.16-4.5c.43-.35.99-.65 1.63-.87a8.11 8.11 0 0 1 4.34 0 7.9 7.9 0 0 1 2.02.9L9.15 9.7a4.4 4.4 0 0 0-2.53-.85c-.56 0-.99.13-1.33.43-.34.3-.51.64-.51 1.07 0 .38.17.77.47 1.07.3.35.86.78 1.6 1.38l1.9 1.46c.51.43.9.81 1.2 1.2.3.39.52.73.6 1.11.09.52.17.95.17 1.38m13.33-3.52c0-1.63-.35-2.96-1-3.91a3.23 3.23 0 0 0-2.74-1.42c-1.2 0-2.2.52-2.88 1.5-.73 1-1.07 2.37-1.07 4.13 0 1.67.34 3 1.03 4a3.33 3.33 0 0 0 2.88 1.45c.73 0 1.33-.17 1.8-.56.48-.39.87-.87 1.16-1.41.32-.59.52-1.23.6-1.9.17-.68.22-1.32.22-1.9m4.2-.17c0 1.2-.17 2.28-.55 3.27a8.38 8.38 0 0 1-1.5 2.62 6.57 6.57 0 0 1-2.33 1.72c-.9.43-1.84.6-2.87.6a6 6 0 0 1-2.45-.52c-.39-.2-.75-.44-1.08-.73-.39-.35-.76-.72-1.1-1.11l-.01 9.57h-3.9V7.02h3.87v2.2a6.31 6.31 0 0 1 2.27-1.93c.82-.44 1.8-.6 2.88-.6a6.2 6.2 0 0 1 4.8 2.1c.61.64 1.04 1.46 1.38 2.36.4.94.56 1.97.56 3.1m18.73 7.83v-2.01a7.53 7.53 0 0 1-2.37 1.84 6.5 6.5 0 0 1-2.8.56c-1.2 0-2.2-.21-3-.69A3.94 3.94 0 0 1 37 19.7c-.1-.22-.16-.45-.22-.69l-.13-.81a7.7 7.7 0 0 1-.08-1.08V7.07h4v8.63l.08 1.76c.08.38.21.77.38 1.07.48.86 1.29 1.29 2.45 1.29 1.5 0 2.53-.65 3.1-1.9.13-.35.26-.7.3-1.08.06-.55.09-1.11.09-1.67V7h3.99v15.13h-4.03zm17.13 0v-8.57l-.09-1.76a4.06 4.06 0 0 0-.38-1.08c-.48-.86-1.3-1.24-2.45-1.24-.67 0-1.34.15-1.93.47-.52.3-.95.77-1.2 1.37-.13.35-.26.7-.3 1.12-.05.39-.1.95-.1 1.63v8.12h-3.98V7.02h3.99v2.02a7.52 7.52 0 0 1 2.36-1.84 6.48 6.48 0 0 1 2.8-.56c1.2 0 2.2.25 3 .73a4.1 4.1 0 0 1 1.77 2.1c.09.22.17.43.21.69l.18.81c.05.36.08.72.08 1.08v10.04zm6.74 0h4v-7.98l6 8.29 3.7-1.28-6.06-7.52 5.1-5.5-3-1.28L75.22 13h-.43V0h-4zm-40.88.86h4V.84h-4z"/>
  <path fill="#989898" d="M87.94 9.9V7.2L100 13.25v2.45l-12.06 6v-2.65l9.35-4.6z"/>
</svg>
