<svg xmlns="http://www.w3.org/2000/svg" viewBox="0 0 18 18">
  <defs>
    <linearGradient id="a" x1=".5" x2="13.18" y1="10" y2="10" gradientUnits="userSpaceOnUse">
      <stop offset="0" stop-color="#005ba1"/>
      <stop offset=".07" stop-color="#0060a9"/>
      <stop offset=".36" stop-color="#0071c8"/>
      <stop offset=".52" stop-color="#0078d4"/>
      <stop offset=".64" stop-color="#0074cd"/>
      <stop offset=".82" stop-color="#006abb"/>
      <stop offset="1" stop-color="#005ba1"/>
    </linearGradient>
  </defs>
  <path fill="url(#a)" d="M6.84 5.09c-3.5 0-6.34-1-6.34-2.3V15c0 1.26 2.79 2.28 6.25 2.3h.09c3.5 0 6.34-1 6.34-2.3V2.79c0 1.27-2.84 2.3-6.34 2.3z"/>
  <path fill="#e8e8e8" d="M13.18 2.79c0 1.27-2.84 2.3-6.34 2.3S.5 4.06.5 2.79 3.34.5 6.84.5s6.34 1 6.34 2.29"/>
  <path fill="#50e6ff" d="M11.7 2.6c0 .81-2.18 1.46-4.86 1.46S2 3.41 2 2.6s2.16-1.46 4.84-1.46 4.86.66 4.86 1.46"/>
  <path fill="#198ab3" d="M6.84 2.94A12 12 0 0 0 3 3.49a11.25 11.25 0 0 0 3.85.57 11.25 11.25 0 0 0 3.85-.57 12 12 0 0 0-3.86-.55z"/>
  <path fill="#f2f2f2" d="M10.74 11.1V7.72h-.93v4.14h2.46v-.76zM3.59 9.43a1.92 1.92 0 0 1-.51-.31A.44.44 0 0 1 3 8.8a.38.38 0 0 1 .16-.31.72.72 0 0 1 .42-.11 1.67 1.67 0 0 1 1 .29v-.86a2.67 2.67 0 0 0-1-.16 1.74 1.74 0 0 0-1.2.35 1.13 1.13 0 0 0-.41.9c0 .5.32.9 1 1.2a2.9 2.9 0 0 1 .6.37.4.4 0 0 1 .17.32.38.38 0 0 1-.16.29.75.75 0 0 1-.45.12A1.6 1.6 0 0 1 2 10.78v.93a2.29 2.29 0 0 0 1.07.23 2 2 0 0 0 1.18-.32 1.1 1.1 0 0 0 .43-.92 1 1 0 0 0-.25-.7 2.42 2.42 0 0 0-.84-.56zM8.79 11a2.4 2.4 0 0 0 .33-1.27 2.32 2.32 0 0 0-.25-1.1 1.81 1.81 0 0 0-.7-.75 2 2 0 0 0-1-.26 2.18 2.18 0 0 0-1.09.27 1.87 1.87 0 0 0-.73.75 2.41 2.41 0 0 0-.26 1.15 2.26 2.26 0 0 0 .24 1.05 1.83 1.83 0 0 0 .68.75 2 2 0 0 0 1 .3l.85 1h1.19l-1.2-1.12a1.81 1.81 0 0 0 .94-.79zm-.93-.26a1 1 0 0 1-1.53 0 1.51 1.51 0 0 1-.28-1 1.48 1.48 0 0 1 .29-1 .92.92 0 0 1 .78-.37.89.89 0 0 1 .75.37 1.62 1.62 0 0 1 .27 1 1.46 1.46 0 0 1-.28 1.03z"/>
  <path fill="#949494" d="M14.81 17.49l.24-.79.47-.27.81.36.52-.53v-.06l-.37-.71.22-.5.81-.3h.1v-.72h-.1l-.8-.24-.25-.46.35-.82-.54-.51h-.06l-.71.36-.5-.3-.31-.9h-.74v.12l-.24.79-.51.22-.87-.4-.51.53.05.1.38.74-.2.5-.94.3v.74h.11l.81.24.22.5-.39.87.53.52.1-.05.73-.38.5.2.34.89h.73zm-1.2-2.36a1.06 1.06 0 1 1 1.5-1.52 1.06 1.06 0 0 1-1.5 1.52z"/>
</svg>
