<svg xmlns="http://www.w3.org/2000/svg" width="3840" height="2160" viewBox="0 0 2560 1440">
  <defs>
    <linearGradient id="a" x1="657" x2="1440" y1="0" y2="1357" gradientUnits="userSpaceOnUse">
      <stop offset="0" stop-color="#970032"/>
      <stop offset="1" stop-color="#ff5800"/>
    </linearGradient>
    <linearGradient id="b" x1="500.37" x2="564.29" y1="1331.09" y2="1313.96" gradientUnits="userSpaceOnUse">
      <stop offset=".2" stop-color="#ff5800"/>
      <stop offset=".42" stop-color="gold"/>
      <stop offset=".69" stop-color="gold"/>
      <stop offset=".9" stop-color="#ff5800"/>
    </linearGradient>
    <linearGradient id="c" x1="502.61" x2="569.49" y1="1337" y2="1337" gradientUnits="userSpaceOnUse">
      <stop offset=".09" stop-color="#ff5800"/>
      <stop offset=".35" stop-color="#fab31e"/>
      <stop offset=".58" stop-color="#fab31e"/>
      <stop offset=".82" stop-color="#ff5800"/>
    </linearGradient>
    <linearGradient id="d" x1="502.86" x2="571.45" y1="1327.17" y2="1341.75" gradientUnits="userSpaceOnUse">
      <stop offset=".5" stop-color="#ff5800"/>
      <stop offset=".64" stop-color="#ce076a"/>
      <stop offset=".87" stop-color="#ce076a"/>
      <stop offset=".95" stop-color="#ff5800"/>
    </linearGradient>
    <linearGradient id="e" x1="505.7" x2="572.88" y1="1353.12" y2="1343.68" gradientUnits="userSpaceOnUse">
      <stop offset=".15" stop-color="#ff5800"/>
      <stop offset=".3" stop-color="#c81517"/>
      <stop offset=".48" stop-color="#c81517"/>
      <stop offset=".91" stop-color="#ff5800"/>
    </linearGradient>
  </defs>
  <path id="thermal-background" fill="url(#a)" d="M0 0h2560v1440H0z"/>
  <g id="thermal-gradient-waves" fill="#dc4600" fill-opacity=".16">
    <path d="M3371.32 1440c-876.55 0 609.1-1681.9 106.58-1681.9-247.57 0-801.41 417.58-1405.7 832.98C1453.31 1016.53 776.8 1440 333.26 1440z"/>
    <path d="M2586.22 1440c-132.9-48.9-387.65-96.45-313.79-803.1 36.9-352.9 104.9-965.34-97.33-965.34-95.47 0-535.92 412.14-784.44 646.22C963.3 720.3 459.11 1287.56-109.34 1440z"/>
    <path d="M1851.1 1440c-268.48 0-425.86-202.79-543.1-424.76C1164.32 743.2 1074 443 877.28 443c-193.78 0-362.37 297.96-571.5 568.24C132 1235.85-79.28 1440-311.03 1440z"/>
  </g>
  <g transform="translate(0 30)">
    <path id="front-white-wave" fill="#fff" d="M-1280 2043.67v-633.6H149.9c285.73 0 326.3-210.73 490.1-210.73 163.78 0 203.95 210.73 489.64 210.73h1430.35v633.6z"/>
    <path id="avanade" fill="#ff5800" d="M603.17 1347.42c-1.16.33-2.5.49-3.99.49-3.76 0-5.64-1.37-5.64-4.1 0-2.85 2.07-4.28 6.23-4.28 1.68 0 2.82.1 3.4.3zm-5.25-23.37c-1.63 0-3.2.15-4.72.44-1.53.3-2.75.7-3.66 1.22l.5 4.57c1.35-.38 2.57-.66 3.64-.82a21.85 21.85 0 0 1 3.26-.25c4.16 0 6.23 1.6 6.23 4.78v1.07c-.97-.2-2.33-.3-4.08-.3-3.64 0-6.51.82-8.62 2.44a8 8 0 0 0-3.16 6.71c0 5.85 3.99 8.77 11.97 8.77 3.25 0 6.62-.49 10.13-1.46v-16.75c0-6.94-3.84-10.42-11.5-10.42M612.23 1324.74h6.9l6.73 21.03 6.81-21.03h6.62L628.97 1352h-6.42zM656.62 1347.42c-1.17.33-2.5.49-3.99.49-3.76 0-5.65-1.37-5.65-4.1 0-2.85 2.08-4.28 6.23-4.28 1.7 0 2.83.1 3.41.3zm-5.25-23.37c-1.63 0-3.2.15-4.73.44-1.52.3-2.74.7-3.65 1.22l.49 4.57c1.36-.38 2.58-.66 3.65-.82a21.85 21.85 0 0 1 3.26-.25c4.15 0 6.23 1.6 6.23 4.78v1.07c-.97-.2-2.33-.3-4.09-.3-3.63 0-6.5.82-8.61 2.44a8 8 0 0 0-3.17 6.71c0 5.85 4 8.77 11.98 8.77 3.24 0 6.62-.49 10.12-1.46v-16.75c0-6.94-3.83-10.42-11.48-10.42M686.95 1335.93c0-2.46-.47-4.17-1.4-5.1-.95-.95-2.62-1.42-5.02-1.42-.59.01-1.28.08-2.1.2a22.65 22.65 0 0 0-2.28.5v21.9h-6.33v-25.9a27.54 27.54 0 0 1 5.55-1.5 35.7 35.7 0 0 1 6.03-.54c7.92 0 11.88 3.57 11.88 10.7V1352h-6.33zM714.12 1347.42c-1.17.33-2.5.49-4 .49-3.76 0-5.64-1.37-5.64-4.1 0-2.85 2.08-4.28 6.23-4.28 1.69 0 2.82.1 3.4.3zm-5.26-23.37c-1.62 0-3.2.15-4.72.44-1.53.3-2.74.7-3.65 1.22l.48 4.57c1.37-.38 2.58-.66 3.65-.82a21.85 21.85 0 0 1 3.27-.25c4.15 0 6.23 1.6 6.23 4.78v1.07c-.98-.2-2.34-.3-4.1-.3-3.63 0-6.5.82-8.6 2.44a8 8 0 0 0-3.17 6.71c0 5.85 3.99 8.77 11.97 8.77 3.25 0 6.62-.49 10.13-1.46v-16.75c0-6.94-3.83-10.42-11.5-10.42M743.9 1347.03c-.7.26-2 .4-3.89.4-5.38 0-8.08-2.96-8.08-8.87 0-2.98.7-5.29 2.1-6.91 1.4-1.62 3.35-2.44 5.89-2.44 1.55 0 2.88.23 3.99.69zm0-32.8v10.4a14.8 14.8 0 0 0-4.57-.58c-4.15 0-7.53 1.35-10.12 4.04-2.6 2.7-3.9 6.22-3.9 10.57 0 4.54 1.27 8.01 3.8 10.41 2.54 2.4 6.24 3.6 11.1 3.6 3.06 0 6.4-.48 10.04-1.45v-37zM761.82 1335.54c.2-2.07.83-3.7 1.9-4.86a5.35 5.35 0 0 1 4.14-1.76 5.2 5.2 0 0 1 4.09 1.76c1.03 1.16 1.55 2.79 1.55 4.86zm17.82 1.37c0-3.95-1.04-7.08-3.12-9.39-2.08-2.3-4.9-3.46-8.47-3.46-3.9 0-7 1.3-9.3 3.9-2.3 2.6-3.45 6.13-3.45 10.61s1.23 7.95 3.7 10.42c2.46 2.47 5.97 3.7 10.51 3.7 2.99 0 5.81-.52 8.47-1.56l-.68-4.77c-2.27.78-4.7 1.17-7.3 1.17-5.32 0-8.05-2.4-8.18-7.2h17.82z"/>
    <g id="logo">
      <path fill="url(#b)" d="M529.2 1296.3a12.15 12.15 0 0 0-3.76 2.46 27.07 27.07 0 0 0-4 4.85 64.72 64.72 0 0 0-4.4 7.88 211.67 211.67 0 0 1-5.44 10.58 69.23 69.23 0 0 1-3.88 6.26 23.04 23.04 0 0 1-3.13 3.66 42.16 42.16 0 0 1-3.3 2.66l1.07 1.63c1.92-1.2 3.5-2.27 4.76-3.27 1.26-1 2.44-2.26 3.56-3.82a57.07 57.07 0 0 0 3.68-6.08 641.97 641.97 0 0 0 5.23-10.02 84.21 84.21 0 0 1 3.9-6.96 31.7 31.7 0 0 1 3.34-4.49 9.9 9.9 0 0 1 3-2.35 6.43 6.43 0 0 1 2.93-.6c.94.03 1.87.31 2.78.85a12.03 12.03 0 0 1 3.13 3.06 51.5 51.5 0 0 1 4 6.35 287.8 287.8 0 0 1 5.48 10.57 70.84 70.84 0 0 0 5.1 8.94 29.77 29.77 0 0 0 5.09 5.81 18.17 18.17 0 0 0 5.69 3.35 30.4 30.4 0 0 0 6.99 1.52l-1.34-2.3a34.04 34.04 0 0 1-5.73-2.24 19.17 19.17 0 0 1-4.63-3.3 28.32 28.32 0 0 1-4.13-5.18 75.81 75.81 0 0 1-4.27-7.8 187.79 187.79 0 0 0-6.06-11.74 44.16 44.16 0 0 0-4.64-6.83 12.45 12.45 0 0 0-3.83-3.2 9.1 9.1 0 0 0-3.53-.87 9.36 9.36 0 0 0-3.68.62"/>
      <path fill="url(#c)" d="M511.23 1331.23a24.21 24.21 0 0 0-6.62 2.58l-2 .98 1.08 1.25c2.4-.92 4.86-1.6 7.34-2.05a34.83 34.83 0 0 1 7.38-.54 18.63 18.63 0 0 1 4.63.72c1.45.43 2.87.95 4.27 1.56a55.41 55.41 0 0 1 4.09 2.03 67.2 67.2 0 0 0 4.24 2.13 38.99 38.99 0 0 0 6.76 2.44 40.53 40.53 0 0 0 9.07 1.2c7.73.27 13.74-.96 18.02-3.69l-.3-1.7a41.52 41.52 0 0 1-8.23 1.93 54.55 54.55 0 0 1-9.4.46 35.33 35.33 0 0 1-8.4-1.14 47.41 47.41 0 0 1-6.3-2.28 58.35 58.35 0 0 1-4.42-2.18 66.83 66.83 0 0 0-4.24-2.13 29.67 29.67 0 0 0-4.5-1.6 22.67 22.67 0 0 0-5.18-.76 27.04 27.04 0 0 0-.87 0 27.3 27.3 0 0 0-6.42.79"/>
      <path fill="url(#d)" d="M552.07 1315.3a13.25 13.25 0 0 0-4.15 3.25 58.73 58.73 0 0 0-5.2 6.77 366.24 366.24 0 0 0-7.33 11.36c-3.26 5.23-6.22 8.97-8.9 11.27-2.66 2.28-5.33 3.38-7.94 3.3-2.8-.1-5.47-1.6-8-4.48-2.54-2.86-4.62-6.72-6.27-11.54l-2.97-.58c1.6 6.07 3.98 10.83 7.11 14.27 3.12 3.43 6.47 5.2 10.03 5.33 3.37.11 6.59-1.1 9.65-3.66s6.38-6.72 9.95-12.5c2.67-4.22 4.87-7.68 6.65-10.33a60.96 60.96 0 0 1 4.67-6.28 14.4 14.4 0 0 1 3.53-3.12 6.12 6.12 0 0 1 3.23-.79c2.35.08 4.57 1.72 6.67 4.9 2.06 3.17 4.12 8.08 6.13 14.73l3.24 1.33c-2.04-8.02-4.36-14-6.97-17.92-2.62-3.9-5.6-5.92-9-6.04a9.53 9.53 0 0 0-.38 0 9.36 9.36 0 0 0-3.76.75"/>
      <path fill="url(#e)" d="M503.47 1337.16c2.49.27 4.66.7 6.53 1.27a24.24 24.24 0 0 1 5.3 2.34 28.15 28.15 0 0 1 5.07 3.94 100.87 100.87 0 0 1 5.7 6.02 475.61 475.61 0 0 0 6.85 7.72 45.77 45.77 0 0 0 4.72 4.6 13.57 13.57 0 0 0 3.53 2.18 10.72 10.72 0 0 0 3.4.64 10.12 10.12 0 0 0 6.4-2c1.96-1.39 4.19-3.78 6.68-7.14 1.84-2.44 3.34-4.45 4.54-6a326.47 326.47 0 0 1 3.22-4.2 115.65 115.65 0 0 1 3-3.66 345.5 345.5 0 0 1 3.76-4.35l-1.84-1a664.73 664.73 0 0 0-4.08 4 66.99 66.99 0 0 0-3.21 3.41 73.84 73.84 0 0 0-3.33 4.11 976 976 0 0 1-4.53 5.9c-2.34 3.13-4.3 5.23-5.84 6.34a7.44 7.44 0 0 1-4.65 1.57 7.63 7.63 0 0 1-2.5-.5c-.8-.3-1.8-.98-2.94-1.99a61.97 61.97 0 0 1-4.35-4.33c-1.76-1.87-4-4.4-6.77-7.58a75.1 75.1 0 0 0-6.08-6.36 29.73 29.73 0 0 0-5.39-4 20.77 20.77 0 0 0-5.65-2.18 51.54 51.54 0 0 0-6.8-.99z"/>
    </g>
  </g>
</svg>
