<svg xmlns="http://www.w3.org/2000/svg" viewBox="0 0 95.5 100">
  <circle fill="#fff" cx="46.615" cy="53.933" r="46.13" transform="matrix(0.956533, 0.211266, -0.305872, 1.037166, 18.845452, -16.381289)"/>
  <path fill="#318DDE" d="M 69.645 4.681 C 57.305 28.369 34.61 56.879 4.255 73.475 C 6.099 77.305 8.085 80.993 10.922 83.972 C 36.454 66.383 60.709 36.454 74.043 7.092 C 73.05 6.667 71.631 5.674 69.645 4.681 Z M 68.794 4.255 C 62.695 1.418 55.461 0 47.943 0 C 20 0 0 21.844 0 50.213 C 0 54.894 0.426 59.716 1.418 63.972 C 30.355 52.199 55.887 26.525 68.794 4.255 M 19.007 91.489 C 26.525 96.738 36.596 100 47.518 100 C 75.461 100 95.461 78.156 95.461 49.787 C 95.461 30.78 87.376 16.17 75.035 8.085 C 60.284 43.688 42.27 69.645 19.007 91.489 Z"/>
</svg>