<svg xmlns="http://www.w3.org/2000/svg" viewBox="0 0 260 184">
  <path fill="#ffdc76" d="M152.22 27.22s32.7-8.5 65.25-.15l13.64-23.75s23.6 83.43-45.9 120.96l-2.34-1.46S119.37 90.56 135.8 3.46"/>
  <path fill="#d1a41a" d="M1.17 176.7S45.69 83.24 136.12 63.89l2.77 8.85c-.02 0 14.26 36.5 46.34 52.54l4.8-1.94 39.82 42.87s22.12 0 26.27 15.2l-26.27-.27s-32.63-17.7-69.7-30.97c-37.05-13.28-128.03-43.7-134.94 26.27"/>
  <path fill="#000" d="M100.3 80.48l14-6.8 8 21.6zm-15.71 7.9l8.7-5.2 8 14.1zm-16.9 10.9l7.6-5 3.8 13zm134.6 36l-5-5-7 11zm10 12l-4-4-12 8zm-18-122.8l-14 .3 8 18.5zm-55 35.1l-2-7.9 14 7.1zm3 11.7l-1-5.2 8 3.3zm92-8.4l2-6-11 4.6zm-4 12.2l1-4.9-8 2.4zm-97 15.5h26.2v3.24h-26.2zm0-7.8h26.2v3.24h-26.2zm80 7.8h26.2v3.24h-26.2zm0-7.8h26.2v3.24h-26.2z"/>
  <path fill="#000" d="M204.29 63.58h-42.8v-2.92h13.3c1.61-7.02 1.93-13.7-.04-17.1a3.91 3.91 0 0 0-3.67-2.12c-7.6 0-10.8 8.05-10.9 8.4l-2.73-1.03c.15-.4 3.96-10.3 13.6-10.3a6.85 6.85 0 0 1 6.2 3.59c2.4 4.14 2.12 11.3.5 18.6h23.4c3.1-9.13 9.56-13.4 20.4-13.4v2.89c-11.7 0-15 4.98-17.4 10.5h12.7l-.05 2.9z"/>
  <path fill="#000" d="M206.29 77.98h.02c-3.46-5.1-4.55-9.46-3.11-14.4l-2.97.01c-1.04 3.3-.62 8.27 1.93 12.5h-29.7a69.9 69.9 0 0 0 4.7-12.5h-3.02a62.4 62.4 0 0 1-5.37 13.3l-.7 1.2 16.7 10.5-9.37 6.19 1.6 2.44 10.5-6.9 11.3 7.37 1.56-2.47-10.5-6.49s15.7-10.2 16.5-10.7V78zm-18.9 8.81l-12.3-7.75h24.1z"/>
  <path fill="#000" d="M239 33.13c-.03-5.05-1.59-26.4-4.47-32.27-7.79 2.98-21.97 12.65-25.14 22.51a155.57 155.57 0 0 0-47.92.6c-2.53-10.65-15.24-18.7-24.85-23.29-4.05 6.88-5.85 22.8-5.38 34.16-.02 0-.04.02-.05.03 1.78 47.5 24.94 77.1 55.24 95.02C217.6 111.96 239.89 77 239 33.19l.03.01zm-25.95-9.16zm-1.94-.34l.82.14-.82-.14zm23.07 12.95c.8 39.54-19.2 71.02-47.32 87.15-47.62-23.9-56.63-84.36-48.5-116.53 2.24 12.45 6.34 20.22 15.23 24 19.3-5.56 45.94-6 65.54-.56 8.17-5.98 11.4-15.14 13.07-23.1 2.16 9.27 1.9 29.37 1.92 29.37z"/>
  <path fill="#000" d="M254.83 173.27c-4.89-5.5-14.45-8.1-22.47-7.92-5.7-6.8-38.61-41.73-38.61-41.73l-2.29 2.9 39.8 43.02 1.72-.15c10.8-.93 16.93 4.96 18.6 6.8a13 13 0 0 1 2.3 3.52H232c-50.1-26.3-94.14-44.82-140.57-48.9.1-6.55 1.26-13.95 3.48-22.22l-4.3-1.17c-2.28 8.48-3.48 16.13-3.62 23a221.33 221.33 0 0 0-14.75-.5c-4.2 0-8.02.41-11.48 1.09a156.4 156.4 0 0 1-11.68-13.05c21.68-22.7 57.52-43.33 88.6-50.9l-1-4.38c-33.47 8.12-70.1 30.18-90.5 51.6-9.46-12.85-13.26-23.4-14.35-31.38-1.4-10.06 1-19.32 6.93-26.8 9.3-11.64 22.47-12.44 36.14-10.15-.27 2.16 0 4.22.87 5.5 3.6 5.34 22.87 7.22 34.46 2.04-8.52-11.95-25.74-17.83-30.5-15.54a8.19 8.19 0 0 0-3.6 3.88c-4.7-.85-9.36-1.48-12.76-1.46-11.98.1-21.2 4.3-28.02 12.85-6.73 8.42-9.45 18.83-7.87 30.18 1.5 10.76 6.8 22.2 15.64 34.06a284.8 284.8 0 0 0-4.26 4.7c-21.6 24.3-37.43 50.5-37.43 54.78v2.24h28.52l-.5-2.66c-1.62-8.56 1.6-19.32 8.2-27.3 4.13-5 10.98-10.74 21.77-13.43 9.57 9.4 21.78 19.32 35.35 28.98h21.18v-2.24a7.35 7.35 0 0 0-3.5-6.23c-3.35-2.2-8.52-2.5-13.27-.88-4.52-5.07-7.07-11.85-7.61-20.22 46.03 4.1 90 22.8 139.59 48.9h27.32l.36-1.8c.5-2.57-.88-6-3.7-9.2zm-220.77-26.7c-6.75 8.2-10.3 19.03-9.5 28.3H6.54c3.6-7.86 18.02-30.58 39.2-53.6 2.93 3.66 6.2 7.33 9.77 11.07a44.1 44.1 0 0 0-21.58 14.24z"/>
</svg>
