<svg xmlns="http://www.w3.org/2000/svg" viewBox="0 0 419.4 75.4">
  <path fill="#93EA20" d="M76.7 1.5a6.8 6.8 0 0 0-9.3 3.1L42.6 58.1c-.6 1.1-1.1 1.9-2.4 1.9-1.3 0-1.8-.8-2.4-1.9L13 4.7a6.6 6.6 0 0 0-9.3-3.1 7.5 7.5 0 0 0-3 9.8L25 60.8l2.8 5.6a14 14 0 0 0 12.4 8c5.3 0 10-3.1 12.4-8l2.8-5.6 24.2-49.5c1.8-3.6.5-7.9-2.9-9.8zM407 .7a12 12 0 0 0-10.7 6.9l-24.9 51.3c-.1.2-.5 1.1-1.3 1.1-.7 0-1.2-.8-1.3-1.1L344.2 8.1c-2.5-5-6.6-7.4-11-7.4-6.8 0-12.4 5.8-12.4 13.6V67c0 3.2 1.8 6.2 4.6 7.1 4.6 1.5 8.5-2.5 8.5-7.2l-1-51.3c0-.5.6-.7.9-.3L359 66.5c2.4 4.9 6.4 7.8 10.9 7.8s8.6-2.9 10.9-7.8l25.3-51.3c.2-.5.9-.3.9.3l-1 51.6c0 4.1 3.1 7.4 6.8 7.2 3.6-.1 6.4-3.6 6.4-7.5V14.3C419.4 6.4 413.8.8 407 .7zM312.2 63.7L284.3 8.6A13.8 13.8 0 0 0 271.9.7a14 14 0 0 0-12.4 8l-27.8 54.8-.1.2v.1c-1.3 2.6-1 5.5.5 7.7l.1.2.1.2a6.5 6.5 0 0 0 9 1.3l.1-.1.4-.3.3-.3.1-.1c.5-.5.9-1.1 1.3-1.8l1-2.2 5.8-12.2c.1-.3.5-.5.8-.5H277c3.4 0 6.2-2.9 6.2-6.6 0-3.6-2.8-6.6-6.2-6.6h-19.2c-.4 0-.7-.4-.5-.8l1.4-3 10.5-21.1v-.1l.1-.1c.2-.4.7-1.9 1.7-2.2.6-.2 1.1-.2 1.5 0 1.1.3 1.5 1.6 2 2.6l25.4 52.8a6.8 6.8 0 0 0 8.4 3.4l.1-.1.6-.3.2-.1.1-.1.2-.1.2-.2.2-.1.3-.2.3-.3.1-.1a7.1 7.1 0 0 0 1.6-8.7zM95.5 45.5h47c.9 0 8.2-.6 8.2-8.8 0-20.2-15.6-36.7-34.9-36.7s-35 16.5-35 36.7v1.9c0 23.1 14.8 35.6 34.5 36.7l2.8.1c7.6 0 13.9-2 20.9-6.3a25 25 0 0 0 6.3-5.9c2.3-2.9 2.4-7.2 0-9.5-3.5-3.3-7.2-1.5-10.4 1.3-5.1 4.3-9 7.7-19.2 7.7-9.6 0-18.6-5.5-20.8-16.4 0-.4.2-.8.6-.8zM94.9 32c1.3-10.6 8.6-20 20.8-20s19.9 9.2 21.1 20c0 .4-.2.8-.6.8H95.5c-.4-.1-.6-.4-.6-.8zM173.5 45.5h47c.9 0 8.2-.6 8.2-8.8C228.6 16.5 213 0 193.8 0s-34.9 16.5-34.9 36.7v1.9c0 23.1 14.8 35.6 34.5 36.7l2.8.1c7.6 0 13.9-2 20.9-6.3a25 25 0 0 0 6.3-5.9c2.3-2.9 2.4-7.2 0-9.5-3.5-3.3-7.2-1.5-10.4 1.3-5.1 4.3-9 7.7-19.2 7.7-9.6 0-18.6-5.5-20.8-16.4-.1-.4.2-.8.5-.8zM173 32c1.3-10.6 8.6-20 20.8-20s19.9 9.2 21.1 20c0 .4-.2.8-.6.8h-40.7c-.4-.1-.7-.4-.6-.8z"/>
</svg>
