<svg xmlns="http://www.w3.org/2000/svg" viewBox="0 0 2112.25 2011.641">
    <defs>
        <linearGradient id="a" x1="192.207" x2="914.21" y2="1683.361" y1="432.882" gradientUnits="userSpaceOnUse">
            <stop offset="0" stop-color="#2368c4"/>
            <stop offset=".5" stop-color="#1a5dbe"/>
            <stop offset="1" stop-color="#1146ac"/>
        </linearGradient>
    </defs>
    <path fill="#2B7CD3" d="M1148.159 502.913h872.057c50.829 0 92.034 41.205 92.034 92.034v821.766c0 50.829-41.205 92.034-92.034 92.034h-872.057c-50.829 0-92.034-41.205-92.034-92.034V594.947c0-50.829 41.205-92.034 92.034-92.034z"/>
    <path fill="#41A5EE" d="M1609.333 502.913a90.169 90.169 0 0 1-27.158 64.876L1207 942.965l-35.707 35.707a174.294 174.294 0 0 1-14.585 12.573 94.4 94.4 0 0 1-50.292 14.585 90.169 90.169 0 0 1-64.876-27.158L630.657 567.789c-31.013-30.579-36.069-78.823-12.07-115.168a109.223 109.223 0 0 1 12.07-14.585L1041.54 27.154c35.304-35.83 92.97-36.256 128.801-.952.32.315.637.632.952.952l410.883 410.883a90.172 90.172 0 0 1 27.157 64.876z"/>
    <path fill="#103F91" d="M1609.333 1508.746c-.012 277.753-225.186 502.907-502.939 502.895-179.658-.008-345.667-95.853-435.504-251.436a361.038 361.038 0 0 1-25.146-50.292 431.543 431.543 0 0 1-19.111-50.292c-83.326-264.96 63.917-547.301 328.877-630.627a502.93 502.93 0 0 1 150.906-23.165c17.099 0 33.695 1.006 50.292 2.515a403.308 403.308 0 0 1 50.292 7.544c234.009 48.105 402.051 253.956 402.333 492.858z"/>
    <path fill="#000" fill-opacity=".1" d="M1207 544.655v1073.224c-.25 37.292-22.849 70.794-57.333 84.993a89.104 89.104 0 0 1-34.701 7.041H645.745a431.543 431.543 0 0 1-19.111-50.292c-83.326-264.96 63.917-547.301 328.877-630.627a502.93 502.93 0 0 1 150.905-23.165 90.169 90.169 0 0 1-64.876-27.158L630.657 567.789c-31.013-30.579-36.069-78.823-12.07-115.168h496.379c34.426.206 65.859 19.609 81.473 50.292A84.442 84.442 0 0 1 1207 544.655z"/>
    <path fill="#000" fill-opacity=".2" d="M1156.708 594.947v1073.224a89.096 89.096 0 0 1-7.041 34.701c-14.199 34.484-47.701 57.083-84.993 57.333H670.891a361.038 361.038 0 0 1-25.146-50.292 431.543 431.543 0 0 1-19.111-50.292c-83.326-264.96 63.917-547.301 328.877-630.627a502.93 502.93 0 0 1 150.906-23.165 90.169 90.169 0 0 1-64.876-27.158L630.657 567.789a90.172 90.172 0 0 1-27.157-64.876h461.175a89.52 89.52 0 0 1 66.888 29.672 90.525 90.525 0 0 1 25.145 62.362z"/>
    <path fill="#000" fill-opacity=".2" d="M1156.708 594.947v972.641c-.383 50.669-41.365 91.651-92.034 92.034h-438.04c-83.326-264.96 63.917-547.301 328.877-630.627a502.93 502.93 0 0 1 150.906-23.165 90.169 90.169 0 0 1-64.876-27.158L630.657 567.789a90.172 90.172 0 0 1-27.157-64.876h461.175a89.52 89.52 0 0 1 66.888 29.672 90.525 90.525 0 0 1 25.145 62.362z"/>
    <path fill="#000" fill-opacity=".2" d="M1106.417 1005.83v561.758c-.383 50.669-41.364 91.651-92.034 92.034H626.634c-83.326-264.96 63.917-547.301 328.877-630.627a502.9 502.9 0 0 1 150.906-23.165z"/>
    <path fill="url(#a)" d="M92.185 502.913h922.047c50.912 0 92.185 41.272 92.185 92.185v922.047c0 50.912-41.272 92.185-92.185 92.185H92.185C41.272 1609.33 0 1568.057 0 1517.145V595.098c0-50.912 41.272-92.185 92.185-92.185z"/>
    <path fill="#FFF" d="M523.033 1153.084c16.932 49.889 26.99 81.372 30.175 94.448h2.062c3.051-13.076 13.931-46.788 32.639-101.136l134.128-389.962h123.315l-227.57 599.326H485.717l-224.2-599.326h126.836l134.68 396.65z"/>
</svg>